<?xml version="1.0" encoding="utf-8"?>
<svg xmlns="http://www.w3.org/2000/svg" viewBox="0 0 392.86 202.79"><defs><style>.cls-1{isolation:isolate;}.cls-2{fill:#f9f9e8;}.cls-3{fill:#ffcaab;}.cls-4{fill:#b9babc;}.cls-5{fill:#a3a3a3;}.cls-6{fill:#41bbbc;}.cls-7{fill:#00b5b6;}.cls-8{fill:#75c7c8;}.cls-9{fill:#9dd5d6;}.cls-10{fill:#555658;}.cls-11{fill:#fff;}.cls-12{fill:#e0ccc1;}.cls-13{fill:#eda073;}.cls-14{fill:#5fc1c2;}.cls-15{fill:#492b1d;}.cls-16{fill:#67789e;}.cls-17{fill:#ffb68c;}.cls-18{fill:#794b35;}.cls-19{fill:#7f93c2;}.cls-20{fill:#564340;}.cls-21{fill:#a4569f;}.cls-22{fill:#8c2a8c;}.cls-23{fill:#ad69a9;}.cls-24{fill:#cd876a;}.cls-25{fill:#fbad2e;}.cls-26{fill:#fdc370;}.cls-27{fill:#e8e5ff;}.cls-28{fill:#c9c5e9;}.cls-29{fill:#a098c9;}.cls-30{fill:#b7c545;}.cls-31{fill:#afbf33;}.cls-32{fill:#dee4ac;}.cls-33{fill:#d0d884;}.cls-34{fill:#bc1f40;}.cls-35{fill:#a76445;}.cls-36{fill:#b97457;}.cls-37{fill:#484759;}.cls-38{fill:#605f77;}.cls-39{fill:#6f615f;}.cls-40{fill:#301d1a;}.cls-41{fill:#a1569d;}.cls-42{fill:#8a2a8a;}.cls-43{fill:#f9ab2f;}.cls-44{fill:#07b3b5;}.cls-45{fill:#e0e0e0;}.cls-46{fill:#cb4e99;}.cls-47{fill:#c79ec7;}.cls-48{fill:#adbd34;}.cls-49{fill:#556173;}.cls-50{fill:#fdd9a4;}.cls-51{fill:#fdb753;}.cls-52{fill:#b7b8ba;}.cls-53{fill:#e3a2c7;}.cls-54{fill:#dce2aa;}.cls-55{fill:#9bd3d4;}.cls-56{fill:#e5e6e7;}.cls-57{fill:#6d6e70;}.cls-58{fill:#f0f0f1;}.cls-59{fill:#babcbe;}.cls-60{fill:#808083;}.cls-61{fill:#7494aa;}.cls-62{fill:#74c5c6;}.cls-63{fill:#95a00b;}.cls-64{fill:#d7d7d7;}.cls-65{fill:#e1e1e1;}.cls-66{fill:#f7cfe4;}.cls-67{fill:#b8b8b8;}.cls-67,.cls-68{mix-blend-mode:overlay;}.cls-68{fill:#e471b1;}.cls-69{fill:#666;mix-blend-mode:screen;}.cls-70{fill:#ffd99e;}.cls-71{fill:#ffc05f;}.cls-72{fill:#dbe4a4;}.cls-73{fill:#aac000;}.cls-74{fill:#b2b100;}.cls-75{fill:none;stroke:#b2b100;stroke-miterlimit:10;}</style></defs><g class="cls-1"><g id="Layer_2" data-name="Layer 2"><g id="Layer_1-2" data-name="Layer 1"><path class="cls-2" d="M191.33,5.68c-54.81,9-89.82-12.79-119.77,2.24S17.33,57.19,21.33,93.2c1.4,12.61,6,25.7,1.87,37.55C18.09,145.32.94,153.48,0,169.08c-1.09,18.82,21,27,38,28.66,98.1,9.42,197,4.83,294.88-6.88,14.56-1.74,29.66-3.84,42-12.46s21.21-25.71,16.64-41.06c-7-23.44-40.69-34.67-36.24-58.84,1.89-10.21,10.69-17.57,12.51-27.79,3.13-17.57-14.77-30.18-30.08-36.13C289-4.43,237.91-1.93,191.33,5.68Z"/><g id="_4" data-name="4"><polygon class="cls-3" points="222.55 186.29 222.78 190.9 228.97 190.9 230.04 185.75 222.55 186.29"/><path class="cls-4" d="M231.76,195.51H212.45c2-3.63,5.18-4.89,8.46-7a4.49,4.49,0,0,1,.83-.46,1.67,1.67,0,0,1,.63-.1,6.44,6.44,0,0,1,2.39.71,3.8,3.8,0,0,0,2.61,1.31,3.58,3.58,0,0,0,2.14-1.45A15.07,15.07,0,0,1,231.76,195.51Z"/><path class="cls-5" d="M224.78,191.62c-1.93.86-3.09,2.45-4.52,3.89h-7.81c2-3.63,5.18-4.89,8.46-7a4.49,4.49,0,0,1,.83-.46c0,.23.09.46.15.68.13.52,1.35,1,1.63,1.48S224.48,191.07,224.78,191.62Z"/><polygon class="cls-3" points="250.34 185.21 251.21 190.35 257.61 190.46 258.21 184.83 250.34 185.21"/><path class="cls-4" d="M260,195.41l-7.21.07-3.35,0a13.51,13.51,0,0,1,1.41-6.76c-.05.1.22.58.28.68,1-.45,1.29-1.9,2.34-2.44a1.65,1.65,0,0,1,.65-.2,2.71,2.71,0,0,1,2.05.79,8.18,8.18,0,0,1,1.43,1.89,3.69,3.69,0,0,0,.43-.92A20.62,20.62,0,0,1,260,195.41Z"/><path class="cls-5" d="M254.11,190.25a4.37,4.37,0,0,0-1.13,2.61c-.12.87-.1,1.75-.2,2.62l-3.35,0a13.51,13.51,0,0,1,1.41-6.76c-.05.1.22.58.28.68,1-.45,1.29-1.9,2.34-2.44a13.69,13.69,0,0,1-.48,2.17.29.29,0,0,0,0,.16c0,.06.07.09.11.13Z"/><path class="cls-4" d="M238.21,126.36C237,133,235.67,138,235.67,138l-.55,4.37s-.48,18.83-1.51,28.09-2.68,16.82-2.68,16.82L225,187.2l-3.79-.07s1-41.74,1.36-45.4c.26-2.57-.65-19.69-.47-32.31.07-5.4.34-10,1-12.24,2.17-7.55,16.88,9.56,16.88,9.56s0,.07,0,.1C240.28,112.87,239.31,120.28,238.21,126.36Z"/><path class="cls-5" d="M238.21,126.36c-.14,1-.28,2-.45,3s-.33,2-.51,2.94c-.36,2-.77,3.92-1.23,5.87v0l-.48,4.39v-.05c-.05,3.77-.14,7.54-.3,11.3-.08,1.88-.16,3.77-.28,5.65s-.22,3.76-.37,5.64-.33,3.76-.56,5.64-.51,3.74-.82,5.6-.65,3.71-1,5.56-.77,3.69-1.25,5.51c.62-3.72,1.14-7.44,1.6-11.17s.84-7.46,1.06-11.21.41-7.51.6-11.26l.49-11.28v0h0l.63-4.37v-.05c.27-.95.53-1.91.78-2.87l.74-2.89C237.32,130.24,237.76,128.3,238.21,126.36Z"/><path class="cls-5" d="M238.21,126.36a11.92,11.92,0,0,0-2.27.53,11.41,11.41,0,0,0-5.66,4.78c-1.81,3-2.49,6.47-3,9.91C225,156.65,224.85,172,225,187.2l-3.79-.07s1-41.74,1.36-45.4c.26-2.57-.65-19.69-.47-32.31a57.15,57.15,0,0,1,6.87-1.36l7.47-1.16a10.28,10.28,0,0,1,3.54-.06C240.28,112.87,239.31,120.28,238.21,126.36Z"/><path class="cls-4" d="M259.15,186.29h-9.91S244,146.66,243.75,143c-.12-2.06-2.76-13-4.91-23.55-1.7-8.4-3.09-16.62-2.67-20.08,1-7.84,19.23,5.86,19.23,5.86a69.26,69.26,0,0,1,1.29,11.32c.06,1.72.1,3.45.1,5.11,0,8.24-.7,15.21-.7,15.21l.14,4.41s2.48,18.62,2.92,27.94S259.15,186.29,259.15,186.29Z"/><path class="cls-5" d="M256.79,121.65c.21,5.41-.11,10.82.07,16.18.11,2.68.32,5.37.57,8s.57,5.35.89,8,.6,5.37.83,8.07.4,5.4.46,8.1a143.74,143.74,0,0,1-.46,16.21c0-2.7,0-5.4-.07-8.1s-.16-5.38-.31-8.07-.37-5.37-.64-8.05-.56-5.36-.88-8-.63-5.36-.84-8.06c-.1-1.35-.19-2.7-.26-4.06s-.13-2.7-.13-4.06C256,132.42,256.58,127.05,256.79,121.65Z"/><path class="cls-5" d="M232.32,140.9a16.8,16.8,0,0,1-.48,2.64,17.74,17.74,0,0,1-.82,2.56,16.59,16.59,0,0,1,.48-2.64A17.74,17.74,0,0,1,232.32,140.9Z"/><path class="cls-5" d="M253.74,138.79a13.73,13.73,0,0,1-.19,5.66c0-1,0-1.89,0-2.83S253.65,139.74,253.74,138.79Z"/><path class="cls-5" d="M246.59,141c2.29,15,4.33,30.16,4.55,45.33h-1.9S244,146.66,243.75,143c-.12-2.06-2.76-13-4.91-23.55l17.85-2.9c.06,1.72.1,3.45.1,5.11a19.87,19.87,0,0,0-5.86,2.88,12.33,12.33,0,0,0-3.22,3.18C245.21,131.5,245.9,136.47,246.59,141Z"/><path class="cls-6" d="M217.91,81.26a5.05,5.05,0,0,1-.52,2.11,4.43,4.43,0,0,1-1.94,1.55A48.61,48.61,0,0,1,210,87.14a46.15,46.15,0,0,1-10.82,2.23.54.54,0,0,1-.28,0,.56.56,0,0,1-.2-.25c-.76-1.55-2.61-2.41-3.64-3.79,1.34-1.5,12.58-9.52,14.52-10.12,0,0,1.69-10.85,1.87-11.9.58-3.48.58-12.07,2.69-15,2.47-3.43,4.15,16.1,4.28,19.82A104.76,104.76,0,0,1,217.91,81.26Z"/><path class="cls-7" d="M210.25,75.2a5.5,5.5,0,0,1,3,.87,5.61,5.61,0,0,1,2.09,2.26,10.09,10.09,0,0,0-2.28-2A9.87,9.87,0,0,0,210.25,75.2Z"/><path class="cls-3" d="M189.78,84.62a2.2,2.2,0,0,0-.78.31,2.38,2.38,0,0,0-.64.83,6.67,6.67,0,0,0-.81,1.76,18.45,18.45,0,0,0-.3,2.09.78.78,0,0,0,0,.37,1,1,0,0,0,.15.24,2.43,2.43,0,0,1,.46,1.22.64.64,0,0,0,.61-.18,1.8,1.8,0,0,0,.35-.58,6,6,0,0,0,.58-1.7.32.32,0,0,1,.07-.19.26.26,0,0,1,.19-.06c.77-.07,1.54-.17,2.31-.22.4,0,1.33-.21,1.22.39s-2,1.06-2.48,1.47a2.24,2.24,0,0,0-.75,2.15c1.47-.58,2.78-.13,4.22-.4a4,4,0,0,0,1.56-.79c.9-.63,2.23-1.26,2.83-2.21s-.39-2.41-1-3.07c-1.05-1.13-2.52-1.32-4-1.47A11.72,11.72,0,0,0,189.78,84.62Z"/><path class="cls-8" d="M259.73,116.74S249,124,239.63,125.41l-1.92-4.23-1,4.52a69.22,69.22,0,0,1-11.64.31c-2.33-.2-4.35-.66-5.27-1.56,0,0-.16-29.9-.92-33.86s-5-26.77-5.21-31.37.18-10.94.18-10.94l7.17-4.45.75-.18,9.16-2.2s12.18,1.44,15.55,3.63a1.47,1.47,0,0,1,.45.5c2.71,4.31.69,29.22.82,31.77.06,1.19.27,3.87.68,7a50.64,50.64,0,0,0,2.65,11.57C253.44,101.46,259.73,116.74,259.73,116.74Z"/><path class="cls-9" d="M231,41.45a28.67,28.67,0,0,1,4,.15c1.33.12,2.66.33,4,.58a31.29,31.29,0,0,1,3.91,1l1,.35.94.41c.31.15.6.33.9.5a8.22,8.22,0,0,1,.82.6l-.48-.17a3.24,3.24,0,0,0-.47-.16c-.32-.08-.63-.2-1-.27l-1-.23-1-.22-3.9-.79c-1.3-.26-2.6-.52-3.9-.81S232.27,41.83,231,41.45Z"/><path class="cls-9" d="M248.47,84.32c.61,2.81,1.2,5.62,2,8.34.21.68.44,1.35.68,2,.12.33.25.66.39,1l.42,1,1.68,4,1.61,4c.52,1.34,1.06,2.67,1.56,4,1,2.69,2,5.39,2.9,8.13-1.3-2.57-2.51-5.18-3.67-7.8-.6-1.31-1.16-2.64-1.73-4l-1.67-4L251,97l-.39-1c-.13-.34-.26-.69-.37-1-.24-.7-.43-1.4-.6-2.11A47.83,47.83,0,0,1,248.47,84.32Z"/><path class="cls-6" d="M247.79,77.35c.06,1.19.27,3.87.68,7-.63.22-1.33.36-1.93.64a3.91,3.91,0,0,0-2.17,3.92c.13,1.05.64,2.29-.11,3a2.34,2.34,0,0,1-1.08.53c-4.29,1.21-8.49,4.82-12.9,5.45-.15,0-.49-2.63-.63-2.69s-.13,2.29-.15,2c-.11-1.43-.35-1.2.78-2.09,2-1.56,5.34-7.15,7.36-8.71,2.64-2.06,5.46-4.36,6.27-7.61.54-2.16.11-4.43-.28-6.63-.42-2.45-.77-4.92-1-7.4a39.54,39.54,0,0,1,.88-13,20.62,20.62,0,0,1,1.76-5.26,2,2,0,0,1,1.66-1C249.68,49.89,247.66,74.8,247.79,77.35Z"/><path class="cls-6" d="M221.81,43.65c-.26.74-1,1.6-1.16,2.3-.16.89.47,2.43.64,3.34.43,2.26.84,4.54,1.24,6.81l-3.39-4.79a2.55,2.55,0,0,1-.64-1.62l-.56,0c.27-.23.53-.68.24-.87a.51.51,0,0,0-.3,0c-.84.08-1.22.82-1.47,1.53a14.7,14.7,0,0,0-.56,5.45,34.92,34.92,0,0,0,3.29,14.09c3.49,7,1.39,16,3.74,23.41a33,33,0,0,1,1,3.49,29.74,29.74,0,0,1,.3,6.4,195.5,195.5,0,0,0,.93,22.83c-2.33-.2-4.35-.66-5.27-1.56,0,0-.16-29.9-.92-33.86s-5-26.77-5.21-31.37.18-10.94.18-10.94l7.17-4.45Z"/><rect class="cls-10" x="233.35" y="58.21" width="7.72" height="3.74" rx="1.18" transform="translate(-4.73 23.45) rotate(-5.6)"/><path class="cls-10" d="M237.11,59h0a.51.51,0,0,1-.54-.45l-.14-1.4a.5.5,0,0,1,.45-.55h0a.5.5,0,0,1,.54.45l.14,1.4A.5.5,0,0,1,237.11,59Z"/><path class="cls-7" d="M225,64.15c.44,2.35.89,4.7,1.39,7s1,4.68,1.48,7c1,4.67,2,9.35,3,14q.69,3.52,1.29,7.06c.19,1.18.4,2.36.57,3.55l.26,1.77a14.6,14.6,0,0,0,.33,1.75,33,33,0,0,0,1.31,3.31,34.27,34.27,0,0,1,1.14,3.42c.64,2.31,1.12,4.65,1.67,7-.61-2.31-1.14-4.65-1.84-6.93a35.47,35.47,0,0,0-1.17-3.38,33.75,33.75,0,0,1-1.38-3.33,17.9,17.9,0,0,1-.36-1.77l-.27-1.78c-.18-1.18-.38-2.35-.58-3.53-.42-2.36-.85-4.71-1.32-7.05-.91-4.7-1.93-9.37-2.89-14.06q-.72-3.51-1.39-7T225,64.15Z"/><path class="cls-7" d="M227.47,67.14c.11.52-.11,1-.49,1.07s-.76-.28-.86-.8.11-1,.49-1.07S227.37,66.62,227.47,67.14Z"/><path class="cls-7" d="M236.62,109.88a.87.87,0,0,1-.29,1.15c-.35.14-.8-.14-1-.63a.86.86,0,0,1,.28-1.15C236,109.11,236.42,109.39,236.62,109.88Z"/><path class="cls-7" d="M233.25,95.94c.06.52-.2,1-.57,1s-.74-.34-.8-.87.19-1,.57-1S233.18,95.41,233.25,95.94Z"/><path class="cls-7" d="M248.52,111.54a5.69,5.69,0,0,0,3-2.3,5.4,5.4,0,0,0,.1-3.57c-.63-3-2.73-8.79-2.75-8.85l-.06-.16-11.25,3.64.07.17c0,.07,2.55,6.6,3.51,8.64a5.78,5.78,0,0,0,2.55,3.11,3.63,3.63,0,0,0,1.84.26A10,10,0,0,0,248.52,111.54Zm.08-14.43c.34,1,2.11,5.94,2.68,8.63a5.16,5.16,0,0,1-.07,3.34,5.44,5.44,0,0,1-2.84,2.13c-1.45.66-3.12,1.3-4.52.68a5.52,5.52,0,0,1-2.38-2.93c-.86-1.84-3-7.37-3.43-8.44Z"/><path class="cls-7" d="M227.79,114.48a6.59,6.59,0,0,0,.69-3.59c0-2.12-.38-8.73-.39-8.79v-.19l-8.37.56v.18s.43,5.87.93,8.72a6.49,6.49,0,0,0,1.14,3.1,3.57,3.57,0,0,0,2.66,1,7.94,7.94,0,0,0,1.38,0A2.55,2.55,0,0,0,227.79,114.48Zm0-12.18c.06,1.08.37,6.67.38,8.59a6.26,6.26,0,0,1-.63,3.39c-.68,1-1.86,1-3,.88a3.24,3.24,0,0,1-2.41-.92,6.16,6.16,0,0,1-1.07-2.93c-.45-2.55-.83-7.5-.9-8.51Z"/><polygon class="cls-11" points="220.52 44.63 221.59 51.3 223.61 57.99 225.31 62.66 230.77 49.88 232.22 43.49 231.7 41.38 220.52 44.63"/><path class="cls-12" d="M220.69,45.71a3,3,0,0,0,1,1.15,4.86,4.86,0,0,0,1.41.64,8.25,8.25,0,0,0,3.09.25,9,9,0,0,0,1.53-.29,9.87,9.87,0,0,0,1.46-.54,9.32,9.32,0,0,0,2.57-1.8,7.53,7.53,0,0,1-1.11,1.15,9.14,9.14,0,0,1-1.33.9,8.35,8.35,0,0,1-3.09.94,7.59,7.59,0,0,1-3.21-.34,4.77,4.77,0,0,1-1.42-.77A3,3,0,0,1,220.69,45.71Z"/><path class="cls-3" d="M231.46,41.74s-1.21,3.95-4.87,4.31a6.74,6.74,0,0,1-4.77-1,1.65,1.65,0,0,1-.76-1.19,22.21,22.21,0,0,1,.67-3.25l4.86-8.94.1-.18C227.41,34.68,231.46,41.74,231.46,41.74Z"/><path class="cls-13" d="M227.47,39.48v0a8.28,8.28,0,0,1-1.9,3.74c-1.07,1.2-2.29,1.32-3.74,1.78a1.65,1.65,0,0,1-.76-1.19,22.21,22.21,0,0,1,.67-3.25l4.86-8.94a8.43,8.43,0,0,1,.68,2.68A15.18,15.18,0,0,1,227.47,39.48Z"/><path class="cls-6" d="M221.21,44.82a14.6,14.6,0,0,0,.26,2.08,120.27,120.27,0,0,0,3.84,15.76c-1.74-4.48-4-8.84-6.09-13.13.45-.52.88-1.06,1.28-1.62a6.5,6.5,0,0,0-1.9-.39,7.76,7.76,0,0,1,3.48-6.42A7.37,7.37,0,0,0,221.21,44.82Z"/><path class="cls-6" d="M230.1,39.26s3-.29,4,1.06,1,6.35,1,6.35l-2.62.25,2.24,2.28L225,63.82l1.95-7.19s4-12.66,4-13.74A17.35,17.35,0,0,0,230.1,39.26Z"/><path class="cls-14" d="M232.56,46.92l1.16,1.1,1.15,1.11.06.06-.05.07c-.79,1.23-1.59,2.47-2.41,3.69S230.85,55.4,230,56.6s-1.65,2.44-2.5,3.63-1.69,2.41-2.56,3.59q1.15-1.87,2.36-3.72c.79-1.24,1.61-2.46,2.42-3.69s1.64-2.43,2.46-3.65,1.67-2.41,2.52-3.62v.13c-.37-.38-.73-.78-1.09-1.17Z"/><path class="cls-14" d="M234.14,40.32c.07.11.17.22.24.34s.13.24.18.37l.15.38.12.39a12.73,12.73,0,0,1,.32,1.61,22.2,22.2,0,0,1,.18,3.26v.14h-.14l-1.31.07c-.22,0-.44,0-.66,0s-.44,0-.66,0l.65-.11.65-.11,1.3-.18-.14.15c0-1.08-.1-2.15-.2-3.22-.06-.54-.11-1.07-.21-1.6A4.93,4.93,0,0,0,234.14,40.32Z"/><path class="cls-15" d="M210.64,31.74c-.85-.38-.25-5.14-2.16-3.91C206.75,29,209.62,31.29,210.64,31.74Z"/><path class="cls-16" d="M211.38,34.18l.76-.75.21.55-1,.85S211.26,34.22,211.38,34.18Z"/><path class="cls-3" d="M227.43,27.94c.09.89.07,1.65.16,2.54a20.26,20.26,0,0,1-.32,7.79c-.53,1.89-.65,3.14-2.25,4.39a3.2,3.2,0,0,1-1.05.55,2.25,2.25,0,0,1-.68.11,12.83,12.83,0,0,1-5.89-2.11A14.06,14.06,0,0,1,213.35,37c-.69-1.22-1.11-2.59-1.92-3.74-.33-.45-.7-.87-1-1.31a9.47,9.47,0,0,1-1.94-5.39,4.2,4.2,0,0,1,.77-2.73A7.8,7.8,0,0,1,211,22.29a31.05,31.05,0,0,1,4.25-2.55,13.8,13.8,0,0,1,2.06-.77,8.06,8.06,0,0,1,6.87.91,7.46,7.46,0,0,1,2.49,3.67A19.19,19.19,0,0,1,227.43,27.94Z"/><path class="cls-17" d="M224,43.21a2.25,2.25,0,0,1-.68.11,12.83,12.83,0,0,1-5.89-2.11A14.06,14.06,0,0,1,213.35,37c-.69-1.22-1.11-2.59-1.92-3.74-.33-.45-.7-.87-1-1.31a9.47,9.47,0,0,1-1.94-5.39,4.2,4.2,0,0,1,.77-2.73A7.8,7.8,0,0,1,211,22.29a31.05,31.05,0,0,1,4.25-2.55A3.74,3.74,0,0,1,217,22c.49,1.48-.39,3.57-1.12,4.84-.81,1.42-2,2.73-2.13,4.37a2.39,2.39,0,0,0,.25,1.31,6.73,6.73,0,0,0,.58.74c1.24,1.59,1.16,3.86,2.06,5.68a7.4,7.4,0,0,0,3.83,3.37A13.91,13.91,0,0,0,224,43.21Z"/><path class="cls-15" d="M215.25,26.64c-2.2,2.1-5.67,3.5-8.6,1.9-2.51-1.38-2.76-4.68-1.82-7.08a6.19,6.19,0,0,1,.55-1.09,5.73,5.73,0,0,0,.51-.86,5.87,5.87,0,0,0,.26-.81,7.2,7.2,0,0,1,2.52-3.23,12.46,12.46,0,0,1,6-2.79,7.7,7.7,0,0,1,6.23,1.7.92.92,0,0,0,.35.24,1,1,0,0,0,.51,0,5.35,5.35,0,0,1,4.73,1.49,8.23,8.23,0,0,1,2.2,4.48,21.14,21.14,0,0,1-.86,9,1.39,1.39,0,0,0-.84-1.38,2.48,2.48,0,0,0-1.72-.07,7,7,0,0,0-1.16-1.9,2.41,2.41,0,0,0-2-.81,6.31,6.31,0,0,0-.23-3.26,2.85,2.85,0,0,0-2.58-1.81c-1.6.07-1.41,1.81-1.77,2.89A8.61,8.61,0,0,1,215.25,26.64Z"/><path class="cls-18" d="M219.65,15.26a11.86,11.86,0,0,0-1.27-.43,11.61,11.61,0,0,0-1.3-.29,10.09,10.09,0,0,0-2.63-.06,8.59,8.59,0,0,0-2.54.67,7.35,7.35,0,0,0-2.2,1.48,6.27,6.27,0,0,1,.94-1,6.75,6.75,0,0,1,1.14-.74,7.49,7.49,0,0,1,2.62-.78,8.28,8.28,0,0,1,2.72.15A8.6,8.6,0,0,1,219.65,15.26Z"/><path class="cls-18" d="M217.74,16.26a10.18,10.18,0,0,0-3.07.3,9.6,9.6,0,0,0-2.8,1.23,9.75,9.75,0,0,0-2.25,2.05,9.23,9.23,0,0,0-.86,1.28,10.07,10.07,0,0,0-.66,1.41,7.29,7.29,0,0,1,.51-1.49,9.25,9.25,0,0,1,.79-1.36,8.34,8.34,0,0,1,2.28-2.19,8.44,8.44,0,0,1,2.93-1.2,9.08,9.08,0,0,1,1.56-.17A8.19,8.19,0,0,1,217.74,16.26Z"/><path class="cls-18" d="M216.45,18.8a8.49,8.49,0,0,0-.15,1.51,6.16,6.16,0,0,1-.23,1.53,5.89,5.89,0,0,1-1.65,2.61A7.1,7.1,0,0,1,211.73,26a9.55,9.55,0,0,1-1.5.33,9.81,9.81,0,0,1-1.53.08,12.21,12.21,0,0,0,2.94-.68,7.69,7.69,0,0,0,2.53-1.53,6.2,6.2,0,0,0,1.64-2.43C216.17,20.83,216.08,19.76,216.45,18.8Z"/><path class="cls-18" d="M221.47,18a1.94,1.94,0,0,1,1.23.43,2.87,2.87,0,0,1,.82,1,4.37,4.37,0,0,1,.37,1.25,7,7,0,0,1,.05,1.29,14.49,14.49,0,0,0-.74-2.39,3.49,3.49,0,0,0-.69-1A2.57,2.57,0,0,0,221.47,18Z"/><path class="cls-18" d="M223.49,16.25a1.79,1.79,0,0,1,.9.2,3.69,3.69,0,0,1,.74.56,7,7,0,0,1,1.19,1.4,6.75,6.75,0,0,1,1.09,3.46,12.57,12.57,0,0,0-.57-1.7,10.08,10.08,0,0,0-.82-1.56,9.83,9.83,0,0,0-1.09-1.41A2.58,2.58,0,0,0,223.49,16.25Z"/><path class="cls-3" d="M225.74,25.07a1.09,1.09,0,0,1,1.82-.09,2.86,2.86,0,0,1,.49,1,17.91,17.91,0,0,1,.54,2.54,6.37,6.37,0,0,1,.13,1.57,2.22,2.22,0,0,1-.62,1.42.22.22,0,0,1-.11.05.18.18,0,0,1-.1,0,3.48,3.48,0,0,1-.83-1.23c-.49-1-1-2-1.48-3.06A2.09,2.09,0,0,1,225.74,25.07Z"/><path class="cls-13" d="M226.91,25.38c.32.05.47.41.55.71a23.1,23.1,0,0,1,.54,3.19.27.27,0,0,0-.38.06.58.58,0,0,0-.08.41,2,2,0,0,1,.06.42c-.49-.72-.09-1.79-.62-2.49-.28-.37-.68-.66-.76-1.14S226.31,25.3,226.91,25.38Z"/><path class="cls-19" d="M221.8,32.05l-2.73,1.44a1.14,1.14,0,0,1-1.46-.4l-.51-.8a.92.92,0,0,1,.33-1.35l2.73-1.43a1.15,1.15,0,0,1,1.46.4l.51.8A.91.91,0,0,1,221.8,32.05Zm.09-1.23-.5-.78a.88.88,0,0,0-.84-.4.75.75,0,0,0-.3.09l-2.65,1.39a.71.71,0,0,0-.37.46.76.76,0,0,0,.11.6l.5.77a.91.91,0,0,0,.84.41.75.75,0,0,0,.3-.09l2.65-1.39A.72.72,0,0,0,221.89,30.82Z"/><path class="cls-19" d="M215.79,35.11l-2.51,1.26a1.14,1.14,0,0,1-1.45-.43l-.5-.81a.92.92,0,0,1,.36-1.33l2.52-1.27a1.14,1.14,0,0,1,1.45.43l.49.81A.93.93,0,0,1,215.79,35.11Zm.15-1.24-.49-.79a.91.91,0,0,0-.86-.43,1,1,0,0,0-.29.08L211.83,34a.74.74,0,0,0-.28,1.07l.48.79a.91.91,0,0,0,.87.42.74.74,0,0,0,.29-.08l2.46-1.24a.7.7,0,0,0,.38-.46A.76.76,0,0,0,215.94,33.87Z"/><polygon class="cls-19" points="220.73 29.45 225.38 26.02 225.38 26.47 221.29 29.73 220.73 29.45"/><path class="cls-19" d="M215.59,32.92l-.17-.06a1.28,1.28,0,0,1,.69-.72,1.51,1.51,0,0,1,1,0l-.06.17a1.27,1.27,0,0,0-.92,0A1.1,1.1,0,0,0,215.59,32.92Z"/><path class="cls-15" d="M221.56,28.58a21.06,21.06,0,0,0-2.55.94,9,9,0,0,1-1.66.62c-.42.08-.63-.18-.32-.49a3.84,3.84,0,0,1,1.41-.59A10.69,10.69,0,0,1,221.56,28.58Z"/><path class="cls-15" d="M211,33.75a15.35,15.35,0,0,1,2-1.26,5.83,5.83,0,0,0,1.28-.82c.27-.24.15-.54-.26-.5a3.1,3.1,0,0,0-1.14.66A7.5,7.5,0,0,0,211,33.75Z"/><path class="cls-13" d="M216.84,36.08a3.7,3.7,0,0,0,.62.75,2,2,0,0,0,.88.25,2.49,2.49,0,0,0,1.79-.6,1.68,1.68,0,0,1-.75.74,2,2,0,0,1-1.06.21,1.68,1.68,0,0,1-1-.38A2,2,0,0,1,216.84,36.08Z"/><path class="cls-20" d="M215,34.37a.41.41,0,0,1-.12.56.43.43,0,0,1-.51-.28.41.41,0,0,1,.13-.56A.42.42,0,0,1,215,34.37Z"/><path class="cls-20" d="M220,32a.4.4,0,0,1-.12.55.43.43,0,0,1-.51-.27.41.41,0,0,1,.13-.56A.42.42,0,0,1,220,32Z"/><path class="cls-13" d="M218.47,40.14a7.75,7.75,0,0,0,2.19-.86c.68-.39,1.32-.86,2-1.27a7.19,7.19,0,0,1-1.85,1.58,4.64,4.64,0,0,1-1.15.47A3.14,3.14,0,0,1,218.47,40.14Z"/><path class="cls-13" d="M220.63,40.48a1.6,1.6,0,0,1,.64-.6,1.56,1.56,0,0,1,.86-.2,2.56,2.56,0,0,1-.69.52A2.59,2.59,0,0,1,220.63,40.48Z"/><path class="cls-3" d="M227.43,95.06a4.78,4.78,0,0,0-1.21-.4c-1.09-.18-2.24.15-3.27-.24-.2-.08-.5-.16-.59,0a.34.34,0,0,0,0,.2c.09.7.77,1.16,1.38,1.52a2.62,2.62,0,0,1-1.44.85,4.45,4.45,0,0,0-1.56.67,1.24,1.24,0,0,0-.4,1.52c.1.17.27.32.29.52a1,1,0,0,1-.08.41,1.58,1.58,0,0,0,.31,1.43,1.7,1.7,0,0,1,.35.46c.13.35-.09.81.18,1.07s.35.15.5.26c.36.24.26.82.53,1.16a1.24,1.24,0,0,0,1,.31,10.47,10.47,0,0,0,4.82-1.55,5.16,5.16,0,0,0,2.55-2.17c.93-2.12-.7-4.72-2.58-5.68C228,95.31,227.69,95.17,227.43,95.06Z"/><path class="cls-17" d="M224.83,99.16a10.47,10.47,0,0,1,2.61-4.1h0a4.78,4.78,0,0,0-1.21-.4c-1.09-.18-2.24.15-3.27-.24-.2-.08-.5-.16-.59,0a.34.34,0,0,0,0,.2c.09.7.77,1.16,1.38,1.52a2.62,2.62,0,0,1-1.44.85,4.45,4.45,0,0,0-1.56.67,1.24,1.24,0,0,0-.4,1.52c.1.17.27.32.29.52a1,1,0,0,1-.08.41,1.58,1.58,0,0,0,.31,1.43,1.7,1.7,0,0,1,.35.46c.13.35-.09.81.18,1.07s.35.15.5.26c.36.24.26.82.53,1.16a1.24,1.24,0,0,0,1,.31,8.93,8.93,0,0,0,3.84-1l-.53-.11C224.89,103.49,223.93,101.06,224.83,99.16Z"/><path class="cls-8" d="M251.71,82.09a2.79,2.79,0,0,1-1.23,1.54c-2.1,1.61-6.54,6.59-8.4,8.45-3.63,3.63-7.08,7.08-10.35,8.9l-2.52-6.6c4.45-2.4,9.66-15.11,14.11-17.52,0,0,.6-15.75.57-16.82-.11-3.44.42-10.76,1.85-14.15a1.45,1.45,0,0,1,.09-.22c1.75-3.86,6.24,9.35,6.79,16.8a112,112,0,0,1-.36,17.44A11.06,11.06,0,0,1,251.71,82.09Z"/><path class="cls-6" d="M231.37,101.16c-.84-2.2-1.89-3.07-2.73-5.27,2.16-1.4,10.18-14.17,14.68-19,0,0,.6-15.75.57-16.82-.11-3.44.42-10.76,1.85-14.15,0,2-.58,4.19-.71,6.18a41.8,41.8,0,0,0,.46,9.48c.14.85.28,15.27.86,15.21-3.09,1.25-7.29,15.49-10.08,17.31a11.22,11.22,0,0,0-3.81,3.64c-.36.54-.17.4.31.84a1.57,1.57,0,0,0,.91.44C235.73,99.16,232.09,101.16,231.37,101.16Z"/><path class="cls-6" d="M244.53,76.74a5,5,0,0,1,2.63-.18,8.42,8.42,0,0,1,3.1,1.53,18.93,18.93,0,0,0-3.17-1.17A10.85,10.85,0,0,0,244.53,76.74Z"/></g><path class="cls-21" d="M226.5,194.3H202.75a4.45,4.45,0,0,1-4.31-4.58V159.86h32.37v29.86A4.45,4.45,0,0,1,226.5,194.3Z"/><path class="cls-22" d="M222.62,194.3H199.41a4.41,4.41,0,0,1-4.26-4.54v-29.9h31.74v29.9A4.41,4.41,0,0,1,222.62,194.3Z"/><path class="cls-22" d="M220.15,192.76H188.06a4.92,4.92,0,0,1-4.77-5.07V159.86h41.63v27.83A4.93,4.93,0,0,1,220.15,192.76Z"/><path class="cls-21" d="M190.61,94.83c2.85-.9,6.7-.26,6.86,3.14s10.43,43.4,10.43,43.4h19.34c3.69,0,6,2.62,5.42,6.24l-1.79,12.25H199.1l-11-58.8S186.59,96.12,190.61,94.83Z"/><path class="cls-22" d="M188.45,95.29c2.85-.91,5-.72,5.12,2.68S204,141.37,204,141.37h19.34c3.69,0,6,2.62,5.43,6.24l-1.83,12.25H195.2l-11-58.8S184.43,96.57,188.45,95.29Z"/><rect class="cls-21" x="193.04" y="153.72" width="39.18" height="7.92" rx="2.52"/><rect class="cls-22" x="186.93" y="153.72" width="10.65" height="7.92" rx="2.52"/><path class="cls-21" d="M187.54,194.26H162.81a4.53,4.53,0,0,1-4.38-4.66V159.86h33.49V189.6A4.53,4.53,0,0,1,187.54,194.26Z"/><path class="cls-22" d="M183.52,194.26H159.35a4.49,4.49,0,0,1-4.34-4.61V159.86h32.85v29.79A4.48,4.48,0,0,1,183.52,194.26Z"/><polygon class="cls-23" points="142.52 94.48 186.81 94.83 203.38 148.31 160.09 149.32 142.52 94.48"/><polygon class="cls-24" points="216.46 183.55 216.46 188.87 219.22 191.29 221.9 189.06 221.69 183.55 216.46 183.55"/><path class="cls-25" d="M215.23,194a23.87,23.87,0,0,1,0-5.07c.09-.62.14-2.26,1.09-1,.3.38.52.81.85,1.18.62.69.57,1.1,1.53,1.24,1.26.19,2-1.45,3-2.19a1.43,1.43,0,0,1,.67-.34c.17,0,.39,0,.49.12,1.83,2.37,6.33,2.7,7.85,4.05a4.86,4.86,0,0,1,.75,2.12C231.37,194.4,217.27,194.41,215.23,194Z"/><polygon class="cls-24" points="206.01 184.12 206.22 188.78 208.77 190.67 211.45 188.78 211.24 184.12 206.01 184.12"/><path class="cls-26" d="M204.85,194.17a29.33,29.33,0,0,1,.13-5.7c.12-.69.23-2.53,1.18-1.13.3.44.51.93.85,1.35.63.8.56,1.25,1.56,1.44,1.31.26,1.2-1.39,2.27-2.18a1.38,1.38,0,0,1,.71-.36c.18,0,.43,0,.51.15,1.44,3,3.78,3.53,5.32,5.09a2.27,2.27,0,0,1,.74,1.38C217.2,195.08,207,194.75,204.85,194.17Z"/><path class="cls-27" d="M222.36,184.1c-1.27,0-2.55,0-3.82,0-.84,0-1.68,0-2.53-.07-1.41-10.32-7.29-20-7.41-30.38a50.05,50.05,0,0,1-7.43.5,20.13,20.13,0,0,1-3.79-.46c-6.56-1.51-13.07-10.58-14-17.37,3.59-1.94,7.75-2.34,12-2.29,2.54,0,5.1.23,7.55.35h.38a48.12,48.12,0,0,1,11.44,2.42c2.2.66,4.51,1.38,6.11,3.06,2.25,2.38,2.5,6,2.55,9.32C223.55,160.84,223,172.48,222.36,184.1Z"/><path class="cls-11" d="M203.26,134.4a36,36,0,0,1,7.84,1.23c1.28.33,2.55.7,3.82,1.06a21.41,21.41,0,0,1,3.76,1.36,8.31,8.31,0,0,1,1.71,1.1,7.66,7.66,0,0,1,1.38,1.52,10.56,10.56,0,0,1,1.47,3.77,24.39,24.39,0,0,1,.39,4c0,1.33.05,2.65.06,4,0,5.3-.11,10.59-.36,15.87q-.2,4-.42,7.92c-.18,2.64-.34,5.28-.55,7.92l.51-15.85c.15-5.29.27-10.57.22-15.85,0-1.32,0-2.65,0-4a24.17,24.17,0,0,0-.36-3.9,9.85,9.85,0,0,0-1.36-3.58,7.52,7.52,0,0,0-1.27-1.43,8.27,8.27,0,0,0-1.6-1.07,20.89,20.89,0,0,0-3.65-1.41c-1.27-.39-2.53-.78-3.8-1.14A38.59,38.59,0,0,0,203.26,134.4Z"/><path class="cls-28" d="M218.54,184.11c-.84,0-1.68,0-2.53-.07-1.41-10.32-7.29-20-7.41-30.38a50.05,50.05,0,0,1-7.43.5,81.93,81.93,0,0,1-8.41-15.62,3.73,3.73,0,0,1-.36-1.45,3.35,3.35,0,0,1,1.88-2.43c1.88-1.17,3.32.34,5.1,1.28,2.1,1.09,4.22,2.15,6.4,3.08,3.42,1.46,7.41,3.32,11.17,2.77a11.82,11.82,0,0,1-2.24,3.43l1.47.05a6.35,6.35,0,0,0-.83,3C214.36,160.27,219,172.14,218.54,184.11Z"/><path class="cls-29" d="M213,144.74a27.65,27.65,0,0,1,2.34-1.86,14,14,0,0,1,2.59-1.51c-.8.6-1.6,1.17-2.41,1.75A24.55,24.55,0,0,1,213,144.74Z"/><path class="cls-29" d="M214,146.6a18.29,18.29,0,0,1,2.11-1.39,17.14,17.14,0,0,1,2.27-1.13A21.7,21.7,0,0,1,214,146.6Z"/><path class="cls-27" d="M211.94,185.06c-1.46,0-2.93,0-4.39,0-.65,0-1.31,0-2-.06-1.41-10.11-7-21.06-7.14-31.27-3.74.43-8.14.82-11.81,0-6.56-1.48-11.6-5.75-12.54-12.42a41.39,41.39,0,0,1,13.59-4.7,28.46,28.46,0,0,1,5.15-.25,49.54,49.54,0,0,1,11.44,2.37c2.2.64,4.51,1.35,6.11,3,2.25,2.33,2.5,5.89,2.55,9.13C213.13,162.26,212.54,173.67,211.94,185.06Z"/><path class="cls-11" d="M204.28,138.72a27.3,27.3,0,0,1,3,.93,9.87,9.87,0,0,1,2.78,1.59,7.66,7.66,0,0,1,1.91,2.6,12,12,0,0,1,.89,3.1,45.41,45.41,0,0,1,.34,6.37c0,2.12,0,4.24,0,6.36q-.12,6.36-.44,12.71l-.38,6.34c-.16,2.12-.3,4.23-.48,6.34.05-2.12.13-4.23.18-6.35l.22-6.35.19-6.35c.05-2.12.09-4.23.12-6.35s0-4.23,0-6.35a55.2,55.2,0,0,0-.25-6.31,12,12,0,0,0-.79-3,7.17,7.17,0,0,0-1.76-2.53,9.28,9.28,0,0,0-2.64-1.66C206.29,139.38,205.29,139.05,204.28,138.72Z"/><path class="cls-28" d="M207.55,185.06c-.65,0-1.31,0-2-.06-1.41-10.11-7-21.06-7.14-31.27-3.74.43-8.14.82-11.81,0-6.56-1.48-11.6-5.75-12.54-12.42a41.39,41.39,0,0,1,13.59-4.7c-.62,2.61-1.84,5.65-1.48,7.05.75,2.92,4,4.34,6.67,4.79a17.42,17.42,0,0,0,9.87-1.29c-1.73,7.42.68,15.08,2.36,22.51A117.77,117.77,0,0,1,207.55,185.06Z"/><path class="cls-29" d="M199.89,150.81a14.85,14.85,0,0,1,1.74-2.42,15.74,15.74,0,0,1,2.14-2.1c-.62.79-1.27,1.54-1.91,2.29S200.57,150.08,199.89,150.81Z"/><path class="cls-30" d="M228.67,96.17c.13.35.25.7.37,1s.27.78.41,1.17a1.59,1.59,0,0,1,.11,1,1.17,1.17,0,0,1-.49.52,65.63,65.63,0,0,1-10.26,6.08,22.38,22.38,0,0,1-11.71,2,30.61,30.61,0,0,1-7.77-2.31l-.14-.06a48.09,48.09,0,0,1-14.4-8.71c-4.83-4.44-3.56-10.85,1.44-10.4,6.93.63,15.73,7.44,22,11.3a4.63,4.63,0,0,0,1.48.69,4.09,4.09,0,0,0,2.14-.39,44.82,44.82,0,0,1,15.8-2.73,1.15,1.15,0,0,1,.67.16A1.31,1.31,0,0,1,228.67,96.17Z"/><path class="cls-31" d="M229,97.22c.13.39.27.78.41,1.17a1.59,1.59,0,0,1,.11,1,1.17,1.17,0,0,1-.49.52,65.63,65.63,0,0,1-10.26,6.08,22.38,22.38,0,0,1-11.71,2,30.61,30.61,0,0,1-7.77-2.31c-.44-.57-.86-1.17-1.27-1.77-1.76-2.63-3.32-5.58-3.51-8.67-.07-1,0-2.41.85-2.92s1.11.32,1.64,1a53.66,53.66,0,0,0,5.37,6.08,10.64,10.64,0,0,0,3.12,2.35,3.18,3.18,0,0,0,3.42-.31,2.35,2.35,0,0,0,1.35,2.11,4.4,4.4,0,0,0,2.4.3C218.68,103.34,223.59,99.54,229,97.22Z"/><path class="cls-32" d="M208.33,103a13.31,13.31,0,0,1,.51-1.83,15.61,15.61,0,0,1,.68-1.76,9.7,9.7,0,0,1-.43,1.88A9.37,9.37,0,0,1,208.33,103Z"/><path class="cls-32" d="M186.23,86.47l1.37.16,1.37.29,1.36.4,1.34.48a45.32,45.32,0,0,1,5.2,2.53c3.4,1.89,6.63,4.13,9.91,6.22.4.27.81.53,1.22.79a9.68,9.68,0,0,0,1.22.7,2.19,2.19,0,0,0,1.23.16,6.66,6.66,0,0,0,1.24-.36,39.52,39.52,0,0,1,5.15-1.51,42.14,42.14,0,0,1,10.78-1,50.83,50.83,0,0,0-5.4.42,44.35,44.35,0,0,0-5.26,1,48.78,48.78,0,0,0-5.07,1.57,7,7,0,0,1-1.32.4,3,3,0,0,1-.74,0,2.7,2.7,0,0,1-.74-.2,9.65,9.65,0,0,1-1.31-.73L206.54,97l-4.89-3.23c-1.63-1.07-3.27-2.1-4.94-3.09a46.7,46.7,0,0,0-5.11-2.65A19.69,19.69,0,0,0,186.23,86.47Z"/><path class="cls-24" d="M227.78,98.54a1.77,1.77,0,0,0,.57.75c.44.31,1.07.24,1.53.53a7.57,7.57,0,0,1,.76.74.79.79,0,0,0,1,.16.84.84,0,0,0,.13-1,2.82,2.82,0,0,1-.32-1,1.14,1.14,0,0,1,1.52-.86,2.32,2.32,0,0,1,1.26,1.5c.23.64.33,1.32.62,1.93a4,4,0,0,0-.56-7.77,5.66,5.66,0,0,0-2.09.06,11.16,11.16,0,0,0-4.2,1.69C226.62,96.23,227.14,97.24,227.78,98.54Z"/><path class="cls-32" d="M227.49,95.66a1.83,1.83,0,0,0-.32,1,2.73,2.73,0,0,0,.21,1,4.25,4.25,0,0,0,.52.93,4.65,4.65,0,0,0,.72.82,2.72,2.72,0,0,1-.91-.67,3.46,3.46,0,0,1-.61-1,2.44,2.44,0,0,1-.16-1.14A1.46,1.46,0,0,1,227.49,95.66Z"/><path class="cls-30" d="M205.36,134.32a71.18,71.18,0,0,0-14.19,3.42,80.79,80.79,0,0,0-15.29,7.2,2.28,2.28,0,0,1-2,.48,2.18,2.18,0,0,1-.81-.73c-5.46-7-7.14-13.79-8.66-22.32-.66-3.71-1.74-7.34-2.27-11.07a37.77,37.77,0,0,1-.18-9.14c.4-3.9,1.48-7.88,4-10.87a17.13,17.13,0,0,1,10.2-5.77A32.15,32.15,0,0,1,183,85c9.22.23,17.33,9.37,18.39,18.2.37,3-.52,6.42-2.93,8.33a19.42,19.42,0,0,1,5.75,10.79A54.76,54.76,0,0,1,205.36,134.32Z"/><path class="cls-32" d="M183,85a15.2,15.2,0,0,1,4.58.75,17.93,17.93,0,0,1,4.21,2,22.55,22.55,0,0,1,6.56,6.6,21.22,21.22,0,0,1,3.32,8.73,10.9,10.9,0,0,1-.4,4.71,8,8,0,0,1-2.64,3.94v-.42a16.47,16.47,0,0,1,3.74,4.92,23,23,0,0,1,2,5.84,54.29,54.29,0,0,1,.88,6.08,52.28,52.28,0,0,1,.14,6.13,59.1,59.1,0,0,0-.38-6.1c-.25-2-.58-4-1-6a23.16,23.16,0,0,0-2.05-5.69,16.2,16.2,0,0,0-3.66-4.75l-.25-.22.26-.2a7.52,7.52,0,0,0,2.43-3.69,10.84,10.84,0,0,0,.39-4.46,20.86,20.86,0,0,0-3.18-8.52A24.69,24.69,0,0,0,195.08,91a20.39,20.39,0,0,0-5.47-4.16A16.35,16.35,0,0,0,183,85Z"/><path class="cls-31" d="M191,137.23c-1.5,1.28-3.39,1.81-5.49,2.72a79.2,79.2,0,0,0-9.64,5,2.28,2.28,0,0,1-2,.48,2.18,2.18,0,0,1-.81-.73c-5.46-7-7.14-13.79-8.66-22.32-.66-3.71-1.74-7.34-2.27-11.07a37.77,37.77,0,0,1-.18-9.14c.4-3.9,1.48-7.88,4-10.87a17.13,17.13,0,0,1,10.2-5.77,3.56,3.56,0,0,1-.15,3.3c-.47.63-1.4.93-1.94,1.58a8.72,8.72,0,0,0-1.63,3.21,16.12,16.12,0,0,0-.33,5.67,57.36,57.36,0,0,0,1.8,8.3,7.34,7.34,0,0,0,4,5.38,15,15,0,0,0,6.87,1.19,36.12,36.12,0,0,0,13.1-2.73,17.38,17.38,0,0,0-1.85,1.46,15.7,15.7,0,0,1-2.28,1.15c-1.66.7-3.4,1.2-5.09,1.83a22.21,22.21,0,0,0-4.53,2.37c-1.6,1.06-1.81,2.74-1.28,4.61a12.49,12.49,0,0,0,2.2,4,41,41,0,0,0,7.43,7.57.57.57,0,0,1,.25.32.65.65,0,0,1-.1.37A7,7,0,0,1,191,137.23Z"/><path class="cls-32" d="M174,87.77a16.82,16.82,0,0,0,2,4.72,9.48,9.48,0,0,0,3.66,3.45,7.29,7.29,0,0,0,2.4.79c.21,0,.42,0,.63.06a2.68,2.68,0,0,1,.67.07,2,2,0,0,1,.61.3c.18.11.36.23.54.33a4.33,4.33,0,0,0,2.36.7,1.61,1.61,0,0,0,1-.49,2.41,2.41,0,0,0,.58-1l.05-.18.17.1a3,3,0,0,0,1.94.33,1.85,1.85,0,0,0,.89-.39,1.25,1.25,0,0,0,.41-.84v-.15h0s0-.06,0-.08,0,0,0,0h0l.07,0,.22-.14a3.82,3.82,0,0,0,.42-.28l.35-.37c.09-.14.2-.27.28-.42a2.37,2.37,0,0,0,.07-1.95,5.78,5.78,0,0,0-1.14-1.73,10.36,10.36,0,0,0-1.58-1.37L189,87.83l-.85-.63-.43-.32a.33.33,0,0,0-.23-.09.06.06,0,0,0-.05.09l.06,0a0,0,0,0,0,0,0s0,0,0,0a.09.09,0,0,1-.06,0s0-.1.05-.1a.32.32,0,0,1,.24.09l.44.3.87.6,1.74,1.2a10.13,10.13,0,0,1,1.64,1.36,6,6,0,0,1,1.21,1.77,2.6,2.6,0,0,1-.05,2.15,4.53,4.53,0,0,1-.3.46l-.37.4a4.65,4.65,0,0,1-.46.31l-.22.14-.05,0h0l0,0a.09.09,0,0,0,0,0s0,0,0,0v.2a1.48,1.48,0,0,1-.49,1,2,2,0,0,1-1,.46,3.2,3.2,0,0,1-2.14-.36l.21-.08a2.65,2.65,0,0,1-.65,1.18,1.92,1.92,0,0,1-1.23.58,4.71,4.71,0,0,1-2.52-.75c-.19-.11-.37-.23-.55-.35a2.1,2.1,0,0,0-.54-.27,2.87,2.87,0,0,0-.61-.06c-.21,0-.43,0-.65-.07a7.44,7.44,0,0,1-2.47-.83,9.93,9.93,0,0,1-3.69-3.59A16.61,16.61,0,0,1,174,87.77Z"/><path class="cls-32" d="M182,115.91l4.14-.88c1.38-.29,2.76-.57,4.14-.88.69-.15,1.38-.29,2.06-.46s1.35-.37,2-.59a17.23,17.23,0,0,0,1.95-.78,20.83,20.83,0,0,0,1.88-1,18.66,18.66,0,0,1-1.81,1.11,19.73,19.73,0,0,1-1.94.86,28,28,0,0,1-4.1,1.12c-1.38.28-2.76.57-4.16.81S183.4,115.73,182,115.91Z"/><path class="cls-32" d="M188.58,96.69c.87,1.07,1.76,2.14,2.55,3.29a17.1,17.1,0,0,1,1.9,3.71,11.38,11.38,0,0,1,.65,4.13,9.68,9.68,0,0,1-.31,2.07,8.46,8.46,0,0,1-.77,1.93,10.51,10.51,0,0,0,.63-2,10.7,10.7,0,0,0,.22-2,12,12,0,0,0-.7-4,18.3,18.3,0,0,0-1.81-3.69c-.35-.59-.76-1.15-1.16-1.72Z"/><path class="cls-32" d="M190.85,97.65c.16.23.16.51,0,.61s-.4,0-.56-.24-.17-.51,0-.62S190.69,97.41,190.85,97.65Z"/><path class="cls-32" d="M193.68,102.25c.14.26.12.54,0,.62s-.4-.05-.53-.31-.12-.53,0-.62S193.55,102,193.68,102.25Z"/><path class="cls-32" d="M194.55,109c0,.29-.2.51-.38.49s-.3-.26-.27-.55.2-.51.38-.49S194.58,108.71,194.55,109Z"/><path class="cls-24" d="M196.74,136l-.19-.05c-.4-.11-.79-.22-1.18-.37s-1.77-1.36-2.18-1.08a3,3,0,0,0,2.44,5.35c.45,0,.89-.19,1.35-.22a8.28,8.28,0,0,1,2.52.33,11,11,0,0,0,6.51.82c1.45-.3-.21-.94-.73-1.31a19.7,19.7,0,0,0-6.32-2.93C198.23,136.31,197.48,136.16,196.74,136Z"/><path class="cls-33" d="M194.87,135.11a1.29,1.29,0,0,1-.33.72l-1.47,1.91v0a1.43,1.43,0,0,1-.77.61,1.53,1.53,0,0,1-.81-.16,86.53,86.53,0,0,1-12.57-6,28.58,28.58,0,0,1-9.9-9.49,34.11,34.11,0,0,1-3.33-8.46c-1.61-5.79-2.68-11.82-2.09-17.79.63-6.31,6.41-8.81,9.67-5.33a5.64,5.64,0,0,1,.72.92c4.22,6.62,4.15,18.31,5,26.08a4.8,4.8,0,0,0,.4,1.71,5.22,5.22,0,0,0,1.83,1.72,57.69,57.69,0,0,1,13.38,12.8A1.24,1.24,0,0,1,194.87,135.11Z"/><path class="cls-32" d="M179,118.19a6.87,6.87,0,0,0,.34,1.37,2.81,2.81,0,0,0,.84,1.09,9.41,9.41,0,0,0,1.15.8l1.19.8A48.46,48.46,0,0,1,187,125.8a47.25,47.25,0,0,1,4.06,4.07,41.66,41.66,0,0,1,3.5,4.55q-1.87-2.17-3.84-4.23c-1.33-1.37-2.69-2.69-4.12-3.94s-2.89-2.46-4.4-3.62c-.37-.29-.76-.57-1.14-.85a9.87,9.87,0,0,1-1.13-.92,3,3,0,0,1-.79-1.24A5.85,5.85,0,0,1,179,118.19Z"/><path class="cls-30" d="M193.06,137.76a1.43,1.43,0,0,1-.77.61,1.53,1.53,0,0,1-.81-.16,86.53,86.53,0,0,1-12.57-6,28.58,28.58,0,0,1-9.9-9.49,34.11,34.11,0,0,1-3.33-8.46c-1.61-5.79-2.68-11.82-2.09-17.79.63-6.31,6.41-8.81,9.67-5.33l0,0a3.66,3.66,0,0,0-3.51.54,7,7,0,0,0-2.15,3,19.07,19.07,0,0,0-1.28,5.94,39.79,39.79,0,0,0,2.17,16.62,9.39,9.39,0,0,0,1.78,3.29,3.71,3.71,0,0,0,3.36,1.26,4.32,4.32,0,0,0,.84,2.33c2.24,3.55,5.89,6.09,9.29,8.44A54.29,54.29,0,0,0,193.06,137.76Z"/><path class="cls-34" d="M194.56,134.42a1.49,1.49,0,0,1,.35.53.87.87,0,0,1-.1.65c-.23.37-.49.68-.73,1s-.51.65-.78,1a2.1,2.1,0,0,1-1,.76,1.61,1.61,0,0,0,.47-.39,4.45,4.45,0,0,0,.38-.48c.23-.34.48-.67.73-1l.38-.49c.13-.16.27-.32.38-.48a.71.71,0,0,0,.14-.54A1.77,1.77,0,0,0,194.56,134.42Z"/><path class="cls-32" d="M172.44,122.82a5.94,5.94,0,0,1,2.17-1.67,5.86,5.86,0,0,1,2.67-.56,12.89,12.89,0,0,0-2.55.83A12.33,12.33,0,0,0,172.44,122.82Z"/><path class="cls-32" d="M174,92.11a21.35,21.35,0,0,1,2.65,6.14,49.29,49.29,0,0,1,1.27,6.58c.28,2.22.47,4.45.62,6.68l.21,3.34.1,1.67.12,1.67c-.29-2.22-.47-4.44-.66-6.67s-.39-4.44-.68-6.65a53.69,53.69,0,0,0-1.2-6.56,27.26,27.26,0,0,0-1-3.18,7.52,7.52,0,0,0-.32-.78l-.33-.76c-.11-.26-.26-.49-.39-.74Z"/><path class="cls-24" d="M190.86,94.4c-.65,1.61-2.72,2.11-4.44,1.89-3.63-.46-6.6-3-9.21-5.6A16.92,16.92,0,0,1,175.64,89a6.54,6.54,0,0,1-.77-1.19,1.5,1.5,0,0,1-.18-.68,1.71,1.71,0,0,1,.37-.81A12.76,12.76,0,0,0,177,81.66c.28-1.39-.23-3.52,1.64-2.45,2.41,1.39,3.86,4,6.37,5.31a2,2,0,0,1,.84.61,1.3,1.3,0,0,1,.14.29c.05.15.08.32.12.48.41,1.66,1.87,2.78,3.08,4S191.49,92.82,190.86,94.4Z"/><path class="cls-35" d="M186.1,85.34a.77.77,0,0,1,.17.43c0,.42-.51.64-.93.67s-.9,0-1.18.34a.86.86,0,0,0,.49.43,13.36,13.36,0,0,0-3.28.29.87.87,0,0,0,.82.5,17.27,17.27,0,0,0-6.55,1,6.54,6.54,0,0,1-.77-1.19,1.5,1.5,0,0,1-.18-.68,1.71,1.71,0,0,1,.37-.81A12.76,12.76,0,0,0,177,81.66c.28-1.39-.23-3.52,1.64-2.45a19.06,19.06,0,0,1,3.67,3.22,13.57,13.57,0,0,0,1.92,1.63,7.34,7.34,0,0,1,1.82,1.22Z"/><path class="cls-24" d="M192,76.4a19.75,19.75,0,0,1-.38,3.17,17.44,17.44,0,0,1-2.93,5.28,3.71,3.71,0,0,1-3,1.44,3.57,3.57,0,0,1-1.76-.42c-.61-.33-1.11-.83-1.69-1.21s-1.18-.61-1.76-.94c-2-1.1-3.15-3.21-4-5.22-.42-1-.62-2.08-1.13-3a14.62,14.62,0,0,1-1.57-3.74,8.32,8.32,0,0,1,1.29-6.45,5.39,5.39,0,0,1,.45-.59,12.47,12.47,0,0,1,2.95-2.51,11.72,11.72,0,0,1,3.23-1.55,8.67,8.67,0,0,1,10.88,6.45C193.26,70.13,192.26,73.28,192,76.4Z"/><path class="cls-36" d="M185.7,86.29a3.57,3.57,0,0,1-1.76-.42c-.61-.33-1.11-.83-1.69-1.21s-1.18-.61-1.76-.94c-2-1.1-3.15-3.21-4-5.22-.42-1-.62-2.08-1.13-3a14.62,14.62,0,0,1-1.57-3.74,8.32,8.32,0,0,1,1.29-6.45,5.39,5.39,0,0,1,.45-.59,10.88,10.88,0,0,1,4.78-2.51c1.25-.26,2.79-.1,3.4,1,.41.72.46,1.86,1.28,2l.06,1.11A3.5,3.5,0,0,1,182,69c.35.71-.39,1.49-.39,2.29a6.24,6.24,0,0,0,.64,1.71c.52,1.58-.74,3.23-1,4.78A11,11,0,0,0,181.8,83L182,82C182.42,83.93,184,85.29,185.7,86.29Z"/><path class="cls-37" d="M178.27,71a1.76,1.76,0,0,1,.12,1.95c-.43.73-1.35,1.07-1.75,1.81-.53,1,0,2.14.14,3.23a1.1,1.1,0,0,1-.1.76,1,1,0,0,1-.6.4,2.08,2.08,0,0,1-2.45-1.28,2.06,2.06,0,0,1-2.36-1.83,2.24,2.24,0,0,1-2.28-3,2.5,2.5,0,0,1-.79-3.72c-.4.18-.74-.34-.83-.76-.23-1.06,0-2.39,1-2.78-.57,0-1-.56-1.11-1.11A2.63,2.63,0,0,1,168.4,62a3.43,3.43,0,0,1,2.81-4.15,2.48,2.48,0,0,1,2.93-2.18,2.93,2.93,0,0,1,3.31-2,3.08,3.08,0,0,1,4.11-1.2,2.61,2.61,0,0,1,3.37-.16,2.69,2.69,0,0,1,1.58-.15,1.31,1.31,0,0,1,1,1.12,2,2,0,0,1,2.66,1.37,2.29,2.29,0,0,1,2.07,2.12,1.86,1.86,0,0,1,1.44,1.34,2.39,2.39,0,0,0,.17.61,2.26,2.26,0,0,0,.53.54,1.91,1.91,0,0,1,.48,1.95,1.69,1.69,0,0,1,.25,2.16,2.17,2.17,0,0,1-.31,2.88,1.2,1.2,0,0,1,.24,1.3c-.18.38-.55.64-.69,1a3.88,3.88,0,0,0-.12.76,1.76,1.76,0,0,1-1.52,1.41c0-.19,0-1.82-.09-1.83a.68.68,0,0,1-.51-.41,2.78,2.78,0,0,1-.4-1.49,1.13,1.13,0,0,1-.95-.46c-.09-.1-.58-.79-.44-.93a1.32,1.32,0,0,1-2-.36,1.51,1.51,0,0,1-1.17,1.3,3.69,3.69,0,0,1-1.86-.12,1.59,1.59,0,0,1-2.38,1c.35.25-1.5.94-1.7.94a3.93,3.93,0,0,1-2.94-1.92C179.16,67.85,180.29,69.94,178.27,71Z"/><path class="cls-38" d="M186.89,54.47a1,1,0,0,1,.8-.11,1.36,1.36,0,0,1,.72.42,1.76,1.76,0,0,1,.41.71,2.17,2.17,0,0,1,.09.8A4.12,4.12,0,0,0,188.2,55a1.67,1.67,0,0,0-.58-.4A1.46,1.46,0,0,0,186.89,54.47Z"/><path class="cls-38" d="M191.07,57.49a1.4,1.4,0,0,1,1.07,2.23,2.33,2.33,0,0,0,0-.69,1.84,1.84,0,0,0-.17-.62A2,2,0,0,0,191.07,57.49Z"/><path class="cls-38" d="M193.11,60.86a1.3,1.3,0,0,1,.4.59,1.64,1.64,0,0,1,.09.73,1.75,1.75,0,0,1-.23.7,1.29,1.29,0,0,1-.51.5,2.66,2.66,0,0,0,.44-1.23A2.53,2.53,0,0,0,193.11,60.86Z"/><path class="cls-38" d="M189.59,60.08a1.11,1.11,0,0,1,.76.93,1.12,1.12,0,0,1-.47,1.11,2,2,0,0,0,.18-1.07A1.91,1.91,0,0,0,189.59,60.08Z"/><path class="cls-38" d="M186.84,57.2a1.12,1.12,0,0,1,.61.19,1.38,1.38,0,0,1,.45.48,1.44,1.44,0,0,1,.19.63,1,1,0,0,1-.14.63,2.28,2.28,0,0,0-.31-1.11A2.4,2.4,0,0,0,186.84,57.2Z"/><path class="cls-38" d="M183.91,54.46a1.18,1.18,0,0,1,1.07.17,1.2,1.2,0,0,1,.54.94,3.29,3.29,0,0,0-.71-.69A2.87,2.87,0,0,0,183.91,54.46Z"/><path class="cls-38" d="M179.44,54.41a1.79,1.79,0,0,1,2.09.56c-.36-.13-.68-.26-1-.35S179.82,54.48,179.44,54.41Z"/><path class="cls-38" d="M182.93,56.31a.83.83,0,0,1,.56.06,1.31,1.31,0,0,1,.46.35,1.21,1.21,0,0,1,.24.53.81.81,0,0,1-.06.55,2.1,2.1,0,0,0-.42-.89A2,2,0,0,0,182.93,56.31Z"/><path class="cls-38" d="M185.05,59.45a.51.51,0,0,1,.5.07.79.79,0,0,1,.3.43,1.06,1.06,0,0,1,0,.5,1.25,1.25,0,0,1-.18.45c-.06-.32-.05-.62-.12-.87a1.24,1.24,0,0,0-.18-.34A.68.68,0,0,0,185.05,59.45Z"/><path class="cls-38" d="M187.23,61.81a.81.81,0,0,1,.29.57,1.24,1.24,0,0,1-.1.66,1.64,1.64,0,0,1-.37.53,1.89,1.89,0,0,1-.5.38c.21-.38.45-.69.6-1a2,2,0,0,0,.14-.53A1.46,1.46,0,0,0,187.23,61.81Z"/><path class="cls-38" d="M183.23,64.39s.07,0,.09,0a.34.34,0,0,0,.08-.09l.16-.21c.1-.14.2-.27.28-.41a1.15,1.15,0,0,0,.15-.44.85.85,0,0,0-.05-.49.63.63,0,0,1,.29.49,1,1,0,0,1-.13.59,1.4,1.4,0,0,1-.38.42l-.22.16a.39.39,0,0,1-.15.06h-.08S183.22,64.41,183.23,64.39Z"/><path class="cls-38" d="M182.31,58.64a.86.86,0,0,1,.61.41,1.34,1.34,0,0,1,.23.72,2.92,2.92,0,0,1-.07.73.93.93,0,0,1-.16.35.36.36,0,0,1-.33.18.38.38,0,0,0,.2-.25,1.13,1.13,0,0,0,.06-.31c0-.23,0-.46,0-.68A1.44,1.44,0,0,0,182.31,58.64Z"/><path class="cls-38" d="M178.52,56.31a1.82,1.82,0,0,1,.77-.06,1.88,1.88,0,0,1,.74.26.89.89,0,0,1,.31.3,1,1,0,0,1,.12.4,1.6,1.6,0,0,1-.12.76,4,4,0,0,0-.11-.72.78.78,0,0,0-.36-.49,3,3,0,0,0-.63-.28C179,56.41,178.77,56.36,178.52,56.31Z"/><path class="cls-38" d="M174.86,57.58a1.49,1.49,0,0,1,1.1,0,1.16,1.16,0,0,1,.47.35.73.73,0,0,1,.16.54,1.37,1.37,0,0,0-.33-.38,2.06,2.06,0,0,0-.41-.23A7.57,7.57,0,0,0,174.86,57.58Z"/><path class="cls-38" d="M178.75,60.5a1,1,0,0,1,.56.2,1.33,1.33,0,0,1,.39.46,1.24,1.24,0,0,1,.16.59,1,1,0,0,1-.15.58,2.41,2.41,0,0,0-.27-1A2.46,2.46,0,0,0,178.75,60.5Z"/><path class="cls-38" d="M180.86,63.89a.91.91,0,0,1,.28,1.49,2.67,2.67,0,0,0,0-.76A3,3,0,0,0,180.86,63.89Z"/><path class="cls-38" d="M171.31,60.87a1.47,1.47,0,0,1,1.18-.17,1.1,1.1,0,0,1,.53.36.7.7,0,0,1,.18.58,1.31,1.31,0,0,0-.34-.42,1.53,1.53,0,0,0-.46-.23A4.09,4.09,0,0,0,171.31,60.87Z"/><path class="cls-38" d="M174.64,64.71a1.08,1.08,0,0,1,1,1.4,3.25,3.25,0,0,0-.4-.79A3.06,3.06,0,0,0,174.64,64.71Z"/><path class="cls-38" d="M170.68,66a1.87,1.87,0,0,1,.62-.14,1.68,1.68,0,0,1,.66.07,1.14,1.14,0,0,1,.55.4.72.72,0,0,1,.14.64,1.05,1.05,0,0,0-.32-.49,1.47,1.47,0,0,0-.47-.27A9.27,9.27,0,0,0,170.68,66Z"/><path class="cls-38" d="M176.52,68.21a.93.93,0,0,1,1,.48,1,1,0,0,1-.07,1.08,2,2,0,0,0,0-.5,1.23,1.23,0,0,0-.16-.43,1.21,1.21,0,0,0-.29-.35A1.62,1.62,0,0,0,176.52,68.21Z"/><path class="cls-38" d="M172.28,69.68a1.28,1.28,0,0,1,1.1,0,1.24,1.24,0,0,1,.75.8,3.43,3.43,0,0,0-1.85-.77Z"/><path class="cls-38" d="M171.53,72.69a1.25,1.25,0,0,1,.64-.36,1.18,1.18,0,0,1,.74,0,2.22,2.22,0,0,1-.67.26A2.28,2.28,0,0,1,171.53,72.69Z"/><path class="cls-27" d="M175.75,63.05a2.29,2.29,0,0,1-.47-1.49A3.19,3.19,0,0,1,176,60.4s.15,1.2.19,1.4a12.66,12.66,0,0,0,.42,1.49A11.49,11.49,0,0,0,178,66a11.7,11.7,0,0,1-1.68-2C176.18,63.67,176,63.37,175.75,63.05Z"/><path class="cls-36" d="M175.86,72.13a1.58,1.58,0,0,0-1.39,0,2.21,2.21,0,0,0-.89,2.32,5,5,0,0,0,2.95,3.83.77.77,0,0,0,.26.07c.36,0,.53-.44.59-.79C177.63,75.85,177.7,73,175.86,72.13Z"/><path class="cls-35" d="M175.23,72.82a.91.91,0,0,0-.7.49,1.74,1.74,0,0,0-.17.93,3.64,3.64,0,0,0,1.28,2.33.89.89,0,0,0,.66.32.18.18,0,0,0,.13-.08c0-.07,0-.17-.05-.26a1.81,1.81,0,0,1,0-.83,2.65,2.65,0,0,0,0-.56C176.31,74.27,176.42,72.82,175.23,72.82Z"/><path class="cls-39" d="M184.77,69.83a4.07,4.07,0,0,1,1.13-.28,1.33,1.33,0,0,1,1.06.39.15.15,0,0,1,0,.12.14.14,0,0,1-.07.08,1.61,1.61,0,0,1-.77.26A21.59,21.59,0,0,0,182,71.62a5.2,5.2,0,0,1,.25-.65,1.77,1.77,0,0,1,.46-.4A11.7,11.7,0,0,1,184.77,69.83Z"/><path class="cls-39" d="M191,70a2.5,2.5,0,0,0-.85-.28.85.85,0,0,0-.8.39.14.14,0,0,0,0,.12s0,.06,0,.08a1.18,1.18,0,0,0,.58.26,13.09,13.09,0,0,1,3.12,1.21,5.85,5.85,0,0,0-.19-.64,1.34,1.34,0,0,0-.34-.4A7.7,7.7,0,0,0,191,70Z"/><path class="cls-40" d="M185.34,73.65c-.08.39-.38.67-.67.62a.66.66,0,0,1-.4-.82c.07-.4.37-.68.67-.62S185.41,73.25,185.34,73.65Z"/><path class="cls-40" d="M191.2,73.75c-.06.4-.35.69-.65.64s-.49-.4-.43-.8.35-.69.65-.65A.67.67,0,0,1,191.2,73.75Z"/><path class="cls-35" d="M187,78.36a2.31,2.31,0,0,0,1-.13A1.43,1.43,0,0,0,189,77a1.1,1.1,0,0,0,0-.44,3.4,3.4,0,0,0-.15-.49,1.3,1.3,0,0,1,.42.36,1.2,1.2,0,0,1,.22.56,1.5,1.5,0,0,1-.32,1.16,1.52,1.52,0,0,1-1.06.55A1.37,1.37,0,0,1,187,78.36Z"/><path class="cls-35" d="M183.75,73.3a3.35,3.35,0,0,1-.55,0,3.55,3.55,0,0,1-.55-.06,1.2,1.2,0,0,1,.56-.09A1.3,1.3,0,0,1,183.75,73.3Z"/><path class="cls-35" d="M183.71,73.85a3.14,3.14,0,0,1-.4.08c-.13,0-.25,0-.4.06a.64.64,0,0,1,.38-.2A.56.56,0,0,1,183.71,73.85Z"/><path class="cls-35" d="M191.47,73.52a.77.77,0,0,1,.35-.08.74.74,0,0,1,.35.08.87.87,0,0,1-.35.07A.91.91,0,0,1,191.47,73.52Z"/><path class="cls-35" d="M191.44,74a.38.38,0,0,1,.26,0,.36.36,0,0,1,.21.14.46.46,0,0,1-.26,0A.48.48,0,0,1,191.44,74Z"/><path class="cls-35" d="M184.34,80c.46.19.89.37,1.33.51a8.84,8.84,0,0,0,1.33.31,6,6,0,0,0,1.34,0,3.06,3.06,0,0,0,1.3-.42,2,2,0,0,1-1.21.88,3.56,3.56,0,0,1-1.52.08,4.4,4.4,0,0,1-1.42-.47A3.74,3.74,0,0,1,184.34,80Z"/><path class="cls-35" d="M182,83.17a5.2,5.2,0,0,1,2.68-5.23,7.55,7.55,0,0,0-1.89,2.33A7.37,7.37,0,0,0,182,83.17Z"/><path class="cls-35" d="M189.62,78.32a2.2,2.2,0,0,1,.65.88,3.06,3.06,0,0,1,.22,1.08,5.13,5.13,0,0,1-.44,2.12,19.32,19.32,0,0,0,.14-2.11A3.78,3.78,0,0,0,189.62,78.32Z"/><path class="cls-35" d="M186.34,82.28a4.65,4.65,0,0,1,.73,0,3.79,3.79,0,0,1,.73.08,1.1,1.1,0,0,1-.74.22A1.12,1.12,0,0,1,186.34,82.28Z"/><path class="cls-21" d="M139.73,94.83c2.63-.9,6.84-.26,8.21,3.14s13.69,43.4,13.69,43.4h20a7.9,7.9,0,0,1,7.82,6.24l2.46,12.25H159.05l-19.7-58.8S136,96.12,139.73,94.83Z"/><path class="cls-22" d="M137.66,95.29c2.62-.91,4.88-.72,6.24,2.68s13.69,43.4,13.69,43.4h20a7.89,7.89,0,0,1,7.81,6.24l2.44,12.25H155l-19.7-58.8S134,96.57,137.66,95.29Z"/><rect class="cls-41" x="44.75" y="77.39" width="74.26" height="114.83"/><rect class="cls-42" x="48.62" y="82.95" width="66.52" height="30.86"/><rect class="cls-42" x="48.62" y="155.8" width="66.52" height="30.86"/><rect class="cls-42" x="48.62" y="119.37" width="66.52" height="30.86"/><rect class="cls-11" x="56.71" y="159.23" width="4.09" height="25.85"/><rect class="cls-43" x="60.8" y="163.76" width="6.03" height="21.33"/><rect class="cls-44" x="66.83" y="160.62" width="3.02" height="24.46"/><rect class="cls-45" x="69.75" y="159.23" width="4.09" height="25.85"/><rect class="cls-46" x="73.84" y="163.76" width="3.02" height="21.33"/><rect class="cls-47" x="76.86" y="160.62" width="3.02" height="24.46"/><rect class="cls-48" x="79.87" y="156.27" width="4.09" height="28.81"/><rect class="cls-49" x="83.96" y="163.76" width="6.03" height="21.33"/><rect class="cls-50" x="89.62" y="160.62" width="3.02" height="24.46"/><rect class="cls-48" x="101.53" y="166.54" width="4.09" height="18.55"/><rect class="cls-51" x="95.63" y="163.76" width="6.03" height="21.33"/><rect class="cls-44" x="92.64" y="166.6" width="3.02" height="18.48"/><rect class="cls-10" x="48.86" y="87.57" width="4.09" height="25.85"/><rect class="cls-52" x="52.95" y="92.1" width="6.03" height="21.33"/><rect class="cls-44" x="58.98" y="88.96" width="3.02" height="24.46"/><rect class="cls-45" x="61.9" y="87.57" width="4.09" height="25.85"/><rect class="cls-46" x="65.99" y="92.1" width="3.02" height="21.33"/><rect class="cls-53" x="69" y="88.96" width="3.02" height="24.46"/><rect class="cls-48" x="72.02" y="84.61" width="4.09" height="28.81"/><rect class="cls-49" x="76.11" y="92.1" width="6.03" height="21.33"/><rect class="cls-50" x="81.77" y="88.96" width="3.02" height="24.46"/><rect class="cls-54" x="93.67" y="94.88" width="4.09" height="18.55"/><rect class="cls-55" x="87.77" y="92.1" width="6.03" height="21.33"/><rect class="cls-44" x="84.79" y="94.95" width="3.02" height="18.48"/><path class="cls-56" d="M269.74,109a4.49,4.49,0,0,1,4.73-4.19H276a6.71,6.71,0,0,0-2-2.88c-4.13.22-7.43,3.28-7.49,15l-.43,78.33,3.22,0Z"/><rect class="cls-57" x="265.48" y="195.85" width="4.33" height="3.22" transform="translate(68.73 464.02) rotate(-89.69)"/><rect class="cls-57" x="299.63" y="196.03" width="4.33" height="3.22" transform="translate(102.5 498.35) rotate(-89.69)"/><path class="cls-56" d="M303.89,109.21c0-3.92-3.52-7.13-7.89-7.16h-2.3a15.47,15.47,0,0,1,1.41,2.9H296a4.5,4.5,0,0,1,4.69,4.25l-.48,86.28,3.22,0Z"/><path class="cls-57" d="M274.49,101.94l-.52,0a6.71,6.71,0,0,1,2,2.88l19.13.1a15.47,15.47,0,0,0-1.41-2.9Z"/><path class="cls-58" d="M319.79,109.3a7.09,7.09,0,0,0-7-7.15h-.11a3.21,3.21,0,0,1,.62,2.93,4.2,4.2,0,0,1,3.63,4.2l-.47,86.28,2.87,0Z"/><rect class="cls-59" x="315.71" y="196.3" width="4.33" height="2.86" transform="translate(118.4 514.52) rotate(-89.69)"/><path class="cls-60" d="M312.67,102.15,293.91,102a4.79,4.79,0,0,1,1.06,2.9l17.79.1a3.08,3.08,0,0,1,.53,0A3.21,3.21,0,0,0,312.67,102.15Z"/><path class="cls-58" d="M289.43,109.13a4.21,4.21,0,0,1,4.21-4.2H295a4.79,4.79,0,0,0-1.06-2.9h-.26a7.09,7.09,0,0,0-7.08,7.08l-.48,86.27,2.87,0Z"/><rect class="cls-59" x="285.35" y="196.13" width="4.33" height="2.86" transform="translate(88.37 483.99) rotate(-89.69)"/><path class="cls-58" d="M317.46,118.19l-48.79-.27a1.42,1.42,0,0,1-1.42-1.44h0a1.42,1.42,0,0,1,1.44-1.42l48.78.27a1.43,1.43,0,0,1,1.43,1.43h0A1.44,1.44,0,0,1,317.46,118.19Z"/><path class="cls-58" d="M317.68,179l-49.9-.27a.89.89,0,0,1-.87-.88h0a.88.88,0,0,1,.88-.87l49.9.28a.86.86,0,0,1,.87.87h0A.87.87,0,0,1,317.68,179Z"/><polygon class="cls-61" points="105.06 76.2 90.07 76.2 86.61 51.91 101.6 51.91 105.06 76.2"/><path class="cls-62" d="M102.88,50.46h-18l3.87,27.19h18Zm-2.55,2.89,3,21.4h-12l-3-21.4Z"/><polygon class="cls-62" points="89.74 66.63 85.36 77.88 82.13 77.88 81.37 76.1 88.78 61.79 89.74 66.63"/><rect class="cls-63" x="120.46" y="5.06" width="56.36" height="46.52"/><rect class="cls-11" x="122.53" y="6.24" width="52.21" height="44.15"/><rect class="cls-64" x="131.49" y="11.65" width="34.29" height="33.33"/><rect class="cls-65" x="132.39" y="12.53" width="32.51" height="31.58"/><path class="cls-66" d="M140.77,23.31a35,35,0,0,0-8.38,1v19.8H159c2.44-2.14,3.87-4.72,3.87-7.51C162.91,29.27,153,23.31,140.77,23.31Z"/><path class="cls-67" d="M132.39,27.38V44.11H150.1a8.23,8.23,0,0,0,.88-3.63C151,33.88,142.93,28.41,132.39,27.38Z"/><path class="cls-68" d="M132.39,37.38v6.73h8.21C139.13,41.37,136.22,39,132.39,37.38Z"/><path class="cls-68" d="M139.37,19.26a20,20,0,0,0-7,1.23V33.91a20,20,0,0,0,7,1.21c7.29,0,13.21-3.54,13.21-7.92S146.66,19.26,139.37,19.26Z"/><polygon class="cls-69" points="165.79 11.65 165.4 11.65 131.49 44.98 165.79 44.98 165.79 11.65"/><path class="cls-70" d="M70.92,46.68V44.5H58.51v2.18s-6.45,19.43-2.46,29.77c0,.43,3.88.77,8.66.77s8.67-.34,8.67-.77C77.37,66.11,70.92,46.68,70.92,46.68Z"/><path class="cls-71" d="M56.05,76.45c0,.43,3.88.77,8.66.77,1.81,0,3.48,0,4.86-.13-3.45-5-7.19-11.52-7.22-17.84a38.68,38.68,0,0,1,.78-8.17A17.77,17.77,0,0,0,63.86,48V44.5H58.51v2.18S52.06,66.11,56.05,76.45Z"/><path class="cls-63" d="M62.37,44.53c0-.2-1.34-19.5,9.6-25.33l.27.52c-10.6,5.65-9.3,24.57-9.28,24.76Z"/><path class="cls-72" d="M70.84,18.49s-3.45-6.72,8.17-2.9C79,15.59,77.55,28.47,70.84,18.49Z"/><path class="cls-73" d="M70.84,18.49c.26.39.5.68.74,1A13.29,13.29,0,0,1,79,15.69l0-.1C67.39,11.77,70.84,18.49,70.84,18.49Z"/><path class="cls-63" d="M60.37,44.57c-1.76-8-7.65-8.83-7.9-8.86l.06-.58c.07,0,6.56.86,8.41,9.31Z"/><path class="cls-72" d="M52.89,35.43c.41-.26-2.59-3.64-2.88-3.86-5.27-3.89-7.34,2.38-11.46,3.86C38.55,35.43,46.36,39.42,52.89,35.43Z"/><path class="cls-73" d="M50,31.57c-5.27-3.89-7.34,2.38-11.46,3.86,12.34-5.09,14.34,0,14.34,0C53.3,35.17,50.3,31.79,50,31.57Z"/><circle class="cls-11" cx="328.61" cy="52.81" r="43.32"/><path class="cls-74" d="M328.61,96.63c-.5,0-1,0-1.48,0l0-1c1,0,2,0,3,0l0,1C329.66,96.62,329.13,96.63,328.61,96.63Zm-4.53-.23c-1-.11-2-.25-3-.42l.17-1c1,.16,2,.3,3,.4Zm9.15,0-.1-1c1-.1,2-.24,2.95-.41l.18,1C335.26,96.14,334.24,96.28,333.23,96.39Zm-15.17-1q-1.49-.36-2.94-.84l.31-1c.94.31,1.91.58,2.87.82Zm21.19,0-.25-1c1-.24,1.93-.52,2.88-.83l.31,1C341.22,94.8,340.23,95.08,339.25,95.33Zm-27-1.86c-.94-.38-1.88-.8-2.8-1.24l.44-.9c.9.43,1.82.84,2.73,1.21Zm32.82,0-.38-.93c.92-.37,1.83-.78,2.73-1.22l.44.9C346.93,92.64,346,93.06,345.06,93.44Zm-38.32-2.65c-.88-.51-1.75-1.05-2.59-1.62l.56-.83c.82.56,1.67,1.09,2.53,1.59Zm43.8,0-.5-.86c.86-.5,1.71-1,2.53-1.59l.56.83C352.29,89.7,351.42,90.24,350.54,90.75Zm-48.87-3.37c-.79-.63-1.58-1.29-2.34-2l.67-.74c.74.66,1.51,1.31,2.29,1.92Zm53.93,0-.62-.78c.78-.62,1.55-1.26,2.29-1.93l.67.75C357.18,86.05,356.4,86.71,355.6,87.33Zm-58.47-4c-.71-.73-1.4-1.49-2.05-2.27l.76-.64c.64.76,1.32,1.5,2,2.22Zm63-.05-.72-.69c.69-.72,1.36-1.47,2-2.22l.76.64C361.53,81.74,360.85,82.51,360.14,83.24Zm-66.95-4.62c-.6-.82-1.17-1.67-1.71-2.53l.84-.53c.53.84,1.1,1.67,1.68,2.47Zm70.88-.06-.81-.59c.58-.8,1.14-1.63,1.67-2.47l.85.53C365.24,76.89,364.66,77.74,364.07,78.56Zm-74.13-5.11c-.47-.89-.92-1.81-1.34-2.74l.91-.41c.41.91.85,1.81,1.32,2.68Zm77.37-.07-.88-.47c.47-.89.91-1.79,1.31-2.69l.91.41C368.24,71.55,367.79,72.47,367.31,73.38Zm-79.86-5.5c-.35-1-.67-1.94-.95-2.91l1-.28c.28,1,.59,1.91.93,2.84Zm82.35-.09-.94-.34c.34-.93.65-1.89.92-2.84l1,.27C370.46,65.86,370.15,66.84,369.8,67.79Zm-84-5.78c-.21-1-.39-2-.54-3l1-.14c.14,1,.32,2,.53,2.94Zm85.72-.09-1-.21c.2-1,.38-2,.51-2.94l1,.14C371.86,59.92,371.69,60.93,371.48,61.92ZM284.9,56c-.07-1-.11-2-.11-3.06h1c0,1,0,2,.11,3Zm87.42-.09-1-.07c.07-1,.11-2,.11-3v-.18h1v.19C372.43,53.82,372.39,54.85,372.32,55.87Zm-86.43-5.95-1-.07c.07-1,.17-2,.31-3l1,.14C286.05,47.93,286,48.93,285.89,49.92Zm85.42-.27c-.07-1-.18-2-.32-3l1-.14c.14,1,.25,2,.33,3ZM286.7,44l-1-.2c.21-1,.45-2,.73-3l1,.27C287.14,42.06,286.9,43,286.7,44Zm83.76-.26c-.21-1-.45-2-.73-2.9l1-.28c.28,1,.54,2,.75,3Zm-82.13-5.48-.95-.34c.35-1,.74-1.92,1.15-2.84l.91.4C289,36.38,288.67,37.32,288.33,38.26ZM368.8,38c-.35-.94-.73-1.87-1.13-2.77l.91-.41c.41.92.8,1.87,1.16,2.83ZM290.75,32.8l-.89-.47c.48-.9,1-1.8,1.53-2.65l.85.52C291.71,31,291.21,31.91,290.75,32.8Zm75.6-.23c-.47-.88-1-1.74-1.51-2.58l.85-.53c.54.85,1.06,1.74,1.54,2.63Zm-72.44-4.85-.81-.58c.6-.83,1.23-1.64,1.87-2.42l.77.65C295.11,26.12,294.49,26.92,293.91,27.72Zm69.25-.2c-.58-.79-1.2-1.58-1.85-2.34l.77-.65c.66.78,1.3,1.59,1.89,2.4Zm-65.42-4.38-.72-.69c.7-.73,1.44-1.45,2.19-2.13l.67.74C299.15,21.73,298.42,22.43,297.74,23.14ZM359.31,23c-.7-.71-1.42-1.41-2.16-2.06l.67-.75c.75.67,1.49,1.39,2.2,2.12Zm-57.15-3.83-.62-.78c.8-.62,1.63-1.23,2.47-1.81l.56.83C303.75,17.93,302.94,18.53,302.16,19.13Zm52.7-.15c-.78-.61-1.6-1.19-2.43-1.75l.56-.83c.85.57,1.68,1.17,2.48,1.79Zm-47.76-3.2-.51-.86c.88-.51,1.79-1,2.7-1.45l.44.9C308.84,14.81,308,15.28,307.1,15.78Zm42.8-.13c-.86-.49-1.75-1-2.65-1.39l.44-.9c.91.44,1.82.92,2.7,1.43Zm-37.45-2.5-.38-.93c.93-.38,1.9-.73,2.87-1.05l.31.95C314.3,12.43,313.36,12.78,312.45,13.15Zm32.07-.1c-.92-.37-1.87-.71-2.82-1l.31-.95c1,.31,1.94.66,2.88,1Zm-26.4-1.76-.24-1c1-.25,2-.47,3-.64l.17,1C320.06,10.84,319.08,11.05,318.12,11.29Zm20.71-.07c-.95-.23-1.94-.44-2.92-.61l.17-1c1,.17,2,.38,3,.62Zm-14.83-1-.11-1c1-.11,2-.19,3.05-.23l0,1C326,10.06,325,10.13,324,10.24Zm8.95,0c-1-.1-2-.16-3-.19l0-1c1,0,2,.09,3.05.2Z"/><rect class="cls-74" x="338.14" y="29.55" width="4.63" height="36.12" transform="translate(680.92 95.22) rotate(-180)"/><rect class="cls-74" x="320.84" y="43.01" width="4.63" height="22.66" transform="translate(646.3 108.67) rotate(-180)"/><rect class="cls-74" x="303.53" y="38.47" width="4.63" height="27.2" transform="translate(611.69 104.14) rotate(-180)"/><rect class="cls-7" x="331.76" y="49.92" width="4.63" height="15.74" transform="translate(668.14 115.59) rotate(-180)"/><rect class="cls-7" x="314.45" y="55.79" width="4.63" height="9.88" transform="translate(633.53 121.46) rotate(-180)"/><rect class="cls-7" x="297.14" y="53.81" width="4.63" height="11.85" transform="translate(598.91 119.48) rotate(-180)"/><rect class="cls-74" x="354.26" y="38.47" width="4.63" height="27.2" transform="translate(713.14 104.14) rotate(-180)"/><rect class="cls-7" x="347.87" y="53.81" width="4.63" height="11.85" transform="translate(700.37 119.48) rotate(-180)"/><line class="cls-75" x1="364.96" y1="65.66" x2="292.13" y2="65.66"/><path class="cls-74" d="M362,13.44a5.61,5.61,0,0,1,5.08,5.08,2.23,2.23,0,0,0,.64,1.37,2.21,2.21,0,0,0,3.77-1.75A10,10,0,0,0,362.36,9a2.21,2.21,0,0,0-.38,4.41Z"/><path class="cls-74" d="M380.19,17.37A18.79,18.79,0,0,0,363.13.31a2.21,2.21,0,1,0-.38,4.4,14.36,14.36,0,0,1,13,13.05,2.21,2.21,0,1,0,4.4-.39Z"/></g></g></g></svg>