<?xml version="1.0" encoding="UTF-8"?>
<svg width="110px" height="110px" viewBox="0 0 110 110" version="1.1" xmlns="http://www.w3.org/2000/svg" xmlns:xlink="http://www.w3.org/1999/xlink">
    <title>Group 5</title>
    <g id="Mockups" stroke="none" stroke-width="1" fill="none" fill-rule="evenodd">
        <g id="Home_LG-Copy-2" transform="translate(-783.000000, -893.000000)">
            <g id="Group-5" transform="translate(783.000000, 893.000000)">
                <rect id="Rectangle-Copy-4" fill="#E8F6F6" x="0" y="0" width="110" height="110" rx="55"></rect>
                <path d="M75,78.2622222 L65.3188406,78.2622222 C68.7971014,75.2716266 70.942029,70.8703727 70.942029,66.1305608 C70.942029,57.5537583 63.8115942,50.6133194 55,50.6133194 C46.1884058,50.6133194 39.057971,57.5537583 39.057971,66.1305608 C39.057971,70.8703727 41.2608696,75.2716266 44.6811594,78.2622222 L35,78.2622222 L35,56.820216 L55,42.2622222 L75,56.820216 L75,78.2622222 Z" id="Path" stroke="#21AEA8" stroke-width="2" fill="#21AEA8" fill-rule="nonzero"></path>
                <path d="M82.2908874,47.2772976 L55,28.2622222 L27.7091126,47.2772976 C26.9378484,47.8300614 26.7598643,48.8803127 27.3531445,49.5989056 C27.9464247,50.3174986 29.073657,50.4833277 29.8449212,49.9305639 L55,32.4079509 L80.1550788,49.9305639 C80.4517189,50.1516695 80.867015,50.2622222 81.2229831,50.2622222 C81.7569353,50.2622222 82.2908874,50.0411167 82.6468555,49.5989056 C83.2401357,48.8803127 83.0621516,47.8300614 82.2908874,47.2772976 Z" id="Path" stroke="#21AEA8" stroke-width="2" fill="#21AEA8" fill-rule="nonzero"></path>
                <path d="M56.8292683,67.9085637 L63.1707317,67.9085637 C64.2073171,67.9085637 65,67.1951491 65,66.2622222 C65,65.3292954 64.2073171,64.6158808 63.1707317,64.6158808 L56.8292683,64.6158808 L56.8292683,58.9085637 C56.8292683,57.9756369 56.0365854,57.2622222 55,57.2622222 C53.9634146,57.2622222 53.1707317,57.9756369 53.1707317,58.9085637 L53.1707317,64.6158808 L46.8292683,64.6158808 C45.7926829,64.6158808 45,65.3292954 45,66.2622222 C45,67.1951491 45.7926829,67.9085637 46.8292683,67.9085637 L53.1707317,67.9085637 L53.1707317,73.6158808 C53.1707317,74.5488076 53.9634146,75.2622222 55,75.2622222 C56.0365854,75.2622222 56.8292683,74.5488076 56.8292683,73.6158808 L56.8292683,67.9085637 Z" id="Path" fill="#21AEA8" fill-rule="nonzero"></path>
            </g>
        </g>
    </g>
</svg>