<?xml version="1.0" encoding="UTF-8"?>
<svg width="110px" height="110px" viewBox="0 0 110 110" version="1.1" xmlns="http://www.w3.org/2000/svg" xmlns:xlink="http://www.w3.org/1999/xlink">
    <title>Group 3</title>
    <g id="Mockups" stroke="none" stroke-width="1" fill="none" fill-rule="evenodd">
        <g id="Home_LG-Copy-2" transform="translate(-319.000000, -891.000000)">
            <g id="Group-3" transform="translate(319.000000, 891.000000)">
                <rect id="Rectangle-Copy" fill="#EDF2D3" opacity="0.43984375" x="0" y="0" width="110" height="110" rx="55"></rect>
                <path d="M45.0107637,27 C44.6999024,26.9988325 44.4014261,27.1193352 44.1816084,27.3347603 C43.9617908,27.5501854 43.8388248,27.8427033 43.8400139,28.1473636 L43.8400139,37.9591453 L38.3479271,43.3332522 C38.0096537,43.6597675 37.9071153,44.1546668 38.0886538,44.5846282 C38.2701923,45.0145897 38.6995654,45.2937757 39.1743439,45.2905633 L43.8400139,45.2905633 L43.8400139,57.8610595 C43.8411104,58.1642602 43.9650847,58.4546103 44.1846535,58.6682118 C44.4042223,58.8818133 44.701392,59.0011616 45.0107637,59 L52.0007365,59 C52.3101006,59.0011501 52.6072589,58.8817967 52.8268182,58.6681965 C53.0463774,58.4545962 53.1703456,58.1642527 53.1714421,57.8610595 L53.1714421,49.8547573 L57.8371563,49.8547573 L57.8371563,57.8610595 C57.8394284,58.489147 58.3583918,58.997761 58.9992635,59 L65.9978347,59 C66.6387064,58.997761 67.1576698,58.489147 67.159942,57.8610595 L67.159942,45.2906065 L71.8256561,45.2906065 C72.3004346,45.2938189 72.7298077,45.0146329 72.9113462,44.5846714 C73.0928847,44.1547099 72.9903463,43.6598107 72.6520729,43.3332954 L56.330716,27.3374938 C56.1118599,27.1220908 55.8144677,27.0010015 55.5042992,27.0010015 C55.1941307,27.0010015 54.8967385,27.1220908 54.6778824,27.3374938 L50.8385851,31.1002412 L50.8385851,28.1474067 C50.8397681,27.8442146 50.7179866,27.5529843 50.5000401,27.3378044 C50.2820935,27.1226246 49.9858416,27.0011281 49.6764778,27 L45.0107637,27 Z" id="Path" fill="#96A704" fill-rule="nonzero"></path>
                <path d="M81.3262488,63.0080926 C80.835278,63.0460267 80.3431927,63.1893335 79.8797837,63.4524277 C74.5229551,66.4932698 69.161497,69.5336482 63.8049255,72.5743639 C63.6338958,72.6696207 63.4410053,72.7201995 63.2445569,72.7201995 C56.5111324,72.7201995 49.7808799,72.7224334 43.0473697,72.7224334 C41.5339931,72.7999877 41.416587,70.5674376 42.9299208,70.4898834 C42.9684989,70.4876495 43.0092202,70.4876495 43.0473697,70.4898834 L52.0827076,70.4898834 C53.9874806,70.4898834 55.4894982,69.0213267 55.4894982,67.1486451 C55.4894982,65.2758793 53.9874806,63.7965324 52.0827076,63.7965324 L27.1341109,63.7965324 C26.5077621,63.7965403 26,64.2958184 26,64.9117116 L26,78.2984135 C26,78.9143067 26.5077621,79.4135848 27.1341109,79.4135926 L36.5593878,79.4135926 C36.7561362,79.4140141 36.9490268,79.4654359 37.1197564,79.5615357 L49.3869116,86.5271273 L49.399771,86.5271273 C50.6106952,87.1710381 51.7691961,87.1385412 52.8154346,86.5439869 C62.9727527,80.7801908 73.1301993,75.0144558 83.2861886,69.2497745 C84.9364747,68.3131387 85.4856985,66.3019132 84.5332905,64.6801027 C83.9379873,63.6661655 82.9053368,63.0840873 81.8176054,63.0094835 C81.6542914,62.9968388 81.4918346,62.9968388 81.3281348,63.0094835 L81.3262488,63.0080926 Z" id="Path" fill="#96A704" fill-rule="nonzero"></path>
            </g>
        </g>
    </g>
</svg>