<svg width="7" height="9" viewBox="0 0 7 9" fill="none" xmlns="http://www.w3.org/2000/svg">
<g id="Group 1">
<path id="Vector" d="M6.36364 3.53571C6.36364 2.76848 6.06193 2.03267 5.5249 1.49016C4.98786 0.947639 4.25948 0.642857 3.5 0.642857C2.74052 0.642857 2.01214 0.947639 1.4751 1.49016C0.938067 2.03267 0.636364 2.76848 0.636364 3.53571C0.636364 4.72243 1.57627 6.26914 3.5 8.12186C5.42373 6.26914 6.36364 4.72243 6.36364 3.53571ZM3.5 9C1.16645 6.85736 0 5.0355 0 3.53571C0 2.59798 0.368749 1.69866 1.02513 1.03559C1.6815 0.372512 2.57174 0 3.5 0C4.42826 0 5.3185 0.372512 5.97487 1.03559C6.63125 1.69866 7 2.59798 7 3.53571C7 5.0355 5.83355 6.85736 3.5 9Z" fill="#D9E9E4"/>
<path id="Vector_2" d="M3.50003 4.50014C3.75319 4.50014 3.99598 4.39855 4.17499 4.21771C4.35401 4.03687 4.45457 3.7916 4.45457 3.53585C4.45457 3.28011 4.35401 3.03484 4.17499 2.854C3.99598 2.67316 3.75319 2.57157 3.50003 2.57157C3.24687 2.57157 3.00407 2.67316 2.82506 2.854C2.64605 3.03484 2.54548 3.28011 2.54548 3.53585C2.54548 3.7916 2.64605 4.03687 2.82506 4.21771C3.00407 4.39855 3.24687 4.50014 3.50003 4.50014ZM3.50003 5.143C3.07809 5.143 2.67344 4.97367 2.37509 4.67228C2.07673 4.37088 1.90912 3.96209 1.90912 3.53585C1.90912 3.10961 2.07673 2.70083 2.37509 2.39943C2.67344 2.09803 3.07809 1.92871 3.50003 1.92871C3.92196 1.92871 4.32662 2.09803 4.62497 2.39943C4.92332 2.70083 5.09094 3.10961 5.09094 3.53585C5.09094 3.96209 4.92332 4.37088 4.62497 4.67228C4.32662 4.97367 3.92196 5.143 3.50003 5.143Z" fill="#D9E9E4"/>
</g>
</svg>
