<svg width="70" height="64" viewBox="0 0 70 64" fill="none" xmlns="http://www.w3.org/2000/svg">
<g id="Frame 5">
<path d="M0 0H62C66.4183 0 70 3.58172 70 8V56C70 60.4183 66.4183 64 62 64H0V0Z" fill="#006A4E"/>
<path id="Vector" fill-rule="evenodd" clip-rule="evenodd" d="M34.1196 19C32.3464 19.0002 30.5988 19.4244 29.0228 20.2373C27.4468 21.0501 26.0881 22.2281 25.0599 23.6729C24.0318 25.1177 23.3641 26.7875 23.1125 28.5428C22.8609 30.2982 23.0327 32.0882 23.6137 33.7637C24.1946 35.4391 25.1678 36.9513 26.452 38.1741C27.7362 39.397 29.2942 40.295 30.9961 40.7932C32.6979 41.2914 34.4943 41.3755 36.2352 41.0383C37.9761 40.7011 39.6112 39.9524 41.0039 38.8548L45.7819 43.6327C46.0286 43.8711 46.3591 44.0029 46.7021 44C47.0452 43.997 47.3733 43.8594 47.6159 43.6168C47.8584 43.3742 47.996 43.0461 47.999 42.7031C48.002 42.36 47.8701 42.0296 47.6318 41.7828L42.8539 37.0049C44.1465 35.3651 44.9513 33.3945 45.1762 31.3186C45.4012 29.2428 45.0372 27.1455 44.1258 25.2669C43.2145 23.3883 41.7927 21.8042 40.0231 20.6959C38.2535 19.5876 36.2076 18.9999 34.1196 19ZM25.6157 30.1206C25.6157 27.8652 26.5116 25.7022 28.1064 24.1074C29.7012 22.5126 31.8642 21.6166 34.1196 21.6166C36.375 21.6166 38.5381 22.5126 40.1329 24.1074C41.7277 25.7022 42.6236 27.8652 42.6236 30.1206C42.6236 32.376 41.7277 34.539 40.1329 36.1338C38.5381 37.7286 36.375 38.6246 34.1196 38.6246C31.8642 38.6246 29.7012 37.7286 28.1064 36.1338C26.5116 34.539 25.6157 32.376 25.6157 30.1206Z" fill="white"/>
</g>
</svg>
