<svg width="128" height="26" viewBox="0 0 128 26" fill="none" xmlns="http://www.w3.org/2000/svg">
<g id="Stars">
<path id="Star 1" d="M11.8489 2.92705C12.1483 2.00574 13.4517 2.00574 13.7511 2.92705L15.4493 8.1536C15.5831 8.56562 15.9671 8.84458 16.4003 8.84458H21.8958C22.8646 8.84458 23.2673 10.0842 22.4836 10.6536L18.0377 13.8838C17.6872 14.1384 17.5405 14.5898 17.6744 15.0018L19.3726 20.2284C19.6719 21.1497 18.6175 21.9158 17.8338 21.3464L13.3878 18.1162C13.0373 17.8616 12.5627 17.8616 12.2122 18.1162L7.76625 21.3464C6.98253 21.9158 5.92805 21.1497 6.22741 20.2284L7.92561 15.0018C8.05949 14.5898 7.91283 14.1384 7.56234 13.8838L3.11637 10.6536C2.33266 10.0842 2.73544 8.84458 3.70416 8.84458H9.19968C9.63291 8.84458 10.0169 8.56562 10.1507 8.1536L11.8489 2.92705Z" fill="#FFD53D"/>
<path id="Star 3" d="M63.0489 2.92705C63.3483 2.00574 64.6517 2.00574 64.9511 2.92705L66.6493 8.1536C66.7831 8.56562 67.1671 8.84458 67.6003 8.84458H73.0958C74.0646 8.84458 74.4673 10.0842 73.6836 10.6536L69.2377 13.8838C68.8872 14.1384 68.7405 14.5898 68.8744 15.0018L70.5726 20.2284C70.8719 21.1497 69.8175 21.9158 69.0337 21.3464L64.5878 18.1162C64.2373 17.8616 63.7627 17.8616 63.4122 18.1162L58.9662 21.3464C58.1825 21.9158 57.1281 21.1497 57.4274 20.2284L59.1256 15.0018C59.2595 14.5898 59.1128 14.1384 58.7623 13.8838L54.3164 10.6536C53.5327 10.0842 53.9354 8.84458 54.9042 8.84458H60.3997C60.8329 8.84458 61.2169 8.56562 61.3507 8.1536L63.0489 2.92705Z" fill="#FFD53D"/>
<path id="Star 2" d="M37.4489 2.92705C37.7483 2.00574 39.0517 2.00574 39.3511 2.92705L41.0493 8.1536C41.1831 8.56562 41.5671 8.84458 42.0003 8.84458H47.4958C48.4646 8.84458 48.8673 10.0842 48.0836 10.6536L43.6377 13.8838C43.2872 14.1384 43.1405 14.5898 43.2744 15.0018L44.9726 20.2284C45.2719 21.1497 44.2175 21.9158 43.4338 21.3464L38.9878 18.1162C38.6373 17.8616 38.1627 17.8616 37.8122 18.1162L33.3662 21.3464C32.5825 21.9158 31.5281 21.1497 31.8274 20.2284L33.5256 15.0018C33.6595 14.5898 33.5128 14.1384 33.1623 13.8838L28.7164 10.6536C27.9327 10.0842 28.3354 8.84458 29.3042 8.84458H34.7997C35.2329 8.84458 35.6169 8.56562 35.7507 8.1536L37.4489 2.92705Z" fill="#FFD53D"/>
<path id="Star 4" d="M88.6489 2.92705C88.9483 2.00574 90.2517 2.00574 90.5511 2.92705L92.2493 8.1536C92.3831 8.56562 92.7671 8.84458 93.2003 8.84458H98.6958C99.6646 8.84458 100.067 10.0842 99.2836 10.6536L94.8377 13.8838C94.4872 14.1384 94.3405 14.5898 94.4744 15.0018L96.1726 20.2284C96.4719 21.1497 95.4175 21.9158 94.6338 21.3464L90.1878 18.1162C89.8373 17.8616 89.3627 17.8616 89.0122 18.1162L84.5662 21.3464C83.7825 21.9158 82.7281 21.1497 83.0274 20.2284L84.7256 15.0018C84.8595 14.5898 84.7128 14.1384 84.3623 13.8838L79.9164 10.6536C79.1327 10.0842 79.5354 8.84458 80.5042 8.84458H85.9997C86.4329 8.84458 86.8169 8.56562 86.9507 8.1536L88.6489 2.92705Z" fill="#FFD53D"/>
<path id="Star 5" d="M114.249 2.92705C114.548 2.00574 115.852 2.00574 116.151 2.92705L117.849 8.1536C117.983 8.56562 118.367 8.84458 118.8 8.84458H124.296C125.265 8.84458 125.667 10.0842 124.884 10.6536L120.438 13.8838C120.087 14.1384 119.941 14.5898 120.074 15.0018L121.773 20.2284C122.072 21.1497 121.017 21.9158 120.234 21.3464L115.788 18.1162C115.437 17.8616 114.963 17.8616 114.612 18.1162L110.166 21.3464C109.383 21.9158 108.328 21.1497 108.627 20.2284L110.326 15.0018C110.459 14.5898 110.313 14.1384 109.962 13.8838L105.516 10.6536C104.733 10.0842 105.135 8.84458 106.104 8.84458H111.6C112.033 8.84458 112.417 8.56562 112.551 8.1536L114.249 2.92705Z" fill="#FFD53D"/>
</g>
</svg>
