<svg width="27" height="24" viewBox="0 0 27 24" fill="none" xmlns="http://www.w3.org/2000/svg">
<g id="86">
<path id="Vector" d="M17.6833 3.71012L15.3562 2.87012C14.4457 2.54012 13.4002 2.93012 13.0292 3.75012L12.321 5.29012C11.95 6.10012 12.3885 7.03012 13.3103 7.37012L15.8846 8.30012C15.6148 9.45012 15.1989 10.8001 14.5469 12.2601C13.8161 13.9101 12.973 15.2701 12.2086 16.3601L9.63427 15.4301C8.71246 15.1001 7.66699 15.4901 7.29602 16.3101L6.5878 17.8501C6.21683 18.6701 6.65525 19.6001 7.57706 19.9301L9.90407 20.7701L9.94904 20.7901C12.4559 21.6901 15.345 20.8201 16.649 18.7201C17.5259 17.3101 18.3915 15.7301 19.1896 13.9601C19.9091 12.3601 20.4712 10.8301 20.8984 9.41012C21.6066 7.08012 20.2351 4.65012 17.7282 3.74012L17.6833 3.71012Z" stroke="#04C200" stroke-width="1.2" stroke-miterlimit="10" stroke-linecap="round" stroke-linejoin="round"/>
</g>
</svg>
