<?xml version="1.0" encoding="utf-8"?>
<svg xmlns="http://www.w3.org/2000/svg" xmlns:xlink="http://www.w3.org/1999/xlink" viewBox="0 0 611.35 223.72"><defs><style>.cls-1{fill:none;}.cls-2{isolation:isolate;}.cls-3{opacity:0.4;mix-blend-mode:multiply;}.cls-4{fill:#ffebcf;}.cls-5{fill:#b2e0e3;}.cls-6{fill:#ccebf4;}.cls-7{opacity:0.43;}.cls-8{fill:#fff;}.cls-9{fill:#b7c545;}.cls-10{fill:#afbf33;}.cls-11{fill:#bbbdbf;}.cls-12{fill:#d0d2d3;}.cls-13{fill:#becb5c;}.cls-14{fill:#d0d884;}.cls-15{fill:#d8c773;}.cls-16{fill:#fbad2e;}.cls-17{fill:#fdc370;}.cls-18{fill:#555658;}.cls-19{fill:#414141;}.cls-20{fill:#696a6c;}.cls-21{fill:#75c7c8;}.cls-22{fill:#41bbbc;}.cls-23{fill:#ffdba7;}.cls-24{fill:#00b5b6;}.cls-25{fill:#8c2a8c;}.cls-26{fill:#a4569f;}.cls-27{fill:#ad69a9;}.cls-28{fill:#ddccb8;}.cls-29{fill:#ccbeac;}.cls-30{fill:#95a00b;}.cls-31{fill:#d7d7d7;}.cls-32{fill:#e1e1e1;}.cls-33{fill:#f7cfe4;}.cls-34{fill:#b8b8b8;}.cls-34,.cls-35{mix-blend-mode:overlay;}.cls-35{fill:#e471b1;}.cls-36{fill:#666;mix-blend-mode:screen;}.cls-37{fill:#fdc8a9;}.cls-38{fill:#b9babc;}.cls-39{fill:#a3a3a3;}.cls-40{fill:#d0eceb;}.cls-41{fill:#8dd6d6;}.cls-42{fill:#00bdbd;}.cls-43{fill:#eb9e73;}.cls-44{fill:#913217;}.cls-45{fill:#f8b48c;}.cls-46{fill:#462716;}.cls-47{fill:#251208;}.cls-48{fill:#7c2613;}.cls-49{fill:#621c0d;}.cls-50{fill:#30c3c2;}.cls-51{fill:#ae4fa2;}.cls-52{fill:#cf9ccb;}.cls-53{fill:#eeddec;}.cls-54{fill:#cacaca;}.cls-55{fill:#de6c0d;}.cls-56{fill:#aac000;}.cls-57{fill:#ffb000;}.cls-58{fill:#58c8c8;}.cls-59{fill:#746258;}.cls-60{fill:#b8b9bb;}.cls-61{fill:#38617c;}.cls-62{fill:#013854;}.cls-63{fill:#ad735b;}.cls-64{fill:#fde39a;}.cls-65,.cls-68{fill:#c0836b;}.cls-66,.cls-67{fill:#9d5d45;}.cls-67,.cls-68{fill-rule:evenodd;}.cls-69{fill:#ffc05f;}.cls-70{clip-path:url(#clip-path);}.cls-71{fill:#ffd99e;}.cls-72{fill:#6f605f;}.cls-73{fill:#2f1d1a;}.cls-74{fill:#a46445;}.cls-75{fill:#b664ac;}.cls-76{fill:#00b7b7;}.cls-77{fill:#ffa900;}.cls-78{fill:#971a90;}</style><clipPath id="clip-path"><polygon class="cls-1" points="169.57 95.88 194.47 98.08 194.47 125.15 169.57 125.15 169.57 95.88"/></clipPath></defs><g class="cls-2"><g id="Layer_2" data-name="Layer 2"><g id="Layer_1-2" data-name="Layer 1"><g class="cls-3"><path class="cls-4" d="M585.91,198.84c23.68-17.38,31.58-63.34,20.52-101.22C602.16,83,555.68,44.05,548,39.86c-12.07-6.59-16.43-15-28-21.7-16.24-9.44-35.74-17-64.61-18S397.66,2,370.22,5.65c-19.42,2.58-38.53,5.63-58.61,7.26C242.63,18.49,167,7,102.36,18,80.69,21.71,62.16,27.7,44,33.61,29.09,38.44,15.69,44.07,8.61,51.22,2.92,57,1.53,63.21.79,69.37-4.16,110.23,14.34,187,53.81,202c9.8,3.7,60,17.39,115.26,16.77,104.63-1.18,67.45-2,172.11-2.49,51.26-.23,75.08,6.71,126.31,7.45C510.12,224.31,563.13,215.57,585.91,198.84Z"/></g><rect class="cls-5" x="237.77" y="20.63" width="142.57" height="121.58"/><rect class="cls-6" x="242.33" y="24.52" width="133.45" height="113.8"/><g class="cls-7"><polygon class="cls-8" points="319.4 138.32 334.9 138.32 370.64 24.52 353.56 24.52 319.4 138.32"/></g><g class="cls-7"><polygon class="cls-8" points="281.91 138.32 306.43 138.32 342.17 24.52 316.87 24.52 281.91 138.32"/></g><g class="cls-7"><polygon class="cls-8" points="268.15 138.32 273.31 138.32 309.06 24.52 304.21 24.52 268.15 138.32"/></g><rect class="cls-5" x="242.33" y="47.21" width="133.45" height="2.52"/><rect class="cls-5" x="334.9" y="48.47" width="2.21" height="89.85"/><rect class="cls-5" x="279.7" y="48.47" width="2.21" height="89.85"/><path class="cls-9" d="M239.05,129.28c.48-6.15,2.57-31.23,2.57-31.23s-.45-65-1.51-70a68.67,68.67,0,0,1-1.18-10.92h48.92s-5,28.6-9.05,37.39-27.17,44-27.17,44l2.69,50.09s-2.77,3.17-4,2.61-1.89,1-1.89,1,1.89,2.93,0,4.08-6.77,0-6.77,0-4.81-8-4.79-12.94S238.57,135.44,239.05,129.28Z"/><path class="cls-10" d="M252.93,97.91v1.42a10.07,10.07,0,0,1-5.43,1.81,65.12,65.12,0,0,1-7.25-.85V97.91a43.66,43.66,0,0,0,6.34.94A28.15,28.15,0,0,0,252.93,97.91Z"/><rect class="cls-11" x="232.82" y="9.89" width="152.68" height="3.8"/><rect class="cls-12" x="285.91" y="12.18" width="1.19" height="6.09"/><rect class="cls-12" x="268.83" y="12.18" width="1.19" height="6.09"/><rect class="cls-12" x="261.15" y="12.18" width="1.19" height="6.09"/><rect class="cls-12" x="253.7" y="12.18" width="1.19" height="6.09"/><rect class="cls-12" x="247" y="12.18" width="1.19" height="6.09"/><rect class="cls-12" x="239.58" y="12.18" width="1.19" height="6.09"/><path class="cls-13" d="M252.83,81c1.91-6.1,4.3-11.74,6.55-17.71a127.3,127.3,0,0,0,7.5-28.11c.43-3.32.68-7.81,3.38-10.22l1.69-.64c6.83-4.49,8.19,2.94,7.55,8.2-.88,7.25-3.51,14.53-6.6,21.1C267.57,65,262,76.11,255.76,87c-1.82,3.14-3.48,7.35-6.34,9.69C248.32,91.47,251.31,85.84,252.83,81Z"/><path class="cls-13" d="M255.63,47.31c.44-3.82,1-7.64,1.56-11.46.36-2.59.44-5.8,1.69-8.16,2.35-4.46,5.07-.17,5.38,3a43,43,0,0,1-.32,10.76,76,76,0,0,1-5,15.52c-.91,2-2,3.9-3.33,1.37C254.15,55.49,255.28,50.28,255.63,47.31Z"/><path class="cls-13" d="M245.34,123.12a98.33,98.33,0,0,0-.38-18.87c5.31-1.26,2.49,17.85,2.54,20.76.11,6.64-1,13.38-.57,20,.15,2.23,1,5.81-.44,7.79-2.05,2.81-3.32-1-3.67-3C241.25,141.05,244.67,131.85,245.34,123.12Z"/><rect class="cls-12" x="277.89" y="12.18" width="1.19" height="6.09"/><path class="cls-10" d="M246.22,99.72a.32.32,0,0,0,.32-.28,37.2,37.2,0,0,1,.8-4.36,36.81,36.81,0,0,0,.82-4.5c1.38-14,2.79-30.47,2.81-47.06a.31.31,0,0,0-.32-.31h0a.31.31,0,0,0-.31.31c0,16.56-1.43,33-2.81,47a36.21,36.21,0,0,1-.81,4.42,38,38,0,0,0-.81,4.43.32.32,0,0,0,.28.35Z"/><path class="cls-10" d="M247.49,99.51a.33.33,0,0,0,.31-.24,42.57,42.57,0,0,0,.74-4.26c.15-1.1.31-2.24.53-3.31a74.6,74.6,0,0,1,5.5-15.43,78.8,78.8,0,0,0,3.93-11.36c.66-2.29,1.35-4.65,2.15-6.94a.32.32,0,0,0-.19-.41.33.33,0,0,0-.41.2c-.81,2.31-1.49,4.68-2.16,7A78.68,78.68,0,0,1,254,76a74.53,74.53,0,0,0-5.55,15.57c-.23,1.09-.38,2.24-.54,3.35a37.94,37.94,0,0,1-.73,4.2.31.31,0,0,0,.23.38Z"/><path class="cls-10" d="M242.85,152l.09,0a.31.31,0,0,0,.21-.39c-1.2-4-.69-7.64-.2-11.15.47-3.33.61-6.84.75-10.23.09-2.29.18-4.67.38-7,.27-3.21.64-6.5,1-9.69l.2-1.91c.13-1.13.17-2.34.22-3.61a27.34,27.34,0,0,1,.83-6.87.33.33,0,0,0-.21-.4.32.32,0,0,0-.4.21,28,28,0,0,0-.85,7c-.05,1.26-.09,2.45-.21,3.57l-.21,1.9c-.35,3.19-.72,6.49-1,9.7-.2,2.31-.29,4.7-.38,7-.14,3.37-.28,6.86-.74,10.16-.51,3.58-1,7.27.22,11.42A.31.31,0,0,0,242.85,152Z"/><path class="cls-10" d="M248.12,153.07h0a.32.32,0,0,0,.3-.33c-.16-3.28-.14-6.67-.11-10s0-6.62-.1-9.89a48.83,48.83,0,0,1,.33-7.08c.11-1.23.23-2.51.3-3.77.08-1.42.07-2.86,0-4.26a50.52,50.52,0,0,1,.16-5.5,45.35,45.35,0,0,0-.21-8.88c-.07-.84-.15-1.69-.21-2.55a.33.33,0,0,0-.34-.3.32.32,0,0,0-.29.34c.06.87.14,1.72.21,2.57a45.66,45.66,0,0,1,.21,8.75,52.07,52.07,0,0,0-.16,5.58c0,1.38,0,2.81-.05,4.21-.07,1.25-.19,2.52-.3,3.75a50,50,0,0,0-.33,7.17c.15,3.25.12,6.61.1,9.86s-.06,6.68.11,10A.3.3,0,0,0,248.12,153.07Z"/><path class="cls-10" d="M245,98.46l.08,0a.3.3,0,0,0,.22-.38c-.65-2.47.12-6,.74-8.78q.18-.8.33-1.5a69.54,69.54,0,0,0,1-13.68.31.31,0,0,0-.31-.32h0a.32.32,0,0,0-.32.32,68.82,68.82,0,0,1-1,13.55c-.1.47-.21,1-.33,1.49-.63,2.88-1.42,6.46-.73,9.08A.33.33,0,0,0,245,98.46Z"/><path class="cls-10" d="M243.69,89a.32.32,0,0,0,.3-.21,18,18,0,0,0,.66-6.25c0-.35,0-.69,0-1a.32.32,0,0,0-.31-.32h0a.32.32,0,0,0-.32.32c0,.34,0,.69,0,1a17.6,17.6,0,0,1-.62,6,.31.31,0,0,0,.19.41Z"/><path class="cls-10" d="M280.81,39.94a.32.32,0,0,0,.3-.22,81.64,81.64,0,0,0,3.17-15.56.31.31,0,1,0-.62-.07,81.79,81.79,0,0,1-3.15,15.44.31.31,0,0,0,.2.39Z"/><path class="cls-14" d="M543.84,148.34a1,1,0,0,0,.7-.3,107.47,107.47,0,0,0,12.55-16c2-3.12,4.18-10.33,4.27-10.64a1,1,0,0,0-.67-1.24,1,1,0,0,0-1.24.67c0,.07-2.18,7.25-4,10.13a107.48,107.48,0,0,1-12.29,15.66,1,1,0,0,0,0,1.41A1,1,0,0,0,543.84,148.34Z"/><path class="cls-15" d="M551.45,148.34a1,1,0,0,0,1-.89c0-.09,1-8.77,1.73-13.43s1.13-11.52,1.15-11.81a1,1,0,0,0-2-.1c0,.07-.37,7-1.12,11.59s-1.74,13.44-1.75,13.53a1,1,0,0,0,.88,1.1Z"/><path class="cls-15" d="M542.56,148.34h.14a1,1,0,0,0,.85-1.12c0-.05-.67-4.93-1.27-8.87a39.9,39.9,0,0,1-.34-7.73,1,1,0,0,0-2-.13,42.38,42.38,0,0,0,.36,8.16c.6,3.93,1.26,8.79,1.27,8.83A1,1,0,0,0,542.56,148.34Z"/><rect class="cls-16" x="531.83" y="145.96" width="28.8" height="44.64"/><rect class="cls-17" x="547.22" y="149.94" width="10.79" height="35.52" rx="4.7"/><path class="cls-10" d="M561.49,78.32c1.33-5.73,16.44-28.35,20.8-30.83s10.18,14.43,10.82,21.84-3.5,31.35-11.48,41.81-21,10-21,10-2.91.33-4.17-6.16S560.16,84.05,561.49,78.32Z"/><path class="cls-13" d="M538.09,66.41c.14-10.44,1-43,3.48-43,4.21,0,13.34,11.67,14.68,18.54s1.4,23,3,31S563.7,90.32,564,97.59c.86,23.55-9.18,24.57-9.18,24.57s-12.91.89-17.52-21.09S538,76.85,538.09,66.41Z"/><path class="cls-13" d="M528.13,104.86c-3.32-4.54-6.47-17.63-2.49-23.7s11.89-2.8,15.65,3,8.23,19.12,8.41,23.1,0,14.35-1.66,17.63a16.32,16.32,0,0,1-4.2,4.93c-1.52,1.14-7,1.16-7.29-2.07s2.7-5,2-8.52S531.45,109.41,528.13,104.86Z"/><path class="cls-13" d="M562.37,119.07a.5.5,0,0,0,.43-.24c1.79-2.94,17-46.24,18.65-53.25a.5.5,0,1,0-1-.23c-1.68,7-16.75,50.05-18.53,53a.49.49,0,0,0,.42.76Z"/><path class="cls-13" d="M572.16,92.74a.46.46,0,0,0,.2,0c2.82-1.29,11.89-9,15.68-16.38a.49.49,0,1,0-.88-.45C583.46,83,574.67,90.54,572,91.79a.5.5,0,0,0-.25.66A.52.52,0,0,0,572.16,92.74Z"/><path class="cls-13" d="M570.12,99.6a.54.54,0,0,0,.21,0c.85-.39,1.7-.76,2.52-1.11,4.19-1.82,8.15-3.54,11.39-7.89a.5.5,0,1,0-.8-.6c-3.08,4.14-6.74,5.73-11,7.57-.82.36-1.67.73-2.54,1.13a.5.5,0,0,0,.21.95Z"/><path class="cls-14" d="M548.65,120.4a.5.5,0,0,0,.49-.37c.9-3.51,2.26-8.8-.19-18.91-3-12.59-8.13-17.58-10.86-20.26a12.52,12.52,0,0,1-1.42-1.52.5.5,0,0,0-.82.57,13.3,13.3,0,0,0,1.54,1.66c2.66,2.61,7.62,7.48,10.6,19.78,2.38,9.88,1.06,15,.18,18.43a.49.49,0,0,0,.36.6Z"/><path class="cls-14" d="M553.52,120.84a.49.49,0,0,0,.5-.47,60.56,60.56,0,0,0-.22-7.12c-.09-1.26-.18-2.56-.22-3.82a131.21,131.21,0,0,0-2.88-23.11c-2.09-9.54-2-19.69-2-29.5,0-.89,0-1.76,0-2.64a.5.5,0,0,0-.5-.5h0a.5.5,0,0,0-.5.5c0,.87,0,1.75,0,2.63,0,9.87-.08,20.08,2,29.72a129.29,129.29,0,0,1,2.85,22.94c0,1.27.14,2.58.23,3.85a60.92,60.92,0,0,1,.22,7,.49.49,0,0,0,.47.52Z"/><path class="cls-14" d="M549.54,81.23a.49.49,0,0,0,.3-.1c4.74-3.56,5.82-12.39,5.73-16.56a.51.51,0,0,0-.5-.49h0a.52.52,0,0,0-.49.51c.1,4.64-1.23,12.67-5.33,15.75a.49.49,0,0,0-.1.69A.51.51,0,0,0,549.54,81.23Z"/><path class="cls-14" d="M551.09,90.53a.51.51,0,0,0,.31-.11c3.64-2.9,7.4-8.42,7-13.7a.49.49,0,0,0-.53-.47.5.5,0,0,0-.46.53c.33,4.93-3.23,10.12-6.67,12.86a.49.49,0,0,0-.08.7A.51.51,0,0,0,551.09,90.53Z"/><path class="cls-14" d="M541.37,129.16c.26,0,.45-.24.55-.36a.47.47,0,0,0,.09-.22,43.83,43.83,0,0,1,1.23-4.76c.13-.44.25-.88.38-1.31,1.21-4.25.42-8.74-.5-13a42.29,42.29,0,0,0-2.78-7.83A45.59,45.59,0,0,1,537.85,95a.51.51,0,0,0-.6-.37.5.5,0,0,0-.36.61,45.28,45.28,0,0,0,2.54,6.87,42,42,0,0,1,2.72,7.64c.89,4.1,1.66,8.45.51,12.49l-.38,1.3c-.42,1.41-.85,2.88-1.14,4.32a.48.48,0,0,0-.16.12.5.5,0,0,0-.1.48h0a.52.52,0,0,0,.28.64A.41.41,0,0,0,541.37,129.16Z"/><path class="cls-14" d="M541.57,107.56a.48.48,0,0,0,.42-.23.49.49,0,0,0-.15-.68c-3.18-2-6.75-4.41-8.73-7.58-2.14-3.41-5.38-8.56-5-12.76a.51.51,0,0,0-.45-.54.49.49,0,0,0-.54.45c-.43,4.53,2.91,9.86,5.12,13.38,2.1,3.35,5.77,5.83,9,7.89A.48.48,0,0,0,541.57,107.56Z"/><path class="cls-14" d="M542,109.78a.5.5,0,0,0,.47-.35.49.49,0,0,0-.32-.62,30.91,30.91,0,0,1-5.67-2.62.5.5,0,0,0-.48.87,31.06,31.06,0,0,0,5.84,2.69A.45.45,0,0,0,542,109.78Z"/><path class="cls-14" d="M530.29,95.17a.45.45,0,0,0,.31-.11c2-1.65,2.78-4.48,2.17-8.43a.5.5,0,0,0-1,.15c.55,3.57-.06,6.1-1.81,7.51a.49.49,0,0,0,.31.88Z"/><rect class="cls-18" x="248.62" y="145.16" width="41.42" height="50.02"/><rect class="cls-19" x="248.62" y="157.64" width="41.42" height="1.14"/><rect class="cls-19" x="248.62" y="170.43" width="41.42" height="1.14"/><rect class="cls-20" x="265.1" y="147.63" width="8.47" height="1.39"/><rect class="cls-20" x="265.1" y="160.62" width="8.47" height="1.39"/><rect class="cls-20" x="265.1" y="173.94" width="8.47" height="1.39"/><rect class="cls-21" x="268.06" y="72.52" width="2.67" height="67.35"/><rect class="cls-21" x="261.63" y="79.6" width="28.23" height="2.68" transform="translate(6.75 182.07) rotate(-36.96)"/><rect class="cls-21" x="281.01" y="70.15" width="2.68" height="14.68" transform="translate(-8.03 114.94) rotate(-22.7)"/><polygon class="cls-21" points="279.52 145.16 259.26 145.16 261.13 139.87 277.7 139.87 279.52 145.16"/><polygon class="cls-22" points="278.16 141.2 260.66 141.18 261.13 139.87 277.7 139.87 278.16 141.2"/><polygon class="cls-23" points="303.93 102.8 284.85 110.52 279.18 86.46 291.45 81.49 303.93 102.8"/><polygon class="cls-17" points="299.05 97.66 293.85 99.77 286.42 85 290.63 83.29 299.05 97.66"/><polygon class="cls-24" points="285.22 80.86 282.75 81.9 281.3 78.44 283.51 76.77 285.22 80.86"/><polygon class="cls-24" points="270.73 93.77 268.06 93.77 268.06 88.4 270.73 86.39 270.73 93.77"/><rect class="cls-18" x="545.6" y="145.16" width="41.42" height="50.02"/><rect class="cls-19" x="545.6" y="157.64" width="41.42" height="1.14"/><rect class="cls-19" x="545.6" y="170.43" width="41.42" height="1.14"/><rect class="cls-20" x="562.08" y="147.63" width="8.47" height="1.39"/><rect class="cls-20" x="562.08" y="160.62" width="8.47" height="1.39"/><rect class="cls-20" x="562.08" y="173.94" width="8.47" height="1.39"/><path class="cls-25" d="M332.57,189.94c0,3.34,2.31,6.06,5.15,6.06H497c2.85,0,5.15-2.72,5.15-6.06V97.44c0-3.35-2.3-6.06-5.15-6.06H337.72c-2.84,0-5.15,2.71-5.15,6.06Z"/><path class="cls-25" d="M499.61,190.89a5,5,0,0,1-4.88,5.11H339.4a5,5,0,0,1-4.87-5.11V149a5,5,0,0,1,4.87-5.11H494.73a5,5,0,0,1,4.88,5.11Z"/><path class="cls-26" d="M417.73,162.19a3.91,3.91,0,0,1-3.87,4H338.4a3.91,3.91,0,0,1-3.87-4V147a3.91,3.91,0,0,1,3.87-3.95h75.46a3.91,3.91,0,0,1,3.87,3.95Z"/><path class="cls-27" d="M415.54,160.35a3.68,3.68,0,0,1-3.77,3.57H338.3a3.68,3.68,0,0,1-3.77-3.57V146.62a3.68,3.68,0,0,1,3.77-3.57h73.47a3.68,3.68,0,0,1,3.77,3.57Z"/><path class="cls-26" d="M501.84,162.19a4,4,0,0,1-3.94,4H421.28a4,4,0,0,1-3.94-4V147a3.94,3.94,0,0,1,3.94-3.95H497.9a3.94,3.94,0,0,1,3.94,3.95Z"/><path class="cls-27" d="M499.62,160.35a3.71,3.71,0,0,1-3.84,3.57H421.17a3.71,3.71,0,0,1-3.83-3.57V146.62a3.71,3.71,0,0,1,3.83-3.57h74.61a3.71,3.71,0,0,1,3.84,3.57Z"/><rect class="cls-27" x="419.55" y="95.26" width="77.54" height="44.66" rx="5.11"/><rect class="cls-27" x="336.96" y="95.26" width="77.54" height="44.66" rx="5.11"/><path class="cls-25" d="M532.27,191.63a5.15,5.15,0,0,1-5.1,5.2h-20a5.16,5.16,0,0,1-5.11-5.2v-65a5.16,5.16,0,0,1,5.11-5.21h20a5.15,5.15,0,0,1,5.1,5.21Z"/><rect class="cls-26" x="506.47" y="127.39" width="12.98" height="56.95" rx="5.11"/><path class="cls-25" d="M332.57,190.79a5.16,5.16,0,0,1-5.11,5.21h-20a5.16,5.16,0,0,1-5.11-5.21v-65a5.16,5.16,0,0,1,5.11-5.2h20a5.16,5.16,0,0,1,5.11,5.2Z"/><rect class="cls-27" x="306.76" y="126.55" width="12.98" height="56.95" rx="5.11"/><rect class="cls-28" x="465.53" y="196" width="14.91" height="3.13"/><rect class="cls-29" x="465.53" y="196" width="14.91" height="0.84"/><rect class="cls-28" x="352.7" y="196" width="14.91" height="3.13"/><rect class="cls-29" x="352.7" y="196" width="14.91" height="0.84"/><rect class="cls-30" x="138.55" y="29.14" width="56.36" height="46.52"/><rect class="cls-8" x="140.63" y="30.33" width="52.21" height="44.15"/><rect class="cls-31" x="149.58" y="35.73" width="34.29" height="33.33"/><rect class="cls-32" x="150.48" y="36.61" width="32.51" height="31.58"/><path class="cls-33" d="M174.61,47.4a35.06,35.06,0,0,1,8.38,1v19.8H156.34c-2.45-2.14-3.88-4.71-3.88-7.5C152.46,53.35,162.38,47.4,174.61,47.4Z"/><path class="cls-34" d="M183,51.46V68.19H165.27a8.36,8.36,0,0,1-.88-3.62C164.39,58,172.45,52.49,183,51.46Z"/><path class="cls-35" d="M183,61.46v6.73h-8.22C176.25,65.45,179.15,63.1,183,61.46Z"/><path class="cls-35" d="M176,43.35a20.09,20.09,0,0,1,7,1.22V58a20.09,20.09,0,0,1-7,1.22c-7.3,0-13.21-3.55-13.21-7.93S168.71,43.35,176,43.35Z"/><polygon class="cls-36" points="149.59 35.73 149.97 35.73 183.88 69.07 149.59 69.07 149.59 35.73"/><path class="cls-37" d="M110.71,169.36c3.15,3.7,5.83,9.9,5.83,9.9l5-3-3.89-9.81Z"/><path class="cls-37" d="M72.19,165.94c-2.83,4.16-4.57,10.84-4.57,10.84-2.65,1.45-4.69,1.18-5.49-2.59,1.08-2.2,1.68-6.18,2.58-10.53Z"/><path class="cls-38" d="M135.75,177.1l-13,5.84-6.19,2.77c-1.43-2-1.33-4.75-1.23-7.53a3.26,3.26,0,0,0,1.73.07,9,9,0,0,0,4.61-2.95c1.23-1.52,2.63.81,3.9.14C127.14,174.59,136.15,175.22,135.75,177.1Z"/><path class="cls-39" d="M122.72,182.94l-6.19,2.77c-1.43-2-1.33-4.75-1.23-7.53a3.26,3.26,0,0,0,1.73.07l0,0c.88,1.47,1.79,1,3.25.66a3.36,3.36,0,0,0,1.17,1.69A4.87,4.87,0,0,1,122.72,182.94Z"/><path class="cls-38" d="M76.06,187.28a.28.28,0,0,1-.07.17.29.29,0,0,1-.21.05l-7.19.07-1.15,0a4.16,4.16,0,0,1-4-1.88,37.88,37.88,0,0,1-4.81-7.87c-.43-.87.78-2.32,1.31-3a10.87,10.87,0,0,1,2.65-2.46,4.8,4.8,0,0,0,.38,2.89,4.5,4.5,0,0,0,.72,1.11,2.22,2.22,0,0,0,.87.65,1.37,1.37,0,0,0,.34.07,1,1,0,0,0,.71-.21c.36-.31.43-.91.85-1.14a1.3,1.3,0,0,1,.76-.07A9.69,9.69,0,0,1,69,176a2.55,2.55,0,0,1,1,.52,2.8,2.8,0,0,1,.38,2.43c-.09.6-.19,1.21-.28,1.82a1.28,1.28,0,0,0,0,.7,1.15,1.15,0,0,0,.24.35l1.56,1.85a1.4,1.4,0,0,0,.38.35,1.49,1.49,0,0,0,.62.15,4.25,4.25,0,0,1,2.22.91A2.55,2.55,0,0,1,76.06,187.28Z"/><path class="cls-39" d="M68.59,187.57l-1.15,0a4.16,4.16,0,0,1-4-1.88,37.88,37.88,0,0,1-4.81-7.87c-.43-.87.78-2.32,1.31-3a10.87,10.87,0,0,1,2.65-2.46,4.8,4.8,0,0,0,.38,2.89,4.5,4.5,0,0,0,.72,1.11,2.22,2.22,0,0,0,.87.65,1.37,1.37,0,0,0,.34.07l.09.74a6.43,6.43,0,0,0,.22,2.09c.4.65,1.67.62,2.38.81a1.9,1.9,0,0,0-.76,2.07,10.68,10.68,0,0,0,1,2.17A7.46,7.46,0,0,1,68.59,187.57Z"/><path class="cls-18" d="M121.47,174.34a39.24,39.24,0,0,0-5.36,2.92c-.45.3-1.14.74-1.55,1.08-5-8.94-9.92-22.17-13.64-31.71-.84-2.13-1.71-4.25-2.71-6.31-1.86-3.85-4.49-7.31-6.7-11a38.7,38.7,0,0,1-2.2-4.18c-1.07-2.42-2.11-4.25-.71-6.72a8.32,8.32,0,0,1,14.23-.57,13.18,13.18,0,0,1,1.51,3.38c.26.81.49,1.64.75,2.45-.49-1.54,2.09,2,4.71,8.05a60.59,60.59,0,0,1,2.25,5.78c.63,2,1.07,4,1.55,6.07C115.67,152.27,121.47,174.34,121.47,174.34Z"/><path class="cls-20" d="M110.12,131.55c.74,1.5,1.12,3.22,1.73,4.78a41.85,41.85,0,0,1,1.49,4.82c.8,3.26,1.07,5.26,2,8.48,0,0,5.71,23.09,6.14,24.71-1.17-3.14-7.19-26.52-7.59-28.15s-.79-3.26-1.13-4.89a49.83,49.83,0,0,0-1.26-4.84C111,134.87,110.7,133.12,110.12,131.55Z"/><path class="cls-19" d="M115.87,177.38c-.46.3-1.8,1.34-2.21,1.68-5-8.94-9-22.89-12.74-32.43-.84-2.13-1.71-4.25-2.71-6.31-1.86-3.85-4.49-7.31-6.7-11a26.11,26.11,0,0,1,6-6.56,8.29,8.29,0,0,1,3.26-1.9,6.3,6.3,0,0,1,3.58.37c.26.81.49,1.64.75,2.45-.49-1.54,2.09,2,4.71,8.05-2.5,2.1-7.07,3-7.35,6.91a12.29,12.29,0,0,0,.55,3.89A217.33,217.33,0,0,0,115.87,177.38Z"/><path class="cls-18" d="M89.89,123.35a21.86,21.86,0,0,1-1.57,6,70.79,70.79,0,0,0-2.21,6.84,72.68,72.68,0,0,1-2.21,6.94h0c-.79,1.93-2.19,3.49-3.11,5.36-4,8-11.26,27.19-11.26,27.19s-3.46-1.82-5.47-2.68a11.7,11.7,0,0,1-1.9-.9c0-.21,4-18.27,7.24-28,.73-2.17,1.41-4.36,2-6.59.32-1.31.59-2.62.84-3.94.84-4.43.66-7.72,1.89-12.07.73-2.54,1.84-5.82,4.5-6.82a8.33,8.33,0,0,1,11.31,8.65Z"/><path class="cls-20" d="M83.89,143.13c-.84,2.49-2.46,4.54-3.53,6.92-.54,1.19-1.11,2.37-1.67,3.55L77,157.14s-4.89,12.7-6.19,15c1-2.42,5.49-15.33,5.49-15.33L78,153.28c.59-1.17,1.17-2.34,1.78-3.5C81,147.44,82.75,145.49,83.89,143.13Z"/><path class="cls-19" d="M86.11,136.19a72.68,72.68,0,0,1-2.21,6.94h0c-3,.51-6.68-.14-9.31,1.84a10.34,10.34,0,0,0-2.26,2.54c-4.27,6.33-5.91,18.16-8.32,25.42a11.21,11.21,0,0,1-1.9-.9c0-.21,3.42-18.33,6.65-28.05.72-2.17,1.41-4.35,2-6.58.32-1.31.59-2.62.84-4a24.9,24.9,0,0,1,8.08-.2C81.89,133.55,84.65,134.45,86.11,136.19Z"/><path class="cls-24" d="M98.82,55.38c-.79,1.58-2.9,3.95-2.68,4.71.3,1,0,1.18.12,2.21l5.86-6.84c0-.15-1.23-.21-1.34-.28a.32.32,0,0,1-.16-.39.62.62,0,0,1,.15-.21c.24-.26.45-.52.68-.78l0-.33a4.07,4.07,0,0,0-1.05-2.57,4.64,4.64,0,0,0-2.1-1.62c0,.15.19.69.26,1,.11.53.19.77.33,1.33A5.68,5.68,0,0,1,98.82,55.38Z"/><path class="cls-24" d="M88.65,55.39l1.19-1.33H88.05c-.09-.44-.15-.84-.19-1.21-.57-5.24,2.22-4.63,2.22-4.63-.62,1.5-.14,2.13.07,3.05a3.08,3.08,0,0,0,.18.44c.88,2.91,6,8.26,6,7.59,0,.58,0,3,0,3Z"/><path class="cls-24" d="M90.24,51.61c-.13.38-.41-.31-.61-.22a3.73,3.73,0,0,0-1,.74q-.39.34-.75.72c-.57-5.24,1.81-4.5,1.81-4.5C89.06,49.86,90,50.69,90.24,51.61Z"/><path class="cls-18" d="M73.75,118C74,120.34,71.37,132,70,141l13-3.19,8.6-18.24,5,11.41L111,134.15l-4.93-16.58a75.22,75.22,0,0,0-1.7-14.34L76.68,101.4l-.27,0C73.34,107.61,73.26,112.79,73.75,118Z"/><path class="cls-19" d="M80.69,104.87c-.21.84-.43,1.65-.7,2.45a18.67,18.67,0,0,1-.95,2.31,16.71,16.71,0,0,1-1.25,2.17,19.58,19.58,0,0,1-1.57,2,8.12,8.12,0,0,0,2-1.7,10.54,10.54,0,0,0,1.42-2.19,10.65,10.65,0,0,0,.86-2.45A9.37,9.37,0,0,0,80.69,104.87Z"/><path class="cls-19" d="M82.4,138.34,85.71,137l3.12-9.19,2.66-10.46,1.6-1.68-7,2.64,1.47,1.81-7,12.54s-.57,5.73-.69,6.3S82.4,138.34,82.4,138.34Z"/><path class="cls-19" d="M76.49,101.66c1.93,1.56,4.47,2.08,6.9,2.55L98,107.07a5.87,5.87,0,0,1,3.13,1.28c1,1,1.13,2.58,1.2,4,.12,2.55.25,5.11.31,7.66.32,12.08,8.43,14.62,8.43,14.62s-4.94-22.53-6.72-31.4L76.68,101.4Z"/><path class="cls-20" d="M95.36,104c-.14.91-.23,1.84-.35,2.76l-.28,2.76a7.67,7.67,0,0,1-.26,1.3,3,3,0,0,1-.62,1.1,6,6,0,0,1-1,.89,9.36,9.36,0,0,1-1.12.73l.3.53a.6.6,0,0,0,.22-.27.89.89,0,0,0,.06-.2,2.53,2.53,0,0,0,.07-.36c0-.22,0-.45,0-.66s0-.22,0-.3l0-.33c0-.22,0-.44.08-.66a22.93,22.93,0,0,0,.08-2.62c0-.87,0-1.74-.1-2.61s-.09-1.73-.12-2.6c-.1.86-.13,1.73-.17,2.6l-.07,2.6c0,.86-.08,1.72-.19,2.57l-.09.64-.05.32c0,.13,0,.23,0,.35s0,.42-.06.63,0,.19-.05.28a.76.76,0,0,0,0,.11s0,0,0,0l.3.53a9.55,9.55,0,0,0,1.2-.79,7,7,0,0,0,1.06-1A3.74,3.74,0,0,0,95,111a6.35,6.35,0,0,0,.22-1.42c.05-.94.08-1.85.11-2.78S95.36,104.93,95.36,104Z"/><path class="cls-19" d="M101.88,106.58a10.81,10.81,0,0,0,.18,1.89,15.87,15.87,0,0,0,1.08,3.64,10.8,10.8,0,0,0,.89,1.68c-.13-.62-.3-1.23-.47-1.83l-.53-1.8-.54-1.79C102.3,107.77,102.11,107.17,101.88,106.58Z"/><path class="cls-20" d="M76.4,101.38a26.65,26.65,0,0,0-3,10.6,39.53,39.53,0,0,0,.07,5.55c.14,1.83-2.69,19.31-2.69,19.31s3.4-17.52,3.22-19.36a38.56,38.56,0,0,1-.18-5.48,26.22,26.22,0,0,1,.76-5.43A31.14,31.14,0,0,1,76.4,101.38Z"/><path class="cls-20" d="M95,114c-.61.44-1.21.9-1.81,1.36l-.9.69-.89.7,0,0,0,.09c-.23,1.33.16,1.94-4.37,16.37,5-14.37,4.62-14.94,4.78-16.31l-.07.13.84-.76c.28-.25.57-.5.84-.76C93.91,115.05,94.47,114.55,95,114Z"/><path class="cls-40" d="M125,87.31a2.74,2.74,0,0,0-2.45,1.81,5.28,5.28,0,0,0-.25.77,5.74,5.74,0,0,0-.16,1.11s-12.26-2-17.91-4.45c-2.21-3.54-2.64-6.65-3-10.61-.1-1.26-.19-2.52-.28-3.77-.1-1.54-.17-3.08-.22-4.61v-.13c-.13-4.85-1.45-8.29-.37-12.89.27-1.15,1.72-2.5,3-1.82.7.38,3,1.14,3.64,3.18,2.69,8.09,2.12,15.8,3.15,23.8a.49.49,0,0,0,0,.12C115.33,81.11,121,83.52,125,87.31Z"/><path class="cls-41" d="M121.76,91a5.93,5.93,0,0,0-.16,1.13S109.83,90,104.18,87.45c-2.21-3.61-2.64-7.87-3-11.92-.1-1.29-.19-2.57-.28-3.86-.1-1.57-.17-3.14-.22-4.71v-.13a57,57,0,0,0,1.91-10.25,6.14,6.14,0,0,1,.44-2.18c.54-1.09.56-.08,1.37,1.05.23.31-2.77,3.24-.22,1.14.45-.38.18-.12.91.91,1.86,2.63,1.25,5.66,1.17,8.89,0,1.81-.16,3.62-.36,5.42-.46,4-1.38,8-1.13,12a6.47,6.47,0,0,1,2.76-3.06c-.52,1.5.66,3,1.78,4.15,3.33,3.41,6.7,4.69,11.34,5.79A8.62,8.62,0,0,1,121.76,91Z"/><path class="cls-42" d="M104.68,84.79a6.34,6.34,0,0,1,1.21-2.85,4.69,4.69,0,0,1,1.16-1.06,3.6,3.6,0,0,1,1.46-.54,5.78,5.78,0,0,0-2.35,1.81A12.37,12.37,0,0,0,104.68,84.79Z"/><path class="cls-40" d="M104.52,102.52a1.92,1.92,0,0,1-1.54,2.85c-.45,0-1,0-1.68.06a61.05,61.05,0,0,1-9.79-.91c-4.33-.64-8.56-1.17-12.76-.19a13.82,13.82,0,0,0-1.86.22c-1.37.83-2.16-.16-2-1.76.38-3.88.71-6,.72-8.11,0-2.62-.08-5.25-.25-7.88C75,80.92,73.59,73,74.64,62.38c.2-2-.36-4.38.51-6.31s3.55-2.94,5.42-3.85a34.14,34.14,0,0,1,7.17-2.62l.46-.1a16.58,16.58,0,0,1,7.64.1c.34.1.69.19,1,.3a26.54,26.54,0,0,1,8.24,4.32,4.27,4.27,0,0,1,1.2,1.27,4.32,4.32,0,0,1,.38,1.46c.69,5.34-.76,10.1-2.11,15.31S102,83,101.93,88.43C101.9,93,102,98.12,104.52,102.52Z"/><path class="cls-41" d="M99.68,98.46a7.39,7.39,0,0,0-1,.23,16.18,16.18,0,0,1-5,.79c-1.45,0-2.9,0-4.35.08-2.43.13-5.56,2.8-7.88,3.54-1.4.44-1.56.27-2.65,1.25-.06.05-2.48.55-2.49.56-1.43.14-1.68-.22-1.54-1.64.43-4.17.82-6.53.83-8.59,0-2.62-.08-5.25-.25-7.88C75,80.92,73.59,73,74.64,62.38c.2-2-.36-4.38.51-6.31s3.55-2.94,5.42-3.85a34.14,34.14,0,0,1,7.17-2.62l.46-.1c0,.09,1.81-.45,1.83-.36.4,1.76,2.07,2.66,2.86,4.28-1.15-.43-5,.2-6.21,0a5.88,5.88,0,0,0-3.25.46,8.12,8.12,0,0,0-1.63.9,4.78,4.78,0,0,0-.81.69,3.2,3.2,0,0,0-.59,1,5.48,5.48,0,0,0-.13,2c.21,3.86.15,7.17,1.61,10.75s4.44,6.78,8.25,7.44c-1.14.47-2.41,0-3.6-.33s-2.67-.38-3.41.61,0,2.69.63,3.72a11.13,11.13,0,0,0,2.66,2.9l-.37.06a1.87,1.87,0,0,1-.56-.12c-.38-.13-.73-.36-1.13-.48a1.57,1.57,0,0,0-1.15.07,1,1,0,0,0-.51.55,1.68,1.68,0,0,0,.37,1.54,8.55,8.55,0,0,0,3.79,2.47,13.71,13.71,0,0,0,3.52.79,27.27,27.27,0,0,0,7.74-.62l-2.76,2.75a43.91,43.91,0,0,0,5.24-1.71,4.05,4.05,0,0,0-.12,3.72,10,10,0,0,1,.92,3.58,2.15,2.15,0,0,1-.2.82C100.72,98.07,100.22,98.33,99.68,98.46Z"/><path class="cls-42" d="M77.45,94.61a17.07,17.07,0,0,0,4.13,1.76,19.25,19.25,0,0,0,4.41.72,23.85,23.85,0,0,0,4.47-.16,39.68,39.68,0,0,0,4.43-.83,25.58,25.58,0,0,1-4.39,1.08,22.92,22.92,0,0,1-4.53.25,18.92,18.92,0,0,1-4.47-.81A14.88,14.88,0,0,1,77.45,94.61Z"/><path class="cls-42" d="M77.38,97.26a2.69,2.69,0,0,1,2,.31,3.23,3.23,0,0,1-1,0A3.18,3.18,0,0,1,77.38,97.26Z"/><path class="cls-42" d="M81.64,65.82A27.05,27.05,0,0,1,82.4,69c.1.54.19,1.08.26,1.62a3.47,3.47,0,0,0,.19.77,1.27,1.27,0,0,0,.47.63,1.25,1.25,0,0,1-.62-.56,2.89,2.89,0,0,1-.29-.79c-.13-.54-.24-1.07-.34-1.61A29.67,29.67,0,0,1,81.64,65.82Z"/><path class="cls-42" d="M83,79.37a4,4,0,0,0,.65,1.73,6.62,6.62,0,0,0,1.23,1.36c1,.8,2.08,1.42,3,2.28a24.08,24.08,0,0,1-3.22-2,5.54,5.54,0,0,1-1.24-1.49A3.16,3.16,0,0,1,83,79.37Z"/><path class="cls-42" d="M99.67,75.28c-1,.36-2,.67-3,1s-2,.5-3,.71a10.21,10.21,0,0,1-3.12.16,18.22,18.22,0,0,1-3-.63c1,.14,2,.32,3.06.38a12.83,12.83,0,0,0,1.52,0c.51,0,1-.13,1.52-.22,1-.18,2-.42,3-.64S98.66,75.51,99.67,75.28Z"/><path class="cls-37" d="M99.17,50.48l.44,4.11c-.84,1.81-1.94,4.62-3.16,5.8l-6.2-7.23-.56-4.06a45.08,45.08,0,0,0,2-5.17,15.63,15.63,0,0,0,.51-2.17,5.62,5.62,0,0,0,.08-1l.73.67,4.5,4.16c-.37,1.72.92,4,1.22,4.9C98.84,50.76,99.17,50.48,99.17,50.48Z"/><path class="cls-43" d="M97.93,50a5.18,5.18,0,0,1-1.28.6A17.37,17.37,0,0,1,94,51.2a10.09,10.09,0,0,1-2.51.19L89.69,49.1a45.08,45.08,0,0,0,2-5.17,15.63,15.63,0,0,0,.51-2.17l.11-.07a5.46,5.46,0,0,1,.7-.3l4.5,4.16A8.94,8.94,0,0,0,97.93,50Z"/><path class="cls-44" d="M106.14,37.74a6.73,6.73,0,0,0,.8-3.8c0-1.31-.27-2.62-.31-3.93a1.25,1.25,0,0,1,.18-.83,1.59,1.59,0,0,1,2.17.11,1.27,1.27,0,0,1,.23.7c0,.37.08.74.1,1.11a7.2,7.2,0,0,1-.26,2.4,7.68,7.68,0,0,1-1,2.23,7.59,7.59,0,0,1-1.67,1.82Z"/><path class="cls-37" d="M108,32.66a8.9,8.9,0,0,1-.74,3.25c-.27.64-.62,1.24-.84,1.89-.33,1-.34,2.1-.59,3.13-.69,2.81-3.09,4.89-5.38,6.8A5,5,0,0,1,98,49.07a2.75,2.75,0,0,1-.86,0,3,3,0,0,1-1-.34A8,8,0,0,1,93.45,46l-.32-.49a14.23,14.23,0,0,1-2.67-6.73c0-.57.1-1.13.09-1.69a2.36,2.36,0,0,0-.1-.53,6.41,6.41,0,0,1-.11-.88,17,17,0,0,1,0-3.9,7.15,7.15,0,0,1,2.18-4.42c2.23-2,5.77-2,8.78-1.17l.09,0a10.86,10.86,0,0,1,4.77,2.51q.21.21.39.42a5.72,5.72,0,0,1,1.17,2.11A4.5,4.5,0,0,1,108,32.66Z"/><path class="cls-45" d="M106.58,29.14a3,3,0,0,1-.59.16,11.92,11.92,0,0,1-2.46.15,19.66,19.66,0,0,1-3.07-.25c-1.45-.22-3.16-.52-4.2.5s-.83,2.43-.92,3.75c-.12,1.72-.7,3.38-.93,5.09a20,20,0,0,0,1.73,10.18A8,8,0,0,1,93.45,46l-.32-.49a14.23,14.23,0,0,1-2.67-6.73c0-.57.1-1.13.09-1.69a2.36,2.36,0,0,0-.1-.53,6.41,6.41,0,0,1-.11-.88,17,17,0,0,1,0-3.9,7.15,7.15,0,0,1,2.18-4.42c2.23-2,5.77-2,8.78-1.17l.09,0a10.86,10.86,0,0,1,4.77,2.51Q106.4,28.93,106.58,29.14Z"/><path class="cls-46" d="M97.12,36.24c0,.5.22.93.58,1s.69-.35.73-.85-.21-.93-.58-1S97.16,35.74,97.12,36.24Z"/><path class="cls-46" d="M103.74,37.11a.85.85,0,0,0,.5,1c.37.07.75-.28.84-.78a.83.83,0,0,0-.5-1C104.21,36.26,103.84,36.61,103.74,37.11Z"/><path class="cls-47" d="M100.16,33.54h0c-.17.28-1.59.15-2,.14a15.26,15.26,0,0,0-4.28.22c.58-.19,1.12-.42,1.69-.62a9.4,9.4,0,0,1,2.72-.46,3.42,3.42,0,0,1,1,0C99.58,32.93,100.33,33.23,100.16,33.54Z"/><path class="cls-47" d="M104.23,34.29h0c0,.31.82.48,1,.54a5.21,5.21,0,0,1,2.25,1.1c-.26-.3-.49-.64-.74-.94a3.6,3.6,0,0,0-1.34-1,1.37,1.37,0,0,0-.55-.18C104.72,33.83,104.23,34,104.23,34.29Z"/><path class="cls-8" d="M99.18,44a7.13,7.13,0,0,1-2.72-1.1,2.22,2.22,0,0,0,.48,1.37,3.39,3.39,0,0,0,2.13,1.27.82.82,0,0,0,.65-.06,5.29,5.29,0,0,0,2-1.35A10.89,10.89,0,0,1,99.18,44Z"/><path class="cls-43" d="M102.09,40.5A1.54,1.54,0,0,1,101,41.83a1.73,1.73,0,0,1-.93,0,1.57,1.57,0,0,1-.42-.18l-.18-.14a.26.26,0,0,1-.11-.2.27.27,0,0,0,.17.1l.2,0a2.63,2.63,0,0,0,.39.06,2.4,2.4,0,0,0,.76-.09,2.13,2.13,0,0,0,.68-.36A2.88,2.88,0,0,0,102.09,40.5Z"/><path class="cls-44" d="M111.91,24.59a3.06,3.06,0,0,0-.51-.1c0,.15.13.38.18.53a5.22,5.22,0,0,1,.18.56,7.53,7.53,0,0,1,.22,1.15,8,8,0,0,1,0,2.19,7.9,7.9,0,0,1-1.83,4,.26.26,0,0,0,.06-.18,2.06,2.06,0,0,0-.15-.79,2,2,0,0,0-.62-.86,1.56,1.56,0,0,0-.85-.32c-.92-.17-1.72-.68-2.62-.94s-1.83-.41-2.72-.76c-1.06-.43-2.07-1-3.14-1.4A7.92,7.92,0,0,0,97.46,27a4.58,4.58,0,0,0-.74,0,3.78,3.78,0,0,0-1.89.73,2.72,2.72,0,0,0-.63.68,2.85,2.85,0,0,0-.16.3,9.56,9.56,0,0,0-.38,2.2,4.67,4.67,0,0,1-.27.9c-.2.48-.53.88-.75,1.35a4.73,4.73,0,0,0-.42,1.65,15.37,15.37,0,0,0,.15,1.64s-.24,0-.27-.06l-.47-.06-.15,0h-.09a.8.8,0,0,0-.36.27l-.09.15a2,2,0,0,0-.2.65,13.18,13.18,0,0,0-.23,2.35c-.23-.56-.47-1.13-.72-1.68q0,.32.06.63c-.11-.3-.23-.61-.35-.91-.22-.6-.42-1.21-.61-1.82a14.1,14.1,0,0,1-.66-7,13.93,13.93,0,0,1,.43-1.53c.1-.26.21-.53.32-.79s.19-.6.35-.71c-.38.26-.76.5-1.14.75a17.69,17.69,0,0,1,1.2-2.61,4.14,4.14,0,0,1,2.67-2l.26-.06a2.84,2.84,0,0,0-1.55-.42A5.36,5.36,0,0,1,93,21.41a1.49,1.49,0,0,1,.34-.89,4.94,4.94,0,0,1,.7-.67,3.49,3.49,0,0,0,0,1,10.9,10.9,0,0,1,1.22-1,6,6,0,0,1,1.4-.65l.5-.13a10.69,10.69,0,0,1,3.66-.23,13.35,13.35,0,0,0,4.84,0,2.4,2.4,0,0,1-.52,1.06,10.64,10.64,0,0,0,3.85.29l-1.33.82c2.17.67,4.43,1.9,5.13,3.94a4.73,4.73,0,0,0-.68-.33Z"/><path class="cls-48" d="M110.19,32.71h0a2.06,2.06,0,0,0-.15-.79,2,2,0,0,0-.62-.86,1.56,1.56,0,0,0-.85-.32c-.92-.17-1.72-.68-2.62-.94s-1.83-.41-2.72-.76c-1.06-.43-2.07-1-3.14-1.4A7.92,7.92,0,0,0,97.46,27a3,3,0,0,0,.31-.48c2.17.46,4.53.09,6.54,1a28.86,28.86,0,0,1,2.89,1.91,16.11,16.11,0,0,1,2,1.23A2.45,2.45,0,0,1,110.19,32.71Z"/><path class="cls-48" d="M95.59,25.23a6.34,6.34,0,0,0-1.39,3.2,2.85,2.85,0,0,0-.16.3,9.56,9.56,0,0,0-.38,2.2,4.67,4.67,0,0,1-.27.9c-.2.48-.53.88-.75,1.35a4.73,4.73,0,0,0-.42,1.65,15.37,15.37,0,0,0,.15,1.64s-.24,0-.27-.06l-.47-.06-.15,0h-.09a.8.8,0,0,0-.36.27l-.09.15a2,2,0,0,0-.2.65,13.18,13.18,0,0,0-.23,2.35c-.23-.56-.47-1.13-.72-1.68q0,.32.06.63c-.11-.3-.23-.61-.35-.91-.22-.6-.42-1.21-.61-1.82a14.1,14.1,0,0,1-.66-7,13.93,13.93,0,0,1,.43-1.53c.1-.26.21-.53.32-.79s.19-.6.35-.71c-.38.26-.76.5-1.14.75a17.69,17.69,0,0,1,1.2-2.61,15.3,15.3,0,0,1,2.74-.78c.07,0,.27,0,.33-.05A3.68,3.68,0,0,0,91.14,25,6.82,6.82,0,0,1,94,24.15a6.63,6.63,0,0,0-1.55,2.13A11.49,11.49,0,0,1,95.59,25.23Z"/><path class="cls-49" d="M97.69,21a4.67,4.67,0,0,1,2.71-1.17,7.24,7.24,0,0,1,2.93.41,20.2,20.2,0,0,0-2.9-.07A7.7,7.7,0,0,0,97.69,21Z"/><path class="cls-49" d="M99.52,23a7.81,7.81,0,0,1,1.22-.54,11.27,11.27,0,0,1,1.3-.34,12.55,12.55,0,0,1,2.67-.2,6.52,6.52,0,0,1,2.64.53A9.07,9.07,0,0,1,109.52,24c-.37-.24-.74-.5-1.12-.72a6.66,6.66,0,0,0-1.16-.59,7.26,7.26,0,0,0-2.54-.44,17.62,17.62,0,0,0-2.62.12A11.39,11.39,0,0,0,99.52,23Z"/><path class="cls-49" d="M101.58,24.69a8.6,8.6,0,0,1,2.48.09,6.19,6.19,0,0,1,2.33.92,5.7,5.7,0,0,1,1.7,1.86,12.68,12.68,0,0,1,1,2.25c-.21-.35-.4-.72-.61-1.07a12.05,12.05,0,0,0-.64-1A6.18,6.18,0,0,0,106.2,26a7.11,7.11,0,0,0-2.2-1,9.58,9.58,0,0,0-1.19-.22C102.4,24.75,102,24.72,101.58,24.69Z"/><path class="cls-49" d="M94.84,22.06a5.36,5.36,0,0,1,1.77,1.26,5.51,5.51,0,0,1,1.17,1.83c-.48-.55-.93-1.09-1.42-1.6S95.36,22.56,94.84,22.06Z"/><path class="cls-49" d="M94.36,22.94a9.62,9.62,0,0,0-2,.69,10.4,10.4,0,0,0-1.8,1.13,3.91,3.91,0,0,1,1.65-1.44A4,4,0,0,1,94.36,22.94Z"/><path class="cls-49" d="M94.93,23.87a7.27,7.27,0,0,0-1.09.51c-.35.2-.69.42-1,.64a11.79,11.79,0,0,0-1.7,1.69,6.38,6.38,0,0,1,.61-1.08,3.63,3.63,0,0,1,.9-.89,6.06,6.06,0,0,1,1.09-.6A3.38,3.38,0,0,1,94.93,23.87Z"/><path class="cls-49" d="M96.08,25a1.11,1.11,0,0,0-.43.3l-.39.38-.76.76-.76.75a4.07,4.07,0,0,0-.67.82,2.3,2.3,0,0,1,.47-1,8,8,0,0,1,.72-.82,9.41,9.41,0,0,1,.83-.71l.45-.31A1,1,0,0,1,96.08,25Z"/><path class="cls-45" d="M91.2,32.85a1.46,1.46,0,0,0-1.09-.67.76.76,0,0,0-.34.06.67.67,0,0,0-.25.28,3.82,3.82,0,0,0-.36,1.7,5.76,5.76,0,0,0,.59,3.57,1.3,1.3,0,0,0,.48.48.66.66,0,0,0,.65,0c.31-.2.25-.64.24-1a5.59,5.59,0,0,1,.41-1.85,5.09,5.09,0,0,0,.24-1,1,1,0,0,0-.13-.64A8.77,8.77,0,0,0,91.2,32.85Z"/><path class="cls-43" d="M91.06,33.93a3.22,3.22,0,0,0-.33-.7c-.13-.2-.35-.37-.53-.3a.41.41,0,0,0-.2.21,1.08,1.08,0,0,0-.06.33l0,.78c0,.52-.06,1,0,1.54a2,2,0,0,0,.54,1.31l-.21.09a.74.74,0,0,1,.22-.49.62.62,0,0,1,.21-.16s0,0,0,0,0,0,0-.08a2.41,2.41,0,0,1-.07-.48.41.41,0,0,1,.27-.38.37.37,0,0,0-.18.38,1.84,1.84,0,0,0,.13.44.34.34,0,0,1,0,.15.21.21,0,0,1-.1.16.41.41,0,0,0-.15.14.54.54,0,0,0-.12.36v.26l-.22-.17a2.12,2.12,0,0,1-.7-1.47,12,12,0,0,1,0-1.59l.06-.78a.78.78,0,0,1,.49-.74.51.51,0,0,1,.45.12.91.91,0,0,1,.26.33A2.68,2.68,0,0,1,91.06,33.93Z"/><path class="cls-37" d="M97.09,87.8a1.69,1.69,0,0,1,.56.19,2.34,2.34,0,0,1,.56.57L100.89,92a.64.64,0,0,1,.16.57.32.32,0,0,1-.22.19,3.86,3.86,0,0,1-3.62-.53,3.56,3.56,0,0,0-.95-.59c-.3-.08-1,1.68-1.55,1.16s-3.34-.24-4.48-.76c-.75-.35,1.51-2.84,1.8-3.81a1.53,1.53,0,0,1,.6-.82,1.34,1.34,0,0,1,.79-.33c.79.11,1.57.31,2.35.46Z"/><path class="cls-40" d="M94.47,87.28c-1.61.41-2.32,2.81-2.52,3.81a4.85,4.85,0,0,0-.1,1.35s-13.19-1-18.56-3.4c-1.81-3.39-1.77-7.38-1.64-11.19.09-2.68.21-5.37.44-8A48.46,48.46,0,0,1,74.9,56.87c.46-1.26,2.17-2.34,3.39-1.29a3.57,3.57,0,0,1,1.08,1.69c0,.15.09.3.13.45a41.55,41.55,0,0,1,.6,23.86,46.14,46.14,0,0,1,13.82,5.35Z"/><path class="cls-41" d="M91.8,92.47S78.66,91.4,73.29,89c-1.81-3.39-1.77-7.38-1.64-11.19.09-2.68.21-5.37.44-8a70.16,70.16,0,0,1,2.55-13c.68-2.5,2.43-2.28,3.65-1.23a3.57,3.57,0,0,1,1.08,1.69c0,.15.09.3.13.45A2.93,2.93,0,0,0,77.73,57c-1.36,0-1.75,1.55-2.12,2.49a45.21,45.21,0,0,0-2.16,7.64,43.75,43.75,0,0,0-.77,7.83c0,.32,0,.65,0,1a21.9,21.9,0,0,0,2,9.61,8,8,0,0,1,3-2.52c-.57.66-1.14,1.63-.53,2.25a1.84,1.84,0,0,0,.68.39c4.85,2,9.23,3.6,14.19,5.33C91.88,91.73,91.8,92.47,91.8,92.47Z"/><path class="cls-50" d="M74.34,86.26a6.75,6.75,0,0,1,2-2.36A13.56,13.56,0,0,1,79,82.25c-.82.66-1.68,1.24-2.49,1.88A14.36,14.36,0,0,0,74.34,86.26Z"/><path class="cls-50" d="M77.82,54.85a11.64,11.64,0,0,1,1.29,1.91,15,15,0,0,1,.91,2.1,27.15,27.15,0,0,1,1,4.41c.23,1.49.43,3,.53,4.49a35.58,35.58,0,0,1,.09,4.5c-.07-1.5-.18-3-.34-4.48s-.36-3-.61-4.46a31.23,31.23,0,0,0-1-4.39A14.58,14.58,0,0,0,77.82,54.85Z"/><polygon class="cls-8" points="91.22 64.22 84.24 65.61 83.06 62.01 90.04 60.61 91.22 64.22"/><polygon class="cls-8" points="84.86 59.67 86.33 62.04 87.38 61.75 86.34 59.14 84.86 59.67"/><polygon class="cls-51" points="147.02 89.16 96.26 90.45 96.24 91.36 115.41 94.38 147 90.06 147.02 89.16"/><polygon class="cls-52" points="129.8 86.65 96.26 90.45 115.43 93.46 147.02 89.14 129.8 86.65"/><polygon class="cls-53" points="129.16 87.25 101.53 90.38 117.33 92.86 143.36 89.3 129.16 87.25"/><path class="cls-54" d="M112.7,91s-2.19-.6-2.38-1.47l20.73-.21a2.42,2.42,0,0,1-2,1.33C127.5,91,117,91.83,112.7,91Z"/><ellipse class="cls-8" cx="120.63" cy="89.35" rx="10.42" ry="1.35"/><path class="cls-30" d="M115.85,88.72s-1.56-.24-.93-1-.35-1.92.18-2.05.57-.18,1,0,.48-1,1.19-.12.1.84,1.34.85,1.23,0,1.54.59.1.75.44,1.25l.33.5Z"/><path class="cls-55" d="M121,88.6s0-.4.59-.72a6.14,6.14,0,0,1,5.81.64c2.15,1.74-1.5,1.25-2.25,1.45S121.58,89.7,121,88.6Z"/><path class="cls-56" d="M121,88.7s1-.86-.47-1.21-1.85.44-2.38-.27-1.06-.31-1.55,0a7.89,7.89,0,0,1-1.78.72c-.18,0-1.46-.71-1.54-.26a4.86,4.86,0,0,0,0,1.19Z"/><path class="cls-57" d="M113,90s-.09-.13,0-.84.84-.29,1.24-.26.53-.34,1.64-.15,1.73-.52,2.57-.26,2.88-.1,3.5.73,2.26.38,2.44.78S115.74,90.59,113,90Z"/><path class="cls-58" d="M102.45,88.46a5.91,5.91,0,0,1-2.08-.52,10.77,10.77,0,0,0-2.55-.82,3,3,0,0,0-3.46,1.54c-.78,1.77-.11,1-.43,1.57A3.1,3.1,0,0,0,93.87,92c0,.5-.05,1.64.28,2a2.75,2.75,0,0,0,1.08.83c.54.29,2,1.23,2.68,1.15s1.9-.63,1.82-.83c0,0,1-.35,1.16-.72,0,0,1.08.06,1.27-.67,0,0,.75.14,1.09-.25s.49-.61-.25-1.28-2.2-1.39-2.66-1.75A13.66,13.66,0,0,1,99,89.1c.63.7.71.56.71.56s3,.65,4.08.24C105.27,89.34,102.45,88.46,102.45,88.46Z"/><path class="cls-42" d="M97.32,90.63s2,1.55,2.42,1.76,2.42,1.44,2.42,1.44h.11l.18,0s-1.33-.92-1.91-1.22C99,91.81,97.41,90.57,97.32,90.63Z"/><path class="cls-42" d="M101,94.45h-.13l-1.38-.36-2.26-1.23s-.65-.29-.73-.31-.19-.38.13-.18,2.44,1.45,2.82,1.59S101,94.45,101,94.45Z"/><path class="cls-42" d="M99.84,95.06l-.11.16A9.17,9.17,0,0,1,98.4,95a13.82,13.82,0,0,0-1.31-.62A8.91,8.91,0,0,0,96,94.06c-.12,0-.21-.22,0-.18a18,18,0,0,1,2.07.84,3.43,3.43,0,0,0,1.07.35A3.61,3.61,0,0,0,99.84,95.06Z"/><path class="cls-42" d="M100,92.77s-.06.88-.63,1c0,0,.11.14.19.08A1.24,1.24,0,0,0,100,92.77Z"/><path class="cls-42" d="M99.41,94.38a.81.81,0,0,1-.6.72s.11.1.19.06S99.56,94.77,99.41,94.38Z"/><path class="cls-42" d="M98.3,95.14a.84.84,0,0,1-.62.75s.11.11.19.07S98.45,95.55,98.3,95.14Z"/><path class="cls-42" d="M94.65,92.33a.51.51,0,0,0,.4.54c.43.07.35,0,.35,0A.73.73,0,0,1,94.65,92.33Z"/><path class="cls-42" d="M95.35,90.69a.5.5,0,0,0,.39.54c.43.08.35,0,.35,0A.71.71,0,0,1,95.35,90.69Z"/><path class="cls-42" d="M96.29,89.06a.51.51,0,0,0,.4.54c.43.08.35,0,.35,0A.73.73,0,0,1,96.29,89.06Z"/><path class="cls-42" d="M94.35,93.85a.51.51,0,0,0,.4.54c.42.08.35,0,.35,0A.73.73,0,0,1,94.35,93.85Z"/><path class="cls-42" d="M99.55,88.9a3.14,3.14,0,0,0-.75-.67c-.32-.16-.14.25-.14.25l-1-.43s1.38,1.47,1.67,1.66-.36-.56-.36-.56l.41.06Z"/><path class="cls-41" d="M139.12,84.73a1.24,1.24,0,0,0-1.72-.51c.06-.71.06-1.18.06-1.18a12.3,12.3,0,0,1-5.15.36A5.24,5.24,0,0,1,130.8,83a9.37,9.37,0,0,0,1.7,6.12,5.54,5.54,0,0,0,3.19,0,4,4,0,0,0,.53-.68h0S139.71,86,139.12,84.73Zm-.79.67c-.05.57-1,1.32-1.5,1.73a13.37,13.37,0,0,0,.52-2.44C137.71,84.71,138.42,84.48,138.33,85.4Z"/><path class="cls-40" d="M137.46,83.08c0,.28-1.49.5-3.33.5s-3.33-.22-3.33-.5,1.49-.49,3.33-.49S137.46,82.81,137.46,83.08Z"/><path class="cls-59" d="M131.28,83.34a13.56,13.56,0,0,1,3-.26,11.72,11.72,0,0,1,2.56.29A16.76,16.76,0,0,1,131.28,83.34Z"/><path class="cls-58" d="M137.46,83.25s-1.53,4.26-3.56,4.68-1.4,1.23-1.4,1.23a5,5,0,0,0,3.19,0A9.21,9.21,0,0,0,137.46,83.25Z"/><path class="cls-58" d="M126.39,85.11a23.51,23.51,0,0,1,3.43.72c.85.35,2.37,2.17,1.44,2.24s-2.37-1.42-4.17-1.14-3.21.36-3.21.36A3.23,3.23,0,0,1,126.39,85.11Z"/><g id="_3" data-name="3"><path class="cls-60" d="M164.9,147.83s-28.63,2.19-34.35,4.29-9.63,5.55-15.3,24.56c-4.13,13.84-3.55,17.62-3.55,17.62h3.24s4.69-31.81,14.92-37.34c9-4.84,35-4.84,35-4.84Z"/><path class="cls-60" d="M165.7,147.75s2.05-16.63.93-18.36-20.34-3.22-26.13,4.53-9.27,13.36-9.95,18.2,4.11,0,4.11,0,6.21-13.26,11.07-17,18.1-5.05,18.48-3.17-.75,15.8-.75,15.8Z"/><path class="cls-18" d="M168.12,130.27s.79-4.68,0-5.05-22.61.7-24.66,1.75-9.52,9.11-8.77,10.5,3.17,2,6.15,0,3.74-5.83,7.84-6.58S168.12,130.27,168.12,130.27Z"/><path class="cls-60" d="M182.11,169c-.73,18-11.21,32.2-23.4,31.7s-21.5-15.49-20.77-33.49,11.21-32.2,23.41-31.71S182.84,151,182.11,169Zm-20.89-28.9c-10.42-.43-19.38,12.07-20,27.91s7.28,29,17.7,29.44,19.38-12.08,20-27.91S171.64,140.56,161.22,140.14Z"/><path class="cls-18" d="M181.91,169c-.62,15.39-9.58,27.52-20,27.1s-18.37-13.24-17.75-28.63,9.58-27.52,20-27.1S182.53,153.64,181.91,169Zm-17.86-24.7c-8.9-.36-16.56,10.32-17.11,23.85s6.23,24.81,15.13,25.17,16.57-10.32,17.12-23.86S173,144.69,164.05,144.33Z"/><rect class="cls-39" x="130.85" y="170.78" width="36.17" height="3.55" transform="translate(-26.61 27.16) rotate(-9.57)"/><rect class="cls-60" x="130.19" y="152.42" width="3.35" height="35.62"/><ellipse class="cls-18" cx="131.87" cy="199.34" rx="8.46" ry="10.56"/><ellipse class="cls-39" cx="133.06" cy="199.34" rx="5.44" ry="6.79"/><path class="cls-18" d="M134.52,185.22s-4.46-1.49-5.29,0,1.57,18,5.39,15.86C136.14,200.24,134.52,185.22,134.52,185.22Z"/><path class="cls-20" d="M211.85,98.59s7-.21,7.5,1.19-.67,1.67-.67,1.67l-7.45-.67Z"/><ellipse class="cls-61" cx="210.81" cy="99.77" rx="1.73" ry="3.25"/><ellipse class="cls-18" cx="210.04" cy="99.77" rx="1.73" ry="3.25"/><path class="cls-39" d="M199,104.26s.95-5.05,3.25-5.34,7.5-.34,7.5-.34a1.77,1.77,0,0,1,0,2.5c-.56.64-4.41-.65-5.68.44a7.26,7.26,0,0,0-1.82,3.11Z"/><path class="cls-20" d="M181.51,97.36s7.22-.22,7.72,1.23-.69,1.72-.69,1.72l-7.67-.7Z"/><ellipse class="cls-61" cx="180.44" cy="98.58" rx="1.79" ry="3.35"/><ellipse class="cls-18" cx="179.64" cy="98.58" rx="1.79" ry="3.35"/><path class="cls-39" d="M168.26,103.21s1-5.21,3.35-5.51,7.17-.35,7.17-.35,2.19,1.25.47,2.66c-.95.78-5.1-.57-6.41.56a4.16,4.16,0,0,0-1.23,3Z"/><path class="cls-20" d="M168.26,102.94s13.18,1.51,18.53,1.88,14.43-2.29,15.4-.68-2.39,43.27-6.87,45.31-29,.73-29.62-1.7S165.64,108,168.26,102.94Z"/><path class="cls-18" d="M171.37,103.29s-1.37,44.84-2.74,45.52-2.78.65-2.93-1.06-.62-37.8,2.56-44.81Z"/><path class="cls-18" d="M202.19,104.14s-2.76-1.94-3.32-.45-4,43.64-5.9,45.53c0,0-.07,1.74,2.35.23S202.9,123.63,202.19,104.14Z"/><path class="cls-18" d="M130.55,152.12s-2.32,2.58,4.11,4.59,21.48,3.73,25.4,3.15,5.35-3.25,16.38-4.44,23.68-.36,23.68-1.68,2.75-3.16,0-4.29-29.85-2.06-35.22-1.62S133.15,149,130.55,152.12Z"/><path class="cls-62" d="M110,195.2s-3.66-.77-3.91.33l-.17,1.86s11.33,1.91,12.69,2a16.74,16.74,0,0,0,2.36,0s2.23-1.55-.5-2.47a35,35,0,0,0-5.58-1.3Z"/><path class="cls-63" d="M119.34,163s-3.41,25.36-7.26,27.82c0,0-5.75,1.43-1.26,2.18,12.7,2.13,9.26-2.18,9.26-2.18s-.68-2.26.24-3.61,7.94-17.48,7.93-20.89Z"/><path class="cls-64" d="M110.21,191.46s-4.84,1.16-5.9,2.52,4,2,4,2,1.63-.13,5.5-.18,2.2,0,5.29,0,2.35-2.34,1.88-3.44a8.08,8.08,0,0,0-.94-1.45,1.17,1.17,0,0,1-.81,1.83C117.64,193.08,108.44,194.43,110.21,191.46Z"/><path class="cls-51" d="M158.86,138.49s-27.58,1.09-33.58,5-5.79,7.83-6.6,10.62-5.64,27.2-5.08,28.19,10.48,3.78,11.46,2.11,6.7-27.1,9.4-29,25.91-4.81,28.81-6.35,6.28-6.8,6.28-6.8Z"/><path class="cls-65" d="M186.68,94.34l6.24,3.07s-3.15,10.78-12,10.36S172,97.05,172,97.05l3.24-2,2.38-1.44Z"/><path class="cls-66" d="M177.32,90.89s-.1,2.59-.18,3.07l-1.87,1.14s-.34.84,2.82,1.57,9.33.33,10.15-1.57a3.14,3.14,0,0,1-1.48-1.91,33.4,33.4,0,0,1-.18-4.49,27.46,27.46,0,0,1-4.83,2.17C180.65,91.3,179.26,92.82,177.32,90.89Z"/><path class="cls-65" d="M186.66,79.25a14.36,14.36,0,0,1,.5,5.82,13.51,13.51,0,0,1-1.47,3.59,10.18,10.18,0,0,1-8.39,3.62c-1.69-.19-2.91-1.86-3.85-4.31a22.16,22.16,0,0,1-.75-2.89c-.27-4-.83-6.53-.85-7.38s-.41-6.72,7.09-7.18C186.18,70.07,186.56,76.34,186.66,79.25Z"/><path class="cls-67" d="M174.09,73.16s-1.29,3.24.88,3.71,3.62.16,3.83.93-.21,2.12,1.54,2.77,3.18.43,2.61,1-2.56,1.48-1.48,3.06S184.28,88,184,89.47s-2.53,2.19-2.53,2.19a42.32,42.32,0,0,0,3.86-1.78c.62-.44,2.94-1.43,1.65-4.16s-.08-6.75-3.17-7.9-5.32-4.11-6.95-6.92S174.09,73.16,174.09,73.16Z"/><path class="cls-54" d="M173.67,72.49s-1,3.44,2.42,4.18,4.31.16,4.43,1.75S182.94,80,184,80.63s-2,1.31-1.2,4.24,1.7,2,1.7,4.65c0,1.32.9,1.77,2.52,2.13C190.23,92.36,191,88,191,88s5.28-1.71,4.09-4.91c-1.06-2.85.41-5.77-1-8.78-1.86-4-2.91-2.25-5.23-5s-5.56-1.84-9.47-1.21-5.26,2.29-7.44,5.26c-1.41,1.91-.15,4.48-.58,6.34s-1.82,4-.6,5.25c2.52,2.57.81,3.87,2.46,5.07a16.77,16.77,0,0,0,1.66.83A10.93,10.93,0,0,1,173.22,87c-1-3.59-.68-5.7-.93-6.91a8.32,8.32,0,0,1,.47-4.12A27.5,27.5,0,0,0,173.67,72.49Z"/><path class="cls-8" d="M181.6,80.91c0-.3-.06-.55-.08-.66l0-.11h-.1s-2.52,0-4,.19c-1,.1-1.14.2-1.16.33a1.49,1.49,0,0,0,0,.24.7.7,0,0,1-.69.74h0a.72.72,0,0,1-.71-.66c0-.1,0-.18,0-.23s.08-.33-1.63-.19c-1.18.1-1.62.16-1.85.18h-.13v.61c0,.21,0,.5,0,.62a2.09,2.09,0,0,0,.36,1.14,1.6,1.6,0,0,0,1.64.62,1.77,1.77,0,0,0,1.59-.8l.06-.1v-.23a.69.69,0,0,1,.64-.71l.3,0a.73.73,0,0,1,.59.67,1.1,1.1,0,0,1,0,.16l.1.09a6,6,0,0,0,2.92.54,3.43,3.43,0,0,0,2-.82c.19-.16.23-.61.23-1.07,0-.15,0-.31,0-.47Zm-5.07.5a.7.7,0,0,1,.59-.79l.32,0c1-.09,2.38-.15,3.23-.17a.71.71,0,0,1,.7.67c0,.58,0,1.14-.11,1.26a3.15,3.15,0,0,1-1.86.77,5.64,5.64,0,0,1-2.32-.33.75.75,0,0,1-.46-.59C176.59,81.93,176.56,81.65,176.53,81.41Zm-5.1.25a.69.69,0,0,1,.62-.74,9.61,9.61,0,0,1,1.89-.1.7.7,0,0,1,.68.71c0,.26,0,.55,0,.83a.72.72,0,0,1-.34.62,2.1,2.1,0,0,1-1.11.48c-1.07.05-1.2-.26-1.47-.55A2.73,2.73,0,0,1,171.43,81.66Z"/><path class="cls-8" d="M174.7,72.34A2.43,2.43,0,0,0,176.85,75c2.38.43,4.91.33,5.33,1.63s2.56,2.28,3.76,2.87-1.14,2.35-.49,4.66,1.56,4.27.81,5.59a3.43,3.43,0,0,0,1.3-3.13c-.19-2.12-1.63-3.85-.56-5.89s-.28-2.5-1.86-3.42-.54-2.43-2.54-2.88S176,74.9,174.7,72.34Z"/><path class="cls-8" d="M176,71.22s.13,1.51,3.1,1.59,5.8-.09,6,1.19,2.7,2.29,3.18,2.62,1.34,1.87.35,4.23c0,0,1.78-2.13.93-4.43-.47-1.27-1.12-.49-2.75-1.78s.07-2-2.21-2.52S178.58,73.12,176,71.22Z"/><path class="cls-68" d="M158.28,121.21s-7.72,3.13-14.45,5.73l-.22.09c-.23.08-.46.16-.7.22-1.85.48-6.92.51-8.25,1.71a16.65,16.65,0,0,0-2.63,3.59,1.06,1.06,0,0,0,0,.83c.18.4,1.39-.74,1.39-.74A6.29,6.29,0,0,0,132,135c-.39,1.29.81.43.81.43-.22.93,1.07.16,1.07.16.79-1.37,5-3.18,4.82-2.29s-1,1.17-1.71,1.87-.57,1.31,0,1.48,4.78-4,5.9-5.17a2.87,2.87,0,0,1,1.28-.75l.34-.07S165,126.47,166,124.25,163.42,120.34,158.28,121.21Z"/><path class="cls-69" d="M174.3,95.68s-6.47,0-8,5-3.68,13.94-6.5,15.9-8.68,7.47-8.68,7.47,6.55-.84,5.38,4.65c0,0,3.86-.27,5.52-2.17a40.67,40.67,0,0,0-1.28,5.22c-.94,5.25,3,0-2.13,5.65a3.18,3.18,0,0,0-.87,1.42c-.61,2.81,8.21,2.39,14.52,6.32,8.74,5.45,14.34,4.82,17.58.44s3.66-3.21,4.37-12.51-2.91-36.52-2.91-36.52S176.79,101.21,174.3,95.68Z"/><g class="cls-70"><path class="cls-71" d="M193.8,91.38a17.72,17.72,0,0,1-2,4.78,9.77,9.77,0,0,1-3.72,3.5,7.48,7.48,0,0,1-2.42.79,4.62,4.62,0,0,1-.64.06,4.24,4.24,0,0,0-.68.07,2.57,2.57,0,0,0-.62.31l-.55.34a4.47,4.47,0,0,1-2.38.71,1.68,1.68,0,0,1-1.06-.5,2.51,2.51,0,0,1-.58-1.06l-.06-.19-.16.1a3,3,0,0,1-2,.34,1.89,1.89,0,0,1-.9-.4,1.23,1.23,0,0,1-.41-.84v-.16h0s0-.06,0-.09l0,0h0l-.06,0-.23-.14c-.14-.1-.32-.2-.43-.29l-.35-.37c-.09-.14-.2-.28-.28-.43a2.34,2.34,0,0,1-.07-2,5.59,5.59,0,0,1,1.15-1.75,11.16,11.16,0,0,1,1.6-1.39l1.73-1.27.87-.63.43-.32a.34.34,0,0,1,.23-.1s.09.06.05.09l-.06,0s0,0,0,0,0,0,0,0l.06,0s0-.1-.05-.11a.35.35,0,0,0-.25.09l-.44.31-.88.6-1.76,1.22A10,10,0,0,0,175.15,94a6,6,0,0,0-1.22,1.79,2.61,2.61,0,0,0,0,2.17c.09.17.21.31.31.47l.38.41a5.31,5.31,0,0,0,.46.31l.22.15,0,0h0l0,0a.43.43,0,0,1,0,0v.18a1.54,1.54,0,0,0,.5,1,2,2,0,0,0,1,.46,3.28,3.28,0,0,0,2.17-.36l-.22-.09a2.74,2.74,0,0,0,.66,1.2,1.91,1.91,0,0,0,1.25.59,4.74,4.74,0,0,0,2.55-.77l.56-.34a1.86,1.86,0,0,1,.54-.28,2.87,2.87,0,0,1,.61-.06c.23,0,.45,0,.67-.07a7.69,7.69,0,0,0,2.5-.84,10,10,0,0,0,3.73-3.64A16.65,16.65,0,0,0,193.8,91.38Z"/><path class="cls-71" d="M185.65,119.87l-4.2-.89c-1.39-.3-2.79-.58-4.18-.89-.7-.16-1.4-.29-2.09-.46s-1.37-.38-2-.6a19,19,0,0,1-2-.79,20.16,20.16,0,0,1-1.9-1,16.36,16.36,0,0,0,1.83,1.13,17.32,17.32,0,0,0,2,.87,28.49,28.49,0,0,0,4.14,1.13c1.4.29,2.8.58,4.21.83S184.23,119.68,185.65,119.87Z"/><path class="cls-71" d="M179,100.41c-.88,1.09-1.77,2.17-2.57,3.33a17.1,17.1,0,0,0-1.92,3.76,11.67,11.67,0,0,0-.67,4.18,10.44,10.44,0,0,0,.31,2.09,9,9,0,0,0,.79,2,10,10,0,0,1-.64-2,9.58,9.58,0,0,1-.22-2.07,12.07,12.07,0,0,1,.71-4.07,19,19,0,0,1,1.82-3.74c.37-.59.78-1.16,1.18-1.73Z"/><path class="cls-71" d="M176.69,101.38c-.16.24-.16.52,0,.62s.41,0,.57-.24.16-.52,0-.62S176.85,101.14,176.69,101.38Z"/><path class="cls-71" d="M173.82,106c-.13.26-.11.54.05.63s.4,0,.53-.31.12-.54,0-.63S174,105.78,173.82,106Z"/><path class="cls-71" d="M173,112.87c0,.3.2.52.38.51s.3-.27.27-.56-.21-.52-.38-.5S172.92,112.58,173,112.87Z"/></g><path class="cls-72" d="M179.08,78.58a3.43,3.43,0,0,0-1-.25,1.13,1.13,0,0,0-.93.34.16.16,0,0,0,0,.11s0,0,.06.07a1.57,1.57,0,0,0,.68.23,19.11,19.11,0,0,1,3.63,1.06,5.7,5.7,0,0,0-.22-.56,1.33,1.33,0,0,0-.4-.35A10,10,0,0,0,179.08,78.58Z"/><path class="cls-72" d="M173.6,78.71a1.91,1.91,0,0,1,.74-.25.74.74,0,0,1,.7.34.15.15,0,0,1,0,.11A.18.18,0,0,1,175,79a1,1,0,0,1-.5.23,11.77,11.77,0,0,0-2.74,1.06,3.88,3.88,0,0,1,.16-.56,1.34,1.34,0,0,1,.3-.36A6.94,6.94,0,0,1,173.6,78.71Z"/><path class="cls-73" d="M178.58,81.92a.5.5,0,1,0,.94-.17c-.07-.35-.33-.59-.59-.54A.56.56,0,0,0,178.58,81.92Z"/><path class="cls-73" d="M173.44,82c.05.35.3.61.57.57s.42-.36.37-.71-.31-.6-.57-.56A.56.56,0,0,0,173.44,82Z"/><path class="cls-74" d="M177.11,86.06a2.28,2.28,0,0,1-.85-.11,1.39,1.39,0,0,1-.6-.42,1.3,1.3,0,0,1-.28-.67,1.28,1.28,0,0,1,0-.39,4.14,4.14,0,0,1,.13-.43,1.24,1.24,0,0,0-.37.32,1.06,1.06,0,0,0-.19.48,1.35,1.35,0,0,0,.28,1,1.36,1.36,0,0,0,.93.49A1.22,1.22,0,0,0,177.11,86.06Z"/><path class="cls-74" d="M180,81.62a3.76,3.76,0,0,0,.48,0,3.91,3.91,0,0,0,.48,0,1,1,0,0,0-.48-.08A1.16,1.16,0,0,0,180,81.62Z"/><path class="cls-74" d="M180,82.1c.13,0,.24.05.35.08l.36,0a.5.5,0,0,0-.33-.18A.56.56,0,0,0,180,82.1Z"/><path class="cls-74" d="M173.2,81.81a.92.92,0,0,0-.31-.07.82.82,0,0,0-.3.07.65.65,0,0,0,.3.06A.71.71,0,0,0,173.2,81.81Z"/><path class="cls-74" d="M173.23,82.19a.36.36,0,0,0-.23,0,.41.41,0,0,0-.19.13.36.36,0,0,0,.23,0A.46.46,0,0,0,173.23,82.19Z"/><path class="cls-74" d="M179.45,87.49c-.4.16-.78.32-1.16.44a7.1,7.1,0,0,1-1.17.28,5.1,5.1,0,0,1-1.17,0,2.56,2.56,0,0,1-1.14-.37,1.68,1.68,0,0,0,1.06.77,3.15,3.15,0,0,0,1.33.08,3.93,3.93,0,0,0,1.25-.42A3.08,3.08,0,0,0,179.45,87.49Z"/><path class="cls-74" d="M181.49,90.28a4.54,4.54,0,0,0-2.35-4.59,6.49,6.49,0,0,1,2.35,4.59Z"/><path class="cls-74" d="M174.82,86a1.87,1.87,0,0,0-.56.77,2.61,2.61,0,0,0-.2.95,4.37,4.37,0,0,0,.39,1.86c0-.63-.15-1.25-.13-1.85A3.4,3.4,0,0,1,174.82,86Z"/><path class="cls-74" d="M177.7,89.5a2.8,2.8,0,0,0-.64,0,2.88,2.88,0,0,0-.64.06,1.06,1.06,0,0,0,1.28,0Z"/><path class="cls-63" d="M137.78,166.05s-2.74,26.24-6.6,28.7c0,0-5.74,1.43-1.26,2.18,12.71,2.14,9.26-2.18,9.26-2.18s-.68-2.26.24-3.61,7.94-17.47,7.93-20.89Z"/><path class="cls-64" d="M129.32,195.35s-4.85,1.16-5.9,2.53,4,1.94,4,1.94,1.63-.13,5.5-.18,2.19,0,5.28,0,2.36-2.34,1.89-3.44a8.51,8.51,0,0,0-.95-1.45,1.17,1.17,0,0,1-.81,1.83C136.74,197,127.54,198.32,129.32,195.35Z"/><path class="cls-75" d="M133.35,186.09s6.37,3.57,9,2.56,9.93-30.82,12.4-32.13,31.38-.75,33.45-7.43c0,0-16.85-8.14-21-7.62s-23.63,1.82-27.7,6.55C136.68,151.33,133.35,186.09,133.35,186.09Z"/><ellipse class="cls-20" cx="163.51" cy="169.49" rx="5.1" ry="9.8" transform="translate(-8.27 8.39) rotate(-2.87)"/><path class="cls-18" d="M110.09,195.08s-3.68-.78-3.92.33l-.18,1.86s11.37,1.93,12.74,2a15.23,15.23,0,0,0,2.37,0s2.24-1.56-.5-2.47a34.92,34.92,0,0,0-5.61-1.31Z"/><path class="cls-18" d="M122.84,199.89s-.12-1.54.75-1.89,14.68,1.34,16.17,1.34,2.86-.05,2.86-.05h3.24a3.15,3.15,0,0,1,0,4.2C144,205.61,122.84,199.89,122.84,199.89Z"/><polygon class="cls-39" points="200.12 174.43 200.12 153.74 196.63 153.74 196.63 175.02 165.33 180.3 165.92 183.8 200.2 178.02 200.12 174.43"/><path class="cls-60" d="M200.92,147.38s2.05-14.65.93-16.38-20.34-3.21-26.13,4.53-10.58,13.9-11.26,18.74c-5.12,2.35-9.42,7.5-15.61,24.72-6.72,18.66-6.23,20.3-6.23,20.3h3.24s8.38-32.77,18.16-40v35h3.45V157.53c8.48-.8,32.65-3.79,32.65-3.79v-4.29s-21.85,1.67-31.19,3.49c2.13-3.55,8.09-13.18,12-16.2,4.85-3.74,17.67-5.05,18-3.18s-.31,13.82-.31,13.82Z"/><ellipse class="cls-18" cx="165.74" cy="205.94" rx="8.71" ry="10.87"/><ellipse class="cls-39" cx="166.97" cy="205.94" rx="5.6" ry="6.99"/><path class="cls-18" d="M168.48,191.4s-4.6-1.53-5.45,0,1.62,18.5,5.55,16.33C170.14,206.86,168.48,191.4,168.48,191.4Z"/><path class="cls-60" d="M222.25,176.07c-.79,19.47-12.12,34.82-25.3,34.28s-23.24-16.74-22.45-36.21,12.12-34.81,25.3-34.28S223,156.61,222.25,176.07Zm-22.58-31.24c-11.27-.46-21,13-21.65,30.17s7.87,31.38,19.14,31.83,21-13.05,21.65-30.17S210.93,145.29,199.67,144.83Z"/><path class="cls-18" d="M222,176.07c-.67,16.63-10.35,29.75-21.62,29.29s-19.86-14.31-19.19-31,10.36-29.75,21.63-29.29S222.71,159.43,222,176.07Zm-19.3-26.71c-9.63-.39-17.91,11.16-18.5,25.79S191,202,200.58,202.35s17.92-11.15,18.51-25.79S212.36,149.75,202.73,149.36Z"/><ellipse class="cls-20" cx="201.34" cy="176.02" rx="5.32" ry="10.21"/><path class="cls-18" d="M203.34,131.88s.8-4.68,0-5-22.61.69-24.66,1.75-9.52,9.11-8.77,10.49,3.17,2,6.16,0,3.73-5.83,7.84-6.57S203.34,131.88,203.34,131.88Z"/><polygon class="cls-76" points="96.47 134.69 198.2 137.29 198.23 139.12 159.81 145.15 96.51 136.49 96.47 134.69"/><rect class="cls-42" x="98.51" y="136.49" width="2.57" height="77.12"/><rect class="cls-42" x="155.97" y="143.1" width="2.83" height="77.85"/><rect class="cls-42" x="188.93" y="139.47" width="2.83" height="73.84"/><polygon class="cls-41" points="130.99 129.67 198.2 137.29 159.78 143.32 96.47 134.66 130.99 129.67"/><path class="cls-68" d="M193.05,129.54s-8.16,1.89-15.08,3.91l-.23.07a5.13,5.13,0,0,0-.69.25c-1.76.74-5.8,3.81-7.59,3.66a16.56,16.56,0,0,1-4.27-1.25,1.07,1.07,0,0,1-.54-.63c-.1-.43,1.56-.26,1.56-.26a6.28,6.28,0,0,1-2.54-1c-1.09-.78.39-.83.39-.83-.74-.61.75-.78.75-.78,1.45.6,5.89-.51,5.21-1.12s-1.52-.3-2.49-.45-1.25-.69-.94-1.14,6.22.24,7.83.51a2.89,2.89,0,0,0,1.48-.18l.31-.15s13.19-7.19,15.32-6S197.66,127.11,193.05,129.54Z"/><path class="cls-69" d="M191.26,96.59s6-.77,7.05,4.63c.27,1.36,4.44,26.32-3.07,28.35s-7,.81-7,.81,1.62-3.94-2.63-4.91c0,0,4.67-5.36,5.65-7.2s-1.09-8.08-1.46-10.49S188.12,98.82,191.26,96.59Z"/><path class="cls-77" d="M188.2,130.52c2,.45,7.51.56,9.44-2.7a15.3,15.3,0,0,0,2.25-6.67c.48-5.17-.56-13.7-1-18.62-.52-5.19-6.3-7-8.17-5.58l-.15.37c.94-.4,2.44.7,3.27,1.3a5.66,5.66,0,0,1,1.77,2.45,16,16,0,0,1,1.06,4.89c.38,4.62,1.69,12,1.09,16.84a6.23,6.23,0,0,1-1.08,3.23,3.08,3.08,0,0,1-2.78,1,3.06,3.06,0,0,1-.68,1.92C191.42,131.19,188,130.47,188.2,130.52Z"/><path class="cls-71" d="M195.75,119.67a5.12,5.12,0,0,0-4-1.83,9.85,9.85,0,0,1,2.09.69A10.44,10.44,0,0,1,195.75,119.67Z"/><path class="cls-77" d="M171.61,97.7s-2.82,3.52-3.12,6.82-1.05,7.34-.9,8.84-3.15,7.34-3.75,7.94-1.84,5.49-2.09,5.7c-1.65,1.35-5.29,1.74-5.29,1.74a7.73,7.73,0,0,0,.34-2.34c-.15-.6-.9-.9-.9-.9s6.44-2.85,6.89-3.9,2.7-3,2.4-4a1.56,1.56,0,0,0-1.05-1.2,2.71,2.71,0,0,0,2-1.8c.45-1.5,1.3-7.5,1.5-8.39A19.7,19.7,0,0,1,171.61,97.7Z"/><path class="cls-71" d="M190.24,97.39c-1.23,2.45-1.19,5.39-1,8a67,67,0,0,0,2.15,11c0,.08.28,0,.26-.07a70,70,0,0,1-2.12-10.73c-.27-2.75-.36-5.8.92-8.34,0-.06-.22,0-.26,0Z"/><path class="cls-71" d="M191.44,116.69a2.93,2.93,0,0,1-.83,2.61,15,15,0,0,1-1.58,1.88,22.07,22.07,0,0,0-3.28,4.29s.21,0,.25,0a24.17,24.17,0,0,1,3.52-4.52,14.65,14.65,0,0,0,1.45-1.8,2.8,2.8,0,0,0,.73-2.49c0-.06-.28,0-.26.07Z"/><path class="cls-71" d="M165.79,117.56a18.24,18.24,0,0,0-1.59-1.32,17.32,17.32,0,0,0-1.72-1.17,10,10,0,0,0,1.52,1.38A11.19,11.19,0,0,0,165.79,117.56Z"/></g><path class="cls-71" d="M172.59,96.58a16.44,16.44,0,0,0-4.44,8.45c-.7,3.75.23,7.66-1.71,11.13-.76,1.37-1.67,2.63-2.37,4a35.27,35.27,0,0,0-1.82,4.52,29.93,29.93,0,0,0-1.69,9c0,.14.27.1.27,0a30.16,30.16,0,0,1,1.79-9.35,34.09,34.09,0,0,1,1.7-4.15c.69-1.41,1.6-2.67,2.37-4,1.75-3.13,1.17-6.57,1.55-10a16.18,16.18,0,0,1,4.57-9.55c.12-.12-.13-.16-.22-.08Z"/><path class="cls-78" d="M154.9,155.93a13,13,0,0,0-1.24-1.94,11.37,11.37,0,0,0-1.51-1.66c.44.62.9,1.22,1.35,1.82S154.41,155.35,154.9,155.93Z"/><path class="cls-78" d="M132.52,151.78a26.84,26.84,0,0,0-2.07-1.77,12,12,0,0,0-2.28-1.43c.71.57,1.42,1.12,2.13,1.67A22.42,22.42,0,0,0,132.52,151.78Z"/><path class="cls-78" d="M131.64,153.55a15.71,15.71,0,0,0-1.86-1.32,16.12,16.12,0,0,0-2-1.08,15.71,15.71,0,0,0,1.86,1.32A16.12,16.12,0,0,0,131.64,153.55Z"/><rect class="cls-38" x="472.96" y="47.2" width="22.23" height="21.18"/><rect class="cls-8" x="476.5" y="50.58" width="15.14" height="14.43"/><rect class="cls-38" x="440.26" y="31.14" width="22.23" height="21.18"/><rect class="cls-8" x="443.81" y="34.52" width="15.14" height="14.43"/></g></g></g></svg>