<?xml version="1.0" encoding="UTF-8"?>
<svg xmlns="http://www.w3.org/2000/svg" viewBox="0 0 199.16 168.15"><defs><style>.cls-1{fill:#cdd878;}.cls-2{fill:#e5e5e5;}.cls-3{fill:#8dd6d6;}.cls-4{fill:#00b7b7;}.cls-5{fill:#971a90;}.cls-6{fill:#cf9ccb;}.cls-7{fill:#b2b100;}</style></defs><g id="Layer_2" data-name="Layer 2"><g id="Layer_1-2" data-name="Layer 1"><path class="cls-1" d="M151.13,51.76a4.92,4.92,0,0,0-3.9-2.85H29.78a4.92,4.92,0,0,0-3.9,2.85l-3,9.53,148.69,56.19Z"/><path class="cls-2" d="M175.94,129.72l-3.77-11.86-19.59-8.16L112.65,109l-1.11-37.29,46.4,1.43-3.28-10.32-131-4L20.42,68.91l24.27.75-2.89,38.7-37.75,12L0,133.09l48.71-15,54,.94.87,29.43h10.22L113,119.23l36.22.63ZM52.07,108l2.84-38,46.41,1.43,1.11,37.43Z"/><path class="cls-3" d="M75.28,86.13s-1.18-1.88-2.91-4.72L72,80.86l-.94-1.55c-.92-1.53-1.94-3.22-3-5-.32-.56-.65-1.12-1-1.68-1.94-3.35-3.9-6.83-5.46-9.86C59.8,59.16,58.51,56.2,58.51,55c0-8.87,7.45-16.07,16.64-16.07S91.79,46.08,91.79,55c0,1.18-1.3,4.15-3.18,7.83-1.8,3.53-4.13,7.7-6.33,11.54L80.6,77.21l-1.19,2-1,1.62c-.12.2-.25.4-.36.6l0,.06C76.4,84.29,75.28,86.13,75.28,86.13Z"/><path class="cls-4" d="M72.48,80.7c1.74,2.84,2.92,4.72,2.92,4.72s1.12-1.84,2.78-4.62c9.18.55,16.1,2.94,16.1,5.8,0,3.28-9,5.93-20.15,5.93S54,89.88,54,86.6C54,83.49,62.13,81,72.48,80.7Z"/><path class="cls-4" d="M75.21,48.21a7.11,7.11,0,1,1-7.11,7.11A7.1,7.1,0,0,1,75.21,48.21Z"/><path class="cls-5" d="M126.62,133.59c9.19.55,16.1,2.94,16.1,5.81,0,3.27-9,5.92-20.14,5.92s-20.14-2.65-20.14-5.92c0-3.11,8.14-5.66,18.49-5.9,1.73,2.84,2.91,4.71,2.91,4.71S125,136.38,126.62,133.59Z"/><path class="cls-6" d="M126.75,135.73c-1.66,2.78-2.78,4.62-2.78,4.62s-1.18-1.88-2.92-4.72l-.33-.55c-.3-.49-.62-1-.94-1.55-.93-1.53-1.94-3.23-3-5l-1-1.68c-1.95-3.35-3.91-6.84-5.47-9.86-1.87-3.62-3.16-6.58-3.16-7.83,0-8.88,7.45-16.07,16.65-16.07s16.64,7.19,16.64,16.07c0,1.17-1.31,4.15-3.18,7.83-1.81,3.53-4.13,7.7-6.34,11.54l-1.68,2.89-1.18,2c-.34.56-.66,1.1-1,1.61l-.36.61Z"/><path class="cls-5" d="M123.89,102.43a7.11,7.11,0,1,1-7.11,7.11A7.11,7.11,0,0,1,123.89,102.43Z"/><path class="cls-5" d="M143.09,52.13c9.19.55,16.1,2.94,16.1,5.81,0,3.27-9,5.92-20.14,5.92s-20.15-2.65-20.15-5.92c0-3.11,8.14-5.66,18.49-5.91,1.74,2.85,2.92,4.72,2.92,4.72S141.43,54.92,143.09,52.13Z"/><path class="cls-6" d="M143.21,54.26c-1.65,2.79-2.78,4.63-2.78,4.63s-1.18-1.88-2.91-4.72l-.33-.55-.95-1.55c-.92-1.53-1.93-3.23-3-5l-1-1.67c-1.94-3.35-3.9-6.84-5.46-9.86-1.87-3.62-3.16-6.58-3.16-7.83,0-8.88,7.45-16.07,16.64-16.07S157,18.83,157,27.71c0,1.17-1.31,4.15-3.19,7.83s-4.13,7.7-6.33,11.53c-.57,1-1.14,2-1.68,2.9l-1.19,2-.95,1.61-.36.61A.1.1,0,0,1,143.21,54.26Z"/><path class="cls-5" d="M140.36,21a7.11,7.11,0,1,1-7.11,7.11A7.11,7.11,0,0,1,140.36,21Z"/><path class="cls-7" d="M115.41,168.15v-1.62c1.6,0,3.21-.05,4.79-.14l.09,1.62C118.68,168.1,117,168.15,115.41,168.15Zm-4.87-.14c-1.62-.09-3.26-.23-4.86-.41l.18-1.61c1.58.18,3.18.31,4.77.41Zm14.62-.43L125,166c1.57-.18,3.16-.41,4.73-.69l.28,1.59C128.38,167.16,126.76,167.4,125.16,167.58Zm-24.32-.69c-1.59-.28-3.2-.61-4.78-1l.38-1.58c1.55.37,3.12.69,4.68,1Zm33.93-1-.38-1.58c1.54-.37,3.09-.79,4.62-1.25l.47,1.56C137.92,165.09,136.34,165.51,134.77,165.89Zm-43.42-1.24c-1.56-.47-3.12-1-4.64-1.55l.55-1.52c1.49.55,3,1,4.55,1.51Zm52.76-1.58-.56-1.52c1.49-.55,3-1.14,4.44-1.77l.64,1.48C147.15,161.91,145.63,162.52,144.11,163.07Zm-62-1.78c-1.48-.64-3-1.34-4.42-2.07l.73-1.45c1.42.72,2.88,1.4,4.34,2Zm70.89-2.1-.74-1.45c1.42-.71,2.83-1.48,4.2-2.28l.82,1.4C155.93,157.68,154.49,158.46,153.05,159.19Zm-79.61-2.3c-1.39-.82-2.79-1.68-4.15-2.58l.9-1.35c1.33.88,2.7,1.73,4.07,2.53Zm88-2.6-.89-1.35c1.32-.88,2.63-1.81,3.91-2.76l1,1.3C164.16,152.45,162.82,153.4,161.47,154.29ZM65.3,151.5c-1.29-1-2.58-2-3.82-3l1-1.24c1.22,1,2.48,2,3.75,3Zm104-3.06-1.05-1.24c1.21-1,2.41-2.1,3.57-3.19l1.11,1.17C171.74,146.3,170.51,147.4,169.28,148.44ZM57.84,145.21c-1.18-1.12-2.34-2.29-3.44-3.46l1.18-1.11c1.08,1.15,2.22,2.29,3.37,3.39Zm118.52-3.49-1.19-1.11c1.1-1.16,2.17-2.37,3.18-3.58l1.25,1C178.56,139.31,177.47,140.54,176.36,141.72ZM51.16,138.1c-1-1.25-2.06-2.54-3-3.84l1.3-1c1,1.27,1.94,2.54,3,3.76Zm131.46-3.87-1.3-1c.94-1.28,1.86-2.6,2.74-3.93l1.35.89C184.52,131.59,183.58,132.93,182.62,134.23Zm-137.28-4c-.89-1.36-1.75-2.76-2.55-4.16l1.4-.81c.79,1.38,1.64,2.75,2.51,4.08ZM188,126.07l-1.4-.81c.79-1.38,1.55-2.8,2.27-4.22l1.45.72C189.56,123.21,188.78,124.66,188,126.07Zm-147.5-4.25c-.72-1.44-1.41-2.93-2-4.42l1.49-.64c.62,1.46,1.3,2.92,2,4.34Zm151.88-4.49-1.49-.64c.62-1.46,1.22-3,1.76-4.46l1.52.55C193.59,114.31,193,115.84,192.35,117.33ZM36.62,112.88c-.55-1.52-1.07-3.08-1.53-4.64l1.55-.46c.46,1.53,1,3.06,1.5,4.54Zm159-4.73-1.55-.47c.45-1.52.86-3.07,1.23-4.62l1.57.37C196.55,105,196.13,106.59,195.67,108.15ZM33.83,103.52c-.37-1.57-.7-3.18-1-4.78l1.59-.28c.28,1.57.6,3.15,1,4.69ZM197.9,98.64l-1.6-.27c.28-1.56.51-3.16.69-4.74l1.61.18C198.41,95.43,198.18,97.05,197.9,98.64ZM32.14,93.92c-.19-1.61-.33-3.25-.42-4.87L33.34,89c.09,1.59.23,3.19.41,4.77ZM199,89l-1.62-.09c.09-1.58.13-3.19.13-4.78v-.2h1.63v.2C199.16,85.7,199.11,87.34,199,89ZM33.2,84.17H31.57v-.09c0-1.6.05-3.2.14-4.78l1.62.09c-.09,1.55-.13,3.12-.13,4.69Zm164.19-5.08c-.1-1.59-.24-3.2-.43-4.76l1.62-.19c.18,1.6.33,3.23.42,4.86ZM33.73,74.62l-1.61-.19c.18-1.61.42-3.23.69-4.83l1.6.28C34.14,71.44,33.91,73,33.73,74.62Zm162.54-5c-.28-1.56-.6-3.14-1-4.69l1.58-.37c.37,1.58.71,3.19,1,4.78ZM35.36,65.19l-1.58-.37c.37-1.58.79-3.16,1.25-4.72l1.56.46C36.14,62.09,35.72,63.64,35.36,65.19Zm158.7-4.91c-.45-1.52-1-3.05-1.51-4.54l1.53-.56c.55,1.53,1.07,3.09,1.53,4.63ZM38.08,56l-1.53-.55c.55-1.52,1.15-3.05,1.79-4.55l1.49.64C39.21,53,38.62,54.52,38.08,56ZM190.79,51.3c-.63-1.45-1.31-2.91-2-4.33l1.45-.73c.73,1.45,1.43,2.94,2.06,4.42ZM41.85,47.2l-1.45-.72c.72-1.45,1.5-2.9,2.31-4.31l1.4.81C43.32,44.36,42.56,45.78,41.85,47.2Zm144.64-4.44c-.79-1.37-1.64-2.74-2.51-4.07l1.35-.89c.89,1.35,1.75,2.75,2.56,4.15ZM46.62,38.89,45.26,38c.89-1.36,1.83-2.71,2.79-4l1.31,1C48.41,36.24,47.49,37.56,46.62,38.89Zm134.61-4.11c-.94-1.27-1.94-2.54-3-3.76l1.24-1c1,1.24,2.06,2.53,3,3.83ZM52.32,31.2l-1.25-1c1-1.25,2.13-2.48,3.23-3.66l1.19,1.11C54.4,28.77,53.33,30,52.32,31.2Zm122.76-3.76c-1.08-1.15-2.22-2.29-3.38-3.38l1.12-1.18c1.17,1.11,2.33,2.27,3.45,3.45ZM58.86,24.21,57.74,23c1.18-1.12,2.4-2.22,3.64-3.26l1,1.24C61.21,22,60,23.12,58.86,24.21Zm109.27-3.34c-1.21-1-2.47-2-3.75-3l1-1.3c1.3,1,2.59,2,3.83,3ZM66.17,18l-1-1.3c1.3-1,2.64-1.92,4-2.81l.9,1.35C68.75,16.14,67.44,17.07,66.17,18Zm94.29-2.89c-1.34-.88-2.71-1.73-4.07-2.52l.81-1.41c1.39.81,2.79,1.67,4.15,2.57Zm-86.33-2.4-.82-1.4c1.4-.82,2.84-1.6,4.29-2.33l.73,1.44C76.91,11.17,75.5,11.94,74.13,12.74Zm78-2.4c-1.41-.72-2.88-1.4-4.34-2l.64-1.49c1.5.64,3,1.34,4.43,2.07ZM82.65,8.41,82,6.93c1.47-.64,3-1.26,4.52-1.82l.56,1.52C85.59,7.18,84.1,7.78,82.65,8.41Zm60.73-1.87c-1.5-.55-3-1.06-4.56-1.51l.47-1.55c1.55.46,3.11,1,4.64,1.53ZM91.62,5.11l-.46-1.55c1.55-.47,3.13-.9,4.71-1.27l.37,1.57C94.7,4.23,93.14,4.66,91.62,5.11ZM134.2,3.8c-1.54-.37-3.12-.69-4.69-1l.28-1.6c1.6.28,3.21.61,4.78,1Zm-33.27-.91-.28-1.6c1.59-.28,3.22-.52,4.82-.71l.19,1.61C104.09,2.38,102.5,2.61,100.93,2.89Zm23.84-.73c-1.58-.18-3.18-.32-4.77-.41l.09-1.62c1.62.09,3.25.23,4.87.41Zm-14.34-.39L110.34.15C112,.05,113.6,0,115.22,0V1.62C113.63,1.62,112,1.67,110.43,1.77Z"/></g></g></svg>