<?xml version="1.0" encoding="utf-8"?>
<svg xmlns="http://www.w3.org/2000/svg" viewBox="0 0 110.07 110.07"><defs><style>.cls-1{fill:#f2f4d3;}.cls-2{fill:#95a00b;}</style></defs><g id="Layer_2" data-name="Layer 2"><g id="Layer_1-2" data-name="Layer 1"><circle class="cls-1" cx="55.04" cy="55.04" r="55.04"/><polygon class="cls-2" points="76.91 31.5 80.94 36.08 82.02 37.16 82.02 28.13 76.91 28.13 76.91 31.5"/><polygon class="cls-2" points="88.85 75.89 88.85 83.46 93.96 83.46 93.96 75.89 89.7 75.89 88.85 75.89"/><rect class="cls-2" x="82.02" y="75.89" width="5.12" height="7.57"/><rect class="cls-2" x="75.2" y="75.89" width="5.12" height="7.57"/><rect class="cls-2" x="68.38" y="75.89" width="5.12" height="7.57"/><rect class="cls-2" x="51.32" y="75.89" width="5.12" height="7.57"/><polygon class="cls-2" points="45.35 75.89 44.5 75.89 44.5 83.46 49.61 83.46 49.61 75.89 47.05 75.89 45.35 75.89"/><rect class="cls-2" x="37.67" y="75.89" width="5.12" height="7.57"/><rect class="cls-2" x="30.85" y="75.89" width="5.12" height="7.57"/><rect class="cls-2" x="24.03" y="75.89" width="5.12" height="7.57"/><polygon class="cls-2" points="21.47 75.89 17.2 75.89 17.2 83.46 22.32 83.46 22.32 75.89 21.47 75.89"/><path class="cls-2" d="M22.32,52V74.19H44.5V52H22.32ZM39.38,68.22a.85.85,0,0,1-.85.85H30a.86.86,0,0,1-.86-.85V58a.86.86,0,0,1,.86-.85h8.53a.85.85,0,0,1,.85.85Z"/><polygon class="cls-2" points="37.2 31.54 20 50.31 21.47 50.31 39.86 50.31 57.52 31.54 37.2 31.54"/><path class="cls-2" d="M91.22,50.31,79.7,37.25l-4.5-5.1-7.7-8.72-7.65,8.13-.86.91-.85.9L42.21,50.31h7.88l8-8.86.85-.94.86-.94,7-7.75a.9.9,0,0,1,1.27,0L85,50.31h6.26Z"/><path class="cls-2" d="M88.85,52H84.58a.84.84,0,0,1-.63-.28l-.52-.57-.77-.85-.64-.7-.92-1L67.52,33.66l-7.67,8.45-.86.94-.85.93-5.75,6.33-.77.85-.52.57a.84.84,0,0,1-.63.28H46.2V74.19H56.44V69.92a6,6,0,1,1,11.94,0v4.27H88.85ZM65,51.16a4.94,4.94,0,0,1-.86-.85,4.26,4.26,0,1,1,7.66-2.56,4.2,4.2,0,0,1-.88,2.56,4.56,4.56,0,0,1-.85.85,4.21,4.21,0,0,1-5.07,0ZM83.73,68.22a.85.85,0,0,1-.85.85H74.35a.86.86,0,0,1-.86-.85V58a.86.86,0,0,1,.86-.85h8.53a.85.85,0,0,1,.85.85Z"/><path class="cls-2" d="M62.41,65.66a4.27,4.27,0,0,0-4.27,4.26V83.46h8.53V69.92A4.26,4.26,0,0,0,62.41,65.66Z"/></g></g></svg>