<?xml version="1.0" encoding="utf-8"?>
<svg xmlns="http://www.w3.org/2000/svg" viewBox="0 0 110.07 110.07"><defs><style>.cls-1{fill:#e5f9f8;}.cls-2{fill:#008d9b;}</style></defs><g id="Layer_2" data-name="Layer 2"><g id="Layer_1-2" data-name="Layer 1"><circle class="cls-1" cx="55.04" cy="55.04" r="55.04"/><path class="cls-2" d="M77.29,61.66a.51.51,0,0,1-.15.21s-3.76,3.62-6,6a.67.67,0,0,1-.49.21.67.67,0,0,1-.49-1.14c2-2.17,5.33-5.35,5.94-5.94a40.76,40.76,0,0,0,2.15-7.33c-3.65.1-4.2,1-5.65,3.26A35.46,35.46,0,0,1,70,60.61a.86.86,0,0,1-.14.13l-6.4,4.39c-1.83,1.43-6.53,5.66-6.53,8.27a30,30,0,0,0,.82,7A13.17,13.17,0,0,1,58.12,83V86H70V80.62c0-4,5-8.63,9-12.34,1.86-1.71,4.18-3.85,4.19-4.49,0-1.63,1.09-12.22,1.2-13.29L83.28,40.4a3,3,0,0,0-1.85,1c-2.36,2.63-1.69,9-1.68,9.07V53a.09.09,0,0,1,0,0A41.91,41.91,0,0,1,77.29,61.66Z"/><path class="cls-2" d="M39.9,66.93a.68.68,0,0,1-1,.93c-2.23-2.37-6-6-6-6a.8.8,0,0,1-.15-.21,42.64,42.64,0,0,1-2.45-8.58.09.09,0,0,0,0,0V50.49c0-.06.68-6.44-1.68-9.07a3,3,0,0,0-1.85-1L25.67,50.5c.11,1.07,1.19,11.66,1.19,13.29,0,.64,2.33,2.78,4.19,4.49,4,3.71,9,8.33,9,12.34V86H52V83a12.45,12.45,0,0,1,.39-2.58,30.68,30.68,0,0,0,.81-7c0-2.61-4.7-6.84-6.53-8.27l-6.4-4.39a.86.86,0,0,1-.14-.13,35.46,35.46,0,0,1-2.63-3.69c-1.45-2.29-2-3.16-5.65-3.26A40.11,40.11,0,0,0,34,61C34.57,61.58,37.86,64.76,39.9,66.93Z"/><path class="cls-2" d="M55,60.18c12.82-7,21.63-18,21.63-25.41,0-6.68-4.73-10.65-9.61-10.65-5.88,0-10.29,4.29-12,9.48-1.73-5.19-6.15-9.48-12-9.48-4.89,0-9.62,4-9.62,10.65C33.4,42.22,42.21,53.15,55,60.18Z"/></g></g></svg>