<?xml version="1.0" encoding="utf-8"?>
<svg xmlns="http://www.w3.org/2000/svg" viewBox="0 0 110.07 110.07"><defs><style>.cls-1{fill:#f4e1ed;}.cls-2{fill:#c51d8b;}</style></defs><g id="Layer_2" data-name="Layer 2"><g id="Layer_1-2" data-name="Layer 1"><circle class="cls-1" cx="55.04" cy="55.04" r="55.04"/><path class="cls-2" d="M64.35,32.6a5.7,5.7,0,1,0-5.69-5.69A5.7,5.7,0,0,0,64.35,32.6Zm-12.92.91a5.35,5.35,0,1,0-7.9.37A69,69,0,0,0,51.43,33.51Zm2.5,12.23a1.36,1.36,0,0,0-1-.66c-1,0-7.21-.49-8.71-.56-1.33-.07-6-.37-8.51-2a7.27,7.27,0,0,0-.25.83L32.28,59l-.47,1.52a2,2,0,0,0,.57,2.08,3.5,3.5,0,0,0-3,3.19,1.32,1.32,0,0,0,1.25,1.4A1.34,1.34,0,0,0,32.11,66a1,1,0,0,1,1.09-.81c.73,0,1.17.76,1.16,1.94C34.06,73,34,87.38,34,87.52a1.37,1.37,0,0,0,2.73,0c0-.14.1-14.52.4-20.29v0c0-2.08-.75-3.49-2-4.12a2,2,0,0,0,1.19-1.57l.33-1.41,3-10.23h0c.06-.29.61-.47.73,0a.4.4,0,0,1,0,.15h0l.25,8.39.46,14.91.18,12.93a2.68,2.68,0,0,0,5.36-.07l-.11-8.28.75-15.93,1,19.77.06,4.5a2.69,2.69,0,0,0,5.37-.06l-.13-9.56.6-18.18.09-7.24c0-1.83,0-3.19-.08-4A5.28,5.28,0,0,0,53.93,45.74Zm26.7,15-.87-3.57L76.05,40.08a5.75,5.75,0,0,0-1.34-2.64,5.84,5.84,0,0,0-3.73-2,4.91,4.91,0,0,0-.67-.06c-3.24-.08-11-.08-11-.08s-2.88.24-6.14.49l0,0h-.4c-3.37.26-7,.52-8.31.53a15.1,15.1,0,0,1-4.16-.57c-2.59-1-5.27.55-3.73,3.24s8.14,3.11,9.76,3.19l8.86.49a1,1,0,0,1,.74.46,4.83,4.83,0,0,1,.37,1.57c.19,1.87.64,7.91.88,10.85l.73,18.64,0,11.85a2.94,2.94,0,0,0,5.88,0v-4.9l.69-19.8L67,81.16,67.47,86a2.9,2.9,0,0,0,3.2,2.53,2.84,2.84,0,0,0,2.65-3.05l-1.27-13L71,56.14,71.42,47h0c.07-.62.46-.42.52-.09h0l3.22,12.93.48,2a2.57,2.57,0,0,0,3.07,1.83A2.45,2.45,0,0,0,80.63,60.72Z"/></g></g></svg>