<?xml version="1.0" encoding="utf-8"?>
<svg xmlns="http://www.w3.org/2000/svg" viewBox="0 0 109.75 155.46"><defs><style>.cls-1{fill:#e0edc8;}.cls-2{fill:#eb9e73;}.cls-3{fill:#555658;}.cls-4{fill:#696a6c;}.cls-5{fill:#414141;}.cls-6{fill:#fdc8a9;}.cls-7{fill:#00bdbd;}.cls-8{fill:#00b7b7;}.cls-9{fill:#58c8c8;}.cls-10{fill:#30c3c2;}.cls-11{fill:#fff;}.cls-12{fill:#fdb48a;}.cls-13{fill:#402924;}.cls-14{fill:#62241a;}.cls-15{fill:#e16048;}.cls-16{fill:#f88876;}.cls-17{fill:#9e744a;}.cls-18{fill:#ffc05f;}.cls-19{fill:#ffa900;}.cls-20{fill:#00a5a9;}.cls-21{fill:#ffd99e;}.cls-22{fill:#82603a;}.cls-23{fill:#a5a7aa;}.cls-24{fill:#cfd1d2;}.cls-25{fill:#6f4d2e;}.cls-26{fill:#2f1d1a;}.cls-27{fill:#241f20;}</style></defs><g id="Layer_2" data-name="Layer 2"><g id="Layer_1-2" data-name="Layer 1"><ellipse class="cls-1" cx="54.87" cy="152.1" rx="54.87" ry="3.36"/><g id="_2" data-name="2"><polygon class="cls-2" points="86.66 141.88 87.24 146 90.68 146.55 90.92 141.88 86.66 141.88"/><path class="cls-3" d="M94.91,92.53c-.17,1.83-.33,3.46-.47,4.91-.55,5.34-1,8.07-1,8.07s-.7,26.88-2.08,37.82H86.32s-2.68-32.26-3-36.63c-.4-.63-1.31-7.66-1.69-13.39A42.34,42.34,0,0,1,81.57,87c.4-3.62,9.72,2.86,12.54,4.91Z"/><path class="cls-4" d="M94.44,97.44c0,.68-.08,1.35-.14,2l-.16,2c-.12,1.36-.25,2.7-.41,4.05v0c0,1.58,0,3.16-.06,4.74L93.55,115c-.1,3.16-.22,6.31-.39,9.47s-.38,6.31-.65,9.46-.6,6.29-1.11,9.41c.25-3.15.4-6.3.55-9.45l.42-9.46.41-9.46.44-9.46v0h0c.22-1.33.42-2.67.62-4Z"/><path class="cls-5" d="M91.5,105.28a9,9,0,0,1-.36,1.64,9,9,0,0,1-.62,1.55,8.94,8.94,0,0,1,.36-1.63A9.05,9.05,0,0,1,91.5,105.28Z"/><path class="cls-5" d="M94.91,92.53c-.17,1.83-.33,3.46-.47,4.91-2.72.29-5.64.73-7,3.5a8.77,8.77,0,0,0-.65,3.29c-.82,13,.56,26.06.89,39.1H86.32s-2.68-32.26-3-36.63c-.4-.63-1.31-7.66-1.69-13.39a2.73,2.73,0,0,1,.3-.56,3.53,3.53,0,0,1,2.31-1,27.19,27.19,0,0,1,9.85.24Z"/><polygon class="cls-2" points="67.86 141.88 68.44 146 71.88 146.55 72.72 141.88 67.86 141.88"/><path class="cls-3" d="M81.55,91.46c-.16,1.08-.76,3.36-1.4,5.85a62.07,62.07,0,0,0-1.91,8.63c-.32,9-2.77,27.79-5.06,37-.05.23-3.07-.07-4.8-.26l-1.19-.13s.74-36.21,1.26-48.69a11.06,11.06,0,0,1,.9-4.61,5.82,5.82,0,0,1,5.9-3C82.19,87.32,82.23,86.9,81.55,91.46Z"/><path class="cls-4" d="M80.15,97.31c-.4,1.88-.85,3.75-1.21,5.64a25.31,25.31,0,0,0-.43,2.82c0,.94-.05,1.92-.1,2.88-.08,1.93-.25,3.85-.41,5.77s-.39,3.84-.61,5.76c-.12.95-.24,1.91-.37,2.86s-.25,1.91-.4,2.87c-.28,1.9-.58,3.81-.92,5.71a109.27,109.27,0,0,1-2.52,11.28c.37-1.89.73-3.78,1-5.68s.6-3.8.87-5.71.55-3.8.79-5.71.5-3.81.72-5.72.45-3.82.66-5.73.38-3.82.54-5.74c.09-1,.13-1.9.21-2.88a22.26,22.26,0,0,1,.57-2.86Q79.29,100.07,80.15,97.31Z"/><path class="cls-5" d="M74.92,105.81a9.53,9.53,0,0,1-.45,1.52,8.1,8.1,0,0,1-.71,1.41,9.41,9.41,0,0,1,.45-1.51A7.85,7.85,0,0,1,74.92,105.81Z"/><path class="cls-5" d="M81.55,91.46c-.16,1.08-.76,3.36-1.4,5.85-3.66.56-6.38,3.37-7.85,6.68-1.57,3.52-1.84,7.45-2.09,11.29q-.83,12.36-1.64,24.72c-.06.88-.12,1.76-.19,2.64l-1.19-.13s.74-36.21,1.26-48.69a11.06,11.06,0,0,1,.9-4.61,5.82,5.82,0,0,1,5.9-3C82.19,87.32,82.23,86.9,81.55,91.46Z"/><path class="cls-3" d="M92.06,150.19l-5.28,0H84.39c.08-1.87,1.21-3.52,2.27-5.06a3,3,0,0,1,.74-.84,1,1,0,0,1,.17-.1,1.75,1.75,0,0,1,1.79.24c.48.36.7.92,1.1,1.3a1.74,1.74,0,0,0,.26-.53c0-.12.14-.26.26-.24a.24.24,0,0,1,.16.12C92.21,146.52,92.25,148.44,92.06,150.19Z"/><path class="cls-5" d="M88,146.51c-.13.25-.45.46-.6.72A4.76,4.76,0,0,0,86.9,149c-.05.39-.08.79-.12,1.18H84.39c.08-1.87,1.21-3.52,2.27-5.06a3,3,0,0,1,.74-.84,10.09,10.09,0,0,1,.06,1.74C87.83,146.15,88.21,146.11,88,146.51Z"/><path class="cls-3" d="M73.3,150.29c-2.4,0-4.79,0-7.19,0-1.54,0-3.08,0-4.63,0a3.15,3.15,0,0,1-.43-.05,5.09,5.09,0,0,1,3-3.62,10,10,0,0,0,2.72-1.22c.29-.25.08-1,.43-1.19a.88.88,0,0,1,.29-.05,4.6,4.6,0,0,1,1.8.76c.34.2.64.44,1,.65a4.23,4.23,0,0,0,.47.25,1.89,1.89,0,0,0,.91.13c.17,0,.56-.29.69-.26.41.08.73,1.14.82,1.45S73.6,150.29,73.3,150.29Z"/><path class="cls-5" d="M69.36,146.85A4.77,4.77,0,0,0,67,148.6a8.31,8.31,0,0,0-.92,1.68c-1.54,0-3.08,0-4.63,0a3.15,3.15,0,0,1-.43-.05,5.09,5.09,0,0,1,3-3.62,10,10,0,0,0,2.72-1.22c.29-.25.08-1,.43-1.19a.88.88,0,0,1,.29-.05,3.33,3.33,0,0,1,.24.34,7.23,7.23,0,0,1,.56,1.23A2.51,2.51,0,0,0,69.36,146.85Z"/><path class="cls-6" d="M40.5,40.63a29.91,29.91,0,0,0-5.58,1.52c.17.84,1.21,1.13,2.06,1.19a16.7,16.7,0,0,0,2.55,0c.79-.08,1.59-.36,2.37-.41a2.89,2.89,0,0,0-1.39,1.68.5.5,0,0,0,0,.32.37.37,0,0,0,.43.14,13,13,0,0,1,1.7-.53c.78-.06,1.56.15,2.35.14s2.75-.26,3.21-1-.46-1.51-1-1.86A10,10,0,0,0,40.5,40.63Z"/><path class="cls-7" d="M74.91,27.93,71.33,43.48S64,49.67,61.8,49.29,47.44,45.2,46,44.76l-.14,0,1-3.52c6.7-.8,14.73.8,14.73.8L71,32Z"/><path class="cls-8" d="M74.91,27.93,71.33,43.48S64,49.67,61.8,49.29,47.44,45.2,46,44.76l5.44.2a52.12,52.12,0,0,0,9.35-.21c0-.31,0-.61.06-.91a.9.9,0,0,0,1.06.69,2.48,2.48,0,0,0,1.19-.73,28,28,0,0,0,5.83-7.47c.72-1.39,1.48-2.85,2.11-4.31Z"/><path class="cls-8" d="M61,42.59a13,13,0,0,0,.16,1.29c.08.42.19.82.31,1.25a2.36,2.36,0,0,1-.57-1.2A2.44,2.44,0,0,1,61,42.59Z"/><path class="cls-7" d="M98,84.82c-.34,4.49-1.42,11.67-1.42,11.67a53.8,53.8,0,0,0-18.3-.4l-.52-4.6L77,96a18.75,18.75,0,0,0-9.28-.07s-.93-25,4.08-34.9S69.23,51.69,69,47.37s4.84-18.32,6-19.44,4.34-1.62,5.17-1.77l.18,0,6.39-.82.66,0c2.42.27,8,2.71,8.5,4.81s4.11,7.22-.89,18.43c-5.16,11.57-2.56,7.71-.17,14.12S98.31,80.32,98,84.82Z"/><path class="cls-9" d="M94.92,48.53c-.75,1.93-1.57,3.84-2.2,5.79-.16.49-.3,1-.41,1.48a4.22,4.22,0,0,0-.09,1.45,3.1,3.1,0,0,0,.59,1.28c.3.41.62.83.9,1.28a13.84,13.84,0,0,1,1.41,2.83c.36,1,.68,2,1,3a60.9,60.9,0,0,1,1.3,6.11q.5,3.08.77,6.19c.08,1,.15,2.07.18,3.11s0,2.08,0,3.13c-.14,2.09-.44,4.14-.73,6.19s-.65,4.09-1,6.13c.21-2.06.45-4.12.64-6.18.11-1,.2-2.06.29-3.09s.19-2.06.21-3.07a52.93,52.93,0,0,0-.3-6.16q-.28-3.08-.8-6.12c-.32-2-.73-4.05-1.24-6a21.59,21.59,0,0,0-2.16-5.69c-.26-.43-.56-.84-.85-1.29a4.84,4.84,0,0,1-.4-.71,2.64,2.64,0,0,1-.23-.82,4.65,4.65,0,0,1,.16-1.63,15.46,15.46,0,0,1,.49-1.5c.37-1,.8-1.92,1.23-2.86S94.46,49.46,94.92,48.53Z"/><path class="cls-10" d="M91.87,54.3a9.82,9.82,0,0,1-2.58,5.36c-1.77,1.85-4.19,2.92-6.42,4.19a35.43,35.43,0,0,0-5.39,3.77,9.06,9.06,0,0,0-3.29,4.7c-1.17,3.75-1,7.75-1.14,11.63s-.26,7.6-.24,11.41a18.58,18.58,0,0,0-5.08.54s-.93-25,4.08-34.9S69.23,51.69,69,47.37s4.84-18.32,6-19.44,4.34-1.62,5.17-1.77a11.17,11.17,0,0,1-.73,1l-.66.74a26,26,0,0,0-7.55,18,4.13,4.13,0,0,0,.22,1.64,4,4,0,0,0,2.67,2,14.49,14.49,0,0,0,15.18-4.4,8.15,8.15,0,0,0,.41,4.37c.46,1.23,1.6,1.42,2.17,2.47A1.85,1.85,0,0,1,92,53,9.47,9.47,0,0,1,91.87,54.3Z"/><path class="cls-8" d="M79.84,54.08a8.33,8.33,0,0,1-2.15.35,7.52,7.52,0,0,1-2.17-.22c.73,0,1.44,0,2.16-.05S79.11,54.09,79.84,54.08Z"/><path class="cls-8" d="M75.34,52.24a16.26,16.26,0,0,0,6.42,0,8.78,8.78,0,0,1-3.21.59A8.58,8.58,0,0,1,75.34,52.24Z"/><path class="cls-8" d="M87.64,87.5a7.78,7.78,0,0,1-3.76-.77c-2.15-1.29-1.72-11-1.7-11.36v-.13l11,.31v.14c0,.37-.29,9-.93,10.43a2.43,2.43,0,0,1-1.5,1A10.68,10.68,0,0,1,87.64,87.5Zm-5.19-12c0,1.18-.31,9.84,1.57,11,1.48.9,4.72.92,6.62.33A2.18,2.18,0,0,0,92,86c.57-1.25.86-9.06.9-10.19Z"/><path class="cls-8" d="M70.29,86.8A2.6,2.6,0,0,1,68.23,86c-1-1.3.33-11,.39-11.37l0-.12,6.1.35,0,.14c0,.37-1.21,9.06-1.71,10.43a2.55,2.55,0,0,1-2.07,1.34A4.87,4.87,0,0,1,70.29,86.8Zm-1.42-12c-.4,2.86-1.21,10-.42,11a2.63,2.63,0,0,0,2.44.66,2.26,2.26,0,0,0,1.86-1.16c.46-1.25,1.53-9.06,1.69-10.23Z"/><path class="cls-8" d="M78,39.76A18.4,18.4,0,0,0,76.16,46a11.8,11.8,0,0,0,.11,3.25,13.15,13.15,0,0,0,1.09,3.06,21.41,21.41,0,0,1,1.27,3,14.33,14.33,0,0,1,.59,3.24,32.77,32.77,0,0,1-.37,6.57c-.31,2.17-.6,4.33-.8,6.51s-.37,4.35-.48,6.53-.15,4.37-.14,6.56.06,4.37.18,6.56c-.16-2.19-.27-4.37-.31-6.56s0-4.38.07-6.57a121.84,121.84,0,0,1,1.21-13.07,33.07,33.07,0,0,0,.4-6.51,14.33,14.33,0,0,0-.57-3.19,26.33,26.33,0,0,0-1.23-3,13,13,0,0,1-1.07-3.11A11.71,11.71,0,0,1,76,46,18.51,18.51,0,0,1,78,39.76Z"/><path class="cls-8" d="M78.89,41.14c-.11.32-.35.53-.54.47s-.25-.38-.14-.7.35-.54.54-.47S79,40.82,78.89,41.14Z"/><path class="cls-8" d="M77.32,48c0,.34-.15.62-.35.62s-.36-.26-.37-.61.15-.61.35-.62S77.31,47.68,77.32,48Z"/><path class="cls-8" d="M79.91,56.39c.07.33,0,.63-.23.68s-.4-.2-.47-.53,0-.64.22-.68S79.84,56.05,79.91,56.39Z"/><path class="cls-8" d="M79.92,67c0,.34-.17.62-.37.61s-.36-.27-.35-.62.17-.61.36-.61S79.92,66.68,79.92,67Z"/><path class="cls-8" d="M78.9,79c0,.34-.17.62-.37.61s-.35-.27-.35-.61.17-.62.37-.62S78.9,78.69,78.9,79Z"/><polygon class="cls-11" points="80.21 42.51 84.98 43.46 85.78 41 81.02 40.05 80.21 42.51"/><polygon class="cls-11" points="84.55 39.4 83.55 41.02 82.83 40.82 83.54 39.04 84.55 39.4"/><path class="cls-12" d="M66.05,69.34c-.17.09-.36.22-.35.41a.48.48,0,0,0,.07.18.86.86,0,0,0,.85.32,1.63,1.63,0,0,0,.81-.47c.23-.23.41-.49.61-.73a5.56,5.56,0,0,1,1.34-1.17c-.15.09-.44,0-.61,0a3.18,3.18,0,0,0-.86.44Z"/><path class="cls-6" d="M71.75,70.75l-.09,0a4.85,4.85,0,0,1-.62.27,5.21,5.21,0,0,0-1.51.64,11.9,11.9,0,0,0-1.24,1.22A5.64,5.64,0,0,1,66,74.5a2.57,2.57,0,0,1-1.73-.06c-.52-.23-1.27-.7-.82-1.33s2.33-2.3,2.73-2.77a10.45,10.45,0,0,1,2.16-2.29,17.26,17.26,0,0,1,3.28-1.17.93.93,0,0,1,.65-.09.84.84,0,0,1,.24.18,4.1,4.1,0,0,1,.59.66,1,1,0,0,1,.22.45,1.07,1.07,0,0,1-.14.55A4.53,4.53,0,0,1,71.75,70.75Z"/><path class="cls-7" d="M94,52.1c-1,1.49-1.5,3.29-2.61,4.67a20.33,20.33,0,0,1-4,3.36l-.2.15c-2.82,2-5.82,3.75-8.63,5.77-1.13.81-3.93,2.38-4.88,3.41l-2.7-3c1.87-1.93,4.12-4,6.07-5.84l6.4-6.09a8.75,8.75,0,0,0,1.46-1.64,9.18,9.18,0,0,0,1-2.64c1.5-5.68,3.83-11.08,5.45-16.72.38-1.35.73-3.74,2.12-4.49a1.59,1.59,0,0,1,.27-.12,1.39,1.39,0,0,1,.9,0c2.79.81,3.14,4.94,3.21,7.35C97.93,41.9,97,47.33,94,52.1Z"/><path class="cls-8" d="M80.05,60.42c-1.18,1.33-2.42,2.77-2.67,4.54a3.05,3.05,0,0,0,2.14-.54l7.62-4.14c-2.82,2-5.82,3.75-8.63,5.77-1.13.81-3.93,2.38-4.88,3.41l-2.7-3c1.87-1.93,4.12-4,6.07-5.84l6.4-6.09a8.75,8.75,0,0,0,1.46-1.64,9.18,9.18,0,0,0,1-2.64c1.5-5.68,3.83-11.08,5.45-16.72.38-1.35.73-3.74,2.12-4.49a5.47,5.47,0,0,0-1.2,2.33L86.89,48.75a16.16,16.16,0,0,0-.79,3.42,4.6,4.6,0,0,1-.23,1.49,3.43,3.43,0,0,1-.7,1Z"/><path class="cls-8" d="M85.37,53a4,4,0,0,1,2,.44,3.5,3.5,0,0,1-1-.09A3.23,3.23,0,0,1,85.37,53Z"/><path class="cls-9" d="M91.54,56.47c.58-1.12,1.16-2.23,1.71-3.35s1.2-2.19,1.72-3.32a27,27,0,0,0,1.34-3.47,26,26,0,0,0,.82-3.62A32.81,32.81,0,0,0,97.49,39c0-.62,0-1.24,0-1.86,0-.31,0-.62,0-.93s0-.62,0-.93a12.81,12.81,0,0,0-.67-3.61A5.17,5.17,0,0,0,96,30.05a3.32,3.32,0,0,0-1.44-1.11l.46.13a4.14,4.14,0,0,1,.43.2,3.66,3.66,0,0,1,.77.59,5.85,5.85,0,0,1,1.07,1.62,13.94,13.94,0,0,1,.7,3.76c0,.32,0,.63,0,.95s0,.63,0,.94c0,.64,0,1.27,0,1.9a33.69,33.69,0,0,1-.36,3.76,29.13,29.13,0,0,1-.84,3.7A28.14,28.14,0,0,1,95.46,50c-.53,1.14-1.12,2.26-1.74,3.35S92.31,55.47,91.54,56.47Z"/><path class="cls-11" d="M87.56,25.32s-5.91,11.22-8.45,13.24,0-12,0-12Z"/><path class="cls-6" d="M87.56,25.32s-.43.81-1.11,1.87c-1.25,1.93-3.35,4.7-5.21,4.91s-2.16-2-2.19-3.65a13.56,13.56,0,0,1,.1-1.91,1.74,1.74,0,0,0,.95-1.2A3.2,3.2,0,0,0,80,23.63l5.49-5.31a6.34,6.34,0,0,0-.06,1.54C85.56,22.35,86.77,25.58,87.56,25.32Z"/><path class="cls-2" d="M85.4,19.86c-.09.22-.16.41-.2.52a16.24,16.24,0,0,1-5,7.47,2.8,2.8,0,0,1-1.11.6,13.56,13.56,0,0,1,.1-1.91,1.74,1.74,0,0,0,.95-1.2A3.2,3.2,0,0,0,80,23.63l5.49-5.31A6.34,6.34,0,0,0,85.4,19.86Z"/><path class="cls-6" d="M87,14.34c-.38,1.83-1.27,3.49-1.8,5.27a8.78,8.78,0,0,1-2.79,4.28,5.44,5.44,0,0,1-1.55.89,3.63,3.63,0,0,1-1.33.21,2.45,2.45,0,0,1-1.65-.77c-2.06-2.11-3.58-3.81-4.49-6.68s-2.12-6-1-8.95c0-.14.11-.28.18-.43a6.92,6.92,0,0,1,3.46-3.37,8.37,8.37,0,0,1,3.54-.6,8.48,8.48,0,0,1,2.86.54,7,7,0,0,1,2.85,2.09A7.34,7.34,0,0,1,86.5,8.68,9.38,9.38,0,0,1,87,14.34Z"/><path class="cls-12" d="M79.55,25a2.45,2.45,0,0,1-1.65-.77c-2.06-2.11-3.58-3.81-4.49-6.68s-2.12-6-1-8.95a5.34,5.34,0,0,1,3.87-1.25c1.22.14,1.06,1,.65,1.95a14.75,14.75,0,0,0-1.44,3.79,4.56,4.56,0,0,1-.22,1.05c-.22.51-.68,1-.63,1.51a2.69,2.69,0,0,0,.26.77,5.92,5.92,0,0,1,.21,1.46A9.43,9.43,0,0,0,79.55,25Z"/><path class="cls-13" d="M79.32,15.34a.48.48,0,1,0,.19-.69A.51.51,0,0,0,79.32,15.34Z"/><path class="cls-13" d="M74.14,16.19a.52.52,0,0,0,.69.21.51.51,0,0,0,.12-.71.5.5,0,0,0-.69-.21A.51.51,0,0,0,74.14,16.19Z"/><path class="cls-2" d="M78.53,19a2,2,0,0,1-.67.32,1.35,1.35,0,0,1-.77,0,1.39,1.39,0,0,1-.66-.41,1.19,1.19,0,0,1-.26-.71,1.83,1.83,0,0,0,.42.56,1,1,0,0,0,.27.18l.31.13a1.81,1.81,0,0,0,.66,0C78.06,19.13,78.29,19.08,78.53,19Z"/><path class="cls-2" d="M80.83,20.28a4.75,4.75,0,0,1-1,.84,2.85,2.85,0,0,1-1.28.42,3.27,3.27,0,0,1-1.32-.17,4.26,4.26,0,0,1-1.17-.58c.43.1.84.2,1.25.27a4.51,4.51,0,0,0,1.21.08,3.68,3.68,0,0,0,1.16-.3C80.06,20.68,80.43,20.47,80.83,20.28Z"/><path class="cls-2" d="M79.79,22.36a1.41,1.41,0,0,1-.76.28,1.39,1.39,0,0,1-.8-.18,4.45,4.45,0,0,1,.78-.09A4,4,0,0,1,79.79,22.36Z"/><path class="cls-14" d="M78.52,12.09a1,1,0,0,0-.43.1c-.11.06-.25.2-.18.33s.64.15.84.14A13.41,13.41,0,0,1,82.2,13a9.37,9.37,0,0,0-1.55-.71A7,7,0,0,0,78.52,12.09Z"/><path class="cls-14" d="M72.57,15.08a2,2,0,0,1,.17-.46,3.34,3.34,0,0,1,.64-1,3.38,3.38,0,0,1,1-.66c.19-.06.72,0,.52.34s-.4.28-.57.36a4.52,4.52,0,0,0-.69.36A5,5,0,0,0,72.57,15.08Z"/><path class="cls-15" d="M84.86,13.75,84,10.61a7.71,7.71,0,0,0,.33,2.94,9.74,9.74,0,0,1-3-5.31A9,9,0,0,1,77.94,10a15.11,15.11,0,0,1,.79-1.68,7.52,7.52,0,0,1-1.21,1,6,6,0,0,0-1,1l-2.32,3.12c.27-.79.57-1.57.91-2.33a7.69,7.69,0,0,0-1.86,3.56,13.28,13.28,0,0,0-.36,2.17c0,.33-.27,2,0,2.21-.33-.28-1.55-4.51-1.94-6.22a16.65,16.65,0,0,0,0,2.79A34.52,34.52,0,0,1,69.51,11a13.2,13.2,0,0,1,.84-7.7A5.4,5.4,0,0,1,71.18,2,5.33,5.33,0,0,1,73.44.62a12.34,12.34,0,0,1,9.65.82,1,1,0,0,0,.75.19,1.59,1.59,0,0,0,.35-.22,2.69,2.69,0,0,1,3.1.46,6.17,6.17,0,0,1,2.27,4,12.28,12.28,0,0,1-1.22,5.85q-.93,2.41-1.88,4.84a5,5,0,0,0-.89-1.45A3,3,0,0,1,84.86,13.75Z"/><path class="cls-16" d="M84.1,3a2,2,0,0,1,1.51-.17A2.71,2.71,0,0,1,87,3.61,3.48,3.48,0,0,1,87.69,5a4.67,4.67,0,0,1,.19,1.52A8.57,8.57,0,0,0,87.5,5a4,4,0,0,0-.75-1.25A2.87,2.87,0,0,0,85.55,3,2.32,2.32,0,0,0,84.1,3Z"/><path class="cls-16" d="M83.89,5a1.27,1.27,0,0,1,.86-.1,1.85,1.85,0,0,1,.8.41,3.42,3.42,0,0,1,.59.67,5.24,5.24,0,0,1,.43.77A4.65,4.65,0,0,1,87,8.44a6.47,6.47,0,0,1,0,.88,4.92,4.92,0,0,1-.21.84,7,7,0,0,0,0-1.71,6,6,0,0,0-.45-1.62,4.42,4.42,0,0,0-.4-.74,3.63,3.63,0,0,0-.51-.66A1.94,1.94,0,0,0,84.72,5,1.31,1.31,0,0,0,83.89,5Z"/><path class="cls-16" d="M83.63,6.68a1.41,1.41,0,0,1,.94.73,1.44,1.44,0,0,1,.13,1.18,3.53,3.53,0,0,0-.37-1A3,3,0,0,0,83.63,6.68Z"/><path class="cls-16" d="M80.68,5.35a9.08,9.08,0,0,0-2.41,1,9.32,9.32,0,0,0-2,1.63,5.42,5.42,0,0,1,4.44-2.6Z"/><path class="cls-16" d="M80.64,4a9.34,9.34,0,0,0-2.49.71A9.89,9.89,0,0,0,76,6.08a9.23,9.23,0,0,0-1.78,1.86A13.28,13.28,0,0,0,73,10.27c.13-.42.26-.84.4-1.25A6.93,6.93,0,0,1,74,7.82a8.73,8.73,0,0,1,1.79-1.95,8.43,8.43,0,0,1,2.29-1.32,8.06,8.06,0,0,1,1.27-.38A7.18,7.18,0,0,1,80.64,4Z"/><path class="cls-16" d="M81.24,2.54c-.95.11-1.89.23-2.81.43a12.59,12.59,0,0,0-2.69.86,8.58,8.58,0,0,0-2.33,1.54,6.77,6.77,0,0,0-1.62,2.29,5.32,5.32,0,0,1,.59-1.31,6.42,6.42,0,0,1,.89-1.13,7.88,7.88,0,0,1,2.36-1.64,11.1,11.1,0,0,1,2.76-.82A18.05,18.05,0,0,1,81.24,2.54Z"/><path class="cls-16" d="M77.91,1.31c-.62.08-1.22.15-1.82.27a11.34,11.34,0,0,0-1.75.5,7.68,7.68,0,0,0-1.6.85,6.33,6.33,0,0,0-.7.58,5.68,5.68,0,0,0-.61.68A4,4,0,0,1,72,3.42a5.22,5.22,0,0,1,.67-.66,6.2,6.2,0,0,1,1.62-.93,8.27,8.27,0,0,1,1.81-.45A9.65,9.65,0,0,1,77.91,1.31Z"/><path class="cls-6" d="M86.57,13.33a1.63,1.63,0,0,1,1.24,1.13,3,3,0,0,1,0,1.74,3.38,3.38,0,0,1-2,2.46c-.23.08-.55.1-.65-.12a.46.46,0,0,1,0-.26C85.19,17.1,84.56,13.14,86.57,13.33Z"/><path class="cls-2" d="M86.43,14a.78.78,0,0,1,.84.32,1.09,1.09,0,0,1,.15.46,3.07,3.07,0,0,1-.56,2.29,1.46,1.46,0,0,1-.36.34,1.74,1.74,0,0,1-.47.16.17.17,0,0,1-.17,0,.24.24,0,0,1,0-.1l-.07-.31a.77.77,0,0,0,.31-.52,1.1,1.1,0,0,0-.12-.33C85.65,15.66,85.55,14.22,86.43,14Z"/><path class="cls-17" d="M50.56,78.17a.89.89,0,0,1,.3.7c0,.52-.26,1.12.08,1.5a1.12,1.12,0,0,0,.75.3,17.2,17.2,0,0,0,2,.17,2.86,2.86,0,0,0,1.36-.19,2,2,0,0,0,1.07-1.6c.31-2.36-1.66-4.92-3.29-6.4a4,4,0,0,0-1.29-.85,1.72,1.72,0,0,0-1.5.1c-1,.69-.82,2.23-.7,3.28a9.12,9.12,0,0,0,.52,2.24C50,77.78,50.33,77.93,50.56,78.17Z"/><path class="cls-18" d="M53.19,72.83a13.92,13.92,0,0,0-2.83,1.43,13.11,13.11,0,0,0-1.27.95c-3.44-1.77-6.93-3.59-9.67-6.22a23.13,23.13,0,0,1-5.24-7.89c-.37-.89-.7-1.8-1-2.72a71.18,71.18,0,0,1-2.31-12,32.84,32.84,0,0,1-.41-4.85,8.21,8.21,0,0,1,1.92-5.68c1.36-1.42,4.11-2.2,5.9-1s2.25,3.81,2.63,5.6A93.69,93.69,0,0,1,43,56.5a5.46,5.46,0,0,0,.23,1.66,5.83,5.83,0,0,0,1.1,1.67A86.51,86.51,0,0,1,53.19,72.83Z"/><path class="cls-19" d="M50.36,74.26a13.11,13.11,0,0,0-1.27.95c-3.44-1.77-6.93-3.59-9.67-6.22a23.13,23.13,0,0,1-5.24-7.89A14.88,14.88,0,0,1,35.68,56c.41-.8,1.32-3,2.43-2.52s.74,3.2.83,4.17c.07.73.3,1.6,1,1.78-.24,3.13,1.44,6.12,3.56,8.43S48.19,72,50.36,74.26Z"/><path class="cls-19" d="M53.19,72.83Q50.88,69,48.27,65.4c-.87-1.19-1.76-2.38-2.69-3.54-.46-.58-.92-1.16-1.4-1.73a6.54,6.54,0,0,1-1.27-1.93,4.42,4.42,0,0,1-.2-1.17l-.05-1.12q0-1.11-.12-2.22c-.08-1.48-.22-3-.37-4.43-.31-2.95-.72-5.9-1.25-8.83a74.67,74.67,0,0,1,1.67,8.78c.2,1.48.35,3,.46,4.45.06.74.1,1.48.14,2.23A8.43,8.43,0,0,0,43.42,58a5.79,5.79,0,0,0,1.17,1.77c.47.58.94,1.16,1.39,1.75.91,1.19,1.8,2.39,2.63,3.62A70.89,70.89,0,0,1,53.19,72.83Z"/><polygon class="cls-17" points="32.21 141.34 32.63 145.5 36.97 145.5 37.79 141.34 32.21 141.34"/><path class="cls-7" d="M43.81,150l-8.1-.11-4-.05H31a15.58,15.58,0,0,1,.47-4.76,1.16,1.16,0,0,1,.38-.69.86.86,0,0,1,.86.05l.1.06h0c.22.15.41.33.63.49a2.19,2.19,0,0,0,2.43,0c2.54-1.8,2.2-.07,4.26,1.19.42.26.88.45,1.31.69A5.08,5.08,0,0,1,43.81,150Z"/><path class="cls-8" d="M36.62,146.51a3.42,3.42,0,0,0-.7,1.74c-.09.56-.11,1.13-.21,1.68l-4-.05H31a15.58,15.58,0,0,1,.47-4.76,1.16,1.16,0,0,1,.38-.69.86.86,0,0,1,.86.05l.1.06h0a3.32,3.32,0,0,1,.21,1.36,1.58,1.58,0,0,0,.06.72,1.16,1.16,0,0,0,1.08.44A6.37,6.37,0,0,0,36.62,146.51Z"/><polygon class="cls-17" points="16.77 141.34 17.14 145.5 20.93 145.5 22.03 141.71 16.77 141.34"/><path class="cls-7" d="M24.24,149.47c-.15.62-.51.53-1.14.53l-2,0-2.66,0c-.71,0-1.42,0-2.13,0h-.69a15.58,15.58,0,0,1,.47-4.76,1.06,1.06,0,0,1,.38-.69c.37-.24.68.1,1,.15a1.72,1.72,0,0,0,.67-.06,5,5,0,0,0,.89-.36,4.48,4.48,0,0,1,1.15-.44,1.45,1.45,0,0,1,.92.07,3,3,0,0,1,1,.95c.38.45.8.84,1.15,1.3A4.57,4.57,0,0,1,24.24,149.47Z"/><path class="cls-8" d="M18.71,149.36a3.1,3.1,0,0,1-.3.57c-.71,0-1.42,0-2.13,0h-.69a15.58,15.58,0,0,1,.47-4.76,1.06,1.06,0,0,1,.38-.69c.37-.24.68.1,1,.15a1.72,1.72,0,0,0,.67-.06s.17,1.25.21,1.34a.26.26,0,0,0,.07.1.2.2,0,0,0,.13,0l1.67-.18c-.48.05-1.24.94-1.4,1.36C18.58,147.85,19,148.63,18.71,149.36Z"/><path class="cls-10" d="M37.81,142.46s-2.1,0-3.88,0a7.29,7.29,0,0,1-2.43-.24,106.87,106.87,0,0,1,.63-28.1c-3.48-5.9-7-11.87-9-18.32-.17-.54-.33-1.09-.48-1.64-1.6-6-1.75-12.37.7-17.71,4.44,0,9.27-.1,12.78,2.92a3.62,3.62,0,0,1,.93,1.1,5.9,5.9,0,0,1,.31,1.71S40.78,100.44,41,109.6C41.34,120.65,39.12,131.62,37.81,142.46Z"/><path class="cls-8" d="M37.07,114.48c-1.42,2.14-1.8,4.81-2,7.37-.63,6.84-.55,13.74-1.1,20.58a7.29,7.29,0,0,1-2.43-.24,106.87,106.87,0,0,1,.63-28.1c-3.48-5.9-7-11.87-9-18.32-.17-.54-.33-1.09-.48-1.64a7.8,7.8,0,0,1,1.79-2l.74.92,7.38-6.06a10.07,10.07,0,0,0-1.68,5.63,28.46,28.46,0,0,0,1.86,11.77c1.11,2.87,2,6.14,3.93,8.56l-.67.83A1.8,1.8,0,0,1,37.07,114.48Z"/><path class="cls-10" d="M28.28,109.37c-.58,11-3.65,22.29-5.84,33.14L17.32,142l-1-.1s-1-19.46,2.72-28.07C16,108,13,102,11.46,95.54S10.1,82,13.24,76.18c4.45,0,9.28-.11,12.54,2.91a3.2,3.2,0,0,1,.84,1.1,3.45,3.45,0,0,1,.18,1.5v.21C26.41,91.07,28.77,100.2,28.28,109.37Z"/><path class="cls-8" d="M19.17,88.18c-1.83,3.84-1.86,8.33-1.05,12.51s2.4,8.16,3.71,12.2a5.11,5.11,0,0,1,.31,1.38,5.7,5.7,0,0,1-.36,1.77,94.83,94.83,0,0,0-4.46,26l-1-.1s-1-19.46,2.72-28.07C16,108,13,102,11.46,95.54S10.1,82,13.24,76.18c4.45,0,9.28-.11,12.54,2.91a3.2,3.2,0,0,1,.84,1.1,3.45,3.45,0,0,1,.18,1.5A12,12,0,0,0,19.17,88.18Z"/><path class="cls-20" d="M17.89,82.35a15.51,15.51,0,0,1-.3,2.71,18.62,18.62,0,0,1-.72,2.63,19.28,19.28,0,0,1-1.1,2.51,15.48,15.48,0,0,1-1.46,2.31l-.07-.05.22-.31-.14.36-.08-.05c.39-.81.78-1.63,1.13-2.45s.69-1.65,1-2.5.57-1.69.83-2.55S17.66,83.23,17.89,82.35Z"/><path class="cls-20" d="M20.64,113.27c.23,0,.42.11.62.17l.55.19.55.2a4.71,4.71,0,0,1,.59.25,1.37,1.37,0,0,1-.65.17,1.92,1.92,0,0,1-.67-.11,1.68,1.68,0,0,1-.58-.33A1.39,1.39,0,0,1,20.64,113.27Z"/><path class="cls-20" d="M34.44,114a3.16,3.16,0,0,1,.56-.48,4.16,4.16,0,0,1,.61-.35,4,4,0,0,1,1.38-.41l.3,0-.23.13-.15.08a1.15,1.15,0,0,1,.06-.17l.07.11a4.73,4.73,0,0,1-1.87,1A2.93,2.93,0,0,1,34.44,114Z"/><path class="cls-20" d="M35.15,115a2.18,2.18,0,0,1,.57-.36,3.1,3.1,0,0,1,.6-.23,3.25,3.25,0,0,1,.62-.13,2.57,2.57,0,0,1,.68,0,2.32,2.32,0,0,1-.55.41,2.63,2.63,0,0,1-.6.25,3.6,3.6,0,0,1-.64.12A2.26,2.26,0,0,1,35.15,115Z"/><path class="cls-18" d="M38.64,59.82s-.65,1.1.84,4.95-.16,16.46-1.62,17.32c-.87.51-10.29.17-18-.48-5.26-.44-9.71-1-10.06-1.57-.86-1.34,1-3.55,2.53-6.66a4.68,4.68,0,0,0,.32-1c1.34-5.27,1.05-11.18,1.56-16.57.53-5.65.86-13.38,4.79-17.9a12.92,12.92,0,0,1,6.21-3.74,26,26,0,0,1,9.33-.72,13.48,13.48,0,0,1,2,.28C43,35.17,41.9,41,41.77,46.83A39.12,39.12,0,0,1,38.64,59.82Z"/><path class="cls-19" d="M41.77,46.83a26.94,26.94,0,0,1-.21,3.36A31.72,31.72,0,0,1,41,53.51c-.25,1.09-.56,2.17-.9,3.24s-.73,2.13-1.18,3.17v0a1.1,1.1,0,0,0,0,.11.66.66,0,0,0,0,.15,1.66,1.66,0,0,0,0,.32,3.75,3.75,0,0,0,0,.67A8,8,0,0,0,39,62.57c.11.45.26.89.41,1.34l.24.66a5.36,5.36,0,0,1,.23.71,14.11,14.11,0,0,1,.37,2.88c0,1,0,1.91,0,2.87a47.15,47.15,0,0,1-.63,5.69c-.16.94-.36,1.88-.61,2.8-.13.46-.26.92-.43,1.37-.09.22-.19.44-.3.65a1.42,1.42,0,0,1-.45.55,1.41,1.41,0,0,0,.4-.57,5.4,5.4,0,0,0,.25-.67,13.15,13.15,0,0,0,.36-1.37c.2-.93.34-1.87.47-2.8A53.93,53.93,0,0,0,39.8,71c0-.94,0-1.89,0-2.83a13.39,13.39,0,0,0-.37-2.77,6.11,6.11,0,0,0-.21-.65c-.08-.22-.17-.45-.25-.68-.15-.45-.3-.91-.41-1.38a8.62,8.62,0,0,1-.26-1.45,4.64,4.64,0,0,1,0-.75,2.58,2.58,0,0,1,0-.38,1.46,1.46,0,0,1,.05-.2.38.38,0,0,1,0-.1.55.55,0,0,1,.05-.13v0c.45-1,.85-2.06,1.21-3.11s.7-2.12,1-3.19.54-2.16.75-3.26S41.68,48,41.77,46.83Z"/><path class="cls-19" d="M37.3,75.13c-2.94-.3-5.54-2.12-8.47-2.53a9.17,9.17,0,0,0-8.3,3.31,2.75,2.75,0,0,0-.67,1.38c-.16,1.38,1.35,2.3,2.62,2.86a3.34,3.34,0,0,0-2.59,1.46c-5.26-.44-9.71-1-10.06-1.57-.86-1.34,1-3.55,2.53-6.66a4.68,4.68,0,0,0,.32-1c1.34-5.27,1.05-11.18,1.56-16.57.53-5.65.86-13.38,4.79-17.9a12.92,12.92,0,0,1,6.21-3.74,26,26,0,0,1,9.33-.72,13.48,13.48,0,0,1,2,.28,6.1,6.1,0,0,1,0,1.76c-.3,2.33-1.82,4.47-1.62,6.81l-.09,0c-2.49-.32-4.93,1.36-6.12,3.56a13.14,13.14,0,0,0-1.13,7.34,6.65,6.65,0,0,0,1.13,3.61,5.76,5.76,0,0,0,2,1.47,12.84,12.84,0,0,0,5.64,1.36c-1.77,0-5.47,2.86-6.5,4.21-1.44,1.89.53,5.08,1.82,6.62A25.8,25.8,0,0,0,37.3,75.13Z"/><path class="cls-21" d="M19.05,65.28a10.16,10.16,0,0,1,2.2-2.47,11.88,11.88,0,0,1,1.36-1c.24-.14.49-.27.73-.39l.38-.17c.12-.06.26-.11.29-.25,0,.15-.14.24-.26.31l-.34.22-.68.46c-.45.31-.89.64-1.31,1A22.92,22.92,0,0,0,19.05,65.28Z"/><path class="cls-21" d="M19.21,61.58a12.71,12.71,0,0,1,2.2-.9,12.36,12.36,0,0,1,2.33-.48c-.75.28-1.5.51-2.25.74S20,61.4,19.21,61.58Z"/><path class="cls-19" d="M15.6,76.88a16.94,16.94,0,0,0,3.51,1.94A21.94,21.94,0,0,0,22.93,80a37.54,37.54,0,0,0,4,.64c.67.09,1.33.16,2,.22l2,.21-2-.08c-.67,0-1.34-.08-2-.14a33.83,33.83,0,0,1-4-.59A21.1,21.1,0,0,1,19,79a18,18,0,0,1-1.79-.94A13.6,13.6,0,0,1,15.6,76.88Z"/><path class="cls-19" d="M29.32,59.07c.74.09,1.48.21,2.22.31s1.48.19,2.22.24a16.45,16.45,0,0,0,2.22,0l.55,0,.56-.08.55-.1.54-.13-.53.2-.54.16-.55.12-.56.08a11.39,11.39,0,0,1-2.26,0,20.61,20.61,0,0,1-2.23-.3C30.77,59.44,30,59.27,29.32,59.07Z"/><path class="cls-17" d="M38.55,41.72c0,.08,0,.15,0,.23-.14,2-2.2,3.65-2.2,3.65A15.73,15.73,0,0,1,34.89,42a71.35,71.35,0,0,1-1.75-7.79s3-2,2.92-2.51C36.06,31.74,38.53,39.59,38.55,41.72Z"/><path class="cls-22" d="M38.55,41.72c0,.08,0,.15,0,.23a6.14,6.14,0,0,1-3.65.09,71.35,71.35,0,0,1-1.75-7.79s3-2,2.92-2.51C36.06,31.74,38.53,39.59,38.55,41.72Z"/><path class="cls-23" d="M37.22,31.75a5,5,0,0,1-1-2.91,5.38,5.38,0,0,0-.46,1.56,4.36,4.36,0,0,1-.3-1.92A3.1,3.1,0,0,0,35,30.34a7.58,7.58,0,0,1-.63-5.12,3.91,3.91,0,0,0-.54,2.18,10.08,10.08,0,0,1-.74-3.57,5.37,5.37,0,0,1,1.17-3.42,7.46,7.46,0,0,1,5.52-2.29,9,9,0,0,1,2.54.25c.86.22,1.65.6,2.5.84s1.7.32,2.52.56a6.48,6.48,0,0,1,3.57,2.56,5.45,5.45,0,0,1,.84,4.05l-.25-.52a8.44,8.44,0,0,1-1.38,4.37l0-.33a5.38,5.38,0,0,1-1.52,2.67,7,7,0,0,0,.46-4,3.75,3.75,0,0,0-.4-1.15,4.47,4.47,0,0,0-1.24-1.25,9.3,9.3,0,0,0-3.31-1.66,5.38,5.38,0,0,0-3.69.31c-1.26.65-1.59,1.75-2.12,2.87A10.71,10.71,0,0,0,37.22,31.75Z"/><path class="cls-24" d="M39.86,18.77a5.88,5.88,0,0,0-2.56.72,5.77,5.77,0,0,0-2,1.77,4.28,4.28,0,0,1,4.54-2.49Z"/><path class="cls-24" d="M39.27,19.87A3.92,3.92,0,0,0,38,20.8a9.5,9.5,0,0,0-1,1.25,9.62,9.62,0,0,0-1.31,3A5.33,5.33,0,0,1,36,23.39a6.45,6.45,0,0,1,1.86-2.74A3.07,3.07,0,0,1,39.27,19.87Z"/><path class="cls-24" d="M37.68,23.07c-.16.41-.39.78-.55,1.16a3.73,3.73,0,0,0-.33,1.22,1.29,1.29,0,0,1-.09-.67,1.89,1.89,0,0,1,.17-.66A3.19,3.19,0,0,1,37.68,23.07Z"/><path class="cls-17" d="M50.41,28.85a35,35,0,0,1-1.61,3.47c-.33.89-.46,1.84-.81,2.71a10.09,10.09,0,0,1-1.56,2.42,10.31,10.31,0,0,1-2.93,2.73,4.41,4.41,0,0,1-4,.32,3.7,3.7,0,0,1-1.19-.92,6.77,6.77,0,0,1-1-1.55,13.1,13.1,0,0,1-1.11-6,1.8,1.8,0,0,1,.21-.94.68.68,0,0,1,.87-.27c0-1.47.17-3.11,1.32-4.1a7,7,0,0,1,.66-5A4.31,4.31,0,0,1,41.24,20a6.93,6.93,0,0,1,5.27.13,6.69,6.69,0,0,1,3.29,2.72,6.76,6.76,0,0,1,.68,2.81A9,9,0,0,1,50.41,28.85Z"/><path class="cls-22" d="M40.64,21.08a10.07,10.07,0,0,0-.5,6.45A6.34,6.34,0,0,1,40.43,29a5.1,5.1,0,0,1-.41,1.7,29.5,29.5,0,0,0-1.67,8.86,6.77,6.77,0,0,1-1-1.55,13.1,13.1,0,0,1-1.11-6,1.8,1.8,0,0,1,.21-.94.68.68,0,0,1,.87-.27c0-1.47.17-3.11,1.32-4.1a7,7,0,0,1,.66-5A4.31,4.31,0,0,1,41.24,20,10.52,10.52,0,0,0,40.64,21.08Z"/><path class="cls-25" d="M48.32,28.26a3.15,3.15,0,0,0-1.07-.36,9,9,0,0,1-1.12-.25,10.07,10.07,0,0,1-1.05-.46A8.53,8.53,0,0,0,44,26.81a4.29,4.29,0,0,1,1.12.23c.37.12.71.31,1.06.42s.73.18,1.1.29A2.44,2.44,0,0,1,48.32,28.26Z"/><path class="cls-25" d="M49.15,27.7a4,4,0,0,0-1.34-.46c-.46-.1-.93-.17-1.4-.32s-.89-.39-1.32-.58a9.71,9.71,0,0,0-1.35-.45,5.74,5.74,0,0,1,1.41.31c.46.16.88.38,1.32.53s.92.22,1.38.35A3.33,3.33,0,0,1,49.15,27.7Z"/><path class="cls-22" d="M35.88,27.84a1.12,1.12,0,0,0-.92.54,2.41,2.41,0,0,0-.34,1.05A5.51,5.51,0,0,0,35.25,33a1,1,0,0,0,.34.38.42.42,0,0,0,.48,0,.56.56,0,0,0,.15-.35C36.42,32.05,38,27.93,35.88,27.84Z"/><path class="cls-25" d="M36.32,28.67a.58.58,0,0,0-.7-.31.83.83,0,0,0-.4.57A4.84,4.84,0,0,0,35,30.7a1.77,1.77,0,0,0,.33,1c.1.12.23.22.33.34a.56.56,0,0,1,.13.44c.24-.48-.1-1.08.06-1.59a2.3,2.3,0,0,1,.23-.44A2.1,2.1,0,0,0,36.32,28.67Z"/><path class="cls-23" d="M37.89,32.09a3.39,3.39,0,0,0,.4.45,6.8,6.8,0,0,0,2.27,1.4c1.24.42,2.69.17,3.81.86.31.19.58.44.89.61a2.27,2.27,0,0,0,2.56-.24,8.1,8.1,0,0,1-2,6.22c-1.57,1.62-4.62,2.84-6.66,1.9a5.91,5.91,0,0,1-1.29-.83c-2-1.63-2.51-4.84-2.16-7.37a20,20,0,0,1,.64-2.62c0-.19.71-2.34.64-2.35l.29.05h0a9.83,9.83,0,0,1,.25,1.21A2.4,2.4,0,0,0,37.89,32.09Z"/><path class="cls-24" d="M38.78,36.4a2.44,2.44,0,0,1,0,1.44,2.36,2.36,0,0,1-.75,1.22,8.5,8.5,0,0,0,.49-1.29A7.54,7.54,0,0,0,38.78,36.4Z"/><path class="cls-24" d="M40.27,38.65a1.72,1.72,0,0,1,.15.81,2.55,2.55,0,0,1-.17.82,4.29,4.29,0,0,1-.91,1.35c.21-.51.47-1,.66-1.45A3.89,3.89,0,0,0,40.27,38.65Z"/><path class="cls-24" d="M42,40a1.94,1.94,0,0,1,.12,1.19,2,2,0,0,1-.57,1A8.46,8.46,0,0,0,42,40Z"/><path class="cls-24" d="M44,39.19a1.42,1.42,0,0,1,.4,1.1,1.47,1.47,0,0,1-.51,1.05,3.51,3.51,0,0,0,.24-1.07A3.43,3.43,0,0,0,44,39.19Z"/><path class="cls-24" d="M45.58,37.89A1.72,1.72,0,0,1,46,39a1.76,1.76,0,0,1-.31,1.09,10,10,0,0,0,0-1.08A8.35,8.35,0,0,0,45.58,37.89Z"/><path class="cls-24" d="M46.39,36.94a1.22,1.22,0,0,1,.5.68,1.16,1.16,0,0,1,0,.84c-.08-.28-.14-.52-.21-.76S46.47,37.22,46.39,36.94Z"/><path class="cls-25" d="M45.65,33.11a1.24,1.24,0,0,1-.42.86,1.82,1.82,0,0,1-.87.45,2,2,0,0,1-1-.08,1.25,1.25,0,0,1-.71-.64,2.19,2.19,0,0,0,.82.22,2.83,2.83,0,0,0,.77,0,2.77,2.77,0,0,0,.73-.26A2.48,2.48,0,0,0,45.65,33.11Z"/><path class="cls-26" d="M41.65,30.67a.47.47,0,0,0,.28.57.45.45,0,0,0,.48-.41.4.4,0,1,0-.76-.16Z"/><path class="cls-26" d="M46.65,32.09a.4.4,0,1,0,.72.3.4.4,0,1,0-.72-.3Z"/><path class="cls-11" d="M40.79,35.78c.14.5.28,1,.43,1.48.26.92,1,1.64,2.08,1.17a4,4,0,0,0,1.44-1.37,3.41,3.41,0,0,1-.68-.07,7.09,7.09,0,0,1-1.77-.39q-.4-.16-.78-.36C41.37,36.16,40.83,35.93,40.79,35.78Z"/><path class="cls-23" d="M44.32,28.36a.71.71,0,0,1,.07.53c-.13.31-.53.36-.86.36a16.66,16.66,0,0,1-3.08-.17c-.31-.06-.67-.19-.72-.49s.25-.58.55-.73C41.4,27.33,43.63,27,44.32,28.36Z"/><path class="cls-23" d="M47,29.54a.84.84,0,0,0,.14.75,2.29,2.29,0,0,0,.59.53,3,3,0,0,0,1.26.56c.93.12.11-1.12-.11-1.42C48.56,29.47,47.41,28.46,47,29.54Z"/><path class="cls-5" d="M63.59,82.59a3.36,3.36,0,0,0-3.54-3.14H58.92a5.13,5.13,0,0,1,1.5-2.16c3.1.17,5.56,2.46,5.61,11.23l.32,58.62H63.94Z"/><rect class="cls-27" x="63.95" y="147.16" width="2.41" height="3.24" transform="translate(-0.81 0.36) rotate(-0.31)"/><rect class="cls-27" x="38.4" y="147.3" width="2.41" height="3.24" transform="translate(-0.82 0.22) rotate(-0.31)"/><path class="cls-5" d="M38,82.73c0-2.93,2.64-5.34,5.91-5.35h1.72a11.15,11.15,0,0,0-1.06,2.17H44a3.37,3.37,0,0,0-3.51,3.18l.36,64.57H38.39Z"/><path class="cls-27" d="M60,77.29h.38a5.13,5.13,0,0,0-1.5,2.16l-14.32.08a11.15,11.15,0,0,1,1.06-2.17Z"/><path class="cls-17" d="M54.61,75.23a5.1,5.1,0,0,1,.85,3.44c0,.3-.16.66-.5.72s-.61-.24-.79-.51a7,7,0,0,0-1.81-2,5.26,5.26,0,0,1-.86-.68,1.51,1.51,0,0,1-.45-.83Z"/><path class="cls-25" d="M54.17,78.88c-.25-.3-.5-.62-.76-.91a8,8,0,0,0-.85-.8,8.26,8.26,0,0,1-.94-.74,2.5,2.5,0,0,1-.39-.47,1.36,1.36,0,0,1-.18-.58,1.41,1.41,0,0,0,.26.52,2.27,2.27,0,0,0,.41.41c.3.25.64.45,1,.7a4.94,4.94,0,0,1,.85.86A7.15,7.15,0,0,1,54.17,78.88Z"/><path class="cls-4" d="M26.13,82.8a5.32,5.32,0,0,1,5.25-5.36h.08a2.46,2.46,0,0,0-.47,2.2,3.14,3.14,0,0,0-2.71,3.15l.35,64.57H26.49Z"/><rect class="cls-27" x="26.49" y="147.36" width="2.14" height="3.24" transform="translate(-0.82 0.15) rotate(-0.31)"/><path class="cls-27" d="M31.46,77.44l14-.07a3.48,3.48,0,0,0-.79,2.16l-13.32.08a2.69,2.69,0,0,0-.4,0A2.46,2.46,0,0,1,31.46,77.44Z"/><path class="cls-4" d="M48.85,82.67a3.15,3.15,0,0,0-3.15-3.14h-1a3.48,3.48,0,0,1,.79-2.16h.19A5.31,5.31,0,0,1,51,82.66l.35,64.57-2.14,0Z"/><rect class="cls-27" x="49.22" y="147.24" width="2.14" height="3.24" transform="translate(-0.81 0.28) rotate(-0.31)"/><path class="cls-4" d="M27.88,89.45l36.51-.2a1.08,1.08,0,0,0,1.07-1.08h0a1.08,1.08,0,0,0-1.08-1.06l-36.52.2a1.06,1.06,0,0,0-1.06,1.08h0A1.06,1.06,0,0,0,27.88,89.45Z"/><path class="cls-4" d="M27.71,135l37.35-.21a.66.66,0,0,0,.65-.66h0a.66.66,0,0,0-.66-.65l-37.35.21a.66.66,0,0,0-.65.66h0A.66.66,0,0,0,27.71,135Z"/><path class="cls-17" d="M43.78,80.25a1.34,1.34,0,0,1-.76.62A3.72,3.72,0,0,1,42,81h-.14l-.35,0c-.41,0-.81,0-1.21,0L40,81,39.53,81l-.41-.06h0l-.35-.07a1.88,1.88,0,0,1-1.31-.8,2.21,2.21,0,0,1-.06-1.35c.24-1.4.13-3.06,1.14-4.2a1.69,1.69,0,0,1,2.77-.18c.85.82,2.78,1.63,2.67,3l-.62.08a2.85,2.85,0,0,0-.86.5,1,1,0,0,0-.07,1.46c.31.27.72.08,1.13.12a.28.28,0,0,1,.13,0C43.82,79.64,43.85,80.11,43.78,80.25Z"/><path class="cls-25" d="M41.88,81l-.35,0L41.48,81a1.33,1.33,0,0,1-.28-.43,1,1,0,0,1-.06-.5,3.78,3.78,0,0,0,.54.75Z"/><path class="cls-25" d="M40.32,81.06,40,81a1.61,1.61,0,0,1-.21-.86A5.51,5.51,0,0,0,40.32,81.06Z"/><path class="cls-25" d="M39.11,80.93l-.35-.07a1.33,1.33,0,0,1-.18-.7C38.75,80.44,38.93,80.69,39.11,80.93Z"/><path class="cls-21" d="M41.38,74.24a13.08,13.08,0,0,0-3.5,1.65l-.62.44A46.06,46.06,0,0,1,27.65,69a25.67,25.67,0,0,1-6.06-10.77,70.58,70.58,0,0,1-2.14-11.93,33.41,33.41,0,0,1-.34-4.78,7.63,7.63,0,0,1,2-5.46c1.37-1.31,4.13-1.92,5.9-.63s2.18,3.88,2.54,5.66c.11.53.21,1.06.31,1.59A90.55,90.55,0,0,1,31.36,57a5.35,5.35,0,0,0,.2,1.64,6.18,6.18,0,0,0,1.08,1.7A97.26,97.26,0,0,1,41.38,74.24Z"/><path class="cls-18" d="M37.88,75.89l-.62.44A46.06,46.06,0,0,1,27.65,69a25.67,25.67,0,0,1-6.06-10.77,70.58,70.58,0,0,1-2.14-11.93,33.41,33.41,0,0,1-.34-4.78,7.63,7.63,0,0,1,2-5.46c1.37-1.31,4.13-1.92,5.9-.63s2.18,3.88,2.54,5.66c.11.53.21,1.06.31,1.59a3.83,3.83,0,0,1-.4-.24c-1.35-.93-2.34-2.38-4.2-2.05a3.68,3.68,0,0,0-2.58,2.22,9,9,0,0,0-.61,3.48A34.47,34.47,0,0,0,24.2,58.86a4.81,4.81,0,0,0,.92,1.71,1.88,1.88,0,0,0,1.75.65c-.67,1.56.14,3.34,1.05,4.78A31.77,31.77,0,0,0,37.88,75.89Z"/><path class="cls-19" d="M25.86,62.34a7.44,7.44,0,0,1,3.72-3c-.67.46-1.32.92-1.94,1.42S26.44,61.77,25.86,62.34Z"/><path class="cls-19" d="M28,36a7.42,7.42,0,0,1,1.08,2,14.66,14.66,0,0,1,.62,2.15c.31,1.46.55,2.93.79,4.4s.42,2.94.58,4.42c.08.74.15,1.49.21,2.23s.12,1.48.16,2.22c-.19-1.47-.38-2.95-.58-4.42s-.4-2.94-.64-4.41-.46-2.94-.72-4.4A15.73,15.73,0,0,0,28.94,38,8.3,8.3,0,0,0,28,36Z"/><path class="cls-19" d="M29.87,42.69a72.13,72.13,0,0,1,1.37,8.53c.16,1.43.26,2.87.33,4.31,0,.72,0,1.46.08,2.15a3.12,3.12,0,0,0,.22,1,4.24,4.24,0,0,0,.5.87c.42.56.89,1.14,1.31,1.72s.85,1.16,1.26,1.76c.81,1.19,1.6,2.4,2.33,3.64,1.49,2.47,2.84,5,4.11,7.6-1.45-2.48-2.92-5-4.46-7.38a83.35,83.35,0,0,0-5-7,4.82,4.82,0,0,1-.57-1,3.81,3.81,0,0,1-.24-1.13c-.05-.75,0-1.44-.07-2.17,0-1.43-.13-2.86-.23-4.29Q30.5,47,29.87,42.69Z"/></g></g></g></svg>