<?xml version="1.0" encoding="UTF-8"?>
<svg xmlns="http://www.w3.org/2000/svg" viewBox="0 0 275.8 236.48"><defs><style>.cls-1,.cls-36{fill:#d0d884;}.cls-1{opacity:0.29;}.cls-2{fill:#b9babc;}.cls-3{fill:#c4c5c6;}.cls-4{fill:#ffcaab;}.cls-5{fill:#504e71;}.cls-6{fill:#3b3a54;}.cls-7{fill:#414141;}.cls-8{fill:#555658;}.cls-9{fill:#696a6c;}.cls-10{fill:#00b5b6;}.cls-11{fill:#9dd5d6;}.cls-12{fill:#ffb68c;}.cls-13{fill:#cd7a13;}.cls-14{fill:#75c7c8;}.cls-15{fill:#eda073;}.cls-16{fill:#e46048;}.cls-17{fill:#ff7f68;}.cls-18{fill:#923b2b;}.cls-19{fill:#402924;}.cls-20{fill:#fbad2e;}.cls-21{fill:#fdc370;}.cls-22{fill:#5fc1c2;}.cls-23{fill:#a45942;}.cls-24{fill:#a4569f;}.cls-25{fill:#8c2a8c;}.cls-26{fill:#ad69a9;}.cls-27{fill:#cd876a;}.cls-28{fill:#e8e5ff;}.cls-29{fill:#fff;}.cls-30{fill:#c9c5e9;}.cls-31{fill:#a098c9;}.cls-32{fill:#b7c545;}.cls-33{fill:#afbf33;}.cls-34{fill:#dee4ac;}.cls-35{fill:#64213b;}.cls-37{fill:#bc1f40;}.cls-38{fill:#a76445;}.cls-39{fill:#b97457;}.cls-40{fill:#484759;}.cls-41{fill:#605f77;}.cls-42{fill:#6f615f;}.cls-43{fill:#301d1a;}.cls-44{fill:#c51d8b;}.cls-45{fill:#cd4d9b;}</style></defs><g id="Layer_2" data-name="Layer 2"><g id="Layer_1-2" data-name="Layer 1"><path class="cls-1" d="M133.7,232c67.49,19.53,138.82-29,142.08-66.53.25-13.24-3.29-31.3-8.78-41.51-36.5-53.4,19.09-53.9-11.1-96.63-60-77.76-235.07,32.2-239.47,60.92C-8.78,136.4,70,214.42,133.7,232Z"/><rect class="cls-2" x="105.37" y="27.03" width="42.56" height="40.55"/><rect class="cls-3" x="112.16" y="33.49" width="28.98" height="27.61"/><rect class="cls-2" x="76.65" y="47.3" width="21.28" height="20.27"/><rect class="cls-3" x="80.04" y="50.53" width="14.49" height="13.8"/><rect class="cls-2" x="154.91" y="46.36" width="21.28" height="20.27"/><rect class="cls-3" x="158.31" y="49.59" width="14.49" height="13.8"/><g id="_3" data-name="3"><polygon class="cls-4" points="172.27 209.53 172.27 213.52 177.64 213.79 178.53 209.53 172.27 209.53"/><path class="cls-5" d="M180.34,218.09h-19.5s.38-3.34,7.19-4.28c.76-.11,2.45-.48,2.51-1.47a1.59,1.59,0,0,0-.15-.74.46.46,0,0,1,0-.39.4.4,0,0,1,.22-.18,2.16,2.16,0,0,1,.4-.12c.46-.1.65.11.86.43.11.17.23.37.39.58a3.4,3.4,0,0,0,2.23,1.13,5.42,5.42,0,0,0,3.73-1C179.15,211.33,180.34,218.09,180.34,218.09Z"/><path class="cls-6" d="M173.41,215.31a17.58,17.58,0,0,0-2.94,2.78h-9.63s.38-3.34,7.19-4.28c.76-.11,2.45-.48,2.51-1.47a1.59,1.59,0,0,0-.15-.74.46.46,0,0,1,0-.39.4.4,0,0,1,.22-.18,2.16,2.16,0,0,1,.4-.12,16.83,16.83,0,0,1,1.08,4A1.44,1.44,0,0,1,173.41,215.31Z"/><path class="cls-4" d="M207.7,209.52c-.09.64,0,4.81,0,4.81l-4,.17-1.76-4.42Z"/><path class="cls-5" d="M209.67,217.71h-13s-.81-2.88,5.15-4.92c-.1-1,.13-1.57.56-1.77.63-.3,1.67.25,2.58,1.49a3.49,3.49,0,0,0,2,.57,1.22,1.22,0,0,0,1-.71,4,4,0,0,0,.33-1.27c.05.09.1.18.14.27Z"/><path class="cls-6" d="M204.65,214.05a1.67,1.67,0,0,0-1.34.94,5.15,5.15,0,0,0-.47,1.64,8.12,8.12,0,0,1-.27,1.08h-5.91s-.81-2.88,5.15-4.92c-.1-1,.13-1.57.56-1.77a6.52,6.52,0,0,1,.46,1.52,1,1,0,0,0,.17.48,1.2,1.2,0,0,0,.63.27A1.87,1.87,0,0,1,204.65,214.05Z"/><path class="cls-7" d="M186.66,168.76c.25,10.57-4.48,26.18-7.71,41.32h-7.24s2.47-45.9,3.34-47.82,7.16-32.63,7.16-32.63l8.4-2.89,2.37,32.4-6.32,9.46Z"/><path class="cls-8" d="M185.82,168.58a8.91,8.91,0,0,1-2.3-.37,9.23,9.23,0,0,1-2.15-.9c.76.18,1.49.4,2.23.61S185.08,168.33,185.82,168.58Z"/><path class="cls-8" d="M179,210.08h-2.27a213.59,213.59,0,0,1,4.21-30.21,28,28,0,0,1,2.07-6.68c.5-1,2.08-3.69,3.7-4.43C186.91,179.33,182.18,194.94,179,210.08Z"/><path class="cls-9" d="M186.66,168.76a50.87,50.87,0,0,1-.56,10.53c-.5,3.49-1.2,6.94-2,10.37-.4,1.72-.8,3.43-1.22,5.13s-.84,3.41-1.29,5.11q-1.31,5.1-2.68,10.18c.55-3.47,1.26-6.91,2-10.34.36-1.72.77-3.43,1.14-5.14l1.17-5.13c.39-1.71.76-3.42,1.13-5.14s.7-3.43,1-5.15A75.8,75.8,0,0,0,186.66,168.76Z"/><path class="cls-8" d="M210.36,145.15c-2.17,10.81-5.75,23.15-5.75,23.15s2.17,10.88,3.06,17.33,1,24.45,1,24.45l-5.06.4-1.57.13-.59,0s-8.59-38.78-8.59-42.27a26.22,26.22,0,0,0-1.08-6.45,39.76,39.76,0,0,1-.72-4.82c-.46-3.77-1-7.53-1.27-11.32a65.65,65.65,0,0,1-.06-10.77,40.11,40.11,0,0,1,.77-5.24c.06-.28.15-3,.16-3l13.62-4.69,2-.68h0C210.14,126.28,212.52,134.35,210.36,145.15Z"/><path class="cls-9" d="M206.24,121.36a21,21,0,0,1,3.13,5.23,25.53,25.53,0,0,1,1.69,5.88,34,34,0,0,1,.38,6.13l0,.77,0,.76c-.05.51-.06,1-.13,1.53l-.18,1.53-.25,1.51c-.36,2-.79,4-1.23,6s-.9,4-1.4,5.94c-1,4-2,7.89-3.15,11.8v-.21c.68,3.44,1.33,6.89,1.91,10.35.3,1.73.58,3.47.84,5.2s.44,3.51.54,5.26c.21,3.51.3,7,.34,10.53s0,7,0,10.52c-.11-3.5-.21-7-.36-10.51s-.29-7-.58-10.49c0-.44-.08-.87-.12-1.3s-.09-.87-.15-1.3c-.1-.86-.25-1.73-.38-2.59-.28-1.73-.58-3.45-.89-5.18-.63-3.44-1.28-6.89-2-10.32l0-.1,0-.11c1.1-3.9,2.17-7.82,3.16-11.76s1.95-7.88,2.75-11.85l.28-1.49.21-1.49c.09-.5.11-1,.16-1.51l.07-.75,0-.75a33,33,0,0,0-.25-6,26.47,26.47,0,0,0-1.46-5.86A22.52,22.52,0,0,0,206.24,121.36Z"/><path class="cls-7" d="M201.63,165.46a17.7,17.7,0,0,1-.53,2.4,16.49,16.49,0,0,1-.81,2.33,17.84,17.84,0,0,1,.53-2.41A15.94,15.94,0,0,1,201.63,165.46Z"/><path class="cls-8" d="M196.72,141c-1.67,9.28-.86,18.82.17,28.19.79,7.33,1.72,14.64,2.64,21.95L202,210.61l-.59,0s-8.59-38.78-8.59-42.27a26.22,26.22,0,0,0-1.08-6.45,39.76,39.76,0,0,1-.72-4.82c-.46-3.77-1-7.53-1.27-11.32a65.65,65.65,0,0,1-.06-10.77,40.11,40.11,0,0,1,.77-5.24c.06-.28.15-3,.16-3l13.62-4.69,2-.68.27.34a22,22,0,0,1-3.71,7.58,54.28,54.28,0,0,0-3.75,4.83A19.91,19.91,0,0,0,196.72,141Z"/><path class="cls-7" d="M202.78,128.43a25.07,25.07,0,0,0,.34,3,19.55,19.55,0,0,0,.75,2.92,20.4,20.4,0,0,0,1.16,2.78,25.83,25.83,0,0,0,1.56,2.62,11,11,0,0,1-2-2.39,13.36,13.36,0,0,1-2-5.87A11.41,11.41,0,0,1,202.78,128.43Z"/><path class="cls-10" d="M168.29,99.5c-.1,1.76,0,3.68-.65,5.32-1.58,3.91-5.67,8.39-10,9.16a15.52,15.52,0,0,1-3.34.1c-3.76-.15-8.71-.18-12.35-1.13a5,5,0,0,1-2.17-1,2.23,2.23,0,0,1-.63-1.08,1.55,1.55,0,0,1,.12-1.1,2.85,2.85,0,0,1,2.26-1.11l6-.9c2.42-.36,6-1.24,8.38-.81,1.2-2.36,2.05-4.86,3.08-7.28s2.3-4.81,3.42-7.22c.72-1.55,1.31-3.08,2.72-4.14A1.21,1.21,0,0,1,166,88a.65.65,0,0,1,.2,0c.87.31,1.36,1.91,1.61,2.64a13.85,13.85,0,0,1,.65,3.38A39.68,39.68,0,0,1,168.29,99.5Z"/><path class="cls-10" d="M166.16,88a37.71,37.71,0,0,0-3.7,5.25,45.89,45.89,0,0,0-4.81,16.13l-.79-.87c0,.4,0,.79,0,1.19a105.31,105.31,0,0,0-17.65,1.12,1.55,1.55,0,0,1,.12-1.1,2.85,2.85,0,0,1,2.26-1.11l6-.9c2.42-.36,6-1.24,8.38-.81,1.2-2.36,2.05-4.86,3.08-7.28s2.3-4.81,3.42-7.22c.72-1.55,1.31-3.08,2.72-4.14A1.21,1.21,0,0,1,166,88,.65.65,0,0,1,166.16,88Z"/><path class="cls-11" d="M157.05,107.56a6,6,0,0,1,.64,1.32,6,6,0,0,1,.36,1.42,6.42,6.42,0,0,1-.64-1.32A6.16,6.16,0,0,1,157.05,107.56Z"/><path class="cls-11" d="M156.28,108.7a2.92,2.92,0,0,1,.55.83,3.07,3.07,0,0,1,.28,1,2.75,2.75,0,0,1-.55-.82A3.05,3.05,0,0,1,156.28,108.7Z"/><path class="cls-12" d="M136.12,113.9a2.49,2.49,0,0,1,1.64-1,4.65,4.65,0,0,0,2.71-1,1.61,1.61,0,0,0,.37-1.33,2.18,2.18,0,0,0-.31-.93c-.44-.68-1.3-.66-2-.73-.91-.09-1.83-.14-2.74-.15a3,3,0,0,0-.74.06,2.56,2.56,0,0,0-.63.29,25.58,25.58,0,0,0-2,1.6,1.05,1.05,0,0,0-.32.31,7.21,7.21,0,0,0-.45,1.2c-.18.56-.34,1.12-.51,1.68a12.21,12.21,0,0,0-.53,1.77c1.29,1,1.85-1.47,2.32-2.23a1.93,1.93,0,0,1,.3-.39,1.78,1.78,0,0,1,.38-.28l2.28-1.42c-.25.88-1.09,1.66-.84,2.53a.57.57,0,0,0,.32.41C135.62,114.43,135.91,114.14,136.12,113.9Z"/><path class="cls-13" d="M139.89,109.22a.92.92,0,0,1,.73.43,1.77,1.77,0,0,1,.27.83,2.26,2.26,0,0,1-.1.86,1.31,1.31,0,0,1-.48.71,1.76,1.76,0,0,0,.31-.75,3.05,3.05,0,0,0,0-.8,2,2,0,0,0-.2-.76A1,1,0,0,0,139.89,109.22Z"/><path class="cls-14" d="M194.36,131.84h-.08a30.36,30.36,0,0,1-12.73-1.15s-15.33-23.16-17.06-27.45-2.47-10.71-1-13.12a21.25,21.25,0,0,1,2-2.57c2-2.32,4.64-4.83,4.64-4.83s8.47-3.52,15.41,3.17,20.8,31.71,21.46,34.78S200.74,130.81,194.36,131.84Z"/><path class="cls-11" d="M170.19,82.73a14,14,0,0,1,3.49-.93,15.74,15.74,0,0,1,3.63-.11,14,14,0,0,1,6.82,2.52,17.2,17.2,0,0,1,2.74,2.44c.83.89,1.6,1.83,2.34,2.78,1.49,1.9,2.86,3.89,4.2,5.89q4,6,7.44,12.36,1.76,3.15,3.37,6.38c.53,1.08,1.05,2.16,1.55,3.26.24.54.49,1.09.72,1.65a12.7,12.7,0,0,1,.57,1.71,11.34,11.34,0,0,0-.7-1.65c-.26-.54-.53-1.08-.81-1.61-.56-1.06-1.13-2.11-1.72-3.16q-1.76-3.14-3.59-6.23c-1.22-2.06-2.44-4.13-3.71-6.16s-2.54-4.06-3.87-6.05-2.68-4-4.12-5.87c-.72-1-1.46-1.89-2.25-2.77a17.66,17.66,0,0,0-2.57-2.4,13.92,13.92,0,0,0-6.46-2.65A16,16,0,0,0,170.19,82.73Z"/><path class="cls-10" d="M194.36,131.84h-.08a30.36,30.36,0,0,1-12.73-1.15s-15.33-23.16-17.06-27.45-2.47-10.71-1-13.12a21.25,21.25,0,0,1,2-2.57c.1,1.63-.89,3.86-.9,5.29a33.2,33.2,0,0,0,1.17,7.86,9.56,9.56,0,0,0,1.06,3,3.49,3.49,0,0,0,2.49,1.74,4.72,4.72,0,0,0,3-1.07,24.11,24.11,0,0,0,10.26-16.85c2.45,8.69-1.67,18.3,1.11,26.9a2.14,2.14,0,0,0,.8-1,31.73,31.73,0,0,0,1.57,9.9c4.44,13.56-9.24-7,3.28,6A8,8,0,0,0,194.36,131.84Z"/><path class="cls-11" d="M183.43,117.84a27.34,27.34,0,0,1,.6-3.25,32.12,32.12,0,0,1,.93-3.18,31.26,31.26,0,0,1,1.24-3.07c.23-.5.47-1,.73-1.48s.52-1,.81-1.44l-.34.75-.34.75c-.23.5-.44,1-.65,1.52-.42,1-.81,2-1.17,3.07s-.68,2.08-1,3.13S183.68,116.76,183.43,117.84Z"/><path class="cls-11" d="M183.87,129.65a10.48,10.48,0,0,0,2,.29c.67,0,1.34.06,2,.05a26.91,26.91,0,0,0,4-.33,9.85,9.85,0,0,0,1.93-.53,14.22,14.22,0,0,0,1.82-.84A20.28,20.28,0,0,0,199,126a15,15,0,0,1-3.19,2.52,14.29,14.29,0,0,1-1.85.89,8.08,8.08,0,0,1-2,.54,22.21,22.21,0,0,1-4.07.26A14.41,14.41,0,0,1,183.87,129.65Z"/><path class="cls-11" d="M164.93,89.67c.43,1.31.89,2.61,1.37,3.9s1,2.55,1.58,3.8l-.25,0c.23-1.18.46-2.37.72-3.55l.79-3.53c.26-1.18.56-2.35.85-3.52s.6-2.34.93-3.5l-1.53,7.08-.75,3.53-.75,3.54-.09.42-.16-.39c-.56-1.26-1.06-2.55-1.51-3.85S165.28,91,164.93,89.67Z"/><path class="cls-4" d="M170.19,82.73c-1,1.39-2.83,12.13-2.83,12.13l-1.8-6-.36-.59L163,84.54,165.16,78l.07-.21C166.24,79.52,169.45,82.83,170.19,82.73Z"/><path class="cls-15" d="M165.26,88l-.06.19L163,84.54,165.16,78a15.5,15.5,0,0,1,.66,2.91A16.21,16.21,0,0,1,165.26,88Z"/><path class="cls-16" d="M147.39,76.66A3,3,0,0,0,149.75,78a4.82,4.82,0,0,1-.81-2.13,5.34,5.34,0,0,0-.22-1.44,1.81,1.81,0,0,0-1-1c-.78-.31-1.93.14-1.92,1.09A2.77,2.77,0,0,0,147.39,76.66Z"/><path class="cls-4" d="M165.54,78.43a18.19,18.19,0,0,1-1.76,6.75,5.71,5.71,0,0,1-1.56,2.08,2.33,2.33,0,0,1-1.14.48,4.06,4.06,0,0,1-2-.4,38.48,38.48,0,0,1-4.76-2.28,6.16,6.16,0,0,1-3-3c-.42-.92-1.06-2.2-1.57-3.07-.35-.61-.89-1.09-1.26-1.68a7.8,7.8,0,0,1-.88-2.55,3.21,3.21,0,0,1,.32-2.08A6.39,6.39,0,0,1,149,71.09a9.59,9.59,0,0,1,3.33-2.29,11.08,11.08,0,0,1,5.43-1,7.7,7.7,0,0,1,4.95,2.3,8.85,8.85,0,0,1,1.51,2.34A12.06,12.06,0,0,1,165.54,78.43Z"/><path class="cls-12" d="M162.22,87.26a2.33,2.33,0,0,1-1.14.48,4.06,4.06,0,0,1-2-.4,38.48,38.48,0,0,1-4.76-2.28,6.16,6.16,0,0,1-3-3c-.42-.92-1.06-2.2-1.57-3.07-.35-.61-.89-1.09-1.26-1.68a7.8,7.8,0,0,1-.88-2.55,3.21,3.21,0,0,1,.32-2.08l.08-.06a2.81,2.81,0,0,1,2-.83c1.13.15,2.44,1.33,2,2.5s-2.07,2.54-1.21,3.93a9.31,9.31,0,0,0,.73.82,5.92,5.92,0,0,1,.84,1.88,8.48,8.48,0,0,0,2.92,3.71,18.25,18.25,0,0,0,4.2,2.25A4.41,4.41,0,0,0,162.22,87.26Z"/><path class="cls-16" d="M145.74,76.07c1,.07,2.2-.52,2.24-1.53a4.25,4.25,0,0,0,6.3-3,3.23,3.23,0,0,0,3.79-1.91,1.41,1.41,0,0,0,.94,1.41,4.23,4.23,0,0,0,1.81.17c-.1.68.66,1.12,1.17,1.58a2.93,2.93,0,0,1,.94,2.1,2.8,2.8,0,0,0,.77-.19.86.86,0,0,1,1.16-.71,1.43,1.43,0,0,1,.81,1.28,10.16,10.16,0,0,0,.73-2.41,2.37,2.37,0,0,0-.33-2,8,8,0,0,0,.39-3.17,2.76,2.76,0,0,0-1.89-2.37c.45-.66,0-1.64-.51-2.13a4.18,4.18,0,0,0-.91-.72c-.11-.06-1.11-.33-1.11-.33a3.18,3.18,0,0,0-1.76-1.92,3.13,3.13,0,0,0-2.61.1,4.64,4.64,0,0,0-2.41-1.27,2.43,2.43,0,0,0-2.41,1,3.76,3.76,0,0,0-3.58-.64,3.8,3.8,0,0,0-2.4,2.74,3.46,3.46,0,0,0-3,1.69,4.33,4.33,0,0,0-.34,3.52,2,2,0,0,0-1.3,1.25,3.9,3.9,0,0,0-.13,1.86c.09.68.42,1.49,1.1,1.55A2.88,2.88,0,0,0,145.74,76.07Z"/><path class="cls-17" d="M161.05,63.16a1,1,0,0,1,.63.21,1.31,1.31,0,0,1,.43.53,1.55,1.55,0,0,1,0,1.3,4,4,0,0,0-.27-1.18,2.46,2.46,0,0,0-.31-.48A2.3,2.3,0,0,0,161.05,63.16Z"/><path class="cls-17" d="M162.57,66.6a1,1,0,0,1,.41.62,1.51,1.51,0,0,1,0,.76,2,2,0,0,1-1,1.09l0,0h.12l-.11,0-.09,0,.07-.09a4.58,4.58,0,0,0,.72-1.15A1.52,1.52,0,0,0,162.57,66.6Z"/><path class="cls-17" d="M159.2,64.77a1.47,1.47,0,0,1,.78,1.12,1.7,1.7,0,0,1-.06.71,1.91,1.91,0,0,1-.16.32.43.43,0,0,1-.28.21.49.49,0,0,0,.15-.27c0-.11.05-.21.06-.31a2.56,2.56,0,0,0,0-.62,3,3,0,0,0-.16-.59A3.59,3.59,0,0,0,159.2,64.77Z"/><path class="cls-17" d="M156.49,61.06a1,1,0,0,1,.6.21,1.45,1.45,0,0,1,.44.48,1.51,1.51,0,0,1,.2.62,1.13,1.13,0,0,1-.11.63,2.59,2.59,0,0,0-.35-1.1A2.49,2.49,0,0,0,156.49,61.06Z"/><path class="cls-17" d="M152.48,61.29a1.27,1.27,0,0,1,.86,0,1.55,1.55,0,0,1,.73.5,1.85,1.85,0,0,1,.36,1.65,3,3,0,0,0-.59-1.46,2,2,0,0,0-.59-.48A1.92,1.92,0,0,0,152.48,61.29Z"/><path class="cls-17" d="M155.63,65.47a1.74,1.74,0,0,1,.26,2.77,2.92,2.92,0,0,0,.27-1.43A2.8,2.8,0,0,0,155.63,65.47Z"/><path class="cls-17" d="M151,64.07a3.31,3.31,0,0,1,1.52,1.07,2.49,2.49,0,0,1,.55,1.77,4.35,4.35,0,0,0-.79-1.58A8.49,8.49,0,0,0,151,64.07Z"/><path class="cls-17" d="M146.15,65.14a3.32,3.32,0,0,1,.94-.23,2.52,2.52,0,0,1,1,.09,2.05,2.05,0,0,1,.84.55,1.29,1.29,0,0,1,.34.91,1.64,1.64,0,0,0-.51-.74,2.22,2.22,0,0,0-.76-.43A5.52,5.52,0,0,0,146.15,65.14Z"/><path class="cls-17" d="M151.09,69.11a2.56,2.56,0,0,1-.53,3.11,5.32,5.32,0,0,0,.53-3.11Z"/><path class="cls-17" d="M145.38,70.28a2.67,2.67,0,0,0,.8.92,2.83,2.83,0,0,0,1.14.46,1.17,1.17,0,0,1-.67,0,1.59,1.59,0,0,1-1.1-.78A1.1,1.1,0,0,1,145.38,70.28Z"/><path class="cls-4" d="M163.63,72a1.69,1.69,0,0,1,2.25.34,4.33,4.33,0,0,1,.84,2.33,6.6,6.6,0,0,1,0,1.83,2.71,2.71,0,0,1-.81,1.6.8.8,0,0,1-.37.21c-.43.08-.74-.39-.92-.79-.5-1.07-1-2.12-1.49-3.21A2,2,0,0,1,163.63,72Z"/><path class="cls-15" d="M164,72.8a.88.88,0,0,1,.69-.5.91.91,0,0,1,.69.26,2.06,2.06,0,0,1,.42.62,4.33,4.33,0,0,1,.36,2.27,1.43,1.43,0,0,1-.1.42,3.26,3.26,0,0,1-.44.61.84.84,0,0,0-.22.7,1.43,1.43,0,0,1-.1-.79,1.09,1.09,0,0,0,0-.69.89.89,0,0,0-.4-.31A2.23,2.23,0,0,1,164,72.8Z"/><path class="cls-18" d="M151.15,77.25a1,1,0,0,1,.41-.24.34.34,0,0,1,.39.19.36.36,0,0,1-.14.38,2.16,2.16,0,0,1-.36.22,2.92,2.92,0,0,0-.77.68c-.34.38-1.05,1.14-1.05,1.14A4.59,4.59,0,0,1,151.15,77.25Z"/><path class="cls-18" d="M155.18,75.63a15.21,15.21,0,0,1,3.45-1.19,19.74,19.74,0,0,0-2,.11c-.67.09-2.15.31-2.53,1-.16.28.06.45.33.45A1.55,1.55,0,0,0,155.18,75.63Z"/><path class="cls-19" d="M156.94,76.85a.42.42,0,1,1-.72.4.48.48,0,0,1,.12-.65A.46.46,0,0,1,156.94,76.85Z"/><path class="cls-19" d="M152.43,79.56a.48.48,0,0,1-.12.65.52.52,0,1,1,.12-.65Z"/><path class="cls-15" d="M156.62,84.62a6,6,0,0,0,1.28-.18,3.54,3.54,0,0,0,1.14-.5,3.05,3.05,0,0,0,.83-.92,11.53,11.53,0,0,0,.56-1.17,4.15,4.15,0,0,1-.36,1.28,2.51,2.51,0,0,1-.86,1.05A3.26,3.26,0,0,1,156.62,84.62Z"/><path class="cls-15" d="M154.5,82.36a2.25,2.25,0,0,0,.81.23,2.19,2.19,0,0,0,.81-.08,2.29,2.29,0,0,0,.69-.42,6.24,6.24,0,0,1,.71-.53,6,6,0,0,1-.55.7,1.9,1.9,0,0,1-.76.53A1.62,1.62,0,0,1,154.5,82.36Z"/><path class="cls-15" d="M158.9,85.31a3.64,3.64,0,0,0,.77-.29,3.68,3.68,0,0,0,.68-.48,1,1,0,0,1-1.45.77Z"/><path class="cls-20" d="M133.28,126.54s-.52,1-4-.34-4.05-.12-4.05-.12l-.5-.67a3.3,3.3,0,0,1,2.9-1.39c1.82.22,3.23-.42,3.44-1Z"/><path class="cls-20" d="M142.44,124l-.51-.74,2-1.36a2.34,2.34,0,0,0,.76-2.95c-1.55-3.11-2.08-3.51-2.18-3.56-.37-.21-2.12.71-3.66,1.92l-.56-.71c1-.8,3.54-2.6,4.65-2,.22.12.8.44,2.56,4a3.25,3.25,0,0,1-1.06,4.09Z"/><path class="cls-20" d="M142.2,126.69,138,129.43a2.74,2.74,0,0,1-3.81-.8l-4.45-6.81a1.18,1.18,0,0,1,.22-1.65l7-4.58a1.19,1.19,0,0,1,1.6.48l4.45,6.8A2.77,2.77,0,0,1,142.2,126.69Z"/><path class="cls-21" d="M142.9,126.23l-2.91,1.9c-.89.58-2.28,0-3.11-1.26l-4.45-6.81c-.38-.58-.41-1.25-.06-1.47l4.86-3.18c.35-.22.94.07,1.32.66l4.45,6.8C143.83,124.15,143.79,125.65,142.9,126.23Z"/><path class="cls-20" d="M134.6,116.57a1.81,1.81,0,1,1-3.6-.31,1.81,1.81,0,0,1,3.6.31Z"/><path class="cls-20" d="M134.76,116.46a1.22,1.22,0,0,1-1.48,1.2,1.74,1.74,0,0,1-1.45-1.66,1.21,1.21,0,0,1,1.48-1.19A1.73,1.73,0,0,1,134.76,116.46Z"/><path class="cls-20" d="M134.93,115.39l-4.69,3c-1.42.91-2,2.07-1.83,2.27l.69,1.08c.06.1.56-.12,1.12-.47l7.81-5c.56-.36,1-.72.9-.82l-.69-1.08C138.11,114.17,136.35,114.48,134.93,115.39Z"/><path class="cls-20" d="M135.53,115l-3.68,2.35c-1.11.71-1.46,1.75-1.33,2l.69,1.08c.06.1.47-.06.9-.34l6.14-3.91c.44-.28.74-.58.68-.68l-.69-1.08A3.66,3.66,0,0,0,135.53,115Z"/><path class="cls-12" d="M145.49,114.23a2.65,2.65,0,0,0-.94-.3,3.72,3.72,0,0,0-2,.51.77.77,0,0,1,.54.27c.15.16.34.41.27.65s-.35.44-.53.35c0,0,0,0-.07-.06l-.22-.23s0,0,0,0,0,0-.05,0a2.39,2.39,0,0,0-1.26.6,2.51,2.51,0,0,0-.65,1.26,2.27,2.27,0,0,0-.05.82,3.59,3.59,0,0,0,.43,1.17,8.56,8.56,0,0,0,1,1.72,2.94,2.94,0,0,0,1.66,1.08,4.57,4.57,0,0,0,1.38,0,3,3,0,0,0,1.15-.2l4.21-2.43a.3.3,0,0,0,.15-.12.43.43,0,0,0,0-.25c-.2-1.11-.39-2.21-.59-3.32a.15.15,0,0,0-.05-.12.18.18,0,0,0-.16,0,4.61,4.61,0,0,1-1.85.1c-.25,0-.75-.6-1-.76C146.45,114.67,146,114.45,145.49,114.23Z"/><path class="cls-22" d="M183.72,91.89c-.47,5.14-2.45,10-4.41,14.77-1.35,3.3-2.83,6.76-5.7,8.86a15.54,15.54,0,0,1-6,2.41c-2.14.45-4.3.72-6.47,1-.93.12-1.86.21-2.8.3-3,.27-6.05.43-9,.8a6.87,6.87,0,0,0-1.15-4.31c6.11-2.66,12.34-5.18,18.68-7.24a.9.9,0,0,0,.36-.19.87.87,0,0,0,.18-.36c.55-1.72,1.1-3.43,1.64-5.15s1.19-3.72,1.6-5.62c.88-4.18.37-14.19,5.93-15.07a6.33,6.33,0,0,1,2.34.11,6.24,6.24,0,0,1,4.19,3.86A12.54,12.54,0,0,1,183.72,91.89Z"/><path class="cls-11" d="M178.91,82.19a5.61,5.61,0,0,1,2.93,1.7,7.52,7.52,0,0,1,1.66,3,11.53,11.53,0,0,1,.44,3.41q0,.86-.09,1.71l-.09.86-.12.85a38.82,38.82,0,0,1-1.76,6.61c-.38,1.07-.79,2.14-1.22,3.19s-.89,2.1-1.35,3.14l1.21-3.19c.4-1.07.79-2.14,1.15-3.21a41.86,41.86,0,0,0,1.67-6.59,16,16,0,0,0-.06-6.72,7.27,7.27,0,0,0-1.55-3A5.64,5.64,0,0,0,178.91,82.19Z"/><path class="cls-11" d="M176.57,82.08c-.41.8-1.19,1.66-1.5,2.38a22.52,22.52,0,0,0-1.26,4.17c-1.2,5.57-.87,11.48-3.12,16.81-.64,1.51-1.5,3-1.35,4.68l-8.42,4.24a17.9,17.9,0,0,0-5.78,3.93,17.5,17.5,0,0,0,3.23.93c-3,.27-6.05.43-9,.8a9,9,0,0,0-1.15-4.31c6.11-2.66,12.34-5.18,18.68-7.24a.9.9,0,0,0,.36-.19.87.87,0,0,0,.18-.36c.55-1.72,1.1-3.43,1.64-5.15s1.19-3.72,1.6-5.62C171.52,93,171,83,176.57,82.08Z"/><path class="cls-13" d="M148.23,115.84a4.92,4.92,0,0,1,1,1.82,5.09,5.09,0,0,1,.17,2,13.21,13.21,0,0,0-.39-2A11.16,11.16,0,0,0,148.23,115.84Z"/><path class="cls-11" d="M168.45,109.07a3.4,3.4,0,0,0,2,1.82,1.79,1.79,0,0,1-1.4-.48A1.77,1.77,0,0,1,168.45,109.07Z"/><path class="cls-23" d="M123.71,138c0,2.93.14,5.85.24,8.78,0,.44.1,1,.43,1.09a4,4,0,0,0,.25-1.91c-.18-6.58-.26-13.15.12-19.73-.4,2.38-.69,4.64-.87,7C123.76,134.84,123.71,136.41,123.71,138Z"/><path class="cls-24" d="M91.44,218H67.68a4.45,4.45,0,0,1-4.3-4.58V183.59H95.74v29.86A4.44,4.44,0,0,1,91.44,218Z"/><path class="cls-25" d="M87.56,218H64.34a4.4,4.4,0,0,1-4.26-4.53V183.59H91.82V213.5A4.4,4.4,0,0,1,87.56,218Z"/><path class="cls-25" d="M85.08,216.5H53a4.93,4.93,0,0,1-4.77-5.08V183.59H89.85v27.83A4.93,4.93,0,0,1,85.08,216.5Z"/><path class="cls-24" d="M55.55,118.57c2.84-.91,6.69-.26,6.86,3.14S72.83,165.1,72.83,165.1H92.17c3.69,0,6,2.62,5.43,6.24l-1.8,12.25H64l-11-58.79S51.52,119.85,55.55,118.57Z"/><path class="cls-25" d="M53.38,119c2.85-.9,5-.71,5.13,2.69S68.93,165.1,68.93,165.1H88.27c3.69,0,6,2.62,5.43,6.24l-1.82,12.25H60.14l-11-58.79S49.36,120.31,53.38,119Z"/><rect class="cls-24" x="57.97" y="177.46" width="39.18" height="7.92" rx="2.52"/><rect class="cls-25" x="51.86" y="177.46" width="10.65" height="7.92" rx="2.52"/><path class="cls-24" d="M52.47,218H27.74a4.52,4.52,0,0,1-4.38-4.65V183.59H56.85v29.75A4.52,4.52,0,0,1,52.47,218Z"/><path class="cls-25" d="M48.46,218H24.28A4.47,4.47,0,0,1,20,213.38V183.59H52.79v29.79A4.47,4.47,0,0,1,48.46,218Z"/><polygon class="cls-26" points="7.45 118.21 51.74 118.57 68.32 172.05 25.03 173.06 7.45 118.21"/><polygon class="cls-27" points="81.39 207.29 81.39 212.6 84.16 215.03 86.83 212.79 86.62 207.28 81.39 207.29"/><path class="cls-20" d="M80.17,217.68a23.87,23.87,0,0,1,0-5.07c.09-.61.14-2.26,1.09-1,.3.39.52.82.85,1.19.62.69.57,1.09,1.53,1.24,1.27.19,2-1.46,3-2.2a1.33,1.33,0,0,1,.67-.33c.17,0,.38,0,.48.12,1.84,2.37,6.33,2.7,7.85,4a4.86,4.86,0,0,1,.75,2.11C96.31,218.13,82.2,218.14,80.17,217.68Z"/><polygon class="cls-27" points="70.94 207.86 71.15 212.52 73.71 214.41 76.38 212.52 76.17 207.85 70.94 207.86"/><path class="cls-21" d="M69.78,217.9a29.22,29.22,0,0,1,.14-5.69c.11-.69.22-2.54,1.18-1.14.3.44.51.94.84,1.36.63.8.56,1.25,1.56,1.44,1.32.25,1.2-1.39,2.27-2.19a1.32,1.32,0,0,1,.72-.35c.17,0,.42,0,.5.14,1.45,3.05,3.78,3.53,5.33,5.1a2.26,2.26,0,0,1,.73,1.38C82.13,218.81,71.9,218.48,69.78,217.9Z"/><path class="cls-28" d="M87.3,207.83c-1.28,0-2.55,0-3.83,0-.84,0-1.68,0-2.52-.07-1.41-10.32-7.3-20-7.42-30.38a50.06,50.06,0,0,1-7.43.51,19.45,19.45,0,0,1-3.79-.47c-6.56-1.51-13.07-10.57-14-17.37,3.58-1.93,7.74-2.33,11.95-2.28,2.54,0,5.1.22,7.56.34l.38,0a47.94,47.94,0,0,1,11.43,2.42c2.21.65,4.52,1.37,6.11,3.06,2.25,2.37,2.5,6,2.56,9.31C88.49,184.57,87.89,196.21,87.3,207.83Z"/><path class="cls-29" d="M68.2,158.14A35.2,35.2,0,0,1,76,159.37c1.28.32,2.56.69,3.83,1.06a20.9,20.9,0,0,1,3.76,1.36,8.88,8.88,0,0,1,1.71,1.1,7.58,7.58,0,0,1,1.37,1.51,10.44,10.44,0,0,1,1.47,3.77,25.57,25.57,0,0,1,.4,4c0,1.33.05,2.65.06,4q0,7.94-.37,15.87-.18,4-.42,7.92c-.18,2.64-.34,5.28-.54,7.91L87.8,192c.15-5.28.28-10.57.23-15.85,0-1.32,0-2.64,0-4a22.88,22.88,0,0,0-.36-3.89,9.66,9.66,0,0,0-1.36-3.59A7.14,7.14,0,0,0,85,163.27a8.73,8.73,0,0,0-1.59-1.08,21.78,21.78,0,0,0-3.66-1.4c-1.26-.39-2.53-.78-3.79-1.14A37.37,37.37,0,0,0,68.2,158.14Z"/><path class="cls-30" d="M83.47,207.84c-.84,0-1.68,0-2.52-.07-1.41-10.32-7.3-20-7.42-30.38a50.06,50.06,0,0,1-7.43.51,82,82,0,0,1-8.4-15.63,3.53,3.53,0,0,1-.36-1.45,3.34,3.34,0,0,1,1.87-2.42c1.88-1.17,3.32.34,5.11,1.27,2.09,1.1,4.21,2.16,6.39,3.08,3.43,1.46,7.41,3.32,11.18,2.77A11.71,11.71,0,0,1,79.64,169l1.47.06a6.19,6.19,0,0,0-.82,3C79.29,184,83.9,195.88,83.47,207.84Z"/><path class="cls-31" d="M78,168.48a28.18,28.18,0,0,1,2.34-1.87,14.49,14.49,0,0,1,2.59-1.51c-.81.6-1.61,1.18-2.42,1.76A26.21,26.21,0,0,1,78,168.48Z"/><path class="cls-31" d="M78.94,170.34a18.49,18.49,0,0,1,2.12-1.4,19.85,19.85,0,0,1,2.26-1.13,17.85,17.85,0,0,1-2.11,1.39A19.26,19.26,0,0,1,78.94,170.34Z"/><path class="cls-28" d="M76.88,208.8c-1.47,0-2.93,0-4.4,0l-2-.06c-1.41-10.12-7-21.06-7.15-31.28-3.73.44-8.14.82-11.81,0C45,176,40,171.7,39,165a41.47,41.47,0,0,1,13.59-4.7,27.64,27.64,0,0,1,5.16-.25,48.34,48.34,0,0,1,11.43,2.37c2.21.64,4.52,1.35,6.11,3,2.25,2.33,2.5,5.89,2.55,9.13C78.07,186,77.47,197.4,76.88,208.8Z"/><path class="cls-29" d="M69.21,162.46a24.79,24.79,0,0,1,3,.93A9.74,9.74,0,0,1,75,165a7.44,7.44,0,0,1,1.91,2.6,11.51,11.51,0,0,1,.89,3.09,44.09,44.09,0,0,1,.34,6.38q0,3.18,0,6.36c-.09,4.23-.22,8.47-.45,12.7l-.38,6.35c-.15,2.11-.29,4.22-.47,6.34,0-2.12.12-4.24.18-6.36l.21-6.35.19-6.34q.09-3.18.12-6.35c0-2.12.06-4.23,0-6.35a52.84,52.84,0,0,0-.25-6.31,11.5,11.5,0,0,0-.78-3,7.31,7.31,0,0,0-1.76-2.53,9.19,9.19,0,0,0-2.65-1.66A27.82,27.82,0,0,0,69.21,162.46Z"/><path class="cls-30" d="M72.48,208.8l-2-.06c-1.41-10.12-7-21.06-7.15-31.28-3.73.44-8.14.82-11.81,0C45,176,40,171.7,39,165a41.47,41.47,0,0,1,13.59-4.7c-.62,2.6-1.83,5.64-1.47,7,.75,2.92,4,4.35,6.66,4.79a17.5,17.5,0,0,0,9.87-1.28C66,178.3,68.36,186,70,193.39A117.92,117.92,0,0,1,72.48,208.8Z"/><path class="cls-31" d="M64.82,174.55a16.77,16.77,0,0,1,1.74-2.43A16.26,16.26,0,0,1,68.7,170c-.62.79-1.27,1.53-1.91,2.29S65.51,173.82,64.82,174.55Z"/><path class="cls-32" d="M94.83,139.86c-.06.38-.12.76-.19,1.13s-.13.84-.2,1.25a1.46,1.46,0,0,1-.39.92,1.44,1.44,0,0,1-.79.24,86.21,86.21,0,0,1-13.89.69,28.53,28.53,0,0,1-13.21-3.69,33.77,33.77,0,0,1-6.81-5.76l-.12-.12c-4.15-4.35-7.94-9.16-10.24-14.71-2.61-6.31,2.15-11.55,7.08-8.78,6.85,3.84,12.3,14.18,16.69,20.64A4.92,4.92,0,0,0,73.93,133a5.23,5.23,0,0,0,2.42.65,57.4,57.4,0,0,1,17.83,5,1.24,1.24,0,0,1,.61.46A1.18,1.18,0,0,1,94.83,139.86Z"/><path class="cls-33" d="M94.64,141c-.06.42-.13.84-.2,1.25a1.46,1.46,0,0,1-.39.92,1.44,1.44,0,0,1-.79.24,86.21,86.21,0,0,1-13.89.69,28.53,28.53,0,0,1-13.21-3.69,33.77,33.77,0,0,1-6.81-5.76c-.15-.73-.27-1.47-.36-2.21-.42-3.22-.45-6.64,1-9.54.45-.9,1.31-2.19,2.45-2.26s1,.82,1.14,1.73a47.85,47.85,0,0,0,2.3,8.06,10.22,10.22,0,0,0,2,3.61,4,4,0,0,0,3.71,1.34,2.15,2.15,0,0,0,.27,2.54,5.24,5.24,0,0,0,2.32,1.42C80.63,141.67,87.75,140.53,94.64,141Z"/><path class="cls-34" d="M70.11,136.44a22.61,22.61,0,0,1,3.16-2.71,9.36,9.36,0,0,1-1.45,1.5A10.34,10.34,0,0,1,70.11,136.44Z"/><path class="cls-34" d="M56.07,111c.44.26.9.52,1.34.79l1.26.91,1.19,1L61,114.81a46.82,46.82,0,0,1,4,4.75c2.5,3.32,4.64,6.87,6.91,10.33l.85,1.29a8.8,8.8,0,0,0,.89,1.21,2.49,2.49,0,0,0,1.18.72,8.8,8.8,0,0,0,1.48.26,53,53,0,0,1,6.15,1.06,55.89,55.89,0,0,1,6,1.74,54.59,54.59,0,0,1,5.72,2.44c-1.91-.8-3.84-1.55-5.81-2.16a56.55,56.55,0,0,0-6-1.57c-2-.42-4.06-.75-6.11-1a9.12,9.12,0,0,1-1.58-.26,3.25,3.25,0,0,1-.77-.33,2.9,2.9,0,0,1-.67-.53,10.84,10.84,0,0,1-1-1.28c-.29-.43-.59-.86-.87-1.3L68.11,125q-1.67-2.62-3.45-5.14A48.59,48.59,0,0,0,60.79,115,22.21,22.21,0,0,0,56.07,111Z"/><polygon class="cls-35" points="99.48 218.03 98.64 218.03 98.38 144.83 99.74 144.83 99.48 218.03"/><path class="cls-27" d="M93.55,141.54a1.79,1.79,0,0,0,.21.91c.28.47.88.67,1.18,1.12a6.45,6.45,0,0,1,.39,1c.14.32.46.63.81.54s.48-.47.51-.81a2.65,2.65,0,0,1,.11-1,1.14,1.14,0,0,1,1.74-.16A2.33,2.33,0,0,1,99,145a16.94,16.94,0,0,0-.23,2,4,4,0,0,0,2.69-7.32,5.64,5.64,0,0,0-1.93-.8,11.16,11.16,0,0,0-4.53-.19C93.45,139,93.5,140.09,93.55,141.54Z"/><path class="cls-34" d="M94.47,138.79a1.77,1.77,0,0,0-.7.79,2.66,2.66,0,0,0-.23,1,4.22,4.22,0,0,0,.09,1.06,5,5,0,0,0,.32,1,2.7,2.7,0,0,1-.55-1,3.33,3.33,0,0,1-.16-1.13,2.27,2.27,0,0,1,.32-1.11A1.47,1.47,0,0,1,94.47,138.79Z"/><path class="cls-35" d="M95.49,143.86a3.73,3.73,0,0,0-.23,1.68,2.14,2.14,0,0,0,.82,1.45,2,2,0,0,0,2.08.06,2.54,2.54,0,0,0,1.2-1.75,2.66,2.66,0,0,0-.48-2.12C97.74,141.75,96.06,142.31,95.49,143.86Z"/><path class="cls-32" d="M70.29,158.05a72.25,72.25,0,0,0-14.19,3.43,79.86,79.86,0,0,0-15.29,7.2,2.31,2.31,0,0,1-2,.48,2.33,2.33,0,0,1-.8-.73c-5.47-7-7.15-13.79-8.66-22.32-.67-3.71-1.75-7.34-2.27-11.07a37.78,37.78,0,0,1-.18-9.14c.39-3.91,1.47-7.88,4-10.87a17.16,17.16,0,0,1,10.2-5.78,31.5,31.5,0,0,1,6.78-.49c9.21.22,17.33,9.37,18.39,18.19.36,3.06-.52,6.43-2.94,8.34a19.32,19.32,0,0,1,5.75,10.79A54.13,54.13,0,0,1,70.29,158.05Z"/><path class="cls-34" d="M47.92,108.76a14.94,14.94,0,0,1,4.58.75,17.83,17.83,0,0,1,4.2,2,22.86,22.86,0,0,1,6.57,6.61,21.31,21.31,0,0,1,3.31,8.72,10.79,10.79,0,0,1-.4,4.72,8.08,8.08,0,0,1-2.64,3.94v-.43A16.71,16.71,0,0,1,67.3,140a22.88,22.88,0,0,1,2,5.84,54.26,54.26,0,0,1,.87,6.08,50,50,0,0,1,.14,6.12,59.1,59.1,0,0,0-.38-6.1q-.36-3-1-6a23.31,23.31,0,0,0-2-5.69,16.26,16.26,0,0,0-3.65-4.74l-.25-.22.26-.21a7.43,7.43,0,0,0,2.42-3.68,10.71,10.71,0,0,0,.39-4.47,20.63,20.63,0,0,0-3.18-8.52A24.54,24.54,0,0,0,60,114.78a22.61,22.61,0,0,0-3.5-3,20.76,20.76,0,0,0-2-1.19,19,19,0,0,0-2.11-.93A15.74,15.74,0,0,0,47.92,108.76Z"/><path class="cls-33" d="M56,161c-1.5,1.27-3.4,1.8-5.5,2.71a81.48,81.48,0,0,0-9.64,5,2.31,2.31,0,0,1-2,.48,2.33,2.33,0,0,1-.8-.73c-5.47-7-7.15-13.79-8.66-22.32-.67-3.71-1.75-7.34-2.27-11.07a37.78,37.78,0,0,1-.18-9.14c.39-3.91,1.47-7.88,4-10.87a17.16,17.16,0,0,1,10.2-5.78,3.56,3.56,0,0,1-.15,3.3c-.47.63-1.4.94-2,1.59a8.72,8.72,0,0,0-1.63,3.21,16.06,16.06,0,0,0-.33,5.66,58.15,58.15,0,0,0,1.81,8.3,7.31,7.31,0,0,0,4,5.38,15,15,0,0,0,6.88,1.2,36.32,36.32,0,0,0,13.09-2.73c-.61.25-1.25,1.08-1.85,1.45a16.11,16.11,0,0,1-2.27,1.15c-1.67.71-3.41,1.21-5.1,1.84A21.84,21.84,0,0,0,49.15,142c-1.61,1.07-1.82,2.74-1.29,4.62a12.34,12.34,0,0,0,2.2,4,41,41,0,0,0,7.43,7.58.54.54,0,0,1,.25.31.5.5,0,0,1-.1.37A7.21,7.21,0,0,1,56,161Z"/><path class="cls-34" d="M38.88,111.5a17,17,0,0,0,2,4.72,9.68,9.68,0,0,0,3.67,3.46,7.29,7.29,0,0,0,2.39.78,4.48,4.48,0,0,0,.63.06,4,4,0,0,1,.67.07,2.67,2.67,0,0,1,.61.3l.55.34a4.38,4.38,0,0,0,2.35.7,1.64,1.64,0,0,0,1-.49,2.39,2.39,0,0,0,.59-1l0-.19.16.1a2.93,2.93,0,0,0,1.95.33,1.76,1.76,0,0,0,.88-.39,1.17,1.17,0,0,0,.41-.83v-.17a.44.44,0,0,1,0-.08l0,0h0l.06,0,.22-.14c.15-.1.32-.2.42-.28l.36-.37c.09-.15.19-.28.27-.43a2.33,2.33,0,0,0,.07-2,5.61,5.61,0,0,0-1.14-1.72,11,11,0,0,0-1.58-1.38l-1.71-1.25-.85-.62-.43-.32a.33.33,0,0,0-.23-.1s-.08.06,0,.09a.1.1,0,0,0,.05,0s0,0,0,0a0,0,0,0,1,0,0l-.06,0s0-.1,0-.11a.45.45,0,0,1,.25.09l.43.3.88.6,1.74,1.2a9.7,9.7,0,0,1,1.63,1.37,5.57,5.57,0,0,1,1.21,1.77,2.54,2.54,0,0,1,0,2.14c-.08.16-.2.31-.29.47l-.38.4c-.17.13-.3.2-.46.31l-.22.14,0,0h0l0,0a.08.08,0,0,0,0,0v0h0v.18a1.51,1.51,0,0,1-.5,1,2.16,2.16,0,0,1-1,.46,3.2,3.2,0,0,1-2.14-.36l.21-.09a2.63,2.63,0,0,1-.64,1.18,1.88,1.88,0,0,1-1.24.58,4.57,4.57,0,0,1-2.51-.75l-.56-.34a2.26,2.26,0,0,0-.53-.28,3.82,3.82,0,0,0-.61-.06q-.33,0-.66-.06a7.75,7.75,0,0,1-2.47-.83,9.78,9.78,0,0,1-3.68-3.6A16.25,16.25,0,0,1,38.88,111.5Z"/><path class="cls-34" d="M46.93,139.65l4.14-.88c1.38-.3,2.77-.58,4.14-.89.69-.15,1.38-.28,2.06-.45s1.36-.37,2-.59a17.38,17.38,0,0,0,2-.78,19.58,19.58,0,0,0,1.87-1,15.11,15.11,0,0,1-1.81,1.11,16.14,16.14,0,0,1-1.94.87,29.25,29.25,0,0,1-4.1,1.12c-1.38.28-2.76.57-4.15.81S48.33,139.46,46.93,139.65Z"/><path class="cls-34" d="M53.52,120.42c.87,1.08,1.75,2.14,2.54,3.29a16.52,16.52,0,0,1,1.9,3.72,11.33,11.33,0,0,1,.65,4.12,10.23,10.23,0,0,1-.3,2.07,8.58,8.58,0,0,1-.78,1.93,9.14,9.14,0,0,0,.63-2,9.37,9.37,0,0,0,.22-2,12,12,0,0,0-.7-4,18.34,18.34,0,0,0-1.8-3.7c-.36-.59-.77-1.14-1.17-1.71Z"/><path class="cls-34" d="M55.78,121.38c.16.24.16.51,0,.61s-.4,0-.56-.24-.16-.51,0-.61S55.62,121.15,55.78,121.38Z"/><path class="cls-34" d="M58.62,126c.13.25.11.53,0,.62s-.4,0-.53-.31-.11-.54.05-.62S58.48,125.73,58.62,126Z"/><path class="cls-34" d="M59.48,132.73c0,.29-.2.51-.38.5s-.29-.26-.26-.55.2-.51.37-.5S59.51,132.45,59.48,132.73Z"/><path class="cls-27" d="M61.67,159.7l-.19,0c-.39-.1-.79-.22-1.18-.36s-1.77-1.36-2.18-1.09a3.06,3.06,0,0,0,2.44,5.36c.45-.05.89-.2,1.35-.22a8.59,8.59,0,0,1,2.52.32,11,11,0,0,0,6.52.83c1.45-.3-.21-1-.74-1.31a20,20,0,0,0-6.31-2.94C63.16,160.05,62.41,159.89,61.67,159.7Z"/><path class="cls-36" d="M59.81,158.85a1.27,1.27,0,0,1-.34.72L58,161.48a0,0,0,0,1,0,0,1.36,1.36,0,0,1-.77.61,1.38,1.38,0,0,1-.81-.16A87,87,0,0,1,43.84,156a28.49,28.49,0,0,1-9.9-9.49,34.83,34.83,0,0,1-3.33-8.45c-1.6-5.8-2.68-11.82-2.08-17.8.63-6.31,6.4-8.8,9.66-5.33a5.73,5.73,0,0,1,.72.93c4.22,6.62,4.15,18.31,5,26.07a4.81,4.81,0,0,0,.4,1.72,5.19,5.19,0,0,0,1.82,1.72,57.49,57.49,0,0,1,13.38,12.8A1.3,1.3,0,0,1,59.81,158.85Z"/><path class="cls-34" d="M43.89,141.92a6.33,6.33,0,0,0,.34,1.38,2.83,2.83,0,0,0,.83,1.08,10.74,10.74,0,0,0,1.15.81c.4.26.8.52,1.2.8a45.43,45.43,0,0,1,4.52,3.54A48.85,48.85,0,0,1,56,153.6a43,43,0,0,1,3.49,4.56q-1.86-2.19-3.84-4.24c-1.32-1.36-2.69-2.68-4.11-3.94s-2.9-2.46-4.41-3.61c-.37-.3-.76-.57-1.14-.86a10.72,10.72,0,0,1-1.13-.91,3.08,3.08,0,0,1-.78-1.25A5,5,0,0,1,43.89,141.92Z"/><path class="cls-32" d="M58,161.49a1.36,1.36,0,0,1-.77.61,1.38,1.38,0,0,1-.81-.16A87,87,0,0,1,43.84,156a28.49,28.49,0,0,1-9.9-9.49,34.83,34.83,0,0,1-3.33-8.45c-1.6-5.8-2.68-11.82-2.08-17.8.63-6.31,6.4-8.8,9.66-5.33l0,0a3.66,3.66,0,0,0-3.51.55,6.92,6.92,0,0,0-2.16,3,19.13,19.13,0,0,0-1.28,5.94A39.7,39.7,0,0,0,33.4,141a9.08,9.08,0,0,0,1.77,3.28,3.72,3.72,0,0,0,3.37,1.26,4.21,4.21,0,0,0,.83,2.33c2.25,3.55,5.89,6.09,9.3,8.44A53.53,53.53,0,0,0,58,161.49Z"/><path class="cls-37" d="M59.49,158.16a1.45,1.45,0,0,1,.35.52.86.86,0,0,1-.1.65,11,11,0,0,1-.73,1c-.25.33-.51.66-.77,1a2.17,2.17,0,0,1-1,.76,1.74,1.74,0,0,0,.47-.38,3.05,3.05,0,0,0,.38-.49c.24-.34.49-.67.73-1l.39-.48c.13-.17.26-.33.37-.49a.68.68,0,0,0,.14-.53A1.57,1.57,0,0,0,59.49,158.16Z"/><path class="cls-34" d="M37.37,146.55a6.22,6.22,0,0,1,4.84-2.23,12.3,12.3,0,0,0-2.55.84A12.84,12.84,0,0,0,37.37,146.55Z"/><path class="cls-34" d="M38.91,115.85A21.29,21.29,0,0,1,41.56,122a49.16,49.16,0,0,1,1.28,6.59c.27,2.22.46,4.44.61,6.67l.21,3.34.11,1.67.12,1.67c-.3-2.21-.47-4.44-.67-6.66s-.38-4.45-.68-6.65a52.33,52.33,0,0,0-1.2-6.57,27.26,27.26,0,0,0-1-3.18,7.28,7.28,0,0,0-.31-.77l-.34-.77c-.1-.25-.26-.49-.38-.74Z"/><path class="cls-27" d="M55.79,118.14c-.65,1.61-2.72,2.11-4.44,1.89-3.63-.47-6.59-3-9.2-5.6a15.93,15.93,0,0,1-1.58-1.71,7.15,7.15,0,0,1-.76-1.2,1.47,1.47,0,0,1-.19-.67A1.73,1.73,0,0,1,40,110a12.91,12.91,0,0,0,2-4.65c.28-1.38-.24-3.52,1.63-2.44,2.41,1.38,3.86,4,6.37,5.3a2.08,2.08,0,0,1,.84.61,1.11,1.11,0,0,1,.14.29c0,.16.08.33.12.49.41,1.65,1.88,2.78,3.08,4S56.42,116.55,55.79,118.14Z"/><path class="cls-38" d="M51,109.08a.68.68,0,0,1,.17.42c0,.42-.5.64-.92.68a1.64,1.64,0,0,0-1.18.34.88.88,0,0,0,.48.43,13.4,13.4,0,0,0-3.28.29.87.87,0,0,0,.83.49,17.3,17.3,0,0,0-6.56,1,7.15,7.15,0,0,1-.76-1.2,1.47,1.47,0,0,1-.19-.67A1.73,1.73,0,0,1,40,110a12.91,12.91,0,0,0,2-4.65c.28-1.38-.24-3.52,1.63-2.44a19.42,19.42,0,0,1,3.68,3.22,13.5,13.5,0,0,0,1.92,1.62A7.51,7.51,0,0,1,51,109Z"/><path class="cls-27" d="M56.91,100.13a18.67,18.67,0,0,1-.38,3.18,17.7,17.7,0,0,1-2.92,5.27,3.71,3.71,0,0,1-3,1.44,3.51,3.51,0,0,1-1.77-.42c-.6-.33-1.11-.83-1.69-1.2s-1.17-.62-1.75-.94c-2-1.11-3.16-3.22-4-5.23-.43-1-.63-2.08-1.14-3a14.59,14.59,0,0,1-1.56-3.74A8.34,8.34,0,0,1,40,89c.14-.2.29-.4.45-.59A12.92,12.92,0,0,1,43.4,85.9a12.23,12.23,0,0,1,3.24-1.55A8.68,8.68,0,0,1,57.51,90.8C58.19,93.86,57.19,97,56.91,100.13Z"/><path class="cls-39" d="M50.64,110a3.51,3.51,0,0,1-1.77-.42c-.6-.33-1.11-.83-1.69-1.2s-1.17-.62-1.75-.94c-2-1.11-3.16-3.22-4-5.23-.43-1-.63-2.08-1.14-3a14.59,14.59,0,0,1-1.56-3.74A8.34,8.34,0,0,1,40,89c.14-.2.29-.4.45-.59a11,11,0,0,1,4.79-2.5c1.24-.26,2.78-.11,3.4,1,.4.73.45,1.87,1.27,2L50,90a3.47,3.47,0,0,1-3.07,2.67c.35.71-.38,1.5-.38,2.29,0,.62.44,1.13.63,1.72.52,1.58-.74,3.23-.95,4.77a10.9,10.9,0,0,0,.53,5.22l.24-.94C47.35,107.66,49,109,50.64,110Z"/><path class="cls-40" d="M43.2,94.78a1.75,1.75,0,0,1,.12,2c-.43.72-1.34,1.07-1.75,1.81-.52,1,0,2.13.15,3.23a1.16,1.16,0,0,1-.11.76,1,1,0,0,1-.6.39,2.08,2.08,0,0,1-2.45-1.27,2.06,2.06,0,0,1-2.36-1.83,2.28,2.28,0,0,1-2-.88,2.31,2.31,0,0,1-.31-2.14,2.5,2.5,0,0,1-.79-3.72c-.4.17-.74-.34-.83-.77-.22-1,0-2.39,1-2.77-.56,0-1-.57-1.1-1.12a2.62,2.62,0,0,1,1.09-2.72,3.45,3.45,0,0,1,2.81-4.15,2.48,2.48,0,0,1,2.93-2.17,2.92,2.92,0,0,1,3.31-2,3.09,3.09,0,0,1,4.12-1.21A2.62,2.62,0,0,1,49.86,76a2.86,2.86,0,0,1,1.58-.15,1.3,1.3,0,0,1,1,1.13,2,2,0,0,1,2.67,1.37,2.26,2.26,0,0,1,2.06,2.12,1.82,1.82,0,0,1,1.44,1.34,2.64,2.64,0,0,0,.17.61,2.71,2.71,0,0,0,.53.54,1.91,1.91,0,0,1,.48,2,1.66,1.66,0,0,1,.25,2.15,2.17,2.17,0,0,1-.31,2.88,1.17,1.17,0,0,1,.24,1.3c-.17.38-.55.65-.69,1a6.5,6.5,0,0,0-.12.77,1.75,1.75,0,0,1-1.52,1.4c0-.18,0-1.82-.09-1.82a.77.77,0,0,1-.51-.41,2.71,2.71,0,0,1-.39-1.49,1.15,1.15,0,0,1-1-.46c-.09-.11-.57-.8-.44-.94a1.32,1.32,0,0,1-2-.35,1.52,1.52,0,0,1-1.17,1.3,3.54,3.54,0,0,1-1.85-.13,1.59,1.59,0,0,1-2.39,1c.36.26-1.5.94-1.7.94a3.91,3.91,0,0,1-2.93-1.91C44.1,91.59,45.22,93.68,43.2,94.78Z"/><path class="cls-41" d="M51.83,78.2a1,1,0,0,1,.79-.11,1.58,1.58,0,0,1,.73.42,1.77,1.77,0,0,1,.4.72,2,2,0,0,1,.1.79,4.09,4.09,0,0,0-.72-1.3,1.67,1.67,0,0,0-.58-.4A1.44,1.44,0,0,0,51.83,78.2Z"/><path class="cls-41" d="M56,81.22a1.41,1.41,0,0,1,1.07,2.23,2.62,2.62,0,0,0,0-.68,1.63,1.63,0,0,0-.17-.62A2.09,2.09,0,0,0,56,81.22Z"/><path class="cls-41" d="M58,84.59a1.29,1.29,0,0,1,.41.59,1.66,1.66,0,0,1,.08.73,1.69,1.69,0,0,1-.22.7,1.31,1.31,0,0,1-.52.5,2.75,2.75,0,0,0,.45-1.23A2.69,2.69,0,0,0,58,84.59Z"/><path class="cls-41" d="M54.52,83.81a1.16,1.16,0,0,1,.29,2A1.87,1.87,0,0,0,55,84.78,2,2,0,0,0,54.52,83.81Z"/><path class="cls-41" d="M51.77,80.94a1,1,0,0,1,.61.19,1.38,1.38,0,0,1,.45.48,1.41,1.41,0,0,1,.2.63,1.15,1.15,0,0,1-.14.63,2.48,2.48,0,0,0-.31-1.11A2.27,2.27,0,0,0,51.77,80.94Z"/><path class="cls-41" d="M48.84,78.2a1.17,1.17,0,0,1,1.07.16,1.2,1.2,0,0,1,.54.94,2.89,2.89,0,0,0-.71-.69A3,3,0,0,0,48.84,78.2Z"/><path class="cls-41" d="M44.37,78.15a1.6,1.6,0,0,1,1.14-.08,1.64,1.64,0,0,1,1,.64,10.46,10.46,0,0,0-1-.35A8.45,8.45,0,0,0,44.37,78.15Z"/><path class="cls-41" d="M47.87,80a.87.87,0,0,1,.55.07,1.19,1.19,0,0,1,.7.87.89.89,0,0,1,0,.56,2.1,2.1,0,0,0-.42-.89A2.19,2.19,0,0,0,47.87,80Z"/><path class="cls-41" d="M50,83.19a.5.5,0,0,1,.5.06.84.84,0,0,1,.31.43,1.25,1.25,0,0,1-.17,1,8.33,8.33,0,0,0-.12-.87.93.93,0,0,0-.18-.34A.68.68,0,0,0,50,83.19Z"/><path class="cls-41" d="M52.16,85.55a.81.81,0,0,1,.29.57,1.31,1.31,0,0,1-.09.65,1.73,1.73,0,0,1-.37.54,2.08,2.08,0,0,1-.51.37,10.34,10.34,0,0,0,.6-1,1.66,1.66,0,0,0,.14-.54A1.27,1.27,0,0,0,52.16,85.55Z"/><path class="cls-41" d="M48.16,88.13s.07,0,.1,0a.29.29,0,0,0,.07-.08l.16-.22a3.32,3.32,0,0,0,.28-.41,1.31,1.31,0,0,0,.16-.43.94.94,0,0,0-.06-.49.62.62,0,0,1,.29.49.91.91,0,0,1-.13.58,1.72,1.72,0,0,1-.37.43l-.23.15a.3.3,0,0,1-.15.06H48.2A.06.06,0,0,1,48.16,88.13Z"/><path class="cls-41" d="M47.25,82.37a.92.92,0,0,1,.61.41,1.49,1.49,0,0,1,.23.73,2.56,2.56,0,0,1-.08.73,1.19,1.19,0,0,1-.15.35.37.37,0,0,1-.34.17.38.38,0,0,0,.21-.24,1.64,1.64,0,0,0,.05-.32c0-.23,0-.46,0-.68A1.48,1.48,0,0,0,47.25,82.37Z"/><path class="cls-41" d="M43.46,80.05a1.62,1.62,0,0,1,.76-.06,1.9,1.9,0,0,1,.75.25,1.11,1.11,0,0,1,.3.31.94.94,0,0,1,.13.4,1.77,1.77,0,0,1-.13.76,5.21,5.21,0,0,0-.1-.72.86.86,0,0,0-.37-.5,3,3,0,0,0-.63-.27A4.09,4.09,0,0,0,43.46,80.05Z"/><path class="cls-41" d="M39.79,81.32a1.44,1.44,0,0,1,1.1,0,1,1,0,0,1,.47.35.71.71,0,0,1,.16.54,1.23,1.23,0,0,0-.33-.38,1.27,1.27,0,0,0-.41-.23A7.57,7.57,0,0,0,39.79,81.32Z"/><path class="cls-41" d="M43.69,84.23a1,1,0,0,1,.55.21,1.36,1.36,0,0,1,.4.46,1.32,1.32,0,0,1,.15.59,1,1,0,0,1-.14.57,2.52,2.52,0,0,0-.28-1A2.48,2.48,0,0,0,43.69,84.23Z"/><path class="cls-41" d="M45.79,87.62a.85.85,0,0,1,.54.68.84.84,0,0,1-.26.82,3.18,3.18,0,0,0,0-.77A3,3,0,0,0,45.79,87.62Z"/><path class="cls-41" d="M36.24,84.6a1.53,1.53,0,0,1,1.19-.16,1.1,1.1,0,0,1,.53.35.76.76,0,0,1,.17.59,1.11,1.11,0,0,0-.34-.42,1.4,1.4,0,0,0-.45-.24A5.29,5.29,0,0,0,36.24,84.6Z"/><path class="cls-41" d="M39.57,88.44a1.08,1.08,0,0,1,1,1.4,2.86,2.86,0,0,0-.4-.78A3.09,3.09,0,0,0,39.57,88.44Z"/><path class="cls-41" d="M35.61,89.69a2.25,2.25,0,0,1,.62-.15,1.66,1.66,0,0,1,.66.07,1.18,1.18,0,0,1,.55.4.75.75,0,0,1,.15.64,1,1,0,0,0-.32-.48,1.27,1.27,0,0,0-.48-.27A7.79,7.79,0,0,0,35.61,89.69Z"/><path class="cls-41" d="M41.45,92a1,1,0,0,1,1,.47.93.93,0,0,1-.08,1.08,2.05,2.05,0,0,0,0-.5,2,2,0,0,0-.16-.43,1.59,1.59,0,0,0-.29-.35A2,2,0,0,0,41.45,92Z"/><path class="cls-41" d="M37.22,93.41a1.26,1.26,0,0,1,1.09,0,1.31,1.31,0,0,1,.76.8,4.44,4.44,0,0,0-.87-.52A3.71,3.71,0,0,0,37.22,93.41Z"/><path class="cls-41" d="M36.47,96.42a1.18,1.18,0,0,1,.64-.36,1.3,1.3,0,0,1,.73,0,2,2,0,0,1-.66.26A2.07,2.07,0,0,1,36.47,96.42Z"/><path class="cls-28" d="M40.68,86.78a2.3,2.3,0,0,1-.47-1.48A3.19,3.19,0,0,1,41,84.14s.16,1.2.2,1.4A11.36,11.36,0,0,0,41.57,87,11.54,11.54,0,0,0,43,89.7a11.39,11.39,0,0,1-1.69-2C41.11,87.41,40.89,87.11,40.68,86.78Z"/><path class="cls-39" d="M40.79,95.87a1.61,1.61,0,0,0-1.39,0,2.2,2.2,0,0,0-.88,2.33A5,5,0,0,0,41.46,102a.59.59,0,0,0,.26.07c.36,0,.54-.43.59-.79C42.56,99.59,42.64,96.74,40.79,95.87Z"/><path class="cls-38" d="M40.16,96.55a.89.89,0,0,0-.69.5,1.62,1.62,0,0,0-.17.93,3.6,3.6,0,0,0,1.27,2.32.89.89,0,0,0,.66.32.14.14,0,0,0,.13-.07c0-.08,0-.18,0-.26a1.8,1.8,0,0,1,0-.83,3.63,3.63,0,0,0,0-.57C41.24,98,41.35,96.55,40.16,96.55Z"/><path class="cls-42" d="M49.7,93.57a3.75,3.75,0,0,1,1.13-.28,1.32,1.32,0,0,1,1.06.38.17.17,0,0,1,0,.13.24.24,0,0,1-.06.08,1.85,1.85,0,0,1-.77.26A21.15,21.15,0,0,0,47,95.35a4.31,4.31,0,0,1,.25-.64,1.43,1.43,0,0,1,.45-.4A12,12,0,0,1,49.7,93.57Z"/><path class="cls-42" d="M56,93.72a2.32,2.32,0,0,0-.85-.29.88.88,0,0,0-.8.39.2.2,0,0,0,0,.13.22.22,0,0,0,.05.08,1.22,1.22,0,0,0,.58.26A13.32,13.32,0,0,1,58,95.5s-.16-.58-.19-.65a1.51,1.51,0,0,0-.35-.4A7.4,7.4,0,0,0,56,93.72Z"/><path class="cls-43" d="M50.27,97.38c-.07.4-.37.68-.67.62s-.47-.42-.4-.82.38-.67.67-.62A.66.66,0,0,1,50.27,97.38Z"/><path class="cls-43" d="M56.13,97.48c-.06.4-.35.69-.64.65a.67.67,0,0,1-.43-.81c.06-.4.35-.68.64-.64S56.19,97.09,56.13,97.48Z"/><path class="cls-38" d="M51.94,102.1a2.46,2.46,0,0,0,1-.13,1.63,1.63,0,0,0,.69-.47,1.6,1.6,0,0,0,.32-.77,1.72,1.72,0,0,0,0-.45,4.6,4.6,0,0,0-.16-.49,1.47,1.47,0,0,1,.42.37,1.22,1.22,0,0,1,.23.55,1.58,1.58,0,0,1-.32,1.16,1.55,1.55,0,0,1-1.06.56A1.42,1.42,0,0,1,51.94,102.1Z"/><path class="cls-38" d="M48.68,97a5,5,0,0,1-.55,0,3.33,3.33,0,0,1-.54-.07,1.29,1.29,0,0,1,.55-.08A1.26,1.26,0,0,1,48.68,97Z"/><path class="cls-38" d="M48.65,97.58l-.4.09c-.13,0-.26,0-.41.06a.66.66,0,0,1,.38-.21A.71.71,0,0,1,48.65,97.58Z"/><path class="cls-38" d="M56.41,97.25a.71.71,0,0,1,.35-.07.69.69,0,0,1,.34.07.78.78,0,0,1-.69,0Z"/><path class="cls-38" d="M56.37,97.69a.45.45,0,0,1,.48.15.5.5,0,0,1-.48-.15Z"/><path class="cls-38" d="M49.27,103.72a13.84,13.84,0,0,0,1.33.51,8.87,8.87,0,0,0,1.33.32,5.48,5.48,0,0,0,1.34,0,2.89,2.89,0,0,0,1.3-.42,1.92,1.92,0,0,1-1.21.88,3.67,3.67,0,0,1-1.51.09,4.17,4.17,0,0,1-1.43-.48A3.74,3.74,0,0,1,49.27,103.72Z"/><path class="cls-38" d="M47,106.91a5.14,5.14,0,0,1,2.68-5.23A7.28,7.28,0,0,0,47,106.91Z"/><path class="cls-38" d="M54.56,102.06a2.15,2.15,0,0,1,.64.87,3.43,3.43,0,0,1,.23,1.09,5.22,5.22,0,0,1-.45,2.11c.05-.72.17-1.42.15-2.1A3.85,3.85,0,0,0,54.56,102.06Z"/><path class="cls-38" d="M51.27,106a3.73,3.73,0,0,1,.73,0,3.93,3.93,0,0,1,.74.07,1.12,1.12,0,0,1-.74.23A1.14,1.14,0,0,1,51.27,106Z"/><path class="cls-24" d="M4.67,118.57c2.62-.91,6.83-.26,8.2,3.14S26.56,165.1,26.56,165.1h20a7.9,7.9,0,0,1,7.82,6.24l2.46,12.25H24L4.28,124.8S1,119.85,4.67,118.57Z"/><path class="cls-25" d="M2.59,119c2.62-.9,4.88-.71,6.25,2.69S22.53,165.1,22.53,165.1h20a7.9,7.9,0,0,1,7.82,6.24l2.43,12.25H20L.25,124.8S-1.12,120.31,2.59,119Z"/><path class="cls-7" d="M123.13,158.88c6.55,1.64,12.29,4.2,16.51,8.47a36.22,36.22,0,0,1,14.9-8.47Z"/><path class="cls-9" d="M117.14,218.39l22.64-5.67,21.51,5.67A178.07,178.07,0,0,1,117.14,218.39Z"/><path class="cls-20" d="M152.76,151.61a3,3,0,0,1-4.22-.5,3.11,3.11,0,0,1-.28-4.31,3,3,0,0,1,4.23.5A3.12,3.12,0,0,1,152.76,151.61Z"/><path class="cls-44" d="M151.05,151.66a2.9,2.9,0,0,1-2.08-1,3.09,3.09,0,0,1-.85-1.88,2,2,0,0,1,.56-1.57,1.79,1.79,0,0,1,1.3-.5,2.92,2.92,0,0,1,2.08,1,2.51,2.51,0,0,1,.29,3.45A1.86,1.86,0,0,1,151.05,151.66Z"/><path class="cls-21" d="M150.2,150.1a3.32,3.32,0,1,1-3.27-2.77A3.05,3.05,0,0,1,150.2,150.1Z"/><path class="cls-44" d="M146.93,152.26a2.21,2.21,0,1,1,2.67-2.16A2.46,2.46,0,0,1,146.93,152.26Z"/><path class="cls-20" d="M156.23,152.6a3.19,3.19,0,0,1-1.17-4.32,3.1,3.1,0,0,1,4.12-1.6,3.2,3.2,0,0,1,1.17,4.33A3.09,3.09,0,0,1,156.23,152.6Z"/><path class="cls-44" d="M157.47,152.3a2,2,0,0,1-1-.24,2.6,2.6,0,0,1-.91-3.51,2.7,2.7,0,0,1,2.35-1.56,2,2,0,0,1,1,.24,2.6,2.6,0,0,1,.91,3.51A2.72,2.72,0,0,1,157.47,152.3Z"/><path class="cls-21" d="M151.46,150.87a3.08,3.08,0,0,1,2.16-3.72,3,3,0,0,1,4,1.49,3.09,3.09,0,0,1-2.17,3.72A3,3,0,0,1,151.46,150.87Z"/><path class="cls-44" d="M154.17,152a2.17,2.17,0,0,1-2.15-1.31,2.5,2.5,0,0,1,1.8-2.95,3.17,3.17,0,0,1,1.09-.19,2.16,2.16,0,0,1,2.14,1.31,2.49,2.49,0,0,1-1.8,2.95A3.11,3.11,0,0,1,154.17,152Z"/><path class="cls-22" d="M141.38,149.55h21.5s-3.5,7.12-10.75,7.12S141.38,149.55,141.38,149.55Z"/><path class="cls-10" d="M144.43,149.55h-3.05s3.5,7.12,10.75,7.12a10.64,10.64,0,0,0,1.52-.12C147.44,155.66,144.43,149.55,144.43,149.55Z"/><path class="cls-44" d="M173.7,160.39H106a2,2,0,0,1-2-2.06h0a2,2,0,0,1,2-2.06h67.7a2,2,0,0,1,2,2.06h0A2,2,0,0,1,173.7,160.39Z"/><path class="cls-7" d="M141.38,165.58h-3.45v26.9c.94-2,2-3.88,3.07-5.76C141,178.91,141.15,171.32,141.38,165.58Z"/><path class="cls-9" d="M141,186.72c-1.1,1.88-2.13,3.8-3.07,5.76v21.24h3.45C141.1,206.41,141,196.39,141,186.72Z"/><path class="cls-20" d="M120.46,154.49h-2.14c-1.54,0-2-2-2.33-3.32-.06-.26-.12-.51-.18-.7a1.39,1.39,0,0,1,.16-1.26c.51-.68,1.7-1,4-.91l0,.91c-2.44,0-3.08.32-3.25.55,0,0-.11.15,0,.44s.13.48.19.76c.25,1,.63,2.62,1.46,2.62h2.14Z"/><path class="cls-20" d="M125.41,156.27h-3.92A1.49,1.49,0,0,1,120.1,155l-1.19-7.92H128L126.8,155A1.49,1.49,0,0,1,125.41,156.27Z"/></g><rect class="cls-9" x="272.63" y="60.88" width="2.91" height="157.09"/><rect class="cls-9" x="223.56" y="60.88" width="2.91" height="157.09"/><rect class="cls-9" x="223.56" y="82.99" width="51.98" height="2.91"/><rect class="cls-9" x="223.56" y="109.55" width="51.98" height="2.91"/><rect class="cls-9" x="223.56" y="198.31" width="51.98" height="2.91"/><rect class="cls-9" x="223.54" y="169.2" width="51.98" height="2.91"/><rect class="cls-9" x="223.54" y="138.6" width="51.98" height="2.91"/><rect class="cls-10" x="226.46" y="112.93" width="6.41" height="25.67"/><rect class="cls-7" x="235.61" y="115.01" width="3.35" height="23.52" transform="translate(-23.26 59.75) rotate(-13.69)"/><rect class="cls-20" x="248.07" y="133.77" width="24.56" height="4.83"/><rect class="cls-20" x="228.16" y="143.99" width="3.35" height="25.14" transform="translate(-19.16 32.72) rotate(-7.82)"/><rect class="cls-25" x="231.53" y="143.99" width="3.35" height="25.14" transform="translate(-19.13 33.17) rotate(-7.82)"/><rect class="cls-45" x="241.36" y="150.4" width="6.41" height="18.8"/><rect class="cls-33" x="247.77" y="147.89" width="5.2" height="21.31"/><rect class="cls-36" x="249.07" y="149.91" width="2.6" height="12.55"/><rect class="cls-7" x="272.63" y="60.88" width="2.91" height="18.54"/><rect class="cls-7" x="223.56" y="60.88" width="2.91" height="18.54"/><polygon class="cls-44" points="247.14 82.98 233.02 82.98 229.67 52.16 249.85 52.16 247.14 82.98"/><path class="cls-36" d="M218.51,54.69c-2.27,1-5.06,1.16-7,2.74-4.71,3.88-5.16,13-4.61,18.44.69,6.77,4.47,12.59,4.55,19.46a84.31,84.31,0,0,0,8.08-8.18c4.37-5.09,8.29-9.7,7.24-16.8C225.88,64.21,221,60.18,218.51,54.69Z"/><path class="cls-36" d="M218.34,54.31l.17.38.41-.19Z"/><path class="cls-36" d="M222.12,46.49c2-5.75-1.52-9.18-3.55-14.16.11-2.62-.46-4.68-3.6-4.57-6.09.23-11.27,5.4-13.78,10.51-4.1,8.35-2.73,17.67-1.6,26.53a40.47,40.47,0,0,1,7.76-8C212.19,53.19,219.88,52.89,222.12,46.49Z"/><path class="cls-36" d="M248,27c12.36-1.55,8.44-15.71,6.86-24v.51c-4.39,2.16-9.35,3-13.64,5.32C230.66,14.51,236.88,28.42,248,27Z"/><path class="cls-36" d="M237.39,45.81a.58.58,0,0,1-.54-.37c-1.29-3.48-1.11-9.63-.58-12.7a32.84,32.84,0,0,1,2.6-8.55c.16-.36.3-.67.41-1a.57.57,0,0,1,.75-.32.56.56,0,0,1,.32.74c-.12.31-.26.63-.43,1a31.56,31.56,0,0,0-2.51,8.28c-.61,3.52-.58,9.14.52,12.1a.57.57,0,0,1-.34.74A.48.48,0,0,1,237.39,45.81Z"/><path class="cls-36" d="M255.35,49.71h0a.58.58,0,0,1-.52-.63,13.52,13.52,0,0,0-.86-4.88c-1-3.48-3.7-7.07-8-6.78-4.91.32-6,3.38-7,8a.58.58,0,0,1-1.13-.26c1.11-4.81,2.4-8.53,8.08-8.9,5-.33,8,3.7,9.22,7.57a14.52,14.52,0,0,1,.9,5.34A.57.57,0,0,1,255.35,49.71Z"/><path class="cls-36" d="M236.37,46.07a.58.58,0,0,1-.58-.55c-.22-4.09-.83-8.72-3.62-12-2.46-2.87-6.79-2.2-9.83-1.45a6,6,0,0,0-4.45,3.15.58.58,0,0,1-1-.55A7.17,7.17,0,0,1,222.06,31c3.34-.82,8.12-1.53,11,1.83,3,3.53,3.67,8.39,3.9,12.68a.56.56,0,0,1-.54.6Z"/><path class="cls-36" d="M218.54,58.53h0a.58.58,0,0,1-.54-.62c.29-4.25,2.63-10.2,6.39-12.86A7.53,7.53,0,0,1,231,43.86a7.08,7.08,0,0,1,4.16,3.24.58.58,0,0,1-.18.8.59.59,0,0,1-.8-.19A5.82,5.82,0,0,0,230.66,45,6.41,6.41,0,0,0,225,46c-3.47,2.45-5.63,8-5.9,12A.57.57,0,0,1,218.54,58.53Z"/><path class="cls-33" d="M245.68,50.43c-.84-3.52-4.83-8.18-8.49-5.32-4.13.35-6.36,6.08-6.29,9.94.09,5.17,3.64,8.54,5.84,12.84a26.41,26.41,0,0,1,4-6.55C243.5,57.9,246.82,55.19,245.68,50.43Z"/><path class="cls-33" d="M262.29,52.33a10.22,10.22,0,0,0-6.88-3.77c-10.31,5.17-19.81,22.76-6.16,29.61,3.12,1.56,5.05,3,6.11,6.42,1.79-6.21,8-8.9,8.81-15.57C264.85,63.48,266,57.07,262.29,52.33Z"/><path class="cls-36" d="M255.54,74.51a.4.4,0,0,1-.35-.23c-.8-1.81-.8-4.91-.8-7,0-2.3.15-4.52.3-6.67.08-1.1.16-2.24.21-3.36,0-.83.08-1.65.12-2.48s.06-1.53.1-2.29c0-.25,0-.57.09-1,.11-1,.3-2.75-.07-3.14a.38.38,0,0,1,.55-.53c.58.6.47,2.06.28,3.76,0,.36-.07.67-.08.89,0,.76-.08,1.53-.11,2.3s-.07,1.65-.11,2.48c-.06,1.13-.14,2.27-.21,3.37-.15,2.14-.3,4.34-.3,6.58,0,2,0,5,.73,6.68a.39.39,0,0,1-.19.51A.45.45,0,0,1,255.54,74.51Z"/><path class="cls-36" d="M258.61,62.88a.37.37,0,0,1-.3-.16A28.49,28.49,0,0,1,254.94,57a.38.38,0,0,1,.7-.32,28.61,28.61,0,0,0,3.28,5.55.39.39,0,0,1-.08.54A.4.4,0,0,1,258.61,62.88Z"/><path class="cls-36" d="M246.47,68.5a.41.41,0,0,1-.24-.08.39.39,0,0,1-.07-.54c.39-.51,1.45-.71,3-1a11.35,11.35,0,0,0,1.58-.32,13.19,13.19,0,0,0,3.16-1.73l.39-.26a.38.38,0,1,1,.42.64l-.38.26A13.93,13.93,0,0,1,251,67.32a12.15,12.15,0,0,1-1.7.35,6.86,6.86,0,0,0-2.53.68A.37.37,0,0,1,246.47,68.5Z"/><path class="cls-36" d="M250.81,72.21a.38.38,0,0,1-.33-.2.37.37,0,0,1,.15-.52,8,8,0,0,1,1.35-.55,3.52,3.52,0,0,0,2.32-1.58.38.38,0,0,1,.51-.18.38.38,0,0,1,.18.51,4.16,4.16,0,0,1-2.76,2,7.33,7.33,0,0,0-1.23.5A.41.41,0,0,1,250.81,72.21Z"/><path class="cls-36" d="M236.88,64.66a.38.38,0,0,1-.38-.34,13.71,13.71,0,0,1,.22-3.47c.06-.45.12-.88.17-1.3a27.86,27.86,0,0,1,.89-4.2c.95-3.58,1.85-7-.68-9.86a.39.39,0,0,1,.58-.51c2.8,3.22,1.8,7,.84,10.57a27.41,27.41,0,0,0-.87,4.08c0,.43-.11.87-.17,1.33a13.28,13.28,0,0,0-.22,3.28.38.38,0,0,1-.34.42Z"/><path class="cls-36" d="M233.87,52.72a2.69,2.69,0,0,1-1.11-.23.38.38,0,0,1-.19-.51.37.37,0,0,1,.5-.19c1.94.84,4.71-1.84,5.51-3.52a.38.38,0,0,1,.51-.19.4.4,0,0,1,.18.52C238.5,50.22,236.11,52.72,233.87,52.72Z"/><path class="cls-36" d="M235.75,54.57h-.18a.39.39,0,0,1-.35-.42.37.37,0,0,1,.41-.35c.94.08,2-.73,2.8-1.38l.26-.2a.38.38,0,0,1,.54.07.37.37,0,0,1-.07.53l-.26.21A5.73,5.73,0,0,1,235.75,54.57Z"/><path class="cls-33" d="M213.36,89.72a.37.37,0,0,1-.38-.35,41.42,41.42,0,0,1,0-4.6c0-.75,0-1.53,0-2.27,0-1.56-.11-3.17-.21-4.73a37,37,0,0,1,.09-8.92c.09-.55.17-1.11.25-1.66A22.68,22.68,0,0,1,214.28,62c.12-.3.25-.64.39-1,.75-2,1.79-4.84,3.33-5.86a.39.39,0,0,1,.54.11.39.39,0,0,1-.11.53c-1.34.88-2.37,3.65-3,5.48-.14.38-.27.73-.39,1a22,22,0,0,0-1.14,5c-.08.56-.16,1.12-.26,1.68a37,37,0,0,0-.08,8.74c.11,1.57.22,3.19.22,4.78,0,.75,0,1.54,0,2.29a42.24,42.24,0,0,0,0,4.51.38.38,0,0,1-.35.42Z"/><path class="cls-33" d="M220.13,71.82a.37.37,0,0,1-.34-.22,44.82,44.82,0,0,0-2.51-4.7,13.69,13.69,0,0,0-1.42-1.57c-1.18-1.2-1.63-1.69-1.61-2.09a.38.38,0,0,1,.41-.36.38.38,0,0,1,.36.35,10.57,10.57,0,0,0,1.39,1.56,13,13,0,0,1,1.52,1.7,45.61,45.61,0,0,1,2.55,4.79.38.38,0,0,1-.18.51A.51.51,0,0,1,220.13,71.82Z"/><path class="cls-33" d="M216.81,73a.39.39,0,0,1-.33-.18l-.44-.73a11.14,11.14,0,0,0-2.77-3.5.39.39,0,0,1-.1-.54.39.39,0,0,1,.54-.09,11.69,11.69,0,0,1,3,3.74c.15.24.29.49.44.72a.39.39,0,0,1-.13.53A.35.35,0,0,1,216.81,73Z"/><path class="cls-33" d="M205.05,51.12a.33.33,0,0,1-.19-.06.38.38,0,0,1-.14-.52,13,13,0,0,0,.85-2,15.24,15.24,0,0,1,.84-2c1-1.91,1.94-3.45,2.81-4.84a24.78,24.78,0,0,1,4.35-4.81,39.49,39.49,0,0,0,2.82-2.82.38.38,0,0,1,.58.5,39.12,39.12,0,0,1-2.88,2.88,24.41,24.41,0,0,0-4.22,4.66c-.87,1.38-1.75,2.9-2.78,4.8a12.94,12.94,0,0,0-.8,1.88,14.11,14.11,0,0,1-.91,2.08A.38.38,0,0,1,205.05,51.12Z"/><path class="cls-33" d="M240.08,24.27H240a.38.38,0,0,1-.34-.42c.24-2.25,1.92-5,5-8.28.56-.59,1.2-1.17,1.82-1.73a18.2,18.2,0,0,0,2.95-3.08.4.4,0,0,1,.54-.1.38.38,0,0,1,.1.53A18.74,18.74,0,0,1,247,14.41c-.63.58-1.24,1.12-1.78,1.68-2.92,3.08-4.58,5.79-4.79,7.84A.39.39,0,0,1,240.08,24.27Z"/><path class="cls-33" d="M243,18.26a.38.38,0,0,1-.22-.07c-1-.71-1.19-2.54-1.34-4,0-.31-.06-.6-.09-.85a.38.38,0,0,1,.32-.43.39.39,0,0,1,.44.32c0,.26.06.56.1.88.12,1.25.3,3,1,3.47a.38.38,0,0,1,.09.53A.39.39,0,0,1,243,18.26Z"/><path class="cls-33" d="M248.86,15.41a7.15,7.15,0,0,1-1.43-.2,4,4,0,0,0-1.18-.14.39.39,0,0,1-.08-.77,4.46,4.46,0,0,1,1.42.16,3.5,3.5,0,0,0,2.17,0,.38.38,0,0,1,.51.2.39.39,0,0,1-.2.5A3,3,0,0,1,248.86,15.41Z"/><path class="cls-33" d="M206.07,42.42a.43.43,0,0,1-.24-.08.39.39,0,0,1-.06-.54c.49-.6,1.69-.61,3.21-.55l.67,0h0a.39.39,0,1,1,0,.77h0l-.7,0c-.74,0-2.3-.09-2.58.26A.39.39,0,0,1,206.07,42.42Z"/><path class="cls-33" d="M213.74,41.14a.38.38,0,0,1-.36-.25c-.09-.26-.16-.5-.23-.74a5.94,5.94,0,0,0-.75-1.73A.39.39,0,0,1,213,38a6.83,6.83,0,0,1,.84,1.94c.07.23.14.46.22.7a.38.38,0,0,1-.23.49A.3.3,0,0,1,213.74,41.14Z"/></g></g></svg>