<?xml version="1.0" encoding="utf-8"?>
<svg xmlns="http://www.w3.org/2000/svg" viewBox="0 0 585.27 221.34"><defs><style>.cls-1{isolation:isolate;}.cls-2{opacity:0.29;}.cls-13,.cls-2{mix-blend-mode:multiply;}.cls-3{fill:#d0d884;}.cls-4{fill:#ffb000;}.cls-5{fill:#fff;}.cls-6{fill:#f7e4bc;}.cls-7{fill:#b9babc;}.cls-8{fill:#c4c5c6;}.cls-9{fill:#afbf33;}.cls-10{fill:#becb5c;}.cls-11{fill:#fdc370;}.cls-12{fill:#ad69a9;}.cls-13{opacity:0.3;}.cls-14{fill:#fbad2e;}.cls-15{fill:#414141;}.cls-16{fill:#555658;}.cls-17{fill:#696a6c;}.cls-18{fill:#929497;}.cls-19{fill:#a4569f;}.cls-20{fill:#ffcaab;}.cls-21{fill:#41bbbc;}.cls-22{fill:#754c28;}.cls-23{fill:#5fc1c2;}.cls-24{fill:#00b5b6;}.cls-25{fill:#8a5d3b;}.cls-26{fill:#ffb68c;}.cls-27{fill:#eda073;}.cls-28{fill:#918988;}.cls-29{fill:#b4aaa7;}.cls-30{fill:#564340;}.cls-31{fill:#af775b;}.cls-32{fill:#75c7c8;}.cls-33{fill:#00b7b7;}.cls-34{fill:#58c8c8;}.cls-35{fill:#30c3c2;}.cls-36{fill:#f3f1ff;}.cls-37{fill:#c1856b;}.cls-38{fill:#d6ecec;}.cls-39{fill:#824f38;}.cls-40{fill:#402924;}.cls-41{fill:#8c5c46;}.cls-42{fill:#aac000;}.cls-43{fill:#b2c51c;}.cls-44{fill:#cdd878;}.cls-45{fill:#8f6e67;}.cls-46{fill:#9d796e;}.cls-47{fill:#6d473e;}.cls-48{fill:#333;}.cls-49{fill:#3f3f3f;}.cls-50{fill:#e6e7e8;}.cls-51{fill:#f98e5a;}.cls-52{fill:#d778af;}</style></defs><g class="cls-1"><g id="Layer_2" data-name="Layer 2"><g id="Layer_1-2" data-name="Layer 1"><g class="cls-2"><path class="cls-3" d="M429.83,218.31c118.06-3.18,161-33.63,154.88-96.17-1.62-16.54-15.17-29.06-39.62-40.75-14.35-6.87-34.41-13.2-42.64-21.83-15.37-16.1-17-30.1-53-42.35-16.43-5.6-28.95-8.21-48.33-12-39-7.54-71-4.77-114.19-4.75-36.7,0-74-.84-99,1.92-45.67,5.05-73.72,15.8-88.43,36.69C90.65,51.78,77.2,61.89,51.76,70.58,5.84,86.27-8.91,125,5.06,145.68c12.86,19.07,1.51,51.88,41.77,60.77C146.18,228.38,362.61,220.13,429.83,218.31Z"/></g><ellipse class="cls-3" cx="310.52" cy="209.74" rx="180.23" ry="9.77"/><rect class="cls-4" x="459.24" y="28.88" width="81.08" height="100.26" transform="translate(999.55 158.02) rotate(-180)"/><rect class="cls-5" x="453.65" y="43.12" width="92.26" height="71.78" transform="translate(578.79 -420.77) rotate(90)"/><rect class="cls-6" x="461.65" y="52.42" width="76.26" height="53.18" transform="translate(578.79 -420.77) rotate(90)"/><rect class="cls-7" x="81.63" y="18.12" width="44.47" height="42.37"/><rect class="cls-8" x="88.72" y="24.88" width="30.28" height="28.85"/><rect class="cls-7" x="133.88" y="39.3" width="22.23" height="21.18"/><rect class="cls-8" x="137.43" y="42.68" width="15.14" height="14.43"/><rect class="cls-7" x="52.1" y="38.32" width="22.23" height="21.18"/><rect class="cls-8" x="55.64" y="41.7" width="15.14" height="14.42"/><path class="cls-9" d="M103.71,113.5l.4,0c0-.1-.31-10-.31-11.88h-.4C103.4,103.44,103.71,113.4,103.71,113.5Z"/><path class="cls-9" d="M101.16,113.51l.4,0a20.93,20.93,0,0,0-3.51-8.8l-.33.23A20.42,20.42,0,0,1,101.16,113.51Z"/><path class="cls-9" d="M120,106.15c1-.84,1.58-2.37,2.91-2.73s2.71.44,4,.08,1.74-1.79,2.13-3.08a3.63,3.63,0,0,1,2.42-2.51c1.18-.53,2.41-1.16,2.36-2.64,0-1.28-1-2.33-1-3.62-.06-1.63,1.09-3.06,1.09-4.69,0-3.46-4.94-1.64-6.58-.86a7,7,0,0,1-3.68.62A2.39,2.39,0,0,0,121,88.13c-.49,1-.64,2.62-1.63,3.3s-1.88,0-2.82,0c-1.27,0-1.87.81-2.07,2s.1,2.46-.88,3.28-2.23.7-2.93,1.75-.62,3.6-.39,4.87a3.25,3.25,0,0,0,1.89,2.79C114.33,107,118.06,107.85,120,106.15Z"/><path class="cls-9" d="M107,113.52c.71-4.59,7.18-11.57,7.24-11.64l-.29-.28c-.27.29-6.62,7.14-7.35,11.86Z"/><path class="cls-9" d="M109.82,96.87c0-1.29-.83-2.73-.28-4s2.06-1.82,2.64-3.09-.29-2.48-1-3.59a3.64,3.64,0,0,1-.41-3.47c.33-1.25.62-2.6-.55-3.5-1-.77-2.43-.71-3.46-1.48-1.3-1-1.67-2.79-2.93-3.82-2.68-2.19-4.4,2.79-4.83,4.55a7.1,7.1,0,0,1-1.86,3.24,2.37,2.37,0,0,0-.62,3c.46,1,1.61,2.16,1.51,3.36-.08,1-1.15,1.48-1.74,2.21a2,2,0,0,0,.24,2.87c.75.86,2,1.49,2,2.76s-.87,2.17-.51,3.37,2.4,2.77,3.52,3.39a3.27,3.27,0,0,0,3.36.31C106.88,101.82,109.89,99.47,109.82,96.87Z"/><path class="cls-9" d="M89.73,106.17c-1-.84-1.57-2.37-2.89-2.75s-2.71.43-4,.06-1.73-1.8-2.11-3.08a3.63,3.63,0,0,0-2.41-2.53c-1.17-.54-2.4-1.18-2.34-2.66,0-1.27,1-2.33,1.06-3.61.07-1.63-1.08-3.06-1.07-4.7,0-3.45,5-1.61,6.59-.81a7,7,0,0,0,3.68.63c1.31,0,2.1.19,2.69,1.43.49,1,.63,2.63,1.62,3.31s1.88.06,2.81.07c1.28,0,1.87.82,2.07,2s-.12,2.46.85,3.28,2.23.72,2.93,1.77.6,3.61.36,4.87a3.29,3.29,0,0,1-1.91,2.78C95.41,107.07,91.69,107.89,89.73,106.17Z"/><path class="cls-10" d="M122.82,110.23c1.27-.73.53-2.43,1.52-3.16s2.92.2,3.94.13c1.28-.09,2.7-.4,3.28-1.64s1.1-1.46,2.62-1.18c2.83.51,5.6,1.09,8.27-.48,2-1.19,2.75-3.51.48-4.86s-5.72-1-8.2-.12a7.5,7.5,0,0,1-6.53-.38,5,5,0,0,0-6.14,1.3c-.66.74-1,1.85-1.92,2.36-.45.27-1.74.06-2.28.12a10.73,10.73,0,0,0-2.32.47c-1.24.41-2.66,1.19-3,2.57-.64,2.82,3.22,4.57,5.37,5C119.19,110.64,121.65,110.92,122.82,110.23Z"/><path class="cls-10" d="M116.68,99.09c.64-1.12.71-2.76,1.83-3.54s2.71-.48,3.86-1.27,1-2.26,1-3.6a3.63,3.63,0,0,1,1.46-3.17c.93-.9,1.88-1.9,1.35-3.28-.47-1.19-1.71-1.88-2.18-3.07-.6-1.52,0-3.25-.53-4.79-1.14-3.26-5.21.09-6.49,1.38a7.09,7.09,0,0,1-3.27,1.8c-1.25.38-1.92.86-2.08,2.23-.13,1.11.26,2.68-.45,3.66s-1.76.66-2.64,1A2,2,0,0,0,107.23,89c.19,1.13.91,2.29.26,3.38s-1.88,1.41-2.19,2.62.61,3.61,1.25,4.73a3.26,3.26,0,0,0,2.7,2C111.6,101.79,115.39,101.35,116.68,99.09Z"/><path class="cls-10" d="M103.43,98.21c.1-1.3-.74-2.45-.85-3.72s.66-2.23,1.22-3.3a4.76,4.76,0,0,0,.43-3.76c-.34-1.13-1-2.12-1.39-3.25s-.52-2.57-1-3.79A3.29,3.29,0,0,0,99,78.1c-1.21,0-2.23.8-3.42.85-1.37.07-2.25-1.12-3.28-1.82a2.36,2.36,0,0,0-1.45-.46c-.57,0-.89.44-1.4.59-1,.29-1.89-1.09-3.11-.63a2.36,2.36,0,0,0-1,3.3c.57,1.13,1.4,1.8.84,3.13-.47,1.13-1.07,2.26,0,3.29a6.74,6.74,0,0,0,1.64.91,6,6,0,0,1,1.79,1.38c.52.64.26,1.07.11,1.8a2.24,2.24,0,0,0,.58,1.9c.83,1,2,1,3.07,1.64s.87,1.87,1.25,3a7.47,7.47,0,0,0,1.79,3,5.67,5.67,0,0,0,4.15,1.34A3.93,3.93,0,0,0,103.43,98.21Z"/><path class="cls-9" d="M110.22,114.24c.39-4.16,4.79-7.77,13.08-10.73l.59-.21a6.66,6.66,0,0,1,2.55-.25,5.43,5.43,0,0,0,3.68-.78c1.78-1.33,10.22-.76,10.3-.75l0-.4c-.35,0-8.67-.59-10.57.84a5.08,5.08,0,0,1-3.43.69,7,7,0,0,0-2.7.28l-.58.21c-3.15,1.12-12.74,4.54-13.35,11.06Z"/><path class="cls-9" d="M105,113.26c0-.12,2.07-11.56,4.62-14.57s3.21-4.07,3.68-6.24a3.7,3.7,0,0,1,2-2.5,8.59,8.59,0,0,0,1.22-.87,5,5,0,0,0,1.94-4.46,6.42,6.42,0,0,1,1.72-4.3L120,80a6.62,6.62,0,0,0-1.93,4.67,4.65,4.65,0,0,1-1.81,4.14,9,9,0,0,1-1.16.84,4,4,0,0,0-2.2,2.74c-.46,2.09-1,3-3.59,6.07s-4.63,14.29-4.72,14.76Z"/><path class="cls-9" d="M103,113.25l.4,0c-.06-.51-1.51-12.45-3-14.46-.9-1.2-.72-2.47-.54-3.81a7.81,7.81,0,0,0,.1-2.36,6.21,6.21,0,0,0-3-4.37,1.2,1.2,0,0,1-.58-1.34A2.23,2.23,0,0,0,95.74,85a5.53,5.53,0,0,0-1.91-1.33,3.54,3.54,0,0,1-1.37-1,16.36,16.36,0,0,1-1.62-2.61l-.36.17a15.8,15.8,0,0,0,1.67,2.69A4,4,0,0,0,93.65,84a5.3,5.3,0,0,1,1.8,1.24A1.84,1.84,0,0,1,96,86.84a1.58,1.58,0,0,0,.76,1.69,5.86,5.86,0,0,1,2.79,4.1,7.84,7.84,0,0,1-.1,2.25c-.19,1.36-.39,2.77.61,4.1C101.47,100.91,103,113.13,103,113.25Z"/><path class="cls-9" d="M99.52,114.25l.39,0c0-.2-.74-5-9.2-7.25l-.1.38C98.81,109.57,99.51,114.2,99.52,114.25Z"/><path class="cls-10" d="M93.63,101.56c-1.26-1-1.7-2.65-2.8-3.8s-2.32-.68-3.73-.27c-3,.86-4.85-2.92-8-2.21-1.36.31-1.57,1.61-2.65,2.24s-2.6,0-3.76.66-1.31,2.24-3,2.3c-1.43,0-3.61-.26-3.85,1.75-.21,1.71,1.67,2.58,3.08,2.74,1.8.21,3.6-.31,5.39-.17a43.46,43.46,0,0,1,5.68.53c1.83.38,3.58.77,5.36,1.32A36.8,36.8,0,0,0,92.66,108a3.1,3.1,0,0,0,3.45-3.61C95.87,102.85,94.69,102.43,93.63,101.56Z"/><path class="cls-11" d="M104.77,113.22H119s-2.29,11-6,11.73H96.49c-3.69-.75-6-11.73-6-11.73Z"/><path class="cls-12" d="M91.57,115.34a1.13,1.13,0,0,1,1.12,1.13,1.11,1.11,0,0,1-1,1.11c-.25-.76-.46-1.48-.64-2.11A1.1,1.1,0,0,1,91.57,115.34Z"/><path class="cls-12" d="M93.33,116.47a1.13,1.13,0,1,1,2.25,0,1.13,1.13,0,0,1-2.25,0Z"/><path class="cls-12" d="M103.13,117.59a1.13,1.13,0,1,1,1.12-1.12A1.13,1.13,0,0,1,103.13,117.59Z"/><path class="cls-12" d="M101.36,116.47a1.13,1.13,0,0,1-2.25,0,1.13,1.13,0,1,1,2.25,0Z"/><path class="cls-12" d="M97.35,115.34a1.13,1.13,0,1,1-1.13,1.13A1.13,1.13,0,0,1,97.35,115.34Z"/><path class="cls-12" d="M114.69,115.34a1.13,1.13,0,1,1-1.13,1.13A1.14,1.14,0,0,1,114.69,115.34Z"/><path class="cls-12" d="M116.45,116.47a1.14,1.14,0,0,1,1.13-1.13,1.15,1.15,0,0,1,.83.37c-.16.57-.34,1.19-.56,1.85a1.12,1.12,0,0,1-.27,0A1.13,1.13,0,0,1,116.45,116.47Z"/><path class="cls-12" d="M110.67,116.47a1.13,1.13,0,1,1,1.13,1.12A1.14,1.14,0,0,1,110.67,116.47Z"/><path class="cls-12" d="M106,115.34a1.13,1.13,0,1,1-1.13,1.13A1.13,1.13,0,0,1,106,115.34Z"/><path class="cls-12" d="M107.78,116.47a1.13,1.13,0,1,1,2.25,0,1.13,1.13,0,0,1-2.25,0Z"/><g class="cls-13"><path class="cls-14" d="M97.19,113.22s2.29,11,6,11.73H96.49c-3.69-.75-6-11.73-6-11.73Z"/></g><rect class="cls-14" x="90.18" y="112.76" width="29.32" height="1.46"/><polygon class="cls-15" points="116.07 195.86 121.55 195.86 120.16 210.54 117.46 210.54 116.07 195.86"/><polygon class="cls-15" points="62.92 195.86 68.39 195.86 67 210.54 64.31 210.54 62.92 195.86"/><rect class="cls-16" x="67.5" y="124.85" width="56.66" height="75.02"/><rect class="cls-15" x="59.6" y="124.85" width="7.9" height="75.02"/><rect class="cls-15" x="93.38" y="126.57" width="29.01" height="10.79"/><rect class="cls-15" x="93.38" y="139.3" width="29.01" height="10.79"/><rect class="cls-15" x="93.38" y="152.03" width="29.01" height="10.79"/><rect class="cls-15" x="93.38" y="164.76" width="29.01" height="10.79"/><rect class="cls-15" x="70.08" y="126.57" width="21.49" height="73.3"/><rect class="cls-17" x="102.99" y="142.98" width="11.99" height="1.98"/><rect class="cls-18" x="101.06" y="142.98" width="1.94" height="1.98"/><rect class="cls-17" x="102.99" y="156.35" width="11.99" height="1.98"/><rect class="cls-18" x="101.06" y="156.35" width="1.94" height="1.98"/><rect class="cls-17" x="102.99" y="130.88" width="11.99" height="1.98"/><rect class="cls-18" x="101.06" y="130.88" width="1.94" height="1.98"/><rect class="cls-17" x="75.32" y="130.88" width="11.98" height="1.98"/><rect class="cls-18" x="73.38" y="130.88" width="1.94" height="1.98"/><g id="_4" data-name="4"><rect class="cls-7" x="191.76" y="170.41" width="2.77" height="40.38"/><rect class="cls-7" x="223.37" y="170.41" width="2.77" height="40.38"/><rect class="cls-19" x="192.83" y="164.86" width="36.87" height="7.26" rx="2.74"/><path class="cls-20" d="M170.77,199.31l.93,6.5s5.93-.32,5.93-.51,1-6,1-6Z"/><path class="cls-14" d="M172.19,203.4c1.4,1.47,4.11-.2,5.83-.6s3,8,3,8H158.61s1.1-3.63,9.19-4.83c2.83-.42,1.1-3.09,2.67-3.36S172.19,203.4,172.19,203.4Z"/><path class="cls-21" d="M210.06,163.43c-3.69,2.52-8.07,2-12.53,1.84a63.43,63.43,0,0,0-13.7.7c1.14,11.13-.32,24.81-4.32,35.25l-10.15-.29a234.9,234.9,0,0,1-3-43c.09-3.22.35-6.67,2.35-9.19a14,14,0,0,1,5.85-3.83,65.35,65.35,0,0,1,26.56-4.95c4.81.12,14.28,1.18,15.87,6.83C218.46,152.08,214.36,160.5,210.06,163.43Z"/><polygon class="cls-22" points="175.84 208.74 175.04 208.74 174.71 127.78 176.17 127.78 175.84 208.74"/><path class="cls-20" d="M181.66,199.82l2.19,6s5.93-.32,5.93-.51,1-6,1-6Z"/><path class="cls-14" d="M184.22,203.33c1.17,1.46,4.64-.13,6.07-.53s2.54,8,2.54,8H174.17s-1.38-3.63,5.34-4.83c2.35-.42,2-3.16,3.28-3.43S184.22,203.33,184.22,203.33Z"/><path class="cls-23" d="M221.56,163.43c-3.68,2.52-8.42,2.86-12.88,2.65s-9-.89-13.35-.11c1.14,11.12-.32,24.81-4.32,35.25l-4-.11-6.1-.18a236.68,236.68,0,0,1-3-43c.1-3.22.35-6.67,2.35-9.19a14,14,0,0,1,5.85-3.83,65.18,65.18,0,0,1,26.56-4.95,32.44,32.44,0,0,1,10.55,1.84c2.56,1,4.65,2.59,5.33,5C230,152.08,225.86,160.5,221.56,163.43Z"/><path class="cls-24" d="M221.26,143.28a5.52,5.52,0,0,0-1.62,2.17,8,8,0,0,0-.91,2.51,14.26,14.26,0,0,0-.2,2.7c0,.92.05,1.86,0,2.81a14.47,14.47,0,0,1-.64-2.77,9.29,9.29,0,0,1,.06-2.88,7.12,7.12,0,0,1,.42-1.41,6.76,6.76,0,0,1,.72-1.26A7.36,7.36,0,0,1,220,144,2.72,2.72,0,0,1,221.26,143.28Z"/><path class="cls-24" d="M228.46,146.76a10,10,0,0,1,.39,4,17.12,17.12,0,0,1-.86,4,22.71,22.71,0,0,1-1.69,3.73,19.54,19.54,0,0,1-2.4,3.33,11.55,11.55,0,0,1-3.25,2.56,14.6,14.6,0,0,1-3.87,1.4,25.64,25.64,0,0,1-8.1.28,32.54,32.54,0,0,0,8-.86,15.11,15.11,0,0,0,3.66-1.45,11.38,11.38,0,0,0,3-2.44,22.27,22.27,0,0,0,4.09-6.75,19,19,0,0,0,1-3.84A10.45,10.45,0,0,0,228.46,146.76Z"/><path class="cls-24" d="M194.71,164.28c-.16-.88-.34-1.76-.56-2.63s-.49-1.72-.81-2.54-.7-1.64-1-2.49a12.23,12.23,0,0,1-.41-1.3,7.81,7.81,0,0,1-.18-1.35,11.88,11.88,0,0,0,.86,2.54c.37.81.77,1.61,1.1,2.46a16.19,16.19,0,0,1,.73,2.62A14.36,14.36,0,0,1,194.71,164.28Z"/><path class="cls-24" d="M195.75,161.91a15.42,15.42,0,0,1-.79-2.44,16.42,16.42,0,0,1-.42-2.54,15.53,15.53,0,0,1,.79,2.45A16.29,16.29,0,0,1,195.75,161.91Z"/><path class="cls-24" d="M223.13,141.77a6.21,6.21,0,0,1-.77,2.24c-1.51,2.58-6.07.37-8.59,0-7.17-1-14.7-.93-21.48,1.89-3.46,1.45-7,4.28-6.84,8,0,.39.08.78.08,1.18a7.78,7.78,0,0,1-.26,1.58c-3.36,14.52-.13,29.55,1.69,44.42l-6.1-.18a236.68,236.68,0,0,1-3-43c.1-3.22.35-6.67,2.35-9.19a14,14,0,0,1,5.85-3.83,65.18,65.18,0,0,1,26.56-4.95A32.44,32.44,0,0,1,223.13,141.77Z"/><path class="cls-14" d="M183.87,113.08a23.83,23.83,0,0,0-7.49,2.09,6.23,6.23,0,0,0-1.93,1.25c-1.69,1.78-1,4.92.83,6.55s4.41,2.1,6.86,2.32a11.37,11.37,0,0,0,4-.18c2.14-.59,3.8-2.25,5.21-4,5.59-6.78,8.66-15.33,10.25-24,.33-1.75.5-3.82-.77-5.08-1.92-1.91-4.05.13-5.9.92-2.18.92-3.36,3.31-4.59,5.29a60,60,0,0,0-3.8,7.23C186.25,106.26,184.16,113.05,183.87,113.08Z"/><path class="cls-11" d="M231.78,145.85c-2.63,3.8-4.19,2.05-4.19,2.05s-12.11-4.29-19.83-5.75a45.27,45.27,0,0,0-4.57-.6,83.6,83.6,0,0,0-12.91,0s-6.12.74-5.41-.43c.87-1.43.45-5.23.24-6.76-1.12-8.21,1.15-13.49,4.25-20.78,0,0-.74-10.14.49-13,.79-1.81,2.69-7.36,7.12-10.79a13.67,13.67,0,0,1,10-2.77c4.28.81,14.4,4.23,17.9,11s6.93,40.79,6.93,40.79A5.87,5.87,0,0,1,231.78,145.85Z"/><path class="cls-14" d="M207,87.1a26.79,26.79,0,0,1,3.85.87,38.65,38.65,0,0,1,3.75,1.3,27.81,27.81,0,0,1,6.89,4l.76.66.38.34.35.36.69.74.63.81c.1.13.21.26.31.4l.27.44c.17.3.36.58.52.88a13.34,13.34,0,0,1,.78,1.9c.44,1.27.77,2.55,1.08,3.84s.58,2.58.83,3.87c1,5.19,1.72,10.4,2.33,15.63s1.09,10.46,1.41,15.71l-2.29-15.6c-.4-2.59-.78-5.19-1.21-7.78s-.85-5.17-1.36-7.74c-.24-1.28-.5-2.57-.8-3.84s-.62-2.53-1-3.75a14.41,14.41,0,0,0-.68-1.77c-.14-.27-.32-.54-.47-.81l-.24-.41-.28-.38-.57-.77-.63-.71-.32-.35-.35-.33-.7-.66a25.11,25.11,0,0,0-3.13-2.29c-.53-.36-1.12-.66-1.68-1s-1.14-.61-1.74-.88A38.19,38.19,0,0,0,207,87.1Z"/><path class="cls-14" d="M217.13,123.15c-1.35,1.56-2.88,3.21-3,5.27-.14,2.6,2,4.68,4,6.36a135.4,135.4,0,0,0-14.24-2.59c-2.27-.24-4.74-.32-6.62,1a3,3,0,0,0-1.36,1.9c-.27,1.68,1.39,3,2.85,3.83l4.43,2.64a83.6,83.6,0,0,0-12.91,0s-6.12.74-5.41-.43c.87-1.43.45-5.23.24-6.76-1.12-8.21,1.15-13.49,4.25-20.78,0,0-.74-10.14.49-13,.79-1.81,2.69-7.36,7.12-10.79a2.3,2.3,0,0,1,.18.5c.67,2.58-1.62,5-2.87,7-1.69,2.71-2,5.86-2.21,9-.14,2.13-.21,4.48,1.14,6.14a5.49,5.49,0,0,0,4.25,1.81,11.69,11.69,0,0,0,4.6-1.15c6.05-2.64,10.91-7.32,16.22-11.22a2.4,2.4,0,0,1,1.22-.56,2.15,2.15,0,0,1,1.69,1.1,13,13,0,0,1,1.62,10.9A25.21,25.21,0,0,1,217.13,123.15Z"/><path class="cls-14" d="M209.39,89.16a8.47,8.47,0,0,1-.58,3.13,11.81,11.81,0,0,1-1.56,2.8,18.75,18.75,0,0,1-2.12,2.41c-.39.38-.77.73-1.19,1.08a11.25,11.25,0,0,1-1.35.94,12.59,12.59,0,0,1-3,1.24,14.47,14.47,0,0,1-1.59.33,5.76,5.76,0,0,1-1.66,0,3.94,3.94,0,0,1-1.59-.53,3.51,3.51,0,0,1-1.19-1.17,6.89,6.89,0,0,1-.86-3.07,7.4,7.4,0,0,0,1.17,2.86,3.2,3.2,0,0,0,1.12,1,3.83,3.83,0,0,0,1.41.37,6.19,6.19,0,0,0,1.49-.09,14.93,14.93,0,0,0,1.5-.37,12.49,12.49,0,0,0,2.81-1.21,10.69,10.69,0,0,0,1.26-.85c.39-.32.78-.68,1.16-1a21.75,21.75,0,0,0,2.15-2.25A11,11,0,0,0,209.39,89.16Z"/><path class="cls-14" d="M188.23,138.14a88,88,0,0,0,13.08.8c2.19.05,4.39.11,6.59.32a34,34,0,0,1,6.49,1.18,62.35,62.35,0,0,0-6.53-.59c-2.18-.08-4.37-.11-6.56-.14s-4.39-.11-6.59-.33A32.39,32.39,0,0,1,188.23,138.14Z"/><path class="cls-14" d="M210,132.37a8,8,0,0,1,3.26.41c1,.32,2,.72,3.06,1s2,.66,3.07,1a20.85,20.85,0,0,1,3,1.31c-1.07-.24-2.12-.48-3.16-.74s-2.1-.54-3.14-.87c-.51-.18-1-.36-1.54-.57l-1.48-.63A14,14,0,0,0,210,132.37Z"/><path class="cls-25" d="M179.52,124.58a3.43,3.43,0,0,1,2.12.69,2.73,2.73,0,0,1,.7,1.69,1,1,0,0,1-1.05,1.3c-2.9.29-5.75-.22-8.63-.14-.67,0-1.49.25-2-.35a2,2,0,0,1,.19-2.38C172.57,123,177.07,124.34,179.52,124.58Z"/><path class="cls-26" d="M177,120a13,13,0,0,0-2.36,3.11,5.46,5.46,0,0,0-.71,1.24c-.37,1-.17,2.15-.64,3.09-.19.39-.49.81-.33,1.21a1,1,0,0,0,.65.5,4,4,0,0,0,3.32-.52,7.26,7.26,0,0,0,2.3-2.56,2.63,2.63,0,0,1,.6-.8,2.45,2.45,0,0,1,.76-.32,23.3,23.3,0,0,1,3.19-.61c.84-.13,1.89-.45,2.13-1.39a7.05,7.05,0,0,0,.3-1.9c0-.73,0-.51-.53-.82a9.86,9.86,0,0,0-2.88-1.27A7,7,0,0,0,177,120Z"/><path class="cls-11" d="M223.35,109.73a27,27,0,0,1-2.95,7.47c-2.06,3.34-3.87,6.24-6.89,8.65-1.34,1.07-4,1.71-5.6,2.25a13.38,13.38,0,0,1-4.56.48,54.08,54.08,0,0,1-7.7-.74,58,58,0,0,1-8.34-2,12.63,12.63,0,0,1-2.8-1.13c-1.78-1.38-1.34-4.93-.86-6,6.09-2.21,12.32-4.45,18.95-4.33.75,0,2-7.26,2.18-8a31.82,31.82,0,0,1,5.77-12,6.52,6.52,0,0,1,6-2.56,8.07,8.07,0,0,1,6.3,4C225,99.61,224.4,105.7,223.35,109.73Z"/><path class="cls-14" d="M216.55,91.78A8,8,0,0,1,223,95.42,10.72,10.72,0,0,1,224.33,99a19.55,19.55,0,0,1,.33,3.81,28,28,0,0,1-1.16,7.5,23.49,23.49,0,0,1-3.1,6.86,31,31,0,0,0,2.53-7,32.58,32.58,0,0,0,.69-3.65,28.66,28.66,0,0,0,.28-3.7,19.6,19.6,0,0,0-.27-3.67,10.83,10.83,0,0,0-1.15-3.44A7.55,7.55,0,0,0,220,93.11,8.6,8.6,0,0,0,216.55,91.78Z"/><path class="cls-14" d="M216.55,91.78A10.94,10.94,0,0,0,212,95.12a28.46,28.46,0,0,0-3.81,7.81c-1.83,5-3.67,10.35-2.47,15.52a20.29,20.29,0,0,0-13.17,4.42,2.44,2.44,0,0,0-1.1,1.58c-.08.94.83,1.64,1.66,2.11s1.67.89,2.53,1.28a58,58,0,0,1-8.34-2,12.63,12.63,0,0,1-2.8-1.13c-1.78-1.38-1.34-4.93-.86-6,6.09-2.21,12.32-4.45,18.95-4.33.75,0,2-7.26,2.18-8a31.82,31.82,0,0,1,5.77-12A6.52,6.52,0,0,1,216.55,91.78Z"/><path class="cls-14" d="M203.67,115c.3.38.56.74.83,1.1l.81,1c.28.34.56.67.86,1s.59.67.9,1.05a3.77,3.77,0,0,1-1.3-.6,5.09,5.09,0,0,1-1.05-1,5.29,5.29,0,0,1-.74-1.23A3.66,3.66,0,0,1,203.67,115Z"/><path class="cls-20" d="M180.8,119.2c.1.43.19.87.29,1.3s.14,1-.25,1.25-.8,0-1.15-.26l-1.76-1.21a.66.66,0,0,0-.41-.16c-.22,0-.58.89-.67,1.09-.83,1.79-1.6,3.46-.66,5.36a24,24,0,0,1,1.44,2.75.34.34,0,0,1,0,.26.34.34,0,0,1-.21.16,3.85,3.85,0,0,1-1.82.11,8.74,8.74,0,0,1-2.34-.45c-1.92-.75-2.49-3.21-2.8-5.05-.28-1.69-.51-4,.24-5.62a5.78,5.78,0,0,1,3.73-2.68,6.43,6.43,0,0,1,4.4.46,3.33,3.33,0,0,1,1.5,1.27,4.43,4.43,0,0,1,.4,1.23Z"/><path class="cls-27" d="M180.35,117.78a4,4,0,0,1,.42,1l.29,1.1a5.7,5.7,0,0,1,.22,1.12,1.11,1.11,0,0,1-.16.62.73.73,0,0,1-.59.31,2,2,0,0,1-1.1-.48l-.94-.63-.47-.31a1.82,1.82,0,0,0-.42-.25h0s0,0,0,0a1.16,1.16,0,0,0-.13.2c-.09.15-.17.32-.25.48-.31.69-.65,1.36-.89,2a5.12,5.12,0,0,0-.32,2.15,5.25,5.25,0,0,0,.75,2,10.91,10.91,0,0,1,.95,2,12.65,12.65,0,0,0-1.11-2,5.41,5.41,0,0,1-.88-2.11,5.07,5.07,0,0,1,.28-2.29c.25-.73.57-1.41.88-2.1a4.19,4.19,0,0,1,.27-.51,2,2,0,0,1,.18-.26.57.57,0,0,1,.2-.13.37.37,0,0,1,.23,0,2,2,0,0,1,.55.32l.46.32.92.64a2,2,0,0,0,.92.46.46.46,0,0,0,.38-.18.89.89,0,0,0,.13-.46,5.26,5.26,0,0,0-.17-1.08l-.2-1.11A4.07,4.07,0,0,0,180.35,117.78Z"/><path class="cls-20" d="M207.74,90a7.51,7.51,0,0,1-1.59,3.3,16.14,16.14,0,0,1-4.35,4.48,6.61,6.61,0,0,1-6,.72,3,3,0,0,1-1.5-1.27l0,0a2.92,2.92,0,0,1-.26-1.47,8.29,8.29,0,0,1,1.76-4c1.81-2.62,3.65-5.27,5.69-7.72a3.72,3.72,0,0,1,1-.91,1.19,1.19,0,0,1,1.32,0,2.51,2.51,0,0,1,.5.41c.13.13.27.28.42.46.72.82,1.58,2,1.41,3A2.77,2.77,0,0,1,207.74,90Z"/><path class="cls-27" d="M203.43,90.29a12.91,12.91,0,0,1-4.07,5.61,6.25,6.25,0,0,1-4,1.47,3.84,3.84,0,0,1-1.05-.21,2.92,2.92,0,0,1-.26-1.47,8.29,8.29,0,0,1,1.76-4c1.81-2.62,3.65-5.27,5.69-7.72a3.72,3.72,0,0,1,1-.91,3.24,3.24,0,0,1,1.32,0,1.26,1.26,0,0,1,.92.87,2,2,0,0,1,.08.38C205,86.22,204.12,88.58,203.43,90.29Z"/><path class="cls-20" d="M206.32,76.78c-.18,3.1-1.31,5.89-2.31,8.79a21.87,21.87,0,0,0-.26,3,8.92,8.92,0,0,1-1.09,3c-2,3.34-5.57,4.31-9.26,4.21a7,7,0,0,1-3.39-1,9,9,0,0,1-3.8-4.75,12.92,12.92,0,0,1-.4-3.51,19.35,19.35,0,0,1,.22-3.8,13.27,13.27,0,0,0,.23-2.35c0-1-.32-1.94-.42-2.92-.48-4.55,2.48-7.38,6.29-8.55s8.49-.64,11.39,1.53a7.11,7.11,0,0,1,2.18,2.48A7.92,7.92,0,0,1,206.32,76.78Z"/><path class="cls-26" d="M192.13,68.85a7.28,7.28,0,0,1-.79.75A9.67,9.67,0,0,0,188,74.67a9.32,9.32,0,0,0-.33,3.44A20.16,20.16,0,0,1,188,82a17.52,17.52,0,0,1-.58,2.35,12.37,12.37,0,0,0-.18,5.48l.37-.76A12.89,12.89,0,0,0,190,94.73a9,9,0,0,1-3.8-4.75,12.92,12.92,0,0,1-.4-3.51,19.35,19.35,0,0,1,.22-3.8,13.27,13.27,0,0,0,.23-2.35c0-1-.32-1.94-.42-2.92C185.36,72.85,188.32,70,192.13,68.85Z"/><path class="cls-27" d="M189.43,86.88a5.26,5.26,0,0,0-1.38,1.64,5.39,5.39,0,0,0-.62,2,3.09,3.09,0,0,1,2-3.69Z"/><path class="cls-27" d="M193.84,87a3.75,3.75,0,0,1,1.06,1,5.32,5.32,0,0,1,.67,1.35,8.33,8.33,0,0,1,.41,2.92c-.27-.95-.45-1.9-.77-2.8A7.71,7.71,0,0,0,193.84,87Z"/><path class="cls-27" d="M196.58,82.87a2.54,2.54,0,0,1,.73,0,1.21,1.21,0,0,1,.36.1.41.41,0,0,1,.26.27.53.53,0,0,0-.31-.13l-.35-.06A2.31,2.31,0,0,1,196.58,82.87Z"/><path class="cls-27" d="M196.4,83.5a4.25,4.25,0,0,1,1.06.44,4.46,4.46,0,0,1,.91.71,10.78,10.78,0,0,1-1-.54C197,83.91,196.71,83.72,196.4,83.5Z"/><path class="cls-27" d="M187.69,82.31l-.73-.09-.72-.08A1.37,1.37,0,0,1,187,82,1.39,1.39,0,0,1,187.69,82.31Z"/><path class="cls-27" d="M187.3,82.81a2.88,2.88,0,0,1-.48.09,1.91,1.91,0,0,1-.48,0,.81.81,0,0,1,.46-.19A.79.79,0,0,1,187.3,82.81Z"/><path class="cls-27" d="M190.54,77.74a3.2,3.2,0,0,1,1.41,0c.47.07.91.17,1.36.22a22.84,22.84,0,0,0,2.76.19,6.66,6.66,0,0,1-2.81.19,8.79,8.79,0,0,1-1.37-.31A6.11,6.11,0,0,0,190.54,77.74Z"/><path class="cls-27" d="M190,77.07a3,3,0,0,1,1.72-.35,9.76,9.76,0,0,1,1.73.28,9.62,9.62,0,0,0,1.68.26,9.93,9.93,0,0,0,1.72-.06,5.09,5.09,0,0,1-1.72.36,7.36,7.36,0,0,1-1.76-.19c-.57-.13-1.12-.28-1.68-.36A4,4,0,0,0,190,77.07Z"/><path class="cls-28" d="M194.75,70.58a4.75,4.75,0,0,1,4.49-.79,5.51,5.51,0,0,1,3.31,3.91,7.52,7.52,0,0,1-.8,5.17,1.55,1.55,0,0,0-.22.55,1.48,1.48,0,0,0,.06.55,18.19,18.19,0,0,1,.41,3.21l1.52.11a.8.8,0,0,1,.88-1,1,1,0,0,1,.68,1.23c1.56-2.79,2.78-5.91,2.58-9.11a10.6,10.6,0,0,0-3.37-7c-3-2.3-7.67-2.59-11.22-1.7a10.15,10.15,0,0,0-7.32,6.7,9.36,9.36,0,0,0-.39,1.82,12.18,12.18,0,0,0-.05,2.56,16.19,16.19,0,0,0,1,3.12,8.7,8.7,0,0,1,1-6.79c1-1.57,2.61-3.41,4.57-3.54a3.22,3.22,0,0,0-.76,1.45,3.48,3.48,0,0,1,1.16-.72,2.51,2.51,0,0,0,0,1.51,3.28,3.28,0,0,1,1.66-1.37,1.33,1.33,0,0,0-.17,1.08A5.8,5.8,0,0,1,194.75,70.58Z"/><path class="cls-29" d="M205.28,69.56A10.35,10.35,0,0,1,207,72.75a5.92,5.92,0,0,1,.24,1.82,3.93,3.93,0,0,1-.46,1.75,6.55,6.55,0,0,0-.14-3.46A34.8,34.8,0,0,0,205.28,69.56Z"/><path class="cls-29" d="M203.16,70.56A7.18,7.18,0,0,1,203,79a9.51,9.51,0,0,0,.14-8.41Z"/><path class="cls-29" d="M200.24,68a19.29,19.29,0,0,0-2.94-.08,18.39,18.39,0,0,0-2.91.42,6.76,6.76,0,0,1,2.89-.8A6.92,6.92,0,0,1,200.24,68Z"/><path class="cls-29" d="M197.46,66.23a17,17,0,0,0-2.39.22,20.26,20.26,0,0,0-2.33.57,5.13,5.13,0,0,1,2.27-.94A5.08,5.08,0,0,1,197.46,66.23Z"/><path class="cls-20" d="M203.55,86.61c-.79-.13-.91-1.65-.92-2.26a8.49,8.49,0,0,1,.57-3.15,1.75,1.75,0,0,1,.87-.85,1.2,1.2,0,0,1,1.16,0,2.05,2.05,0,0,1,.7,1.62,5.54,5.54,0,0,1-1.53,4.22A1,1,0,0,1,203.55,86.61Z"/><path class="cls-27" d="M204.23,81.31a.68.68,0,0,1,.58-.3.55.55,0,0,1,.39.35,1.19,1.19,0,0,1,.09.53,6.45,6.45,0,0,1-.46,2.29,1.75,1.75,0,0,1-.22.43,4.63,4.63,0,0,1-.54.43,1.52,1.52,0,0,0-.49.91,1.42,1.42,0,0,1,.15-1.12,2.77,2.77,0,0,0,.22-.37,1.72,1.72,0,0,0-.09-1A2.66,2.66,0,0,1,204.23,81.31Z"/><path class="cls-28" d="M197.78,80.31a2.32,2.32,0,0,1,1.38,1.36.17.17,0,0,1,0,.12c0,.06-.12,0-.18,0l-3-.63a3.57,3.57,0,0,1-1.83-.76c-.75-.73-.07-1.37.74-1.2A13,13,0,0,1,197.78,80.31Z"/><path class="cls-28" d="M186.73,79.93a2.1,2.1,0,0,0-1.25,1.24.19.19,0,0,0,0,.13.12.12,0,0,0,.14,0l2.6-.39a2.66,2.66,0,0,0,1.59-.61c.67-.67.15-1.36-.54-1.25A9,9,0,0,0,186.73,79.93Z"/><ellipse class="cls-30" cx="195.2" cy="83.08" rx="0.53" ry="0.64"/><path class="cls-30" d="M189.13,82.69a.54.54,0,0,1-.48.59.55.55,0,0,1-.49-.59.54.54,0,0,1,.49-.58A.53.53,0,0,1,189.13,82.69Z"/><path class="cls-27" d="M189.85,85.37a2.09,2.09,0,0,0,.45.92,1.78,1.78,0,0,0,.77.54,1.7,1.7,0,0,0,1,0,2.12,2.12,0,0,0,.92-.44,1.53,1.53,0,0,1-.83.73,1.69,1.69,0,0,1-2.06-.71A1.51,1.51,0,0,1,189.85,85.37Z"/><path class="cls-27" d="M188.64,89a10.94,10.94,0,0,0,6.4,1,6.49,6.49,0,0,1-6.4-1Z"/><path class="cls-27" d="M189.78,91.35a1.6,1.6,0,0,1,.77-.38,2.77,2.77,0,0,1,.86,0,3.92,3.92,0,0,1,1.6.52c-.57,0-1.11-.1-1.64-.14A5,5,0,0,0,189.78,91.35Z"/></g><g id="_2" data-name="2"><polygon class="cls-31" points="277.02 200.31 277.75 205.4 281.99 206.09 282.29 200.31 277.02 200.31"/><path class="cls-16" d="M287.21,139.41c-.2,2.25-.4,4.27-.58,6.06-.68,6.59-1.19,9.95-1.19,9.95s-.86,33.18-2.56,46.69h-6.27s-3.31-39.82-3.68-45.22c-.49-.77-1.61-9.45-2.08-16.52a53.27,53.27,0,0,1-.11-7.75c.5-4.47,12,3.52,15.48,6Z"/><path class="cls-17" d="M286.63,145.47c-.06.83-.1,1.67-.17,2.5l-.2,2.5c-.14,1.67-.3,3.33-.51,5v0c0,1.95,0,3.9-.07,5.85l-.14,5.85c-.13,3.89-.28,7.79-.49,11.68s-.47,7.79-.8,11.68-.74,7.77-1.37,11.62c.31-3.89.49-7.78.68-11.67l.52-11.67.5-11.68.55-11.67v0h0c.27-1.64.52-3.3.77-4.95Z"/><path class="cls-15" d="M283,155.15a12.53,12.53,0,0,1-.44,2,11.66,11.66,0,0,1-.77,1.92,11.37,11.37,0,0,1,.45-2A10.23,10.23,0,0,1,283,155.15Z"/><path class="cls-15" d="M287.21,139.41c-.2,2.25-.4,4.27-.58,6.06-3.36.36-7,.9-8.62,4.32a10.54,10.54,0,0,0-.81,4.06c-1,16.07.7,32.16,1.1,48.26h-1.69s-3.31-39.82-3.68-45.22c-.49-.77-1.61-9.45-2.08-16.52a2.71,2.71,0,0,1,.37-.69,4.28,4.28,0,0,1,2.85-1.29,33.54,33.54,0,0,1,12.15.28Z"/><polygon class="cls-31" points="253.82 200.31 254.54 205.4 258.79 206.09 259.83 200.31 253.82 200.31"/><path class="cls-16" d="M270.72,138.09c-.19,1.33-.93,4.15-1.73,7.21-1.09,4.19-2.29,8.83-2.36,10.66-.39,11.1-3.41,34.3-6.24,45.62-.07.28-3.79-.08-5.93-.32L253,201.1s.91-44.7,1.56-60.1a13.39,13.39,0,0,1,1.11-5.69,7.16,7.16,0,0,1,7.27-3.69C271.51,133,271.56,132.46,270.72,138.09Z"/><path class="cls-17" d="M269,145.3c-.49,2.33-1,4.64-1.48,7a28.21,28.21,0,0,0-.54,3.48c0,1.16-.06,2.37-.13,3.56-.1,2.38-.3,4.75-.5,7.12s-.48,4.74-.75,7.1c-.15,1.18-.3,2.36-.46,3.54s-.31,2.36-.49,3.53c-.35,2.36-.72,4.71-1.14,7.05a135.9,135.9,0,0,1-3.11,13.93c.46-2.34.9-4.67,1.26-7s.74-4.69,1.08-7,.67-4.69,1-7.05.62-4.7.89-7.06.55-4.71.81-7.07.48-4.72.67-7.08c.11-1.19.15-2.35.25-3.56a29.18,29.18,0,0,1,.71-3.54Q267.95,148.71,269,145.3Z"/><path class="cls-15" d="M262.53,155.8a9.82,9.82,0,0,1-.55,1.87,10.19,10.19,0,0,1-.87,1.75,9.17,9.17,0,0,1,.56-1.87A10.13,10.13,0,0,1,262.53,155.8Z"/><path class="cls-15" d="M270.72,138.09c-.19,1.33-.93,4.15-1.73,7.21-4.51.7-7.87,4.16-9.69,8.25-1.93,4.34-2.27,9.2-2.58,13.93q-1,15.26-2,30.52c-.07,1.09-.14,2.17-.24,3.26L253,201.1s.91-44.7,1.56-60.1a13.39,13.39,0,0,1,1.11-5.69,7.16,7.16,0,0,1,7.27-3.69C271.51,133,271.56,132.46,270.72,138.09Z"/><path class="cls-16" d="M283.7,210.58l-6.53,0-2.94,0c.1-2.31,1.49-4.35,2.8-6.25a3.61,3.61,0,0,1,.91-1,.74.74,0,0,1,.21-.13,2.15,2.15,0,0,1,2.21.3c.59.44.86,1.13,1.36,1.6a2.24,2.24,0,0,0,.32-.66c.06-.14.17-.32.32-.29a.3.3,0,0,1,.2.15C283.88,206,283.93,208.42,283.7,210.58Z"/><path class="cls-15" d="M278.7,206c-.16.3-.56.56-.74.89a5.74,5.74,0,0,0-.64,2.22c-.06.49-.09,1-.15,1.46l-2.94,0c.1-2.31,1.49-4.35,2.8-6.25a3.61,3.61,0,0,1,.91-1,12.69,12.69,0,0,1,.08,2.14C278.48,205.59,278.94,205.54,278.7,206Z"/><path class="cls-16" d="M260.54,210.7c-3,0-5.92,0-8.87,0-1.91,0-3.81,0-5.72,0a3.21,3.21,0,0,1-.53-.07,6.25,6.25,0,0,1,3.7-4.46c1.13-.5,2.46-.72,3.36-1.52.35-.3.1-1.26.54-1.46a1,1,0,0,1,.35-.06,5.79,5.79,0,0,1,2.22.93c.42.25.79.55,1.19.81a4.09,4.09,0,0,0,.59.3,2.15,2.15,0,0,0,1.12.16c.21,0,.69-.35.85-.32.5.11.9,1.41,1,1.8S260.91,210.7,260.54,210.7Z"/><path class="cls-15" d="M255.68,206.45a6,6,0,0,0-2.88,2.16,9.92,9.92,0,0,0-1.13,2.07c-1.91,0-3.81,0-5.72,0a3.21,3.21,0,0,1-.53-.07,6.25,6.25,0,0,1,3.7-4.46c1.13-.5,2.46-.72,3.36-1.52.35-.3.1-1.26.54-1.46a1,1,0,0,1,.35-.06,3.3,3.3,0,0,1,.29.41,9.5,9.5,0,0,1,.7,1.52A3,3,0,0,0,255.68,206.45Z"/><path class="cls-32" d="M262.53,59.68,258.1,78.86S255.72,89.46,253,89c-2.55-.44-17.17,4.3-19,3.75l-.17,0L232,88.12c5.7-2.53,17.54-7.44,17.54-7.44L258,65Z"/><path class="cls-33" d="M262.53,59.68,258.1,78.86s-2,9.08-4.59,10c-2.3.86-17.67,4.37-19.48,3.82,1-.21.29-1.15,1.45-1.44,3.73-.93,9.3-6.65,13.12-7.21,0-.37,0-.74.07-1.11a1.1,1.1,0,0,0,1.31.84,3,3,0,0,0,1.47-.9c2.88-2.66,1.85-9.4,3.66-12.87.9-1.71,2.56-4.73,3.61-6.31A31.13,31.13,0,0,1,262.53,59.68Z"/><path class="cls-33" d="M248.88,81.43c.06.55.1,1.07.2,1.58s.24,1,.39,1.55a3.15,3.15,0,0,1-.59-3.13Z"/><path class="cls-32" d="M291,129.89c-.43,5.54-1.75,14.4-1.75,14.4a66.61,66.61,0,0,0-22.59-.49l-.64-5.68-.89,5.54a22.76,22.76,0,0,0-5.18-.76,23.24,23.24,0,0,0-6.26.67s-1.16-30.86,5-43.08-3.2-11.49-3.53-16.83,6-22.6,7.35-24c1.19-1.21,5.35-2,6.37-2.18l.23,0,7.89-1,.81,0c3,.34,9.86,3.36,10.49,6s5.08,8.9-1.1,22.74c-6.37,14.28-3.15,9.51-.21,17.43S291.4,124.34,291,129.89Z"/><path class="cls-34" d="M287.22,85.1c-.92,2.38-1.93,4.73-2.71,7.15-.19.6-.37,1.21-.5,1.82a5.22,5.22,0,0,0-.12,1.79,3.78,3.78,0,0,0,.73,1.58c.36.51.76,1,1.11,1.58a17.05,17.05,0,0,1,1.74,3.5c.44,1.22.84,2.44,1.18,3.69a74.71,74.71,0,0,1,1.61,7.53c.41,2.54.73,5.08.94,7.64.1,1.28.19,2.56.23,3.85s.05,2.57,0,3.86c-.18,2.58-.55,5.1-.91,7.64s-.79,5.05-1.27,7.56c.26-2.54.55-5.08.78-7.62q.19-1.9.36-3.81c.1-1.27.23-2.55.26-3.8a68.88,68.88,0,0,0-.37-7.59c-.24-2.53-.57-5.06-1-7.56s-.91-5-1.54-7.46a26.33,26.33,0,0,0-2.67-7c-.32-.53-.68-1-1-1.59a5.75,5.75,0,0,1-.5-.88,3.9,3.9,0,0,1-.29-1,5.78,5.78,0,0,1,.21-2,16.64,16.64,0,0,1,.6-1.85c.46-1.2,1-2.37,1.52-3.53S286.66,86.24,287.22,85.1Z"/><path class="cls-35" d="M283.46,92.22a12.09,12.09,0,0,1-3.19,6.61c-2.18,2.29-5.16,3.61-7.92,5.18a44.39,44.39,0,0,0-6.66,4.65,11.31,11.31,0,0,0-4.06,5.8c-1.43,4.64-1.17,9.57-1.4,14.36s-.32,9.38-.3,14.08a23.24,23.24,0,0,0-6.26.67s-1.16-30.86,5-43.08-3.2-11.49-3.53-16.83,6-22.6,7.35-24c1.19-1.21,5.35-2,6.37-2.18a14.24,14.24,0,0,1-.89,1.26l-.82.92A32.12,32.12,0,0,0,257.87,82a5.15,5.15,0,0,0,.27,2,4.94,4.94,0,0,0,3.3,2.44A17.92,17.92,0,0,0,280.18,81a10.11,10.11,0,0,0,.5,5.39c.57,1.52,2,1.76,2.68,3.05a2.53,2.53,0,0,1,.22,1.19A12.31,12.31,0,0,1,283.46,92.22Z"/><path class="cls-33" d="M268.61,92a10.36,10.36,0,0,1-5.34.16c.9,0,1.79,0,2.67-.06S267.71,92,268.61,92Z"/><path class="cls-33" d="M263.06,89.68a20,20,0,0,0,7.92,0,10.71,10.71,0,0,1-4,.74A10.9,10.9,0,0,1,263.06,89.68Z"/><path class="cls-33" d="M278.23,133.2a9.69,9.69,0,0,1-4.64-.95c-2.65-1.6-2.11-13.51-2.09-14v-.16l13.54.38v.17c0,.46-.36,11.17-1.14,12.88a3.11,3.11,0,0,1-1.86,1.2A13.69,13.69,0,0,1,278.23,133.2Zm-6.4-14.79c-.06,1.46-.39,12.15,1.93,13.56,1.84,1.11,5.84,1.13,8.18.41a2.63,2.63,0,0,0,1.65-1c.71-1.54,1.07-11.19,1.11-12.58Z"/><path class="cls-33" d="M256.82,132.33a3.18,3.18,0,0,1-2.53-1c-1.27-1.62.4-13.53.47-14l0-.15,7.54.43,0,.18c-.07.46-1.5,11.18-2.12,12.87a3.1,3.1,0,0,1-2.56,1.65A5.49,5.49,0,0,1,256.82,132.33Zm-1.75-14.84c-.49,3.52-1.49,12.4-.52,13.63a3.24,3.24,0,0,0,3,.82,2.78,2.78,0,0,0,2.29-1.43c.57-1.55,1.89-11.19,2.08-12.62Z"/><path class="cls-33" d="M266.35,74.28A22.79,22.79,0,0,0,264.07,82a14.18,14.18,0,0,0,.14,4,16.23,16.23,0,0,0,1.34,3.78,28.79,28.79,0,0,1,1.57,3.75,18.18,18.18,0,0,1,.73,4,41.49,41.49,0,0,1-.46,8.11c-.38,2.67-.74,5.34-1,8s-.45,5.37-.59,8.07-.19,5.39-.17,8.09.07,5.39.21,8.09c-.2-2.69-.32-5.39-.38-8.09s0-5.4.09-8.1a150.56,150.56,0,0,1,1.5-16.14,40.93,40.93,0,0,0,.49-8,17.62,17.62,0,0,0-.71-3.94,29.78,29.78,0,0,0-1.52-3.73A16.69,16.69,0,0,1,264,86a14.53,14.53,0,0,1-.09-4.06A22.82,22.82,0,0,1,266.35,74.28Z"/><path class="cls-33" d="M267.44,76c-.14.39-.43.65-.67.57s-.31-.46-.17-.86.43-.66.66-.58S267.57,75.58,267.44,76Z"/><path class="cls-33" d="M265.5,84.47c0,.42-.19.77-.43.77s-.45-.33-.46-.75.19-.77.43-.77S265.49,84.05,265.5,84.47Z"/><path class="cls-33" d="M268.7,94.8c.08.41,0,.78-.28.84s-.51-.25-.59-.66,0-.78.28-.83S268.61,94.39,268.7,94.8Z"/><path class="cls-33" d="M268.7,107.92c0,.42-.2.76-.45.76s-.44-.34-.43-.76.2-.76.45-.76S268.71,107.5,268.7,107.92Z"/><path class="cls-33" d="M267.45,122.75c0,.42-.21.75-.45.75s-.44-.34-.44-.76.21-.76.46-.76S267.46,122.33,267.45,122.75Z"/><polygon class="cls-5" points="269.07 77.67 274.95 78.85 275.94 75.81 270.06 74.63 269.07 77.67"/><polygon class="cls-5" points="274.43 73.84 273.19 75.83 272.3 75.59 273.18 73.39 274.43 73.84"/><path class="cls-15" d="M265.4,85.57l-6.33,1.14a.61.61,0,0,1-.7-.49h0a.61.61,0,0,1,.49-.7l6.32-1.14a.6.6,0,0,1,.7.49h0A.61.61,0,0,1,265.4,85.57Z"/><path class="cls-15" d="M263.6,85.16a1.69,1.69,0,1,1-1.68-1.69A1.69,1.69,0,0,1,263.6,85.16Z"/><path class="cls-36" d="M261,85.32h6.57a5.2,5.2,0,0,1,5.2,5.2V109.3a2.23,2.23,0,0,1-2.23,2.23H258a2.23,2.23,0,0,1-2.23-2.23V90.52A5.2,5.2,0,0,1,261,85.32Z" transform="translate(-12.6 44.88) rotate(-9.48)"/><path class="cls-31" d="M261.47,96.69a4.23,4.23,0,0,0-1.09-.47c-1-.27-2.1-.07-3-.53-.19-.09-.45-.19-.56,0a.27.27,0,0,0,0,.18c0,.66.61,1.15,1.15,1.54a2.44,2.44,0,0,1-1.42.66,4.13,4.13,0,0,0-1.51.49,1.17,1.17,0,0,0-.52,1.37c.08.17.23.32.23.51a1,1,0,0,1-.11.38,1.44,1.44,0,0,0,.15,1.35,1.42,1.42,0,0,1,.29.46c.09.34-.16.76.06,1s.32.17.46.28c.31.26.16.79.38,1.13a1.11,1.11,0,0,0,.91.38,9.75,9.75,0,0,0,4.63-1,4.82,4.82,0,0,0,2.57-1.78c1.06-1.9-.22-4.47-1.88-5.53Z"/><path class="cls-37" d="M258.68,100.28a9.82,9.82,0,0,1,2.81-3.58h0a4.23,4.23,0,0,0-1.09-.47c-1-.27-2.1-.07-3-.53-.19-.09-.45-.19-.56,0a.27.27,0,0,0,0,.18c0,.66.61,1.15,1.15,1.54a2.44,2.44,0,0,1-1.42.66,4.13,4.13,0,0,0-1.51.49,1.17,1.17,0,0,0-.52,1.37c.08.17.23.32.23.51a1,1,0,0,1-.11.38,1.44,1.44,0,0,0,.15,1.35,1.42,1.42,0,0,1,.29.46c.09.34-.16.76.06,1s.32.17.46.28c.31.26.16.79.38,1.13a1.11,1.11,0,0,0,.91.38,8.27,8.27,0,0,0,3.67-.63l-.48-.15C258.34,104.32,257.67,102,258.68,100.28Z"/><path class="cls-32" d="M288.37,88.65c-.95,1.95-1.06,2.75-2.42,4.44s-4.58,3.18-9.36,4.75c-1.63.54-9.22,3.21-11.25,4.19L264,97c1.24-.66,1.89-.73,5.23-2.23s4.69-2.07,7.32-4.58a10.46,10.46,0,0,0,1.8-2,11.8,11.8,0,0,0,1.2-3.26c1.85-7,1.14-11.33,3.14-18.29.47-1.66.9-4.62,2.62-5.54a2,2,0,0,1,.33-.15,1.76,1.76,0,0,1,1.11,0c3.44,1,3.88,6.09,4,9.07C290.93,76.91,290.79,83.68,288.37,88.65Z"/><path class="cls-33" d="M267.37,100.53c1.76-.45,5.75-2,6.61-2.34,2.95-1.18,6.28-1.65,9.41-3.35a46,46,0,0,1-9.81,4c-1.63.54-8,3.27-9.35,3.67l-1.36-5c2-.66,10.69-4.75,13.33-7.26a11.17,11.17,0,0,0,1.8-2,11.8,11.8,0,0,0,1.2-3.26c1.85-7,1.53-11.33,3.53-18.29.47-1.66.9-4.62,2.62-5.54A6.87,6.87,0,0,0,283.86,64c-2.18,7.14-1.37,11.32-1.58,18.79,0,1.38,0,2-.13,3.4a6.05,6.05,0,0,1-.78,3,6.63,6.63,0,0,1-1.31,1.43C277.57,92.56,269,96.88,267.37,100.53Z"/><path class="cls-33" d="M276.83,89.43a5,5,0,0,1,2.46.54,4.89,4.89,0,0,1-2.46-.54Z"/><path class="cls-38" d="M286.66,92.27a28.19,28.19,0,0,0,2.72-8.41,123.6,123.6,0,0,0,1.33-13.64,15.34,15.34,0,0,0-1.18-5.93,6.26,6.26,0,0,0-1-2,4,4,0,0,0-1.78-1.37l.56.16c.19.07.36.17.54.25a4.16,4.16,0,0,1,.94.73,6.92,6.92,0,0,1,1.33,2,17.06,17.06,0,0,1,1.21,6.12A85.1,85.1,0,0,1,290,84,19.79,19.79,0,0,1,286.66,92.27Z"/><path class="cls-5" d="M278.14,56.46s-7.3,13.84-10.44,16.33.05-14.83.05-14.83Z"/><path class="cls-37" d="M278.14,56.45s-.53,1-1.37,2.31c-1.54,2.38-4.13,5.8-6.43,6.07s-2.66-2.43-2.7-4.51a17.1,17.1,0,0,1,.11-2.36,2.16,2.16,0,0,0,1.18-1.48,4,4,0,0,0-.16-2.11l6.78-6.56a7.26,7.26,0,0,0-.08,1.9C275.68,52.79,277.16,56.77,278.14,56.45Z"/><path class="cls-39" d="M275.47,49.71c-.1.28-.2.51-.24.65A20.21,20.21,0,0,1,269,59.58a3.59,3.59,0,0,1-1.37.74,17.1,17.1,0,0,1,.11-2.36,2.16,2.16,0,0,0,1.18-1.48,4,4,0,0,0-.16-2.11l6.78-6.56A7.26,7.26,0,0,0,275.47,49.71Z"/><path class="cls-31" d="M277.47,42.9c-.47,2.26-1.57,4.31-2.22,6.5a10.68,10.68,0,0,1-3.45,5.28,6.55,6.55,0,0,1-1.9,1.1,4.35,4.35,0,0,1-1.65.26,3,3,0,0,1-2-.94c-2.54-2.6-4.42-4.71-5.54-8.25s-2.61-7.42-1.18-11.05c.06-.17.14-.35.22-.52A8.52,8.52,0,0,1,264,31.11a10.26,10.26,0,0,1,4.36-.74,10.63,10.63,0,0,1,3.53.67,8.72,8.72,0,0,1,3.52,2.57,9.5,9.5,0,0,1,1.43,2.3A11.47,11.47,0,0,1,277.47,42.9Z"/><path class="cls-39" d="M268.25,56a3,3,0,0,1-2-.94c-2.54-2.6-4.42-4.71-5.54-8.25s-2.61-7.42-1.18-11.05a6.59,6.59,0,0,1,4.77-1.54c1.52.17,1.32,1.27.81,2.41a17.81,17.81,0,0,0-1.78,4.68,5.59,5.59,0,0,1-.27,1.29c-.27.64-.84,1.19-.78,1.87a3.44,3.44,0,0,0,.32,1,7.17,7.17,0,0,1,.26,1.79A11.58,11.58,0,0,0,268.25,56Z"/><path class="cls-40" d="M268,44.14a.59.59,0,1,0,.24-.86A.63.63,0,0,0,268,44.14Z"/><path class="cls-40" d="M261.58,45.18a.63.63,0,0,0,.85.27.65.65,0,0,0,.15-.88.59.59,0,1,0-1,.61Z"/><path class="cls-41" d="M267,48.7a2.46,2.46,0,0,1-.83.4,1.8,1.8,0,0,1-.95,0,1.78,1.78,0,0,1-.81-.51,1.51,1.51,0,0,1-.33-.87,2.61,2.61,0,0,0,.52.69,1.36,1.36,0,0,0,.33.22,3,3,0,0,0,.38.15,2,2,0,0,0,.82.07C266.41,48.82,266.7,48.75,267,48.7Z"/><path class="cls-41" d="M269.83,50.24a6.18,6.18,0,0,1-1.24,1,3.44,3.44,0,0,1-1.57.52,4.07,4.07,0,0,1-1.63-.21,5.4,5.4,0,0,1-1.44-.72c.52.12,1,.25,1.53.34a5.88,5.88,0,0,0,1.5.09,4.38,4.38,0,0,0,1.44-.37C268.88,50.72,269.34,50.46,269.83,50.24Z"/><path class="cls-41" d="M268.55,52.8a1.71,1.71,0,0,1-.94.34,1.61,1.61,0,0,1-1-.22,5.44,5.44,0,0,1,.95-.11A6.24,6.24,0,0,1,268.55,52.8Z"/><path class="cls-15" d="M267,40.13a1.21,1.21,0,0,0-.53.12c-.13.07-.31.24-.22.4s.79.19,1,.17a17,17,0,0,1,4.25.46,12.14,12.14,0,0,0-1.91-.87A8.36,8.36,0,0,0,267,40.13Z"/><path class="cls-15" d="M259.64,43.82a2.13,2.13,0,0,1,.21-.58,4,4,0,0,1,.79-1.23,4.2,4.2,0,0,1,1.26-.81c.24-.07.88,0,.64.42-.12.21-.49.34-.7.44a5,5,0,0,0-.86.45A6,6,0,0,0,259.64,43.82Z"/><path class="cls-15" d="M274.8,42.17c-.35-1.29-.71-2.58-1.06-3.87a9.62,9.62,0,0,0,.4,3.62,12,12,0,0,1-3.72-6.55,11,11,0,0,1-4.15,2.2,16.22,16.22,0,0,1,1-2.07,10.06,10.06,0,0,1-1.49,1.18,7.24,7.24,0,0,0-1.18,1.23l-2.86,3.84c.33-1,.71-1.93,1.12-2.87a9.58,9.58,0,0,0-2.29,4.39A16.28,16.28,0,0,0,260.1,46c0,.41-.33,2.47,0,2.72-.42-.33-1.92-5.56-2.41-7.67a21.82,21.82,0,0,0,0,3.44,42.7,42.7,0,0,1-1.85-5.68,16.24,16.24,0,0,1,1-9.51,6.45,6.45,0,0,1,1-1.64A6.53,6.53,0,0,1,260.71,26a15.21,15.21,0,0,1,11.91,1,1.24,1.24,0,0,0,.93.23,1.63,1.63,0,0,0,.43-.27c1.13-.81,2.74-.29,3.83.57a7.55,7.55,0,0,1,2.8,4.95c.31,2.47-.61,4.9-1.5,7.22q-1.17,3-2.32,6a6.63,6.63,0,0,0-1.1-1.79A3.64,3.64,0,0,1,274.8,42.17Z"/><path class="cls-16" d="M273.87,28.87a2.47,2.47,0,0,1,1.87-.21,3.31,3.31,0,0,1,1.65,1,4.51,4.51,0,0,1,.92,1.69,6.3,6.3,0,0,1,.23,1.88,10.84,10.84,0,0,0-.48-1.8,5,5,0,0,0-.92-1.54,3.47,3.47,0,0,0-1.48-1A2.88,2.88,0,0,0,273.87,28.87Z"/><path class="cls-16" d="M273.61,31.34a1.56,1.56,0,0,1,1.07-.13,2.37,2.37,0,0,1,1,.51,3.75,3.75,0,0,1,.72.82,5.3,5.3,0,0,1,.53,1,5.77,5.77,0,0,1,.5,2.12,5.58,5.58,0,0,1,0,1.08,5.86,5.86,0,0,1-.26,1,7.79,7.79,0,0,0,.05-2.1,7.4,7.4,0,0,0-.55-2,5.32,5.32,0,0,0-.49-.91,4.61,4.61,0,0,0-.63-.81,2.3,2.3,0,0,0-.86-.55A1.62,1.62,0,0,0,273.61,31.34Z"/><path class="cls-16" d="M273.29,33.44a1.87,1.87,0,0,1,1.31,2.36,3.86,3.86,0,0,0-.44-1.29A4.18,4.18,0,0,0,273.29,33.44Z"/><path class="cls-16" d="M269.65,31.8a11.11,11.11,0,0,0-3,1.21,11.43,11.43,0,0,0-2.51,2,6.53,6.53,0,0,1,2.34-2.3A6.43,6.43,0,0,1,269.65,31.8Z"/><path class="cls-16" d="M269.6,30.18a11.31,11.31,0,0,0-3.08.87,12,12,0,0,0-2.71,1.66,11.65,11.65,0,0,0-2.2,2.29,16.72,16.72,0,0,0-1.41,2.88c.15-.52.31-1,.49-1.55a8.58,8.58,0,0,1,.7-1.47,10.35,10.35,0,0,1,2.21-2.41,10.62,10.62,0,0,1,2.82-1.64,10.84,10.84,0,0,1,1.57-.46A8.71,8.71,0,0,1,269.6,30.18Z"/><path class="cls-16" d="M270.33,28.34c-1.16.13-2.33.28-3.47.52a16.49,16.49,0,0,0-3.3,1.06,10.7,10.7,0,0,0-2.88,1.91,8.29,8.29,0,0,0-2,2.82A7,7,0,0,1,259.4,33a8.69,8.69,0,0,1,1.1-1.4,9.85,9.85,0,0,1,2.92-2,13.45,13.45,0,0,1,3.4-1A21.75,21.75,0,0,1,270.33,28.34Z"/><path class="cls-16" d="M266.22,26.82c-.75.09-1.5.19-2.24.34a13.31,13.31,0,0,0-2.16.61,9.57,9.57,0,0,0-2,1.05,7.2,7.2,0,0,0-.86.71,6.7,6.7,0,0,0-.76.84,5.45,5.45,0,0,1,.64-.95,7.07,7.07,0,0,1,.83-.81,7.65,7.65,0,0,1,2-1.15,9.65,9.65,0,0,1,2.24-.55A12.43,12.43,0,0,1,266.22,26.82Z"/><path class="cls-31" d="M276.91,41.65a2,2,0,0,1,1.54,1.4,3.84,3.84,0,0,1,0,2.15,4.22,4.22,0,0,1-2.42,3c-.28.1-.67.11-.8-.16a.83.83,0,0,1,0-.31C275.22,46.31,274.44,41.42,276.91,41.65Z"/><path class="cls-39" d="M276.74,42.45a1,1,0,0,1,1,.4,1.43,1.43,0,0,1,.19.57,3.74,3.74,0,0,1-.7,2.82,1.47,1.47,0,0,1-.44.42,1.86,1.86,0,0,1-.57.21c-.08,0-.16,0-.22,0a.26.26,0,0,1-.06-.13l-.08-.38a.91.91,0,0,0,.37-.63,1.1,1.1,0,0,0-.14-.42C275.78,44.53,275.65,42.75,276.74,42.45Z"/></g><path class="cls-15" d="M223.39,94.05a2.47,2.47,0,0,0,.53-.63.47.47,0,0,1,.78,0h0c.17.23.34.45.53.67a.46.46,0,0,1-.13.73,4.58,4.58,0,0,0-.7.44.49.49,0,0,1-.64-.07l-.39-.45A.47.47,0,0,1,223.39,94.05Z"/><path class="cls-15" d="M224.46,97.36h0l-3-3.59h0a1.12,1.12,0,0,1,1.58.13l1.57,1.89A1.1,1.1,0,0,1,224.46,97.36Z"/><path class="cls-37" d="M225.66,87.45a2.24,2.24,0,0,0-.81.24,2.38,2.38,0,0,0-.72.76,6.5,6.5,0,0,0-1,1.67,16,16,0,0,0-.5,2,.92.92,0,0,0,0,.37.79.79,0,0,0,.13.26,2.36,2.36,0,0,1,.33,1.25.64.64,0,0,0,.63-.12,1.81,1.81,0,0,0,.4-.54,6.3,6.3,0,0,0,.74-1.63.34.34,0,0,1,.09-.18.28.28,0,0,1,.2,0c.77,0,1.54,0,2.31,0,.39,0,1.34-.08,1.17.51s-2.13.85-2.6,1.22a2.21,2.21,0,0,0-1,2.06c1.52-.44,2.78.13,4.23,0A4.08,4.08,0,0,0,231,94.7c1-.54,2.33-1,3-1.92s-.15-2.43-.69-3.15c-.94-1.22-2.38-1.55-3.81-1.84A11.88,11.88,0,0,0,225.66,87.45Z"/><path class="cls-16" d="M268.28,70.88a.89.89,0,0,0,.15.27.6.6,0,0,0,.76.13c.4-.28.26-2.49.28-3.1a1.36,1.36,0,0,0-.07-.64.54.54,0,0,0-.83-.2c-.23.2-.19.48-.21.76-.05.7-.13,1.39-.14,2.09A2.31,2.31,0,0,0,268.28,70.88Z"/><path class="cls-16" d="M232,104.37c-3.89,0-4.87-2.78-5.9-5.71a16.53,16.53,0,0,0-1.76-3.9l.32-.21a17,17,0,0,1,1.8,4c1.1,3.12,2,5.82,6.37,5.42a20.65,20.65,0,0,0,4.49-1.12,27.81,27.81,0,0,1,3-.89,36.54,36.54,0,0,1,8-.87h1.09a20.44,20.44,0,0,0,3.58-.15c4.93-.81,11.91-7.47,12.51-13s2.79-12,3.17-17.5l.38,0c-.38,5.53-2.73,12-3.17,17.51-.46,5.75-7.71,12.49-12.83,13.33a20.33,20.33,0,0,1-3.65.16h-1a37,37,0,0,0-8,.86,30.22,30.22,0,0,0-3,.88,21,21,0,0,1-4.58,1.14C232.54,104.36,232.25,104.37,232,104.37Z"/><path class="cls-15" d="M279.94,47.66a5,5,0,0,0-1.1-2.62,2.23,2.23,0,0,0-2.61-.69v.34a2.11,2.11,0,0,1,2.33.61,4.81,4.81,0,0,1,1,2.43c.59,3.57-.37,6.89-2.72,10.75-1.9,3.12-6.81,8.2-7.78,9.19-.51-.71-2.31-3.2-3.15-4.46A22.15,22.15,0,0,1,263,58a16.84,16.84,0,0,1-.59-7.46A4,4,0,0,1,262,50a18.87,18.87,0,0,0,.6,8.13,25,25,0,0,0,3,5.29c1,1.47,3.27,4.64,3.3,4.67l.14.19.16-.17c.06-.06,5.88-6,8-9.43C279.57,54.73,280.55,51.32,279.94,47.66Z"/><path class="cls-15" d="M276.35,43.9a.48.48,0,0,0-.24.06,13,13,0,0,1,0,1.31.73.73,0,0,0,.38-.08.84.84,0,0,0,.52-.83A.62.62,0,0,0,276.35,43.9Z"/><path class="cls-11" d="M270.39,45.54l-3.13.54a1.17,1.17,0,0,1-1.29-.86l-.25-.94a.94.94,0,0,1,.74-1.21l3.13-.54a1.17,1.17,0,0,1,1.3.85l.25.95A1,1,0,0,1,270.39,45.54Zm.48-1.18-.24-.91a.92.92,0,0,0-.7-.67.87.87,0,0,0-.32,0l-3,.52a.74.74,0,0,0-.5.34.83.83,0,0,0-.09.62l.25.91a.94.94,0,0,0,.69.67,1.22,1.22,0,0,0,.33,0l3-.52A.75.75,0,0,0,270.87,44.36Z"/><path class="cls-11" d="M263.55,46.62l-2.87.44a1.16,1.16,0,0,1-1.27-.88l-.23-1A.94.94,0,0,1,260,44l2.86-.44a1.17,1.17,0,0,1,1.28.88l.23,1A.94.94,0,0,1,263.55,46.62Zm.53-1.17-.22-.92a.94.94,0,0,0-.71-.69.65.65,0,0,0-.31,0l-2.8.43a.75.75,0,0,0-.62,1l.22.92a.93.93,0,0,0,.71.69.81.81,0,0,0,.31,0l2.8-.43a.75.75,0,0,0,.52-.33A.8.8,0,0,0,264.08,45.45Z"/><polygon class="cls-11" points="270.17 42.66 275.8 40.78 275.66 41.22 270.62 43.1 270.17 42.66"/><path class="cls-11" d="M264,44.42l-.14-.12a1.32,1.32,0,0,1,.9-.48,1.51,1.51,0,0,1,1,.31l-.11.15a1.31,1.31,0,0,0-.9-.27A1.08,1.08,0,0,0,264,44.42Z"/><rect class="cls-16" x="493.99" y="153.52" width="46.51" height="56.16"/><rect class="cls-15" x="493.99" y="167.53" width="46.51" height="1.28"/><rect class="cls-15" x="493.99" y="181.89" width="46.51" height="1.28"/><rect class="cls-17" x="512.49" y="156.29" width="9.51" height="1.57"/><rect class="cls-17" x="512.49" y="170.88" width="9.51" height="1.57"/><rect class="cls-17" x="512.49" y="185.83" width="9.51" height="1.57"/><rect class="cls-17" x="437.07" y="146.32" width="8.32" height="45.77"/><rect class="cls-17" x="439.52" y="183.94" width="3.42" height="21.15"/><rect class="cls-15" x="439.52" y="192.09" width="3.42" height="1.21"/><rect class="cls-15" x="437.07" y="146.51" width="8.32" height="3.21"/><path class="cls-42" d="M474.35,142.39a4.15,4.15,0,0,1-4.15,4.14H421.72a4.15,4.15,0,0,1-4.15-4.14l3.89-54.14c0-2.29,2.4-5.85,4.69-5.85L474,82.11c2.29,0,4.44,4.32,4.44,6.61Z"/><path class="cls-43" d="M405.1,135.25h46.75A4.14,4.14,0,0,1,456,139.4v3a4.15,4.15,0,0,1-4.15,4.15H405.1a4.15,4.15,0,0,1-4.15-4.15v-3a4.14,4.14,0,0,1,4.14-4.14Z"/><path class="cls-44" d="M478.4,89c0-3.65-2.21-6.6-4.93-6.6h-1.42c-2.72,0-4.93,2.95-4.93,6.6l-3.88,46.26H452.61a4.3,4.3,0,0,0-4.22,4.38v2.5a4.3,4.3,0,0,0,4.22,4.39h17.68a4.3,4.3,0,0,0,4.22-4.39v-2.5a3.54,3.54,0,0,0,0-.46c0-.21,0-.43,0-.65Z"/><polygon class="cls-17" points="419.62 205.09 462.13 205.09 469.21 210.92 413.25 210.92 419.62 205.09"/><polygon class="cls-15" points="419.62 205.09 462.13 205.09 465.67 208 416.43 208 419.62 205.09"/><rect class="cls-45" x="332.69" y="117" width="158.91" height="3.43"/><rect class="cls-46" x="328.23" y="112.25" width="167.82" height="4.74"/><polygon class="cls-46" points="480.87 210.92 483.19 210.92 483.19 120.43 476.83 120.43 480.87 210.92"/><polygon class="cls-47" points="483.19 130.61 477.29 130.61 476.83 120.43 483.19 120.43 483.19 130.61"/><polygon class="cls-46" points="343.68 210.92 341.36 210.92 341.36 120.43 347.72 120.43 343.68 210.92"/><polygon class="cls-47" points="341.36 130.61 347.26 130.61 347.72 120.43 341.36 120.43 341.36 130.61"/><rect class="cls-47" x="332.69" y="117" width="158.91" height="1.14"/><path class="cls-48" d="M336.44,82.72A1.59,1.59,0,0,1,338,81.13h48a1.59,1.59,0,0,1,1.59,1.59l5.17,28a1.6,1.6,0,0,1-1.6,1.6h-48a1.6,1.6,0,0,1-1.6-1.6Z"/><path class="cls-48" d="M343.2,111.38a1,1,0,0,0,1,1H403.4a1,1,0,0,0,1-1h0a1,1,0,0,0-1-1H344.17a1,1,0,0,0-1,1Z"/><path class="cls-49" d="M336.44,82.72A1.59,1.59,0,0,1,338,81.13h48c.88,0-44.41,30.51-44.41,29.63Z"/><ellipse class="cls-50" cx="386.06" cy="36.21" rx="17.13" ry="17.28"/><path class="cls-51" d="M387.28,33.74A1.24,1.24,0,1,1,386.06,35,1.23,1.23,0,0,1,387.28,33.74Z"/><path class="cls-51" d="M385.93,35a1.35,1.35,0,1,0,1.35-1.37A1.36,1.36,0,0,0,385.93,35Zm.26,0a1.09,1.09,0,1,1,1.09,1.1A1.1,1.1,0,0,1,386.19,35Z"/><path class="cls-5" d="M387.28,19.23A15.75,15.75,0,1,1,371.67,35,15.68,15.68,0,0,1,387.28,19.23Z"/><path class="cls-52" d="M370.52,35a16.77,16.77,0,1,0,16.76-16.92A16.85,16.85,0,0,0,370.52,35Zm2.31,0a14.45,14.45,0,1,1,14.45,14.58A14.53,14.53,0,0,1,372.83,35Z"/><path class="cls-52" d="M387,34.46l7.86,5.2a.4.4,0,0,1,.12.54.39.39,0,0,1-.54.11l-7.29-4.82-7,8.39a.37.37,0,0,1-.29.14.38.38,0,0,1-.25-.09.4.4,0,0,1-.05-.55Z"/><path class="cls-52" d="M387.28,18.8a.64.64,0,0,1,.64.65v5a.64.64,0,1,1-1.28,0v-5A.64.64,0,0,1,387.28,18.8Z"/><path class="cls-52" d="M387.28,45.47a.64.64,0,0,1,.64.65v4.39a.64.64,0,1,1-1.28,0V46.12A.64.64,0,0,1,387.28,45.47Z"/><path class="cls-52" d="M371.69,34.33h5a.65.65,0,0,1,0,1.3h-5a.65.65,0,0,1,0-1.3Z"/><path class="cls-52" d="M398.12,34.33h4.35a.65.65,0,1,1,0,1.3h-4.35a.65.65,0,0,1,0-1.3Z"/></g></g></g></svg>